%FSLAX25Y25*%
%MOIN*%
G70*
G01*
G75*
G04 Layer_Color=2752767*
%ADD10R,0.23622X0.23622*%
%ADD11R,0.06693X0.04331*%
%ADD12O,0.00984X0.06102*%
%ADD13O,0.06102X0.00984*%
%ADD14R,0.07087X0.07480*%
%ADD15R,0.00945X0.05315*%
%ADD16R,0.08268X0.06299*%
%ADD17R,0.05512X0.04331*%
%ADD18R,0.04331X0.05512*%
%ADD19R,0.04331X0.06693*%
%ADD20R,0.03937X0.11417*%
%ADD21R,0.40945X0.31496*%
%ADD22R,0.03543X0.02756*%
%ADD23R,0.02756X0.03543*%
%ADD24R,0.02362X0.03347*%
%ADD25R,0.05906X0.05906*%
%ADD26R,0.14370X0.05709*%
%ADD27R,0.13189X0.05315*%
%ADD28O,0.02756X0.09055*%
%ADD29R,0.00984X0.04429*%
%ADD30R,0.04429X0.00984*%
%ADD31C,0.06000*%
%ADD32C,0.04000*%
%ADD33C,0.01000*%
%ADD34C,0.00800*%
%ADD35C,0.10000*%
%ADD36C,0.03000*%
%ADD37C,0.00700*%
%ADD38C,0.05000*%
%ADD39C,0.02500*%
%ADD40C,0.02000*%
%ADD41R,0.03937X0.03937*%
%ADD42C,0.03937*%
%ADD43R,0.06693X0.06693*%
%ADD44C,0.06693*%
%ADD45C,0.05118*%
%ADD46C,0.05906*%
%ADD47R,0.06299X0.06299*%
%ADD48C,0.06299*%
%ADD49C,0.10600*%
%ADD50R,0.10600X0.10600*%
%ADD51R,0.05118X0.05118*%
%ADD52C,0.05118*%
%ADD53R,0.08600X0.08600*%
%ADD54C,0.08600*%
%ADD55C,0.07200*%
%ADD56R,0.10600X0.10600*%
%ADD57R,0.03976X0.03976*%
%ADD58C,0.03976*%
%ADD59C,0.05500*%
%ADD60R,0.05500X0.05500*%
%ADD61R,0.05500X0.05500*%
%ADD62C,0.05000*%
%ADD63C,0.12992*%
%ADD64R,0.03000X0.05000*%
%ADD65R,0.10512X0.10000*%
%ADD66C,0.00984*%
%ADD67C,0.02362*%
%ADD68C,0.00787*%
%ADD69C,0.00394*%
%ADD70C,0.00591*%
%ADD71R,0.24422X0.24422*%
%ADD72R,0.07493X0.05131*%
%ADD73O,0.01784X0.06902*%
%ADD74O,0.06902X0.01784*%
%ADD75R,0.07887X0.08280*%
%ADD76R,0.01745X0.06115*%
%ADD77R,0.09068X0.07099*%
%ADD78R,0.06312X0.05131*%
%ADD79R,0.05131X0.06312*%
%ADD80R,0.05131X0.07493*%
%ADD81R,0.04737X0.12217*%
%ADD82R,0.41745X0.32296*%
%ADD83R,0.04343X0.03556*%
%ADD84R,0.03556X0.04343*%
%ADD85R,0.03162X0.04147*%
%ADD86R,0.06706X0.06706*%
%ADD87R,0.15170X0.06509*%
%ADD88R,0.13989X0.06115*%
%ADD89O,0.03556X0.09855*%
%ADD90R,0.01784X0.05229*%
%ADD91R,0.05229X0.01784*%
%ADD92R,0.04737X0.04737*%
%ADD93C,0.04737*%
%ADD94R,0.07493X0.07493*%
%ADD95C,0.07493*%
%ADD96C,0.05918*%
%ADD97C,0.06706*%
%ADD98R,0.07099X0.07099*%
%ADD99C,0.07099*%
%ADD100C,0.11400*%
%ADD101R,0.11400X0.11400*%
%ADD102R,0.05918X0.05918*%
%ADD103C,0.05918*%
%ADD104R,0.09400X0.09400*%
%ADD105C,0.09400*%
%ADD106C,0.08000*%
%ADD107R,0.11400X0.11400*%
%ADD108R,0.04776X0.04776*%
%ADD109C,0.04776*%
%ADD110C,0.06300*%
%ADD111R,0.06300X0.06300*%
%ADD112R,0.06300X0.06300*%
%ADD113C,0.05800*%
%ADD114C,0.13792*%
%ADD115R,0.03800X0.05800*%
%ADD116R,0.11312X0.10800*%
%ADD117C,0.00500*%
%ADD118C,0.00667*%
%ADD119C,0.00400*%
D117*
X42500Y13079D02*
Y17079D01*
X46500D01*
Y13079D01*
X42500D01*
X43300Y13879D02*
Y16279D01*
X45700D01*
Y13879D01*
X43300D01*
X60216Y24890D02*
Y28890D01*
X64217D01*
Y24890D01*
X60216D01*
X61016Y25690D02*
Y28090D01*
X63416D01*
Y25690D01*
X61016D01*
X91815Y38264D02*
Y42264D01*
X95815D01*
Y38264D01*
X91815D01*
X92615Y39064D02*
Y41464D01*
X95015D01*
Y39064D01*
X92615D01*
X111500Y9587D02*
X115500D01*
Y5587D01*
X111500D01*
Y9587D01*
X112300Y8787D02*
X114700D01*
Y6387D01*
X112300D01*
Y8787D01*
X129217Y19366D02*
Y23366D01*
X133217D01*
Y19366D01*
X129217D01*
X130017Y20166D02*
Y22566D01*
X132416D01*
Y20166D01*
X130017D01*
X182535Y79720D02*
X186535D01*
X184535Y75721D01*
X182535Y79720D01*
X183335Y78921D02*
X185735D01*
X184535Y76521D01*
X183335Y78921D01*
X186496Y54500D02*
Y53500D01*
X185496D01*
Y51500D01*
X186496D01*
Y50500D01*
X188496D01*
Y51500D01*
X189496D01*
Y53500D01*
X188496D01*
Y54500D01*
X186496D01*
X205000D02*
Y53500D01*
X204000D01*
Y51500D01*
X205000D01*
Y50500D01*
X207000D01*
Y51500D01*
X208000D01*
Y53500D01*
X207000D01*
Y54500D01*
X205000D01*
X223504D02*
Y53500D01*
X222504D01*
Y51500D01*
X223504D01*
Y50500D01*
X225504D01*
Y51500D01*
X226504D01*
Y53500D01*
X225504D01*
Y54500D01*
X223504D01*
X248500Y80000D02*
X246500Y84000D01*
X250500D01*
X248500Y80000D01*
X263500Y64500D02*
Y68500D01*
X267500D01*
Y64500D01*
X263500D01*
Y63500D02*
X267500D01*
Y59500D01*
X263500D01*
Y63500D01*
Y69500D02*
Y73500D01*
X267500D01*
Y69500D01*
X263500D01*
Y74500D02*
Y78500D01*
X267500D01*
Y74500D01*
X263500D01*
Y86315D02*
Y90315D01*
X267500D01*
Y86315D01*
X263500D01*
Y91315D02*
Y95315D01*
X267500D01*
Y91315D01*
X263500D01*
Y96315D02*
Y100315D01*
X267500D01*
Y96315D01*
X263500D01*
Y101315D02*
Y105315D01*
X267500D01*
Y101315D01*
X263500D01*
X248280Y108535D02*
X246280Y112535D01*
X250279D01*
X248280Y108535D01*
Y109335D02*
X247079Y111735D01*
X249480D01*
X248280Y109335D01*
X246500Y100929D02*
X250500D01*
X248500Y96929D01*
X246500Y100929D01*
X247300Y100129D02*
X249700D01*
X248500Y97729D01*
X247300Y100129D01*
Y83200D02*
X249700D01*
X248500Y80800D01*
X247300Y83200D01*
X220721Y108535D02*
X218721Y112535D01*
X222721D01*
X220721Y108535D01*
Y109335D02*
X219520Y111735D01*
X221920D01*
X220721Y109335D01*
X222941Y100929D02*
X220941Y96929D01*
X218941Y100929D01*
X222941D01*
X222141Y100129D02*
X220941Y97729D01*
X219741Y100129D01*
X222141D01*
X222941Y84000D02*
X220941Y80000D01*
X218941Y84000D01*
X222941D01*
X222141Y83200D02*
X220941Y80800D01*
X219741Y83200D01*
X222141D01*
X203465Y107280D02*
X201465Y103279D01*
X199465Y107280D01*
X203465D01*
X202665Y106480D02*
X201465Y104079D01*
X200265Y106480D01*
X202665D01*
X196000Y114000D02*
X195000Y115000D01*
X196000Y116000D01*
X195000D01*
X194000Y117000D01*
X193000Y116000D01*
X192000D01*
X193000Y115000D01*
X192000Y114000D01*
X193000D01*
X194000Y113000D01*
X195000Y114000D01*
X196000D01*
X218721Y129465D02*
X222721D01*
X220721Y125465D01*
X218721Y129465D01*
X219520Y128665D02*
X221920D01*
X220721Y126265D01*
X219520Y128665D01*
X220721Y137035D02*
X218721Y141035D01*
X222721D01*
X220721Y137035D01*
Y137835D02*
X219520Y140235D01*
X221920D01*
X220721Y137835D01*
Y153965D02*
X218721Y157965D01*
X222721D01*
X220721Y153965D01*
Y154765D02*
X219520Y157165D01*
X221920D01*
X220721Y154765D01*
X223000Y170000D02*
X224000D01*
X225000Y169000D01*
X226000Y170000D01*
X227000D01*
X226000Y171000D01*
X227000Y172000D01*
X226000D01*
X225000Y173000D01*
X224000Y172000D01*
X223000D01*
X224000Y171000D01*
X223000Y170000D01*
X223800Y170400D02*
X224400D01*
X225000Y169800D01*
X225600Y170400D01*
X226200D01*
X225600Y171000D01*
X226200Y171600D01*
X225600D01*
X225000Y172200D01*
X224400Y171600D01*
X223800D01*
X224400Y171000D01*
X223800Y170400D01*
X236500Y185500D02*
X237500D01*
X238500Y184500D01*
X239500Y185500D01*
X240500D01*
X239500Y186500D01*
X240500Y187500D01*
X239500D01*
X238500Y188500D01*
X237500Y187500D01*
X236500D01*
X237500Y186500D01*
X236500Y185500D01*
X237300Y185900D02*
X237900D01*
X238500Y185300D01*
X239100Y185900D01*
X239700D01*
X239100Y186500D01*
X239700Y187100D01*
X239100D01*
X238500Y187700D01*
X237900Y187100D01*
X237300D01*
X237900Y186500D01*
X237300Y185900D01*
X244500Y185500D02*
X245500D01*
X246500Y184500D01*
X247500Y185500D01*
X248500D01*
X247500Y186500D01*
X248500Y187500D01*
X247500D01*
X246500Y188500D01*
X245500Y187500D01*
X244500D01*
X245500Y186500D01*
X244500Y185500D01*
X245300Y185900D02*
X245900D01*
X246500Y185300D01*
X247100Y185900D01*
X247700D01*
X247100Y186500D01*
X247700Y187100D01*
X247100D01*
X246500Y187700D01*
X245900Y187100D01*
X245300D01*
X245900Y186500D01*
X245300Y185900D01*
X252500Y185500D02*
X253500D01*
X254500Y184500D01*
X255500Y185500D01*
X256500D01*
X255500Y186500D01*
X256500Y187500D01*
X255500D01*
X254500Y188500D01*
X253500Y187500D01*
X252500D01*
X253500Y186500D01*
X252500Y185500D01*
X253300Y185900D02*
X253900D01*
X254500Y185300D01*
X255100Y185900D01*
X255700D01*
X255100Y186500D01*
X255700Y187100D01*
X255100D01*
X254500Y187700D01*
X253900Y187100D01*
X253300D01*
X253900Y186500D01*
X253300Y185900D01*
X263500Y170815D02*
X267500D01*
Y166815D01*
X263500D01*
Y170815D01*
Y165815D02*
X267500D01*
Y161815D01*
X263500D01*
Y165815D01*
Y160815D02*
X267500D01*
Y156815D01*
X263500D01*
Y160815D01*
Y155815D02*
X267500D01*
Y151815D01*
X263500D01*
Y155815D01*
X250279Y157965D02*
X248280Y153965D01*
X246280Y157965D01*
X250279D01*
X249480Y157165D02*
X248280Y154765D01*
X247079Y157165D01*
X249480D01*
X250279Y141035D02*
X248280Y137035D01*
X246280Y141035D01*
X250279D01*
X249480Y140235D02*
X248280Y137835D01*
X247079Y140235D01*
X249480D01*
X250279Y129465D02*
X248280Y125465D01*
X246280Y129465D01*
X250279D01*
X249480Y128665D02*
X248280Y126265D01*
X247079Y128665D01*
X249480D01*
X263500Y128815D02*
Y132815D01*
X267500D01*
Y128815D01*
X263500D01*
Y127815D02*
X267500D01*
Y123815D01*
X263500D01*
Y127815D01*
Y122815D02*
X267500D01*
Y118815D01*
X263500D01*
Y122815D01*
Y133815D02*
Y137815D01*
X267500D01*
Y133815D01*
X263500D01*
X232500Y185500D02*
X231500Y186500D01*
X232500Y187500D01*
X231500D01*
X230500Y188500D01*
X229500Y187500D01*
X228500D01*
X229500Y186500D01*
X228500Y185500D01*
X229500D01*
X230500Y184500D01*
X231500Y185500D01*
X232500D01*
X231700Y185900D02*
X231100Y186500D01*
X231700Y187100D01*
X231100D01*
X230500Y187700D01*
X229900Y187100D01*
X229300D01*
X229900Y186500D01*
X229300Y185900D01*
X229900D01*
X230500Y185300D01*
X231100Y185900D01*
X231700D01*
X224500Y185500D02*
X223500Y186500D01*
X224500Y187500D01*
X223500D01*
X222500Y188500D01*
X221500Y187500D01*
X220500D01*
X221500Y186500D01*
X220500Y185500D01*
X221500D01*
X222500Y184500D01*
X223500Y185500D01*
X224500D01*
X223700Y185900D02*
X223100Y186500D01*
X223700Y187100D01*
X223100D01*
X222500Y187700D01*
X221900Y187100D01*
X221300D01*
X221900Y186500D01*
X221300Y185900D01*
X221900D01*
X222500Y185300D01*
X223100Y185900D01*
X223700D01*
X236500Y193500D02*
X237500D01*
X238500Y192500D01*
X239500Y193500D01*
X240500D01*
X239500Y194500D01*
X240500Y195500D01*
X239500D01*
X238500Y196500D01*
X237500Y195500D01*
X236500D01*
X237500Y194500D01*
X236500Y193500D01*
X237300Y193900D02*
X237900D01*
X238500Y193300D01*
X239100Y193900D01*
X239700D01*
X239100Y194500D01*
X239700Y195100D01*
X239100D01*
X238500Y195700D01*
X237900Y195100D01*
X237300D01*
X237900Y194500D01*
X237300Y193900D01*
X244500Y193500D02*
X245500D01*
X246500Y192500D01*
X247500Y193500D01*
X248500D01*
X247500Y194500D01*
X248500Y195500D01*
X247500D01*
X246500Y196500D01*
X245500Y195500D01*
X244500D01*
X245500Y194500D01*
X244500Y193500D01*
Y201500D02*
X245500D01*
X246500Y200500D01*
X247500Y201500D01*
X248500D01*
X247500Y202500D01*
X248500Y203500D01*
X247500D01*
X246500Y204500D01*
X245500Y203500D01*
X244500D01*
X245500Y202500D01*
X244500Y201500D01*
X240500D02*
X239500Y202500D01*
X240500Y203500D01*
X239500D01*
X238500Y204500D01*
X237500Y203500D01*
X236500D01*
X237500Y202500D01*
X236500Y201500D01*
X237500D01*
X238500Y200500D01*
X239500Y201500D01*
X240500D01*
X239700Y201900D02*
X239100Y202500D01*
X239700Y203100D01*
X239100D01*
X238500Y203700D01*
X237900Y203100D01*
X237300D01*
X237900Y202500D01*
X237300Y201900D01*
X237900D01*
X238500Y201300D01*
X239100Y201900D01*
X239700D01*
X245300D02*
X245900D01*
X246500Y201300D01*
X247100Y201900D01*
X247700D01*
X247100Y202500D01*
X247700Y203100D01*
X247100D01*
X246500Y203700D01*
X245900Y203100D01*
X245300D01*
X245900Y202500D01*
X245300Y201900D01*
Y195100D02*
X245900Y194500D01*
X245300Y193900D01*
X245900D01*
X246500Y193300D01*
X247100Y193900D01*
X247700D01*
X247100Y194500D01*
X247700Y195100D01*
X247100D01*
X246500Y195700D01*
X245900Y195100D01*
X245300D01*
X252500Y195500D02*
X253500Y194500D01*
X252500Y193500D01*
X253500D01*
X254500Y192500D01*
X255500Y193500D01*
X256500D01*
X255500Y194500D01*
X256500Y195500D01*
X255500D01*
X254500Y196500D01*
X253500Y195500D01*
X252500D01*
X253300Y195100D02*
X253900Y194500D01*
X253300Y193900D01*
X253900D01*
X254500Y193300D01*
X255100Y193900D01*
X255700D01*
X255100Y194500D01*
X255700Y195100D01*
X255100D01*
X254500Y195700D01*
X253900Y195100D01*
X253300D01*
X254500Y200500D02*
X255500Y201500D01*
X256500D01*
X255500Y202500D01*
X256500Y203500D01*
X255500D01*
X254500Y204500D01*
X253500Y203500D01*
X252500D01*
X253500Y202500D01*
X252500Y201500D01*
X253500D01*
X254500Y200500D01*
Y201300D02*
X255100Y201900D01*
X255700D01*
X255100Y202500D01*
X255700Y203100D01*
X255100D01*
X254500Y203700D01*
X253900Y203100D01*
X253300D01*
X253900Y202500D01*
X253300Y201900D01*
X253900D01*
X254500Y201300D01*
Y208500D02*
X255500Y209500D01*
X256500D01*
X255500Y210500D01*
X256500Y211500D01*
X255500D01*
X254500Y212500D01*
X253500Y211500D01*
X252500D01*
X253500Y210500D01*
X252500Y209500D01*
X253500D01*
X254500Y208500D01*
Y209300D02*
X255100Y209900D01*
X255700D01*
X255100Y210500D01*
X255700Y211100D01*
X255100D01*
X254500Y211700D01*
X253900Y211100D01*
X253300D01*
X253900Y210500D01*
X253300Y209900D01*
X253900D01*
X254500Y209300D01*
X248500Y209500D02*
X247500Y210500D01*
X248500Y211500D01*
X247500D01*
X246500Y212500D01*
X245500Y211500D01*
X244500D01*
X245500Y210500D01*
X244500Y209500D01*
X245500D01*
X246500Y208500D01*
X247500Y209500D01*
X248500D01*
X247700Y209900D02*
X247100Y210500D01*
X247700Y211100D01*
X247100D01*
X246500Y211700D01*
X245900Y211100D01*
X245300D01*
X245900Y210500D01*
X245300Y209900D01*
X245900D01*
X246500Y209300D01*
X247100Y209900D01*
X247700D01*
X240500Y209500D02*
X239500Y210500D01*
X240500Y211500D01*
X239500D01*
X238500Y212500D01*
X237500Y211500D01*
X236500D01*
X237500Y210500D01*
X236500Y209500D01*
X237500D01*
X238500Y208500D01*
X239500Y209500D01*
X240500D01*
X239700Y209900D02*
X239100Y210500D01*
X239700Y211100D01*
X239100D01*
X238500Y211700D01*
X237900Y211100D01*
X237300D01*
X237900Y210500D01*
X237300Y209900D01*
X237900D01*
X238500Y209300D01*
X239100Y209900D01*
X239700D01*
X232500Y209500D02*
X231500Y210500D01*
X232500Y211500D01*
X231500D01*
X230500Y212500D01*
X229500Y211500D01*
X228500D01*
X229500Y210500D01*
X228500Y209500D01*
X229500D01*
X230500Y208500D01*
X231500Y209500D01*
X232500D01*
X231700Y209900D02*
X231100Y210500D01*
X231700Y211100D01*
X231100D01*
X230500Y211700D01*
X229900Y211100D01*
X229300D01*
X229900Y210500D01*
X229300Y209900D01*
X229900D01*
X230500Y209300D01*
X231100Y209900D01*
X231700D01*
X230500Y204500D02*
X229500Y203500D01*
X228500D01*
X229500Y202500D01*
X228500Y201500D01*
X229500D01*
X230500Y200500D01*
X231500Y201500D01*
X232500D01*
X231500Y202500D01*
X232500Y203500D01*
X231500D01*
X230500Y204500D01*
Y203700D02*
X229900Y203100D01*
X229300D01*
X229900Y202500D01*
X229300Y201900D01*
X229900D01*
X230500Y201300D01*
X231100Y201900D01*
X231700D01*
X231100Y202500D01*
X231700Y203100D01*
X231100D01*
X230500Y203700D01*
X222500D02*
X221900Y203100D01*
X221300D01*
X221900Y202500D01*
X221300Y201900D01*
X221900D01*
X222500Y201300D01*
X223100Y201900D01*
X223700D01*
X223100Y202500D01*
X223700Y203100D01*
X223100D01*
X222500Y203700D01*
Y204500D02*
X221500Y203500D01*
X220500D01*
X221500Y202500D01*
X220500Y201500D01*
X221500D01*
X222500Y200500D01*
X223500Y201500D01*
X224500D01*
X223500Y202500D01*
X224500Y203500D01*
X223500D01*
X222500Y204500D01*
Y208500D02*
X223500Y209500D01*
X224500D01*
X223500Y210500D01*
X224500Y211500D01*
X223500D01*
X222500Y212500D01*
X221500Y211500D01*
X220500D01*
X221500Y210500D01*
X220500Y209500D01*
X221500D01*
X222500Y208500D01*
Y209300D02*
X223100Y209900D01*
X223700D01*
X223100Y210500D01*
X223700Y211100D01*
X223100D01*
X222500Y211700D01*
X221900Y211100D01*
X221300D01*
X221900Y210500D01*
X221300Y209900D01*
X221900D01*
X222500Y209300D01*
Y196500D02*
X221500Y195500D01*
X220500D01*
X221500Y194500D01*
X220500Y193500D01*
X221500D01*
X222500Y192500D01*
X223500Y193500D01*
X224500D01*
X223500Y194500D01*
X224500Y195500D01*
X223500D01*
X222500Y196500D01*
Y195700D02*
X221900Y195100D01*
X221300D01*
X221900Y194500D01*
X221300Y193900D01*
X221900D01*
X222500Y193300D01*
X223100Y193900D01*
X223700D01*
X223100Y194500D01*
X223700Y195100D01*
X223100D01*
X222500Y195700D01*
X228500Y195500D02*
X229500Y194500D01*
X228500Y193500D01*
X229500D01*
X230500Y192500D01*
X231500Y193500D01*
X232500D01*
X231500Y194500D01*
X232500Y195500D01*
X231500D01*
X230500Y196500D01*
X229500Y195500D01*
X228500D01*
X229300Y195100D02*
X229900Y194500D01*
X229300Y193900D01*
X229900D01*
X230500Y193300D01*
X231100Y193900D01*
X231700D01*
X231100Y194500D01*
X231700Y195100D01*
X231100D01*
X230500Y195700D01*
X229900Y195100D01*
X229300D01*
X189500Y228736D02*
X188500D01*
X187500Y227736D01*
X186500Y228736D01*
X185500D01*
Y227736D01*
X186500Y226736D01*
X185500Y225736D01*
Y224736D01*
X186500D01*
X187500Y225736D01*
X188500Y224736D01*
X189500D01*
Y225736D01*
X188500Y226736D01*
X189500Y227736D01*
Y228736D01*
Y254264D02*
Y255264D01*
X188500Y256264D01*
X189500Y257264D01*
Y258264D01*
X188500D01*
X187500Y257264D01*
X186500Y258264D01*
X185500D01*
Y257264D01*
X186500Y256264D01*
X185500Y255264D01*
Y254264D01*
X186500D01*
X187500Y255264D01*
X188500Y254264D01*
X189500D01*
X172500Y259500D02*
X171500Y260500D01*
X172500Y261500D01*
X171500D01*
X170500Y262500D01*
X169500Y261500D01*
X168500D01*
X169500Y260500D01*
X168500Y259500D01*
X169500D01*
X170500Y258500D01*
X171500Y259500D01*
X172500D01*
X171700Y259900D02*
X171100Y260500D01*
X171700Y261100D01*
X171100D01*
X170500Y261700D01*
X169900Y261100D01*
X169300D01*
X169900Y260500D01*
X169300Y259900D01*
X169900D01*
X170500Y259300D01*
X171100Y259900D01*
X171700D01*
X162500Y245000D02*
X161500D01*
X160500Y246000D01*
X159500Y245000D01*
X158500D01*
X159500Y244000D01*
X158500Y243000D01*
X159500D01*
X160500Y242000D01*
X161500Y243000D01*
X162500D01*
X161500Y244000D01*
X162500Y245000D01*
X161700Y244600D02*
X161100D01*
X160500Y245200D01*
X159900Y244600D01*
X159300D01*
X159900Y244000D01*
X159300Y243400D01*
X159900D01*
X160500Y242800D01*
X161100Y243400D01*
X161700D01*
X161100Y244000D01*
X161700Y244600D01*
X158500Y220000D02*
X157500D01*
X158500Y219000D01*
X157500Y218000D01*
X158500D01*
X159500Y217000D01*
X160500Y218000D01*
X161500D01*
X160500Y219000D01*
X161500Y220000D01*
X160500D01*
X159500Y221000D01*
X158500Y220000D01*
X158300Y219600D02*
X158900Y219000D01*
X158300Y218400D01*
X158900D01*
X159500Y217800D01*
X160100Y218400D01*
X160700D01*
X160100Y219000D01*
X160700Y219600D01*
X160100D01*
X159500Y220200D01*
X158900Y219600D01*
X158300D01*
X140500Y237500D02*
X139500Y238500D01*
X140500Y239500D01*
X139500D01*
X138500Y240500D01*
X137500Y239500D01*
X136500D01*
X137500Y238500D01*
X136500Y237500D01*
X137500D01*
X138500Y236500D01*
X139500Y237500D01*
X140500D01*
X139700Y237900D02*
X139100Y238500D01*
X139700Y239100D01*
X139100D01*
X138500Y239700D01*
X137900Y239100D01*
X137300D01*
X137900Y238500D01*
X137300Y237900D01*
X137900D01*
X138500Y237300D01*
X139100Y237900D01*
X139700D01*
X139500Y217500D02*
X138500Y218500D01*
X137500Y217500D01*
X136500D01*
X137500Y216500D01*
X136500Y215500D01*
X137500D01*
X138500Y214500D01*
X139500Y215500D01*
X140500D01*
X139500Y216500D01*
X140500Y217500D01*
X139500D01*
X139700Y217100D02*
X139100D01*
X138500Y217700D01*
X137900Y217100D01*
X137300D01*
X137900Y216500D01*
X137300Y215900D01*
X137900D01*
X138500Y215300D01*
X139100Y215900D01*
X139700D01*
X139100Y216500D01*
X139700Y217100D01*
X124000Y217000D02*
X123000D01*
X122000Y218000D01*
X121000Y217000D01*
X120000D01*
X121000Y216000D01*
X120000Y215000D01*
X121000D01*
X122000Y214000D01*
X123000Y215000D01*
X124000D01*
X123000Y216000D01*
X124000Y217000D01*
X123200Y216600D02*
X122600D01*
X122000Y217200D01*
X121400Y216600D01*
X120800D01*
X121400Y216000D01*
X120800Y215400D01*
X121400D01*
X122000Y214800D01*
X122600Y215400D01*
X123200D01*
X122600Y216000D01*
X123200Y216600D01*
X122500Y209000D02*
X121500Y208000D01*
X120500D01*
X121500Y207000D01*
X120500Y206000D01*
X121500D01*
X122500Y205000D01*
X123500Y206000D01*
X124500D01*
X123500Y207000D01*
X124500Y208000D01*
X123500D01*
X122500Y209000D01*
Y208200D02*
X121900Y207600D01*
X121300D01*
X121900Y207000D01*
X121300Y206400D01*
X121900D01*
X122500Y205800D01*
X123100Y206400D01*
X123700D01*
X123100Y207000D01*
X123700Y207600D01*
X123100D01*
X122500Y208200D01*
X140500Y195500D02*
X141500Y194500D01*
X140500Y193500D01*
X141500D01*
X142500Y192500D01*
X143500Y193500D01*
X144500D01*
X143500Y194500D01*
X144500Y195500D01*
X143500D01*
X142500Y196500D01*
X141500Y195500D01*
X140500D01*
X141300Y195100D02*
X141900Y194500D01*
X141300Y193900D01*
X141900D01*
X142500Y193300D01*
X143100Y193900D01*
X143700D01*
X143100Y194500D01*
X143700Y195100D01*
X143100D01*
X142500Y195700D01*
X141900Y195100D01*
X141300D01*
X115500Y194000D02*
X114500D01*
X113500Y195000D01*
X112500Y194000D01*
X111500D01*
X112500Y193000D01*
X111500Y192000D01*
X112500D01*
X113500Y191000D01*
X114500Y192000D01*
X115500D01*
X114500Y193000D01*
X115500Y194000D01*
X114700Y193600D02*
X114100D01*
X113500Y194200D01*
X112900Y193600D01*
X112300D01*
X112900Y193000D01*
X112300Y192400D01*
X112900D01*
X113500Y191800D01*
X114100Y192400D01*
X114700D01*
X114100Y193000D01*
X114700Y193600D01*
X109000Y193000D02*
X108000D01*
X107000Y194000D01*
X106000Y193000D01*
X105000D01*
X106000Y192000D01*
X105000Y191000D01*
X106000D01*
X107000Y190000D01*
X108000Y191000D01*
X109000D01*
X108000Y192000D01*
X109000Y193000D01*
X108200Y192600D02*
X107600D01*
X107000Y193200D01*
X106400Y192600D01*
X105800D01*
X106400Y192000D01*
X105800Y191400D01*
X106400D01*
X107000Y190800D01*
X107600Y191400D01*
X108200D01*
X107600Y192000D01*
X108200Y192600D01*
X98500Y184000D02*
X97500D01*
X96500Y185000D01*
X95500Y184000D01*
X94500D01*
X95500Y183000D01*
X94500Y182000D01*
X95500D01*
X96500Y181000D01*
X97500Y182000D01*
X98500D01*
X97500Y183000D01*
X98500Y184000D01*
X97700Y183600D02*
X97100D01*
X96500Y184200D01*
X95900Y183600D01*
X95300D01*
X95900Y183000D01*
X95300Y182400D01*
X95900D01*
X96500Y181800D01*
X97100Y182400D01*
X97700D01*
X97100Y183000D01*
X97700Y183600D01*
X106000Y171000D02*
X107000Y170000D01*
X106000Y169000D01*
X107000D01*
X108000Y168000D01*
X109000Y169000D01*
X110000D01*
X109000Y170000D01*
X110000Y171000D01*
X109000D01*
X108000Y172000D01*
X107000Y171000D01*
X106000D01*
X106800Y170600D02*
X107400Y170000D01*
X106800Y169400D01*
X107400D01*
X108000Y168800D01*
X108600Y169400D01*
X109200D01*
X108600Y170000D01*
X109200Y170600D01*
X108600D01*
X108000Y171200D01*
X107400Y170600D01*
X106800D01*
X102500Y157500D02*
X101500D01*
X100500Y158500D01*
X99500Y157500D01*
X98500D01*
X99500Y156500D01*
X98500Y155500D01*
X99500D01*
X100500Y154500D01*
X101500Y155500D01*
X102500D01*
X101500Y156500D01*
X102500Y157500D01*
X101700Y157100D02*
X101100D01*
X100500Y157700D01*
X99900Y157100D01*
X99300D01*
X99900Y156500D01*
X99300Y155900D01*
X99900D01*
X100500Y155300D01*
X101100Y155900D01*
X101700D01*
X101100Y156500D01*
X101700Y157100D01*
X110000Y162500D02*
X111000D01*
X112000Y161500D01*
X113000Y162500D01*
X114000D01*
X113000Y163500D01*
X114000Y164500D01*
X113000D01*
X112000Y165500D01*
X111000Y164500D01*
X110000D01*
X111000Y163500D01*
X110000Y162500D01*
X110800Y162900D02*
X111400D01*
X112000Y162300D01*
X112600Y162900D01*
X113200D01*
X112600Y163500D01*
X113200Y164100D01*
X112600D01*
X112000Y164700D01*
X111400Y164100D01*
X110800D01*
X111400Y163500D01*
X110800Y162900D01*
X112031Y172968D02*
X113031Y173969D01*
X114032D01*
X113031Y174969D01*
X114032Y175969D01*
X113031D01*
X112031Y176969D01*
X111031Y175969D01*
X110031D01*
X111031Y174969D01*
X110031Y173969D01*
X111031D01*
X112031Y172968D01*
Y173768D02*
X112631Y174369D01*
X113232D01*
X112631Y174969D01*
X113232Y175568D01*
X112631D01*
X112031Y176169D01*
X111432Y175568D01*
X110831D01*
X111432Y174969D01*
X110831Y174369D01*
X111432D01*
X112031Y173768D01*
X94000Y202000D02*
X93000Y203000D01*
X94000Y204000D01*
X93000D01*
X92000Y205000D01*
X91000Y204000D01*
X90000D01*
X91000Y203000D01*
X90000Y202000D01*
X91000D01*
X92000Y201000D01*
X93000Y202000D01*
X94000D01*
X93200Y202400D02*
X92600Y203000D01*
X93200Y203600D01*
X92600D01*
X92000Y204200D01*
X91400Y203600D01*
X90800D01*
X91400Y203000D01*
X90800Y202400D01*
X91400D01*
X92000Y201800D01*
X92600Y202400D01*
X93200D01*
X88500Y200000D02*
X87500D01*
X86500Y201000D01*
X85500Y200000D01*
X84500D01*
X85500Y199000D01*
X84500Y198000D01*
X85500D01*
X86500Y197000D01*
X87500Y198000D01*
X88500D01*
X87500Y199000D01*
X88500Y200000D01*
X87700Y199600D02*
X87100D01*
X86500Y200200D01*
X85900Y199600D01*
X85300D01*
X85900Y199000D01*
X85300Y198400D01*
X85900D01*
X86500Y197800D01*
X87100Y198400D01*
X87700D01*
X87100Y199000D01*
X87700Y199600D01*
X88500Y183000D02*
X89500Y182000D01*
X88500Y181000D01*
X89500D01*
X90500Y180000D01*
X91500Y181000D01*
X92500D01*
X91500Y182000D01*
X92500Y183000D01*
X91500D01*
X90500Y184000D01*
X89500Y183000D01*
X88500D01*
X89300Y182600D02*
X89900Y182000D01*
X89300Y181400D01*
X89900D01*
X90500Y180800D01*
X91100Y181400D01*
X91700D01*
X91100Y182000D01*
X91700Y182600D01*
X91100D01*
X90500Y183200D01*
X89900Y182600D01*
X89300D01*
X83500Y203500D02*
X82500Y204500D01*
X83500Y205500D01*
X82500D01*
X81500Y206500D01*
X80500Y205500D01*
X79500D01*
X80500Y204500D01*
X79500Y203500D01*
X80500D01*
X81500Y202500D01*
X82500Y203500D01*
X83500D01*
X81500Y203300D02*
X82100Y203900D01*
X82700D01*
X82100Y204500D01*
X82700Y205100D01*
X82100D01*
X81500Y205700D01*
X80900Y205100D01*
X80300D01*
X80900Y204500D01*
X80300Y203900D01*
X80900D01*
X81500Y203300D01*
X77000Y188000D02*
X76000D01*
X75000Y189000D01*
X74000Y188000D01*
X73000D01*
X74000Y187000D01*
X73000Y186000D01*
X74000D01*
X75000Y185000D01*
X76000Y186000D01*
X77000D01*
X76000Y187000D01*
X77000Y188000D01*
X76200Y187600D02*
X75600D01*
X75000Y188200D01*
X74400Y187600D01*
X73800D01*
X74400Y187000D01*
X73800Y186400D01*
X74400D01*
X75000Y185800D01*
X75600Y186400D01*
X76200D01*
X75600Y187000D01*
X76200Y187600D01*
X62500Y192500D02*
X61500Y193500D01*
X62500Y194500D01*
X61500D01*
X60500Y195500D01*
X59500Y194500D01*
X58500D01*
X59500Y193500D01*
X58500Y192500D01*
X59500D01*
X60500Y191500D01*
X61500Y192500D01*
X62500D01*
X61700Y192900D02*
X61100Y193500D01*
X61700Y194100D01*
X61100D01*
X60500Y194700D01*
X59900Y194100D01*
X59300D01*
X59900Y193500D01*
X59300Y192900D01*
X59900D01*
X60500Y192300D01*
X61100Y192900D01*
X61700D01*
X54000Y160500D02*
X53000D01*
X52000Y161500D01*
X51000Y160500D01*
X50000D01*
X51000Y159500D01*
X50000Y158500D01*
X51000D01*
X52000Y157500D01*
X53000Y158500D01*
X54000D01*
X53000Y159500D01*
X54000Y160500D01*
X53200Y160100D02*
X52600D01*
X52000Y160700D01*
X51400Y160100D01*
X50800D01*
X51400Y159500D01*
X50800Y158900D01*
X51400D01*
X52000Y158300D01*
X52600Y158900D01*
X53200D01*
X52600Y159500D01*
X53200Y160100D01*
X71000Y160500D02*
X72000Y159500D01*
X71000Y158500D01*
X72000D01*
X73000Y157500D01*
X74000Y158500D01*
X75000D01*
X74000Y159500D01*
X75000Y160500D01*
X74000D01*
X73000Y161500D01*
X72000Y160500D01*
X71000D01*
X71800Y160100D02*
X72400Y159500D01*
X71800Y158900D01*
X72400D01*
X73000Y158300D01*
X73600Y158900D01*
X74200D01*
X73600Y159500D01*
X74200Y160100D01*
X73600D01*
X73000Y160700D01*
X72400Y160100D01*
X71800D01*
X87500Y146500D02*
X88500Y145500D01*
X87500Y144500D01*
X88500D01*
X89500Y143500D01*
X90500Y144500D01*
X91500D01*
X90500Y145500D01*
X91500Y146500D01*
X90500D01*
X89500Y147500D01*
X88500Y146500D01*
X87500D01*
X88300Y146100D02*
X88900Y145500D01*
X88300Y144900D01*
X88900D01*
X89500Y144300D01*
X90100Y144900D01*
X90700D01*
X90100Y145500D01*
X90700Y146100D01*
X90100D01*
X89500Y146700D01*
X88900Y146100D01*
X88300D01*
X99500Y118500D02*
X100500Y117500D01*
X99500Y116500D01*
X100500D01*
X101500Y115500D01*
X102500Y116500D01*
X103500D01*
X102500Y117500D01*
X103500Y118500D01*
X102500D01*
X101500Y119500D01*
X100500Y118500D01*
X99500D01*
X100300Y118100D02*
X100900Y117500D01*
X100300Y116900D01*
X100900D01*
X101500Y116300D01*
X102100Y116900D01*
X102700D01*
X102100Y117500D01*
X102700Y118100D01*
X102100D01*
X101500Y118700D01*
X100900Y118100D01*
X100300D01*
X95260Y95000D02*
X94260Y93000D01*
X95260Y91000D01*
X93260Y92000D01*
X91260Y91000D01*
X92260Y93000D01*
X91260Y95000D01*
X93260Y94000D01*
X95260Y95000D01*
X85260D02*
X84260Y93000D01*
X85260Y91000D01*
X83260Y92000D01*
X81260Y91000D01*
X82260Y93000D01*
X81260Y95000D01*
X83260Y94000D01*
X85260Y95000D01*
X101260Y91000D02*
X102260Y93000D01*
X101260Y95000D01*
X103260Y94000D01*
X105260Y95000D01*
X104260Y93000D01*
X105260Y91000D01*
X103260Y92000D01*
X101260Y91000D01*
X140157Y114500D02*
X138157Y118500D01*
X142157D01*
X140157Y114500D01*
X157843Y118500D02*
X161843D01*
X159843Y114500D01*
X157843Y118500D01*
X145000Y135000D02*
X144000Y136000D01*
X145000Y137000D01*
X144000D01*
X143000Y138000D01*
X142000Y137000D01*
X141000D01*
X142000Y136000D01*
X141000Y135000D01*
X142000D01*
X143000Y134000D01*
X144000Y135000D01*
X145000D01*
X144200Y135400D02*
X143600Y136000D01*
X144200Y136600D01*
X143600D01*
X143000Y137200D01*
X142400Y136600D01*
X141800D01*
X142400Y136000D01*
X141800Y135400D01*
X142400D01*
X143000Y134800D01*
X143600Y135400D01*
X144200D01*
X164779Y150279D02*
X165779D01*
X166779Y149279D01*
X167780Y150279D01*
X168780D01*
X167780Y151279D01*
X168780Y152279D01*
X167780D01*
X166779Y153279D01*
X165779Y152279D01*
X164779D01*
X165779Y151279D01*
X164779Y150279D01*
X165579Y150680D02*
X166180D01*
X166779Y150080D01*
X167379Y150680D01*
X167980D01*
X167379Y151279D01*
X167980Y151880D01*
X167379D01*
X166779Y152480D01*
X166180Y151880D01*
X165579D01*
X166180Y151279D01*
X165579Y150680D01*
X173346Y150347D02*
X174346D01*
X175347Y149346D01*
X176347Y150347D01*
X177347D01*
X176347Y151347D01*
X177347Y152347D01*
X176347D01*
X175347Y153347D01*
X174346Y152347D01*
X173346D01*
X174346Y151347D01*
X173346Y150347D01*
X174146Y150747D02*
X174747D01*
X175347Y150146D01*
X175946Y150747D01*
X176547D01*
X175946Y151347D01*
X176547Y151946D01*
X175946D01*
X175347Y152547D01*
X174747Y151946D01*
X174146D01*
X174747Y151347D01*
X174146Y150747D01*
X190217Y153284D02*
X191217Y154283D01*
X192217D01*
X191217Y155283D01*
X192217Y156283D01*
X191217D01*
X190217Y157283D01*
X189216Y156283D01*
X188216D01*
X189216Y155283D01*
X188216Y154283D01*
X189216D01*
X190217Y153284D01*
Y154084D02*
X190816Y154683D01*
X191417D01*
X190816Y155283D01*
X191417Y155884D01*
X190816D01*
X190217Y156483D01*
X189617Y155884D01*
X189016D01*
X189617Y155283D01*
X189016Y154683D01*
X189617D01*
X190217Y154084D01*
X190000Y146500D02*
X189000Y145500D01*
X188000D01*
X189000Y144500D01*
X188000Y143500D01*
X189000D01*
X190000Y142500D01*
X191000Y143500D01*
X192000D01*
X191000Y144500D01*
X192000Y145500D01*
X191000D01*
X190000Y146500D01*
Y145700D02*
X189400Y145100D01*
X188800D01*
X189400Y144500D01*
X188800Y143900D01*
X189400D01*
X190000Y143300D01*
X190600Y143900D01*
X191200D01*
X190600Y144500D01*
X191200Y145100D01*
X190600D01*
X190000Y145700D01*
X209000Y135500D02*
X210000Y134500D01*
X209000Y133500D01*
X210000D01*
X211000Y132500D01*
X212000Y133500D01*
X213000D01*
X212000Y134500D01*
X213000Y135500D01*
X212000D01*
X211000Y136500D01*
X210000Y135500D01*
X209000D01*
X209800Y135100D02*
X210400Y134500D01*
X209800Y133900D01*
X210400D01*
X211000Y133300D01*
X211600Y133900D01*
X212200D01*
X211600Y134500D01*
X212200Y135100D01*
X211600D01*
X211000Y135700D01*
X210400Y135100D01*
X209800D01*
X195200Y115600D02*
X194600D01*
X194000Y116200D01*
X193400Y115600D01*
X192800D01*
X193400Y115000D01*
X192800Y114400D01*
X193400D01*
X194000Y113800D01*
X194600Y114400D01*
X195200D01*
X194600Y115000D01*
X195200Y115600D01*
X186535Y107280D02*
X184535Y103279D01*
X182535Y107280D01*
X186535D01*
X185735Y106480D02*
X184535Y104079D01*
X183335Y106480D01*
X185735D01*
X199465Y79720D02*
X203465D01*
X201465Y75721D01*
X199465Y79720D01*
X200265Y78921D02*
X202665D01*
X201465Y76521D01*
X200265Y78921D01*
X288158Y11842D02*
X290158Y10842D01*
X292158Y11842D01*
X291158Y9843D01*
X292158Y7842D01*
X290158Y8843D01*
X288158Y7842D01*
X289158Y9843D01*
X288158Y11842D01*
X288958Y11043D02*
X290158Y10442D01*
X291357Y11043D01*
X290757Y9843D01*
X291357Y8642D01*
X290158Y9243D01*
X288958Y8642D01*
X289558Y9843D01*
X288958Y11043D01*
X287827Y22327D02*
X288827Y23327D01*
X289827D01*
X288827Y24327D01*
X289827Y25327D01*
X288827D01*
X287827Y26327D01*
X286827Y25327D01*
X285827D01*
X286827Y24327D01*
X285827Y23327D01*
X286827D01*
X287827Y22327D01*
Y23127D02*
X288427Y23727D01*
X289027D01*
X288427Y24327D01*
X289027Y24927D01*
X288427D01*
X287827Y25527D01*
X287227Y24927D01*
X286627D01*
X287227Y24327D01*
X286627Y23727D01*
X287227D01*
X287827Y23127D01*
X176500Y184500D02*
X175500Y185500D01*
X176500Y186500D01*
X175500D01*
X174500Y187500D01*
X173500Y186500D01*
X172500D01*
X173500Y185500D01*
X172500Y184500D01*
X173500D01*
X174500Y183500D01*
X175500Y184500D01*
X176500D01*
X175700Y184900D02*
X175100Y185500D01*
X175700Y186100D01*
X175100D01*
X174500Y186700D01*
X173900Y186100D01*
X173300D01*
X173900Y185500D01*
X173300Y184900D01*
X173900D01*
X174500Y184300D01*
X175100Y184900D01*
X175700D01*
X122500Y242500D02*
X121500Y243500D01*
X122500Y244500D01*
X121500D01*
X120500Y245500D01*
X119500Y244500D01*
X118500D01*
X119500Y243500D01*
X118500Y242500D01*
X119500D01*
X120500Y241500D01*
X121500Y242500D01*
X122500D01*
X121700Y242900D02*
X121100Y243500D01*
X121700Y244100D01*
X121100D01*
X120500Y244700D01*
X119900Y244100D01*
X119300D01*
X119900Y243500D01*
X119300Y242900D01*
X119900D01*
X120500Y242300D01*
X121100Y242900D01*
X121700D01*
X136500Y266500D02*
X137500D01*
X138500Y265500D01*
X139500Y266500D01*
X140500D01*
X139500Y267500D01*
X140500Y268500D01*
X139500D01*
X138500Y269500D01*
X137500Y268500D01*
X136500D01*
X137500Y267500D01*
X136500Y266500D01*
X137300Y266900D02*
X137900D01*
X138500Y266300D01*
X139100Y266900D01*
X139700D01*
X139100Y267500D01*
X139700Y268100D01*
X139100D01*
X138500Y268700D01*
X137900Y268100D01*
X137300D01*
X137900Y267500D01*
X137300Y266900D01*
X123000Y270000D02*
X122000Y271000D01*
X123000Y272000D01*
X122000D01*
X121000Y273000D01*
X120000Y272000D01*
X119000D01*
X120000Y271000D01*
X119000Y270000D01*
X120000D01*
X121000Y269000D01*
X122000Y270000D01*
X123000D01*
X122200Y270400D02*
X121600Y271000D01*
X122200Y271600D01*
X121600D01*
X121000Y272200D01*
X120400Y271600D01*
X119800D01*
X120400Y271000D01*
X119800Y270400D01*
X120400D01*
X121000Y269800D01*
X121600Y270400D01*
X122200D01*
X184689Y289500D02*
X186689D01*
Y290500D01*
X187689D01*
Y292500D01*
X186689D01*
Y293500D01*
X184689D01*
Y292500D01*
X183689D01*
Y290500D01*
X184689D01*
Y289500D01*
X207311Y290500D02*
X208311D01*
Y289500D01*
X210311D01*
Y290500D01*
X211311D01*
Y292500D01*
X210311D01*
Y293500D01*
X208311D01*
Y292500D01*
X207311D01*
Y290500D01*
X232658Y272500D02*
X234658Y274500D01*
X236658Y272500D01*
X234658Y270500D01*
X232658Y272500D01*
X248500Y251000D02*
X249500Y250000D01*
X248500Y249000D01*
X249500D01*
X250500Y248000D01*
X251500Y249000D01*
X252500D01*
X251500Y250000D01*
X252500Y251000D01*
X251500D01*
X250500Y252000D01*
X249500Y251000D01*
X248500D01*
X249300Y250600D02*
X249900Y250000D01*
X249300Y249400D01*
X249900D01*
X250500Y248800D01*
X251100Y249400D01*
X251700D01*
X251100Y250000D01*
X251700Y250600D01*
X251100D01*
X250500Y251200D01*
X249900Y250600D01*
X249300D01*
X259000Y245500D02*
X260000Y244500D01*
X259000Y243500D01*
X260000D01*
X261000Y242500D01*
X262000Y243500D01*
X263000D01*
X262000Y244500D01*
X263000Y245500D01*
X262000D01*
X261000Y246500D01*
X260000Y245500D01*
X259000D01*
X259800Y245100D02*
X260400Y244500D01*
X259800Y243900D01*
X260400D01*
X261000Y243300D01*
X261600Y243900D01*
X262200D01*
X261600Y244500D01*
X262200Y245100D01*
X261600D01*
X261000Y245700D01*
X260400Y245100D01*
X259800D01*
X288500Y248000D02*
X289500D01*
X290500Y247000D01*
X291500Y248000D01*
X292500D01*
X291500Y249000D01*
X292500Y250000D01*
X291500D01*
X290500Y251000D01*
X289500Y250000D01*
X288500D01*
X289500Y249000D01*
X288500Y248000D01*
X289300Y248400D02*
X289900D01*
X290500Y247800D01*
X291100Y248400D01*
X291700D01*
X291100Y249000D01*
X291700Y249600D01*
X291100D01*
X290500Y250200D01*
X289900Y249600D01*
X289300D01*
X289900Y249000D01*
X289300Y248400D01*
X288158Y288158D02*
X289158Y290158D01*
X288158Y292158D01*
X290158Y291158D01*
X292158Y292158D01*
X291158Y290158D01*
X292158Y288158D01*
X290158Y289158D01*
X288158Y288158D01*
X288958Y288958D02*
X289558Y290158D01*
X288958Y291357D01*
X290158Y290757D01*
X291357Y291357D01*
X290757Y290158D01*
X291357Y288958D01*
X290158Y289558D01*
X288958Y288958D01*
X254343Y274500D02*
X256343Y272500D01*
X254343Y270500D01*
X252343Y272500D01*
X254343Y274500D01*
X53953Y115500D02*
X52953D01*
X51953Y116500D01*
X50953Y115500D01*
X49953D01*
X50953Y114500D01*
X49953Y113500D01*
X50953D01*
X51953Y112500D01*
X52953Y113500D01*
X53953D01*
X52953Y114500D01*
X53953Y115500D01*
X53153Y115100D02*
X52553D01*
X51953Y115700D01*
X51353Y115100D01*
X50753D01*
X51353Y114500D01*
X50753Y113900D01*
X51353D01*
X51953Y113300D01*
X52553Y113900D01*
X53153D01*
X52553Y114500D01*
X53153Y115100D01*
X53500Y96000D02*
X52500Y95000D01*
X51500D01*
X52500Y94000D01*
X51500Y93000D01*
X52500D01*
X53500Y92000D01*
X54500Y93000D01*
X55500D01*
X54500Y94000D01*
X55500Y95000D01*
X54500D01*
X53500Y96000D01*
Y95200D02*
X52900Y94600D01*
X52300D01*
X52900Y94000D01*
X52300Y93400D01*
X52900D01*
X53500Y92800D01*
X54100Y93400D01*
X54700D01*
X54100Y94000D01*
X54700Y94600D01*
X54100D01*
X53500Y95200D01*
X25000Y132500D02*
X24000Y133500D01*
X25000Y134500D01*
X24000D01*
X23000Y135500D01*
X22000Y134500D01*
X21000D01*
X22000Y133500D01*
X21000Y132500D01*
X22000D01*
X23000Y131500D01*
X24000Y132500D01*
X25000D01*
X24200Y132900D02*
X23600Y133500D01*
X24200Y134100D01*
X23600D01*
X23000Y134700D01*
X22400Y134100D01*
X21800D01*
X22400Y133500D01*
X21800Y132900D01*
X22400D01*
X23000Y132300D01*
X23600Y132900D01*
X24200D01*
X9500Y158500D02*
X8500Y159500D01*
X9500Y160500D01*
X8500D01*
X7500Y161500D01*
X6500Y160500D01*
X5500D01*
X6500Y159500D01*
X5500Y158500D01*
X6500D01*
X7500Y157500D01*
X8500Y158500D01*
X9500D01*
Y150500D02*
X8500D01*
X7500Y151500D01*
X6500Y150500D01*
X5500D01*
X6500Y149500D01*
X5500Y148500D01*
X6500D01*
X7500Y147500D01*
X8500Y148500D01*
X9500D01*
X8500Y149500D01*
X9500Y150500D01*
Y175000D02*
X5500D01*
Y179000D01*
X9500D01*
Y175000D01*
Y180000D02*
X5500D01*
Y184000D01*
X9500D01*
Y180000D01*
Y185000D02*
X5500D01*
Y189000D01*
X9500D01*
Y185000D01*
Y190000D02*
X5500D01*
Y194000D01*
X9500D01*
Y190000D01*
Y195000D02*
X5500D01*
Y199000D01*
X9500D01*
Y195000D01*
Y200000D02*
X5500D01*
Y204000D01*
X9500D01*
Y200000D01*
X9000Y58311D02*
Y57311D01*
X8000D01*
Y55311D01*
X9000D01*
Y54311D01*
X11000D01*
Y55311D01*
X12000D01*
Y57311D01*
X11000D01*
Y58311D01*
X9000D01*
Y34689D02*
Y33689D01*
X8000D01*
Y31689D01*
X9000D01*
Y30689D01*
X11000D01*
Y31689D01*
X12000D01*
Y33689D01*
X11000D01*
Y34689D01*
X9000D01*
X7842Y11842D02*
X9843Y10842D01*
X11842Y11842D01*
X10842Y9843D01*
X11842Y7842D01*
X9843Y8843D01*
X7842Y7842D01*
X8843Y9843D01*
X7842Y11842D01*
X8642Y11043D02*
X9843Y10442D01*
X11043Y11043D01*
X10442Y9843D01*
X11043Y8642D01*
X9843Y9243D01*
X8642Y8642D01*
X9243Y9843D01*
X8642Y11043D01*
X42500Y36701D02*
Y40701D01*
X46500D01*
Y36701D01*
X42500D01*
X43300Y37501D02*
Y39901D01*
X45700D01*
Y37501D01*
X43300D01*
D118*
X36500Y60000D02*
G03*
X36500Y60000I-2000J0D01*
G01*
Y80000D02*
G03*
X36500Y80000I-2000J0D01*
G01*
X10000Y99000D02*
G03*
X10000Y99000I-2000J0D01*
G01*
Y79000D02*
G03*
X10000Y79000I-2000J0D01*
G01*
X153000Y72000D02*
G03*
X153000Y72000I-2000J0D01*
G01*
X163000D02*
G03*
X163000Y72000I-2000J0D01*
G01*
X173000D02*
G03*
X173000Y72000I-2000J0D01*
G01*
Y94500D02*
G03*
X173000Y94500I-2000J0D01*
G01*
X163000D02*
G03*
X163000Y94500I-2000J0D01*
G01*
X153000D02*
G03*
X153000Y94500I-2000J0D01*
G01*
D119*
X152200Y72000D02*
G03*
X152200Y72000I-1200J0D01*
G01*
X162200D02*
G03*
X162200Y72000I-1200J0D01*
G01*
X172200D02*
G03*
X172200Y72000I-1200J0D01*
G01*
Y94500D02*
G03*
X172200Y94500I-1200J0D01*
G01*
X162200D02*
G03*
X162200Y94500I-1200J0D01*
G01*
X152200D02*
G03*
X152200Y94500I-1200J0D01*
G01*
M02*
