%FSLAX25Y25*%
%MOIN*%
G70*
G01*
G75*
G04 Layer_Color=2752767*
%ADD10R,0.13189X0.05315*%
%ADD11R,0.04429X0.00984*%
%ADD12R,0.00984X0.04429*%
%ADD13R,0.03543X0.02756*%
%ADD14R,0.05512X0.04331*%
%ADD15O,0.02756X0.09055*%
%ADD16R,0.14370X0.05709*%
%ADD17R,0.05906X0.05906*%
%ADD18R,0.02756X0.03543*%
%ADD19R,0.40945X0.31496*%
%ADD20R,0.03937X0.11417*%
%ADD21R,0.04331X0.05512*%
%ADD22R,0.08268X0.06299*%
%ADD23R,0.00945X0.05315*%
%ADD24R,0.07087X0.07480*%
%ADD25O,0.06102X0.00984*%
%ADD26O,0.00984X0.06102*%
%ADD27R,0.23622X0.23622*%
%ADD28R,0.02362X0.04528*%
%ADD29R,0.04331X0.06693*%
%ADD30R,0.06693X0.04331*%
%ADD31C,0.00800*%
%ADD32C,0.01000*%
%ADD33C,0.04000*%
%ADD34C,0.00700*%
%ADD35C,0.02500*%
%ADD36C,0.02000*%
%ADD37C,0.05000*%
%ADD38C,0.03000*%
%ADD39C,0.06000*%
%ADD40C,0.10000*%
%ADD41C,0.13000*%
%ADD42R,0.48500X0.03000*%
%ADD43R,0.03000X0.35500*%
%ADD44C,0.06693*%
%ADD45R,0.06693X0.06693*%
%ADD46R,0.05118X0.05118*%
%ADD47C,0.05118*%
%ADD48C,0.05500*%
%ADD49R,0.05500X0.05500*%
%ADD50R,0.05500X0.05500*%
%ADD51C,0.03976*%
%ADD52R,0.03976X0.03976*%
%ADD53C,0.08600*%
%ADD54R,0.10600X0.10600*%
%ADD55C,0.10600*%
%ADD56C,0.07200*%
%ADD57R,0.08600X0.08600*%
%ADD58R,0.10600X0.10600*%
%ADD59C,0.06299*%
%ADD60R,0.06299X0.06299*%
%ADD61C,0.05906*%
%ADD62C,0.05118*%
%ADD63C,0.12600*%
%ADD64C,0.05000*%
%ADD65C,0.12992*%
%ADD66R,0.10512X0.10000*%
%ADD67R,0.03000X0.05000*%
%ADD68C,0.00787*%
%ADD69C,0.00394*%
%ADD70C,0.00984*%
%ADD71C,0.02362*%
%ADD72C,0.00591*%
%ADD73R,0.13989X0.06115*%
%ADD74R,0.05229X0.01784*%
%ADD75R,0.01784X0.05229*%
%ADD76R,0.04343X0.03556*%
%ADD77R,0.06312X0.05131*%
%ADD78O,0.03556X0.09855*%
%ADD79R,0.15170X0.06509*%
%ADD80R,0.06706X0.06706*%
%ADD81R,0.03556X0.04343*%
%ADD82R,0.41745X0.32296*%
%ADD83R,0.04737X0.12217*%
%ADD84R,0.05131X0.06312*%
%ADD85R,0.09068X0.07099*%
%ADD86R,0.01745X0.06115*%
%ADD87R,0.07887X0.08280*%
%ADD88O,0.06902X0.01784*%
%ADD89O,0.01784X0.06902*%
%ADD90R,0.24422X0.24422*%
%ADD91R,0.03162X0.05328*%
%ADD92R,0.05131X0.07493*%
%ADD93R,0.07493X0.05131*%
%ADD94C,0.07493*%
%ADD95R,0.07493X0.07493*%
%ADD96R,0.05918X0.05918*%
%ADD97C,0.05918*%
%ADD98C,0.06300*%
%ADD99R,0.06300X0.06300*%
%ADD100R,0.06300X0.06300*%
%ADD101C,0.04776*%
%ADD102R,0.04776X0.04776*%
%ADD103C,0.09400*%
%ADD104R,0.11400X0.11400*%
%ADD105C,0.11400*%
%ADD106C,0.08000*%
%ADD107R,0.09400X0.09400*%
%ADD108R,0.11400X0.11400*%
%ADD109C,0.07099*%
%ADD110R,0.07099X0.07099*%
%ADD111C,0.06706*%
%ADD112C,0.05918*%
%ADD113C,0.13400*%
%ADD114C,0.05800*%
%ADD115C,0.13792*%
%ADD116R,0.11312X0.10800*%
%ADD117R,0.03800X0.05800*%
%ADD118C,0.00500*%
%ADD119C,0.00667*%
%ADD120C,0.00400*%
D118*
X42500Y13079D02*
X43500Y15079D01*
X42500Y17079D01*
X44500Y16079D01*
X46500Y17079D01*
X45500Y15079D01*
X46500Y13079D01*
X44500Y14079D01*
X42500Y13079D01*
X60216Y24890D02*
X61216Y26890D01*
X60216Y28890D01*
X62217Y27890D01*
X64217Y28890D01*
X63217Y26890D01*
X64217Y24890D01*
X62217Y25890D01*
X60216Y24890D01*
X46500Y36701D02*
X44500Y37701D01*
X42500Y36701D01*
X43500Y38701D01*
X42500Y40701D01*
X44500Y39701D01*
X46500Y40701D01*
X45500Y38701D01*
X46500Y36701D01*
X36500Y58000D02*
X32500D01*
Y62000D01*
X36500D01*
Y58000D01*
Y78000D02*
X32500D01*
Y82000D01*
X36500D01*
Y78000D01*
X53500Y92000D02*
X51500Y96000D01*
X55500D01*
X53500Y92000D01*
Y92800D02*
X52300Y95200D01*
X54700D01*
X53500Y92800D01*
X51953Y112500D02*
X49953Y116500D01*
X53953D01*
X51953Y112500D01*
Y113300D02*
X50753Y115700D01*
X53153D01*
X51953Y113300D01*
X83260Y91000D02*
X81260Y93000D01*
X83260Y95000D01*
X85260Y93000D01*
X83260Y91000D01*
X93260D02*
X91260Y93000D01*
X93260Y95000D01*
X95260Y93000D01*
X93260Y91000D01*
X103260D02*
X101260Y93000D01*
X103260Y95000D01*
X105260Y93000D01*
X103260Y91000D01*
X101500Y115500D02*
X99500Y119500D01*
X103500D01*
X101500Y115500D01*
Y116300D02*
X100300Y118700D01*
X102700D01*
X101500Y116300D01*
X143000Y134000D02*
X141000Y138000D01*
X145000D01*
X143000Y134000D01*
Y134800D02*
X141800Y137200D01*
X144200D01*
X143000Y134800D01*
X166779Y149279D02*
X164779Y153279D01*
X168780D01*
X166779Y149279D01*
Y150080D02*
X165579Y152480D01*
X167980D01*
X166779Y150080D01*
X175347Y150146D02*
X174146Y152547D01*
X176547D01*
X175347Y150146D01*
Y149346D02*
X173346Y153347D01*
X177347D01*
X175347Y149346D01*
X188000Y146500D02*
X192000D01*
X190000Y142500D01*
X188000Y146500D01*
X188800Y145700D02*
X191200D01*
X190000Y143300D01*
X188800Y145700D01*
X190217Y153284D02*
X188216Y157283D01*
X192217D01*
X190217Y153284D01*
Y154084D02*
X189016Y156483D01*
X191417D01*
X190217Y154084D01*
X218721Y129465D02*
X222721D01*
X220721Y125465D01*
X218721Y129465D01*
Y112535D02*
X222721D01*
X220721Y108535D01*
X218721Y112535D01*
X218941Y100929D02*
X222941D01*
X220941Y96929D01*
X218941Y100929D01*
Y84000D02*
X222941D01*
X220941Y80000D01*
X218941Y84000D01*
X201465Y103279D02*
X199465Y107280D01*
X203465D01*
X201465Y103279D01*
X196000Y117000D02*
X194000Y113000D01*
X192000Y117000D01*
X196000D01*
X195200Y116200D02*
X194000Y113800D01*
X192800Y116200D01*
X195200D01*
X186535Y107280D02*
X184535Y103279D01*
X182535Y107280D01*
X186535D01*
X173000Y95500D02*
X172000D01*
X171000Y96500D01*
X170000Y95500D01*
X169000D01*
X170000Y94500D01*
X169000Y93500D01*
X170000D01*
X171000Y92500D01*
X172000Y93500D01*
X173000D01*
X172000Y94500D01*
X173000Y95500D01*
X163000D02*
X162000D01*
X161000Y96500D01*
X160000Y95500D01*
X159000D01*
X160000Y94500D01*
X159000Y93500D01*
X160000D01*
X161000Y92500D01*
X162000Y93500D01*
X163000D01*
X162000Y94500D01*
X163000Y95500D01*
X153000D02*
X152000D01*
X151000Y96500D01*
X150000Y95500D01*
X149000D01*
X150000Y94500D01*
X149000Y93500D01*
X150000D01*
X151000Y92500D01*
X152000Y93500D01*
X153000D01*
X152000Y94500D01*
X153000Y95500D01*
Y73000D02*
X152000D01*
X151000Y74000D01*
X150000Y73000D01*
X149000D01*
X150000Y72000D01*
X149000Y71000D01*
X150000D01*
X151000Y70000D01*
X152000Y71000D01*
X153000D01*
X152000Y72000D01*
X153000Y73000D01*
X159000D02*
X160000Y72000D01*
X159000Y71000D01*
X160000D01*
X161000Y70000D01*
X162000Y71000D01*
X163000D01*
X162000Y72000D01*
X163000Y73000D01*
X162000D01*
X161000Y74000D01*
X160000Y73000D01*
X159000D01*
X169000D02*
X170000Y72000D01*
X169000Y71000D01*
X170000D01*
X171000Y70000D01*
X172000Y71000D01*
X173000D01*
X172000Y72000D01*
X173000Y73000D01*
X172000D01*
X171000Y74000D01*
X170000Y73000D01*
X169000D01*
X182535Y79720D02*
X186535D01*
X184535Y75721D01*
X182535Y79720D01*
X186496Y54500D02*
Y53500D01*
X185496D01*
Y51500D01*
X186496D01*
Y50500D01*
X188496D01*
Y51500D01*
X189496D01*
Y53500D01*
X188496D01*
Y54500D01*
X186496D01*
X205000D02*
Y53500D01*
X204000D01*
Y51500D01*
X205000D01*
Y50500D01*
X207000D01*
Y51500D01*
X208000D01*
Y53500D01*
X207000D01*
Y54500D01*
X205000D01*
X223504D02*
Y53500D01*
X222504D01*
Y51500D01*
X223504D01*
Y50500D01*
X225504D01*
Y51500D01*
X226504D01*
Y53500D01*
X225504D01*
Y54500D01*
X223504D01*
X248500Y80000D02*
X246500Y84000D01*
X250500D01*
X248500Y80000D01*
X269000Y66500D02*
X273000D01*
Y62500D01*
X269000D01*
Y66500D01*
X269800Y65700D02*
X272200D01*
Y63300D01*
X269800D01*
Y65700D01*
Y73300D02*
Y75700D01*
X272200D01*
Y73300D01*
X269800D01*
X273000Y72500D02*
X269000D01*
Y76500D01*
X273000D01*
Y72500D01*
Y82500D02*
X269000D01*
Y86500D01*
X273000D01*
Y82500D01*
X272200Y83300D02*
X269800D01*
Y85700D01*
X272200D01*
Y83300D01*
X273000Y92500D02*
X269000D01*
Y96500D01*
X273000D01*
Y92500D01*
X272200Y93300D02*
X269800D01*
Y95700D01*
X272200D01*
Y93300D01*
X291000Y106500D02*
Y110500D01*
X295000D01*
Y106500D01*
X291000D01*
X291800Y107300D02*
Y109700D01*
X294200D01*
Y107300D01*
X291800D01*
X291000Y116500D02*
Y120500D01*
X295000D01*
Y116500D01*
X291000D01*
X291800Y117300D02*
Y119700D01*
X294200D01*
Y117300D01*
X291800D01*
X295000Y126500D02*
X291000D01*
Y130500D01*
X295000D01*
Y126500D01*
Y136500D02*
X291000D01*
Y140500D01*
X295000D01*
Y136500D01*
X294200Y137300D02*
X291800D01*
Y139700D01*
X294200D01*
Y137300D01*
Y129700D02*
Y127300D01*
X291800D01*
Y129700D01*
X294200D01*
X273000Y150000D02*
X269000D01*
Y154000D01*
X273000D01*
Y150000D01*
X272200Y150800D02*
X269800D01*
Y153200D01*
X272200D01*
Y150800D01*
X273000Y140500D02*
Y136500D01*
X269000D01*
Y140500D01*
X273000D01*
X272200Y139700D02*
Y137300D01*
X269800D01*
Y139700D01*
X272200D01*
X273000Y130500D02*
Y126500D01*
X269000D01*
Y130500D01*
X273000D01*
X272200Y129700D02*
Y127300D01*
X269800D01*
Y129700D01*
X272200D01*
X273000Y120500D02*
Y116500D01*
X269000D01*
Y120500D01*
X273000D01*
X272200Y119700D02*
Y117300D01*
X269800D01*
Y119700D01*
X272200D01*
X273000Y110500D02*
Y106500D01*
X269000D01*
Y110500D01*
X273000D01*
X272200Y109700D02*
Y107300D01*
X269800D01*
Y109700D01*
X272200D01*
X248280Y137035D02*
X246280Y141035D01*
X250279D01*
X248280Y137035D01*
X246280Y129465D02*
X250279D01*
X248280Y125465D01*
X246280Y129465D01*
Y112535D02*
X250279D01*
X248280Y108535D01*
X246280Y112535D01*
X246500Y100929D02*
X250500D01*
X248500Y96929D01*
X246500Y100929D01*
X220721Y137035D02*
X218721Y141035D01*
X222721D01*
X220721Y137035D01*
Y153965D02*
X218721Y157965D01*
X222721D01*
X220721Y153965D01*
X213000Y136500D02*
X211000Y132500D01*
X209000Y136500D01*
X213000D01*
X212200Y135700D02*
X211000Y133300D01*
X209800Y135700D01*
X212200D01*
X248280Y153965D02*
X246280Y157965D01*
X250279D01*
X248280Y153965D01*
X269000Y160000D02*
Y164000D01*
X273000D01*
Y160000D01*
X269000D01*
X269800Y160800D02*
Y163200D01*
X272200D01*
Y160800D01*
X269800D01*
Y170800D02*
Y173200D01*
X272200D01*
Y170800D01*
X269800D01*
X273000Y170000D02*
X269000D01*
Y174000D01*
X273000D01*
Y170000D01*
Y180000D02*
X269000D01*
Y184000D01*
X273000D01*
Y180000D01*
X272200Y180800D02*
X269800D01*
Y183200D01*
X272200D01*
Y180800D01*
X256500Y204500D02*
X254500Y200500D01*
X252500Y204500D01*
X256500D01*
X255700Y203700D02*
X254500Y201300D01*
X253300Y203700D01*
X255700D01*
X254500Y208500D02*
X252500Y212500D01*
X256500D01*
X254500Y208500D01*
Y209300D02*
X253300Y211700D01*
X255700D01*
X254500Y209300D01*
X246500D02*
X245300Y211700D01*
X247700D01*
X246500Y209300D01*
Y208500D02*
X244500Y212500D01*
X248500D01*
X246500Y208500D01*
X248500Y204500D02*
X246500Y200500D01*
X244500Y204500D01*
X248500D01*
X247700Y203700D02*
X246500Y201300D01*
X245300Y203700D01*
X247700D01*
X248500Y196500D02*
X246500Y192500D01*
X244500Y196500D01*
X248500D01*
X247700Y195700D02*
X246500Y193300D01*
X245300Y195700D01*
X247700D01*
X252500Y196500D02*
X256500D01*
X254500Y192500D01*
X252500Y196500D01*
X253300Y195700D02*
X255700D01*
X254500Y193300D01*
X253300Y195700D01*
X252500Y188500D02*
X256500D01*
X254500Y184500D01*
X252500Y188500D01*
X253300Y187700D02*
X255700D01*
X254500Y185300D01*
X253300Y187700D01*
X248500Y188500D02*
X246500Y184500D01*
X244500Y188500D01*
X248500D01*
X247700Y187700D02*
X246500Y185300D01*
X245300Y187700D01*
X247700D01*
X238500Y192500D02*
X236500Y196500D01*
X240500D01*
X238500Y192500D01*
Y193300D02*
X237300Y195700D01*
X239700D01*
X238500Y193300D01*
Y200500D02*
X236500Y204500D01*
X240500D01*
X238500Y200500D01*
Y201300D02*
X237300Y203700D01*
X239700D01*
X238500Y201300D01*
X236500Y188500D02*
X240500D01*
X238500Y184500D01*
X236500Y188500D01*
X237300Y187700D02*
X239700D01*
X238500Y185300D01*
X237300Y187700D01*
X230500Y192500D02*
X228500Y196500D01*
X232500D01*
X230500Y192500D01*
Y193300D02*
X229300Y195700D01*
X231700D01*
X230500Y193300D01*
Y200500D02*
X228500Y204500D01*
X232500D01*
X230500Y200500D01*
Y201300D02*
X229300Y203700D01*
X231700D01*
X230500Y201300D01*
X222500D02*
X221300Y203700D01*
X223700D01*
X222500Y201300D01*
Y200500D02*
X220500Y204500D01*
X224500D01*
X222500Y200500D01*
X220500Y196500D02*
X224500D01*
X222500Y192500D01*
X220500Y196500D01*
X221300Y195700D02*
X223700D01*
X222500Y193300D01*
X221300Y195700D01*
X220500Y188500D02*
X224500D01*
X222500Y184500D01*
X220500Y188500D01*
X221300Y187700D02*
X223700D01*
X222500Y185300D01*
X221300Y187700D01*
X228500Y188500D02*
X232500D01*
X230500Y184500D01*
X228500Y188500D01*
X229300Y187700D02*
X231700D01*
X230500Y185300D01*
X229300Y187700D01*
X227000Y173000D02*
X225000Y169000D01*
X223000Y173000D01*
X227000D01*
X226200Y172200D02*
X225000Y169800D01*
X223800Y172200D01*
X226200D01*
X208500Y192000D02*
X206500Y196000D01*
X210500D01*
X208500Y192000D01*
Y192800D02*
X207300Y195200D01*
X209700D01*
X208500Y192800D01*
X222500Y208500D02*
X220500Y212500D01*
X224500D01*
X222500Y208500D01*
Y209300D02*
X221300Y211700D01*
X223700D01*
X222500Y209300D01*
X230500D02*
X229300Y211700D01*
X231700D01*
X230500Y209300D01*
Y208500D02*
X228500Y212500D01*
X232500D01*
X230500Y208500D01*
X238500D02*
X236500Y212500D01*
X240500D01*
X238500Y208500D01*
Y209300D02*
X237300Y211700D01*
X239700D01*
X238500Y209300D01*
X261000Y242500D02*
X259000Y246500D01*
X263000D01*
X261000Y242500D01*
Y243300D02*
X259800Y245700D01*
X262200D01*
X261000Y243300D01*
X250500Y248000D02*
X248500Y252000D01*
X252500D01*
X250500Y248000D01*
Y248800D02*
X249300Y251200D01*
X251700D01*
X250500Y248800D01*
X252343Y270500D02*
X253343D01*
X254343Y271500D01*
X255343Y270500D01*
X256343D01*
Y271500D01*
X255343Y272500D01*
X256343Y273500D01*
Y274500D01*
X255343D01*
X254343Y273500D01*
X253343Y274500D01*
X252343D01*
Y273500D01*
X253343Y272500D01*
X252343Y271500D01*
Y270500D01*
X236658Y270500D02*
Y271500D01*
X235658Y272500D01*
X236658Y273500D01*
Y274500D01*
X235658D01*
X234658Y273500D01*
X233658Y274500D01*
X232658D01*
Y273500D01*
X233658Y272500D01*
X232658Y271500D01*
Y270500D01*
X233658D01*
X234658Y271500D01*
X235658Y270500D01*
X236658D01*
X211311Y290500D02*
Y292500D01*
X210311D01*
Y293500D01*
X208311D01*
Y292500D01*
X207311D01*
Y290500D01*
X208311D01*
Y289500D01*
X210311D01*
Y290500D01*
X211311D01*
X187689D02*
Y292500D01*
X186689D01*
Y293500D01*
X184689D01*
Y292500D01*
X183689D01*
Y290500D01*
X184689D01*
Y289500D01*
X186689D01*
Y290500D01*
X187689D01*
X168500Y262500D02*
X172500D01*
X170500Y258500D01*
X168500Y262500D01*
X169300Y261700D02*
X171700D01*
X170500Y259300D01*
X169300Y261700D01*
X162500Y246000D02*
X160500Y242000D01*
X158500Y246000D01*
X162500D01*
X161700Y245200D02*
X160500Y242800D01*
X159300Y245200D01*
X161700D01*
X157500Y221000D02*
X161500D01*
X159500Y217000D01*
X157500Y221000D01*
X158300Y220200D02*
X160700D01*
X159500Y217800D01*
X158300Y220200D01*
X138500Y236500D02*
X136500Y240500D01*
X140500D01*
X138500Y236500D01*
Y237300D02*
X137300Y239700D01*
X139700D01*
X138500Y237300D01*
X136500Y218500D02*
X140500D01*
X138500Y214500D01*
X136500Y218500D01*
X137300Y217700D02*
X139700D01*
X138500Y215300D01*
X137300Y217700D01*
X124000Y218000D02*
X122000Y214000D01*
X120000Y218000D01*
X124000D01*
X123200Y217200D02*
X122000Y214800D01*
X120800Y217200D01*
X123200D01*
X124500Y209000D02*
X122500Y205000D01*
X120500Y209000D01*
X124500D01*
X123700Y208200D02*
X122500Y205800D01*
X121300Y208200D01*
X123700D01*
X140500Y196500D02*
X144500D01*
X142500Y192500D01*
X140500Y196500D01*
X141300Y195700D02*
X143700D01*
X142500Y193300D01*
X141300Y195700D01*
X115500Y195000D02*
X113500Y191000D01*
X111500Y195000D01*
X115500D01*
X114700Y194200D02*
X113500Y191800D01*
X112300Y194200D01*
X114700D01*
X109000Y194000D02*
X107000Y190000D01*
X105000Y194000D01*
X109000D01*
X108200Y193200D02*
X107000Y190800D01*
X105800Y193200D01*
X108200D01*
X98500Y185000D02*
X96500Y181000D01*
X94500Y185000D01*
X98500D01*
X97700Y184200D02*
X96500Y181800D01*
X95300Y184200D01*
X97700D01*
X106000Y172000D02*
X110000D01*
X108000Y168000D01*
X106000Y172000D01*
X106800Y171200D02*
X109200D01*
X108000Y168800D01*
X106800Y171200D01*
X102500Y158500D02*
X100500Y154500D01*
X98500Y158500D01*
X102500D01*
X101700Y157700D02*
X100500Y155300D01*
X99300Y157700D01*
X101700D01*
X112000Y161500D02*
X110000Y165500D01*
X114000D01*
X112000Y161500D01*
Y162300D02*
X110800Y164700D01*
X113200D01*
X112000Y162300D01*
X112031Y172968D02*
X110031Y176969D01*
X114032D01*
X112031Y172968D01*
Y173768D02*
X110831Y176169D01*
X113232D01*
X112031Y173768D01*
X92000Y201000D02*
X90000Y205000D01*
X94000D01*
X92000Y201000D01*
Y201800D02*
X90800Y204200D01*
X93200D01*
X92000Y201800D01*
X88500Y201000D02*
X86500Y197000D01*
X84500Y201000D01*
X88500D01*
X87700Y200200D02*
X86500Y197800D01*
X85300Y200200D01*
X87700D01*
X88500Y184000D02*
X92500D01*
X90500Y180000D01*
X88500Y184000D01*
X89300Y183200D02*
X91700D01*
X90500Y180800D01*
X89300Y183200D01*
X75000Y185000D02*
X73000Y189000D01*
X77000D01*
X75000Y185000D01*
Y185800D02*
X73800Y188200D01*
X76200D01*
X75000Y185800D01*
X60500Y191500D02*
X58500Y195500D01*
X62500D01*
X60500Y191500D01*
Y192300D02*
X59300Y194700D01*
X61700D01*
X60500Y192300D01*
X81500Y204000D02*
X79500Y208000D01*
X83500D01*
X81500Y204000D01*
Y204800D02*
X80300Y207200D01*
X82700D01*
X81500Y204800D01*
X120500Y241500D02*
X118500Y245500D01*
X122500D01*
X120500Y241500D01*
Y242300D02*
X119300Y244700D01*
X121700D01*
X120500Y242300D01*
X138500Y265500D02*
X136500Y269500D01*
X140500D01*
X138500Y265500D01*
Y266300D02*
X137300Y268700D01*
X139700D01*
X138500Y266300D01*
X123000Y273000D02*
X121000Y269000D01*
X119000Y273000D01*
X123000D01*
X122200Y272200D02*
X121000Y269800D01*
X119800Y272200D01*
X122200D01*
X181500Y206000D02*
X185500D01*
X183500Y202000D01*
X181500Y206000D01*
X182300Y205200D02*
X184700D01*
X183500Y202800D01*
X182300Y205200D01*
X176500Y187500D02*
X174500Y183500D01*
X172500Y187500D01*
X176500D01*
X175700Y186700D02*
X174500Y184300D01*
X173300Y186700D01*
X175700D01*
X91500Y147500D02*
X89500Y143500D01*
X87500Y147500D01*
X91500D01*
X90700Y146700D02*
X89500Y144300D01*
X88300Y146700D01*
X90700D01*
X73000Y157500D02*
X71000Y161500D01*
X75000D01*
X73000Y157500D01*
Y158300D02*
X71800Y160700D01*
X74200D01*
X73000Y158300D01*
X9500Y191500D02*
Y187500D01*
X5500D01*
Y191500D01*
X9500D01*
Y197500D02*
X5500D01*
Y201500D01*
X9500D01*
Y197500D01*
X8700Y198300D02*
X6300D01*
Y200700D01*
X8700D01*
Y198300D01*
Y190700D02*
Y188300D01*
X6300D01*
Y190700D01*
X8700D01*
X9500Y181500D02*
Y177500D01*
X5500D01*
Y181500D01*
X9500D01*
X8700Y180700D02*
Y178300D01*
X6300D01*
Y180700D01*
X8700D01*
X9500Y171500D02*
Y167500D01*
X5500D01*
Y171500D01*
X9500D01*
X8700Y170700D02*
Y168300D01*
X6300D01*
Y170700D01*
X8700D01*
X9500Y161500D02*
Y157500D01*
X5500D01*
Y161500D01*
X9500D01*
X8700Y160700D02*
Y158300D01*
X6300D01*
Y160700D01*
X8700D01*
X9500Y151500D02*
Y147500D01*
X5500D01*
Y151500D01*
X9500D01*
X8700Y150700D02*
Y148300D01*
X6300D01*
Y150700D01*
X8700D01*
X10000Y132000D02*
Y128000D01*
X6000D01*
Y132000D01*
X10000D01*
X9200Y131200D02*
Y128800D01*
X6800D01*
Y131200D01*
X9200D01*
X10000Y122000D02*
Y118000D01*
X6000D01*
Y122000D01*
X10000D01*
X9200Y121200D02*
Y118800D01*
X6800D01*
Y121200D01*
X9200D01*
X10000Y101000D02*
Y97000D01*
X6000D01*
Y101000D01*
X10000D01*
Y81000D02*
Y77000D01*
X6000D01*
Y81000D01*
X10000D01*
X9000Y58311D02*
Y57311D01*
X8000D01*
Y55311D01*
X9000D01*
Y54311D01*
X11000D01*
Y55311D01*
X12000D01*
Y57311D01*
X11000D01*
Y58311D01*
X9000D01*
Y34689D02*
Y33689D01*
X8000D01*
Y31689D01*
X9000D01*
Y30689D01*
X11000D01*
Y31689D01*
X12000D01*
Y33689D01*
X11000D01*
Y34689D01*
X9000D01*
X9843Y11842D02*
X8843Y10842D01*
X7842D01*
X8843Y9843D01*
X7842Y8843D01*
X8843D01*
X9843Y7842D01*
X10842Y8843D01*
X11842D01*
X10842Y9843D01*
X11842Y10842D01*
X10842D01*
X9843Y11842D01*
Y11043D02*
X9243Y10442D01*
X8642D01*
X9243Y9843D01*
X8642Y9243D01*
X9243D01*
X9843Y8642D01*
X10442Y9243D01*
X11043D01*
X10442Y9843D01*
X11043Y10442D01*
X10442D01*
X9843Y11043D01*
X91815Y38264D02*
X92815Y40264D01*
X91815Y42264D01*
X93815Y41264D01*
X95815Y42264D01*
X94815Y40264D01*
X95815Y38264D01*
X93815Y39264D01*
X91815Y38264D01*
X111500Y9587D02*
X113500Y8587D01*
X115500Y9587D01*
X114500Y7587D01*
X115500Y5587D01*
X113500Y6587D01*
X111500Y5587D01*
X112500Y7587D01*
X111500Y9587D01*
X129217Y19366D02*
X130217Y21366D01*
X129217Y23366D01*
X131217Y22366D01*
X133217Y23366D01*
X132217Y21366D01*
X133217Y19366D01*
X131217Y20366D01*
X129217Y19366D01*
X201465Y75721D02*
X199465Y79720D01*
X203465D01*
X201465Y75721D01*
X288158Y10842D02*
X289158Y9843D01*
X288158Y8843D01*
X289158D01*
X290158Y7842D01*
X291158Y8843D01*
X292158D01*
X291158Y9843D01*
X292158Y10842D01*
X291158D01*
X290158Y11842D01*
X289158Y10842D01*
X288158D01*
X288958Y10442D02*
X289558Y9843D01*
X288958Y9243D01*
X289558D01*
X290158Y8642D01*
X290757Y9243D01*
X291357D01*
X290757Y9843D01*
X291357Y10442D01*
X290757D01*
X290158Y11043D01*
X289558Y10442D01*
X288958D01*
X287827Y22327D02*
X285827Y26327D01*
X289827D01*
X287827Y22327D01*
Y23127D02*
X286627Y25527D01*
X289027D01*
X287827Y23127D01*
X290500Y247000D02*
X288500Y251000D01*
X292500D01*
X290500Y247000D01*
Y247800D02*
X289300Y250200D01*
X291700D01*
X290500Y247800D01*
X290158Y288158D02*
X291158Y289158D01*
X292158D01*
X291158Y290158D01*
X292158Y291158D01*
X291158D01*
X290158Y292158D01*
X289158Y291158D01*
X288158D01*
X289158Y290158D01*
X288158Y289158D01*
X289158D01*
X290158Y288158D01*
Y288958D02*
X290757Y289558D01*
X291357D01*
X290757Y290158D01*
X291357Y290757D01*
X290757D01*
X290158Y291357D01*
X289558Y290757D01*
X288958D01*
X289558Y290158D01*
X288958Y289558D01*
X289558D01*
X290158Y288958D01*
D119*
X142157Y116500D02*
G03*
X142157Y116500I-2000J0D01*
G01*
X161843D02*
G03*
X161843Y116500I-2000J0D01*
G01*
X189500Y226736D02*
G03*
X189500Y226736I-2000J0D01*
G01*
Y256264D02*
G03*
X189500Y256264I-2000J0D01*
G01*
D120*
X141358Y116500D02*
G03*
X141358Y116500I-1200J0D01*
G01*
X161042D02*
G03*
X161042Y116500I-1200J0D01*
G01*
M02*
