%FSLAX25Y25*%
%MOIN*%
G70*
G01*
G75*
G04 Layer_Color=2752767*
%ADD10R,0.06693X0.04331*%
%ADD11R,0.04331X0.06693*%
%ADD12R,0.02362X0.04528*%
%ADD13R,0.23622X0.23622*%
%ADD14O,0.00984X0.06102*%
%ADD15O,0.06102X0.00984*%
%ADD16R,0.07087X0.07480*%
%ADD17R,0.00945X0.05315*%
%ADD18R,0.08268X0.06299*%
%ADD19R,0.05512X0.04331*%
%ADD20R,0.04331X0.05512*%
%ADD21R,0.03937X0.11417*%
%ADD22R,0.40945X0.31496*%
%ADD23R,0.03543X0.02756*%
%ADD24R,0.02756X0.03543*%
%ADD25R,0.05906X0.05906*%
%ADD26R,0.14370X0.05709*%
%ADD27R,0.13189X0.05315*%
%ADD28O,0.02756X0.09055*%
%ADD29R,0.00984X0.04429*%
%ADD30R,0.04429X0.00984*%
%ADD31C,0.00800*%
%ADD32C,0.03000*%
%ADD33C,0.05000*%
%ADD34C,0.13000*%
%ADD35C,0.01000*%
%ADD36C,0.10000*%
%ADD37C,0.06000*%
%ADD38C,0.02500*%
%ADD39C,0.02000*%
%ADD40C,0.00700*%
%ADD41C,0.04000*%
%ADD42R,0.03000X0.35500*%
%ADD43R,0.48500X0.03000*%
%ADD44C,0.05906*%
%ADD45C,0.12600*%
%ADD46C,0.05118*%
%ADD47R,0.06299X0.06299*%
%ADD48C,0.06299*%
%ADD49C,0.10600*%
%ADD50R,0.10600X0.10600*%
%ADD51R,0.08600X0.08600*%
%ADD52C,0.08600*%
%ADD53C,0.07200*%
%ADD54R,0.10600X0.10600*%
%ADD55R,0.03976X0.03976*%
%ADD56C,0.03976*%
%ADD57C,0.05500*%
%ADD58R,0.05500X0.05500*%
%ADD59R,0.05500X0.05500*%
%ADD60C,0.05118*%
%ADD61R,0.05118X0.05118*%
%ADD62C,0.06693*%
%ADD63R,0.06693X0.06693*%
%ADD64C,0.05000*%
%ADD65C,0.12992*%
%ADD66R,0.03000X0.05000*%
%ADD67R,0.10512X0.10000*%
%ADD68C,0.00984*%
%ADD69C,0.02362*%
%ADD70C,0.00787*%
%ADD71C,0.00394*%
%ADD72C,0.00591*%
%ADD73R,0.07493X0.05131*%
%ADD74R,0.05131X0.07493*%
%ADD75R,0.03162X0.05328*%
%ADD76R,0.24422X0.24422*%
%ADD77O,0.01784X0.06902*%
%ADD78O,0.06902X0.01784*%
%ADD79R,0.07887X0.08280*%
%ADD80R,0.01745X0.06115*%
%ADD81R,0.09068X0.07099*%
%ADD82R,0.06312X0.05131*%
%ADD83R,0.05131X0.06312*%
%ADD84R,0.04737X0.12217*%
%ADD85R,0.41745X0.32296*%
%ADD86R,0.04343X0.03556*%
%ADD87R,0.03556X0.04343*%
%ADD88R,0.06706X0.06706*%
%ADD89R,0.15170X0.06509*%
%ADD90R,0.13989X0.06115*%
%ADD91O,0.03556X0.09855*%
%ADD92R,0.01784X0.05229*%
%ADD93R,0.05229X0.01784*%
%ADD94C,0.06706*%
%ADD95C,0.13400*%
%ADD96C,0.05918*%
%ADD97R,0.07099X0.07099*%
%ADD98C,0.07099*%
%ADD99C,0.11400*%
%ADD100R,0.11400X0.11400*%
%ADD101R,0.09400X0.09400*%
%ADD102C,0.09400*%
%ADD103C,0.08000*%
%ADD104R,0.11400X0.11400*%
%ADD105R,0.04776X0.04776*%
%ADD106C,0.04776*%
%ADD107C,0.06300*%
%ADD108R,0.06300X0.06300*%
%ADD109R,0.06300X0.06300*%
%ADD110C,0.05918*%
%ADD111R,0.05918X0.05918*%
%ADD112C,0.07493*%
%ADD113R,0.07493X0.07493*%
%ADD114C,0.05800*%
%ADD115C,0.13792*%
%ADD116R,0.03800X0.05800*%
%ADD117R,0.11312X0.10800*%
%ADD118C,0.00500*%
%ADD119C,0.00667*%
%ADD120C,0.00400*%
D118*
X43500Y13079D02*
X45500D01*
Y14079D01*
X46500D01*
Y16079D01*
X45500D01*
Y17079D01*
X43500D01*
Y16079D01*
X42500D01*
Y14079D01*
X43500D01*
Y13079D01*
X60216Y25890D02*
X61216D01*
Y24890D01*
X63217D01*
Y25890D01*
X64217D01*
Y27890D01*
X63217D01*
Y28890D01*
X61216D01*
Y27890D01*
X60216D01*
Y25890D01*
X45500Y36701D02*
Y37701D01*
X46500D01*
Y39701D01*
X45500D01*
Y40701D01*
X43500D01*
Y39701D01*
X42500D01*
Y37701D01*
X43500D01*
Y36701D01*
X45500D01*
X11842Y10842D02*
X10842D01*
X9843Y11842D01*
X8843Y10842D01*
X7842D01*
X8843Y9843D01*
X7842Y8843D01*
X8843D01*
X9843Y7842D01*
X10842Y8843D01*
X11842D01*
X10842Y9843D01*
X11842Y10842D01*
X11043Y10442D02*
X10442D01*
X9843Y11043D01*
X9243Y10442D01*
X8642D01*
X9243Y9843D01*
X8642Y9243D01*
X9243D01*
X9843Y8642D01*
X10442Y9243D01*
X11043D01*
X10442Y9843D01*
X11043Y10442D01*
X92815Y38264D02*
X94815D01*
Y39264D01*
X95815D01*
Y41264D01*
X94815D01*
Y42264D01*
X92815D01*
Y41264D01*
X91815D01*
Y39264D01*
X92815D01*
Y38264D01*
X112500Y9587D02*
Y8587D01*
X111500D01*
Y6587D01*
X112500D01*
Y5587D01*
X114500D01*
Y6587D01*
X115500D01*
Y8587D01*
X114500D01*
Y9587D01*
X112500D01*
X130217Y19366D02*
X132217D01*
Y20366D01*
X133217D01*
Y22366D01*
X132217D01*
Y23366D01*
X130217D01*
Y22366D01*
X129217D01*
Y20366D01*
X130217D01*
Y19366D01*
X172000Y70000D02*
X173000D01*
Y71000D01*
X172000Y72000D01*
X173000Y73000D01*
Y74000D01*
X172000D01*
X171000Y73000D01*
X170000Y74000D01*
X169000D01*
Y73000D01*
X170000Y72000D01*
X169000Y71000D01*
Y70000D01*
X170000D01*
X171000Y71000D01*
X172000Y70000D01*
X182535Y77720D02*
X184535Y79720D01*
X186535Y77720D01*
X184535Y75721D01*
X182535Y77720D01*
X173000Y92500D02*
Y93500D01*
X172000Y94500D01*
X173000Y95500D01*
Y96500D01*
X172000D01*
X171000Y95500D01*
X170000Y96500D01*
X169000D01*
Y95500D01*
X170000Y94500D01*
X169000Y93500D01*
Y92500D01*
X170000D01*
X171000Y93500D01*
X172000Y92500D01*
X173000D01*
X184535Y103279D02*
X182535Y105280D01*
X184535Y107280D01*
X186535Y105280D01*
X184535Y103279D01*
X201465D02*
X199465Y105280D01*
X201465Y107280D01*
X203465Y105280D01*
X201465Y103279D01*
X218941Y82000D02*
X220941Y84000D01*
X222941Y82000D01*
X220941Y80000D01*
X218941Y82000D01*
X220941Y96929D02*
X218941Y98929D01*
X220941Y100929D01*
X222941Y98929D01*
X220941Y96929D01*
X220721Y108535D02*
X218721Y110535D01*
X220721Y112535D01*
X222721Y110535D01*
X220721Y108535D01*
Y125465D02*
X218721Y127465D01*
X220721Y129465D01*
X222721Y127465D01*
X220721Y125465D01*
Y137035D02*
X218721Y139035D01*
X220721Y141035D01*
X222721Y139035D01*
X220721Y137035D01*
Y153965D02*
X218721Y155965D01*
X220721Y157965D01*
X222721Y155965D01*
X220721Y153965D01*
X213000Y136500D02*
X211000Y132500D01*
X209000Y136500D01*
X213000D01*
X212200Y135700D02*
X211000Y133300D01*
X209800Y135700D01*
X212200D01*
X196000Y117000D02*
X194000Y113000D01*
X192000Y117000D01*
X196000D01*
X195200Y116200D02*
X194000Y113800D01*
X192800Y116200D01*
X195200D01*
X161843Y118500D02*
X159843Y114500D01*
X157843Y118500D01*
X161843D01*
X153000Y96500D02*
X152000D01*
X151000Y95500D01*
X150000Y96500D01*
X149000D01*
Y95500D01*
X150000Y94500D01*
X149000Y93500D01*
Y92500D01*
X150000D01*
X151000Y93500D01*
X152000Y92500D01*
X153000D01*
Y93500D01*
X152000Y94500D01*
X153000Y95500D01*
Y96500D01*
X159000Y92500D02*
X160000D01*
X161000Y93500D01*
X162000Y92500D01*
X163000D01*
Y93500D01*
X162000Y94500D01*
X163000Y95500D01*
Y96500D01*
X162000D01*
X161000Y95500D01*
X160000Y96500D01*
X159000D01*
Y95500D01*
X160000Y94500D01*
X159000Y93500D01*
Y92500D01*
Y74000D02*
Y73000D01*
X160000Y72000D01*
X159000Y71000D01*
Y70000D01*
X160000D01*
X161000Y71000D01*
X162000Y70000D01*
X163000D01*
Y71000D01*
X162000Y72000D01*
X163000Y73000D01*
Y74000D01*
X162000D01*
X161000Y73000D01*
X160000Y74000D01*
X159000D01*
X153000D02*
X152000D01*
X151000Y73000D01*
X150000Y74000D01*
X149000D01*
Y73000D01*
X150000Y72000D01*
X149000Y71000D01*
Y70000D01*
X150000D01*
X151000Y71000D01*
X152000Y70000D01*
X153000D01*
Y71000D01*
X152000Y72000D01*
X153000Y73000D01*
Y74000D01*
X140157Y114500D02*
X138157Y118500D01*
X142157D01*
X140157Y114500D01*
X143000Y134000D02*
X141000Y138000D01*
X145000D01*
X143000Y134000D01*
Y134800D02*
X141800Y137200D01*
X144200D01*
X143000Y134800D01*
X166779Y149279D02*
X164779Y153279D01*
X168780D01*
X166779Y149279D01*
Y150080D02*
X165579Y152480D01*
X167980D01*
X166779Y150080D01*
X175347Y150146D02*
X174146Y152547D01*
X176547D01*
X175347Y150146D01*
Y149346D02*
X173346Y153347D01*
X177347D01*
X175347Y149346D01*
X188000Y146500D02*
X192000D01*
X190000Y142500D01*
X188000Y146500D01*
X188800Y145700D02*
X191200D01*
X190000Y143300D01*
X188800Y145700D01*
X190217Y153284D02*
X188216Y157283D01*
X192217D01*
X190217Y153284D01*
Y154084D02*
X189016Y156483D01*
X191417D01*
X190217Y154084D01*
X225000Y169000D02*
X223000Y173000D01*
X227000D01*
X225000Y169000D01*
Y169800D02*
X223800Y172200D01*
X226200D01*
X225000Y169800D01*
X238500Y184500D02*
X236500Y188500D01*
X240500D01*
X238500Y184500D01*
Y185300D02*
X237300Y187700D01*
X239700D01*
X238500Y185300D01*
X244500Y188500D02*
X248500D01*
X246500Y184500D01*
X244500Y188500D01*
X245300Y187700D02*
X247700D01*
X246500Y185300D01*
X245300Y187700D01*
X252500Y188500D02*
X256500D01*
X254500Y184500D01*
X252500Y188500D01*
X253300Y187700D02*
X255700D01*
X254500Y185300D01*
X253300Y187700D01*
X269000Y174000D02*
X273000D01*
Y170000D01*
X269000D01*
Y174000D01*
Y164000D02*
X273000D01*
Y160000D01*
X269000D01*
Y164000D01*
Y154000D02*
X273000D01*
Y150000D01*
X269000D01*
Y154000D01*
Y140500D02*
X273000D01*
Y136500D01*
X269000D01*
Y140500D01*
Y130500D02*
X273000D01*
Y126500D01*
X269000D01*
Y130500D01*
Y120500D02*
X273000D01*
Y116500D01*
X269000D01*
Y120500D01*
Y110500D02*
X273000D01*
Y106500D01*
X269000D01*
Y110500D01*
Y96500D02*
X273000D01*
Y92500D01*
X269000D01*
Y96500D01*
Y86500D02*
X273000D01*
Y82500D01*
X269000D01*
Y86500D01*
Y76500D02*
X273000D01*
Y72500D01*
X269000D01*
Y76500D01*
Y66500D02*
X273000D01*
Y62500D01*
X269000D01*
Y66500D01*
X248500Y80000D02*
X246500Y82000D01*
X248500Y84000D01*
X250500Y82000D01*
X248500Y80000D01*
Y96929D02*
X246500Y98929D01*
X248500Y100929D01*
X250500Y98929D01*
X248500Y96929D01*
X248280Y108535D02*
X246280Y110535D01*
X248280Y112535D01*
X250279Y110535D01*
X248280Y108535D01*
Y125465D02*
X246280Y127465D01*
X248280Y129465D01*
X250279Y127465D01*
X248280Y125465D01*
Y137035D02*
X246280Y139035D01*
X248280Y141035D01*
X250279Y139035D01*
X248280Y137035D01*
Y153965D02*
X246280Y155965D01*
X248280Y157965D01*
X250279Y155965D01*
X248280Y153965D01*
X291000Y116500D02*
Y120500D01*
X295000D01*
Y116500D01*
X291000D01*
Y110500D02*
X295000D01*
Y106500D01*
X291000D01*
Y110500D01*
X295000Y126500D02*
X291000D01*
Y130500D01*
X295000D01*
Y126500D01*
Y136500D02*
X291000D01*
Y140500D01*
X295000D01*
Y136500D01*
X273000Y180000D02*
X269000D01*
Y184000D01*
X273000D01*
Y180000D01*
X256500Y204500D02*
X254500Y200500D01*
X252500Y204500D01*
X256500D01*
X255700Y203700D02*
X254500Y201300D01*
X253300Y203700D01*
X255700D01*
X254500Y208500D02*
X252500Y212500D01*
X256500D01*
X254500Y208500D01*
Y209300D02*
X253300Y211700D01*
X255700D01*
X254500Y209300D01*
X246500D02*
X245300Y211700D01*
X247700D01*
X246500Y209300D01*
Y208500D02*
X244500Y212500D01*
X248500D01*
X246500Y208500D01*
X248500Y204500D02*
X246500Y200500D01*
X244500Y204500D01*
X248500D01*
X247700Y203700D02*
X246500Y201300D01*
X245300Y203700D01*
X247700D01*
X248500Y196500D02*
X246500Y192500D01*
X244500Y196500D01*
X248500D01*
X247700Y195700D02*
X246500Y193300D01*
X245300Y195700D01*
X247700D01*
X252500Y196500D02*
X256500D01*
X254500Y192500D01*
X252500Y196500D01*
X253300Y195700D02*
X255700D01*
X254500Y193300D01*
X253300Y195700D01*
X240500Y204500D02*
X238500Y200500D01*
X236500Y204500D01*
X240500D01*
X239700Y203700D02*
X238500Y201300D01*
X237300Y203700D01*
X239700D01*
X238500Y208500D02*
X236500Y212500D01*
X240500D01*
X238500Y208500D01*
Y209300D02*
X237300Y211700D01*
X239700D01*
X238500Y209300D01*
X236500Y196500D02*
X240500D01*
X238500Y192500D01*
X236500Y196500D01*
X237300Y195700D02*
X239700D01*
X238500Y193300D01*
X237300Y195700D01*
X232500Y204500D02*
X230500Y200500D01*
X228500Y204500D01*
X232500D01*
X231700Y203700D02*
X230500Y201300D01*
X229300Y203700D01*
X231700D01*
X230500Y208500D02*
X228500Y212500D01*
X232500D01*
X230500Y208500D01*
Y209300D02*
X229300Y211700D01*
X231700D01*
X230500Y209300D01*
X222500D02*
X221300Y211700D01*
X223700D01*
X222500Y209300D01*
Y208500D02*
X220500Y212500D01*
X224500D01*
X222500Y208500D01*
X220500Y204500D02*
X224500D01*
X222500Y200500D01*
X220500Y204500D01*
X221300Y203700D02*
X223700D01*
X222500Y201300D01*
X221300Y203700D01*
X220500Y196500D02*
X224500D01*
X222500Y192500D01*
X220500Y196500D01*
X221300Y195700D02*
X223700D01*
X222500Y193300D01*
X221300Y195700D01*
X228500Y196500D02*
X232500D01*
X230500Y192500D01*
X228500Y196500D01*
X229300Y195700D02*
X231700D01*
X230500Y193300D01*
X229300Y195700D01*
X228500Y188500D02*
X232500D01*
X230500Y184500D01*
X228500Y188500D01*
X229300Y187700D02*
X231700D01*
X230500Y185300D01*
X229300Y187700D01*
X224500Y188500D02*
X222500Y184500D01*
X220500Y188500D01*
X224500D01*
X223700Y187700D02*
X222500Y185300D01*
X221300Y187700D01*
X223700D01*
X208500Y192000D02*
X206500Y196000D01*
X210500D01*
X208500Y192000D01*
Y192800D02*
X207300Y195200D01*
X209700D01*
X208500Y192800D01*
X189500Y224736D02*
X185500D01*
Y228736D01*
X189500D01*
Y224736D01*
X188700Y225536D02*
X186300D01*
Y227936D01*
X188700D01*
Y225536D01*
X185500Y206000D02*
X183500Y202000D01*
X181500Y206000D01*
X185500D01*
X184700Y205200D02*
X183500Y202800D01*
X182300Y205200D01*
X184700D01*
X176500Y187500D02*
X174500Y183500D01*
X172500Y187500D01*
X176500D01*
X175700Y186700D02*
X174500Y184300D01*
X173300Y186700D01*
X175700D01*
X159500Y217000D02*
X157500Y221000D01*
X161500D01*
X159500Y217000D01*
Y217800D02*
X158300Y220200D01*
X160700D01*
X159500Y217800D01*
X160500Y242000D02*
X158500Y246000D01*
X162500D01*
X160500Y242000D01*
Y242800D02*
X159300Y245200D01*
X161700D01*
X160500Y242800D01*
X171700Y261700D02*
X170500Y259300D01*
X169300Y261700D01*
X171700D01*
X172500Y262500D02*
X170500Y258500D01*
X168500Y262500D01*
X172500D01*
X185500Y258264D02*
X189500D01*
Y254264D01*
X185500D01*
Y258264D01*
X186300Y257464D02*
X188700D01*
Y255064D01*
X186300D01*
Y257464D01*
X232658Y270500D02*
X233658Y272500D01*
X232658Y274500D01*
X234658Y273500D01*
X236658Y274500D01*
X235658Y272500D01*
X236658Y270500D01*
X234658Y271500D01*
X232658Y270500D01*
X248500Y252000D02*
X252500D01*
X250500Y248000D01*
X248500Y252000D01*
X249300Y251200D02*
X251700D01*
X250500Y248800D01*
X249300Y251200D01*
X259000Y246500D02*
X263000D01*
X261000Y242500D01*
X259000Y246500D01*
X259800Y245700D02*
X262200D01*
X261000Y243300D01*
X259800Y245700D01*
X290500Y247000D02*
X288500Y251000D01*
X292500D01*
X290500Y247000D01*
Y247800D02*
X289300Y250200D01*
X291700D01*
X290500Y247800D01*
X290158Y288158D02*
X291158Y289158D01*
X292158D01*
X291158Y290158D01*
X292158Y291158D01*
X291158D01*
X290158Y292158D01*
X289158Y291158D01*
X288158D01*
X289158Y290158D01*
X288158Y289158D01*
X289158D01*
X290158Y288158D01*
Y288958D02*
X290757Y289558D01*
X291357D01*
X290757Y290158D01*
X291357Y290757D01*
X290757D01*
X290158Y291357D01*
X289558Y290757D01*
X288958D01*
X289558Y290158D01*
X288958Y289558D01*
X289558D01*
X290158Y288958D01*
X256343Y274500D02*
X255343Y272500D01*
X256343Y270500D01*
X254343Y271500D01*
X252343Y270500D01*
X253343Y272500D01*
X252343Y274500D01*
X254343Y273500D01*
X256343Y274500D01*
X140500Y269500D02*
X138500Y265500D01*
X136500Y269500D01*
X140500D01*
X139700Y268700D02*
X138500Y266300D01*
X137300Y268700D01*
X139700D01*
X123000Y273000D02*
X121000Y269000D01*
X119000Y273000D01*
X123000D01*
X122200Y272200D02*
X121000Y269800D01*
X119800Y272200D01*
X122200D01*
X121700Y244700D02*
X120500Y242300D01*
X119300Y244700D01*
X121700D01*
X118500Y245500D02*
X122500D01*
X120500Y241500D01*
X118500Y245500D01*
X120000Y218000D02*
X124000D01*
X122000Y214000D01*
X120000Y218000D01*
X120800Y217200D02*
X123200D01*
X122000Y214800D01*
X120800Y217200D01*
X120500Y209000D02*
X124500D01*
X122500Y205000D01*
X120500Y209000D01*
X121300Y208200D02*
X123700D01*
X122500Y205800D01*
X121300Y208200D01*
X115500Y195000D02*
X113500Y191000D01*
X111500Y195000D01*
X115500D01*
X114700Y194200D02*
X113500Y191800D01*
X112300Y194200D01*
X114700D01*
X109000Y194000D02*
X107000Y190000D01*
X105000Y194000D01*
X109000D01*
X108200Y193200D02*
X107000Y190800D01*
X105800Y193200D01*
X108200D01*
X98500Y185000D02*
X96500Y181000D01*
X94500Y185000D01*
X98500D01*
X97700Y184200D02*
X96500Y181800D01*
X95300Y184200D01*
X97700D01*
X106000Y172000D02*
X110000D01*
X108000Y168000D01*
X106000Y172000D01*
X106800Y171200D02*
X109200D01*
X108000Y168800D01*
X106800Y171200D01*
X102500Y158500D02*
X100500Y154500D01*
X98500Y158500D01*
X102500D01*
X101700Y157700D02*
X100500Y155300D01*
X99300Y157700D01*
X101700D01*
X112000Y161500D02*
X110000Y165500D01*
X114000D01*
X112000Y161500D01*
Y162300D02*
X110800Y164700D01*
X113200D01*
X112000Y162300D01*
X112031Y172968D02*
X110031Y176969D01*
X114032D01*
X112031Y172968D01*
Y173768D02*
X110831Y176169D01*
X113232D01*
X112031Y173768D01*
X142500Y192500D02*
X140500Y196500D01*
X144500D01*
X142500Y192500D01*
Y193300D02*
X141300Y195700D01*
X143700D01*
X142500Y193300D01*
X138500Y214500D02*
X136500Y218500D01*
X140500D01*
X138500Y214500D01*
Y215300D02*
X137300Y217700D01*
X139700D01*
X138500Y215300D01*
Y236500D02*
X136500Y240500D01*
X140500D01*
X138500Y236500D01*
Y237300D02*
X137300Y239700D01*
X139700D01*
X138500Y237300D01*
X94000Y205000D02*
X92000Y201000D01*
X90000Y205000D01*
X94000D01*
X93200Y204200D02*
X92000Y201800D01*
X90800Y204200D01*
X93200D01*
X88500Y201000D02*
X86500Y197000D01*
X84500Y201000D01*
X88500D01*
X87700Y200200D02*
X86500Y197800D01*
X85300Y200200D01*
X87700D01*
X88500Y184000D02*
X92500D01*
X90500Y180000D01*
X88500Y184000D01*
X89300Y183200D02*
X91700D01*
X90500Y180800D01*
X89300Y183200D01*
X75000Y185000D02*
X73000Y189000D01*
X77000D01*
X75000Y185000D01*
Y185800D02*
X73800Y188200D01*
X76200D01*
X75000Y185800D01*
X60500Y191500D02*
X58500Y195500D01*
X62500D01*
X60500Y191500D01*
Y192300D02*
X59300Y194700D01*
X61700D01*
X60500Y192300D01*
X81500Y204000D02*
X79500Y208000D01*
X83500D01*
X81500Y204000D01*
Y204800D02*
X80300Y207200D01*
X82700D01*
X81500Y204800D01*
X71000Y161500D02*
X75000D01*
X73000Y157500D01*
X71000Y161500D01*
X71800Y160700D02*
X74200D01*
X73000Y158300D01*
X71800Y160700D01*
X87500Y147500D02*
X91500D01*
X89500Y143500D01*
X87500Y147500D01*
X88300Y146700D02*
X90700D01*
X89500Y144300D01*
X88300Y146700D01*
X99500Y119500D02*
X103500D01*
X101500Y115500D01*
X99500Y119500D01*
X100300Y118700D02*
X102700D01*
X101500Y116300D01*
X100300Y118700D01*
X95260Y94000D02*
X94260D01*
X93260Y95000D01*
X92260Y94000D01*
X91260D01*
X92260Y93000D01*
X91260Y92000D01*
X92260D01*
X93260Y91000D01*
X94260Y92000D01*
X95260D01*
X94260Y93000D01*
X95260Y94000D01*
X85260D02*
X84260D01*
X83260Y95000D01*
X82260Y94000D01*
X81260D01*
X82260Y93000D01*
X81260Y92000D01*
X82260D01*
X83260Y91000D01*
X84260Y92000D01*
X85260D01*
X84260Y93000D01*
X85260Y94000D01*
X101260Y92000D02*
X102260D01*
X103260Y91000D01*
X104260Y92000D01*
X105260D01*
X104260Y93000D01*
X105260Y94000D01*
X104260D01*
X103260Y95000D01*
X102260Y94000D01*
X101260D01*
X102260Y93000D01*
X101260Y92000D01*
X51953Y112500D02*
X49953Y116500D01*
X53953D01*
X51953Y112500D01*
Y113300D02*
X50753Y115700D01*
X53153D01*
X51953Y113300D01*
X51500Y96000D02*
X55500D01*
X53500Y92000D01*
X51500Y96000D01*
X52300Y95200D02*
X54700D01*
X53500Y92800D01*
X52300Y95200D01*
X9500Y147500D02*
X5500D01*
Y151500D01*
X9500D01*
Y147500D01*
X10000Y132000D02*
Y128000D01*
X6000D01*
Y132000D01*
X10000D01*
Y122000D02*
Y118000D01*
X6000D01*
Y122000D01*
X10000D01*
X9500Y157500D02*
X5500D01*
Y161500D01*
X9500D01*
Y157500D01*
Y167500D02*
X5500D01*
Y171500D01*
X9500D01*
Y167500D01*
Y177500D02*
X5500D01*
Y181500D01*
X9500D01*
Y177500D01*
Y187500D02*
X5500D01*
Y191500D01*
X9500D01*
Y187500D01*
Y197500D02*
X5500D01*
Y201500D01*
X9500D01*
Y197500D01*
X199465Y77720D02*
X201465Y79720D01*
X203465Y77720D01*
X201465Y75721D01*
X199465Y77720D01*
X288158Y10842D02*
X289158Y9843D01*
X288158Y8843D01*
X289158D01*
X290158Y7842D01*
X291158Y8843D01*
X292158D01*
X291158Y9843D01*
X292158Y10842D01*
X291158D01*
X290158Y11842D01*
X289158Y10842D01*
X288158D01*
X288958Y10442D02*
X289558Y9843D01*
X288958Y9243D01*
X289558D01*
X290158Y8642D01*
X290757Y9243D01*
X291357D01*
X290757Y9843D01*
X291357Y10442D01*
X290757D01*
X290158Y11043D01*
X289558Y10442D01*
X288958D01*
X287827Y22327D02*
X285827Y26327D01*
X289827D01*
X287827Y22327D01*
Y23127D02*
X286627Y25527D01*
X289027D01*
X287827Y23127D01*
D119*
X12000Y32689D02*
G03*
X12000Y32689I-2000J0D01*
G01*
X36500Y60000D02*
G03*
X36500Y60000I-2000J0D01*
G01*
Y80000D02*
G03*
X36500Y80000I-2000J0D01*
G01*
X12000Y56311D02*
G03*
X12000Y56311I-2000J0D01*
G01*
X10000Y79000D02*
G03*
X10000Y79000I-2000J0D01*
G01*
Y99000D02*
G03*
X10000Y99000I-2000J0D01*
G01*
X189496Y52500D02*
G03*
X189496Y52500I-2000J0D01*
G01*
X208000D02*
G03*
X208000Y52500I-2000J0D01*
G01*
X226504D02*
G03*
X226504Y52500I-2000J0D01*
G01*
X211311Y291500D02*
G03*
X211311Y291500I-2000J0D01*
G01*
X187689D02*
G03*
X187689Y291500I-2000J0D01*
G01*
D120*
X35700Y60000D02*
G03*
X35700Y60000I-1200J0D01*
G01*
Y80000D02*
G03*
X35700Y80000I-1200J0D01*
G01*
X9200Y99000D02*
G03*
X9200Y99000I-1200J0D01*
G01*
Y79000D02*
G03*
X9200Y79000I-1200J0D01*
G01*
M02*
