%FSLAX25Y25*%
%MOIN*%
G70*
G01*
G75*
G04 Layer_Color=65535*
%ADD10R,0.06693X0.04331*%
%ADD11R,0.04331X0.06693*%
%ADD12R,0.02362X0.04528*%
%ADD13R,0.23622X0.23622*%
%ADD14O,0.00984X0.06102*%
%ADD15O,0.06102X0.00984*%
%ADD16R,0.07087X0.07480*%
%ADD17R,0.00945X0.05315*%
%ADD18R,0.08268X0.06299*%
%ADD19R,0.05512X0.04331*%
%ADD20R,0.04331X0.05512*%
%ADD21R,0.03937X0.11417*%
%ADD22R,0.40945X0.31496*%
%ADD23R,0.03543X0.02756*%
%ADD24R,0.02756X0.03543*%
%ADD25R,0.05906X0.05906*%
%ADD26R,0.14370X0.05709*%
%ADD27R,0.13189X0.05315*%
%ADD28O,0.02756X0.09055*%
%ADD29R,0.00984X0.04429*%
%ADD30R,0.04429X0.00984*%
%ADD31C,0.00700*%
%ADD32C,0.02500*%
%ADD33C,0.00800*%
%ADD34C,0.03000*%
%ADD35C,0.05000*%
%ADD36C,0.13000*%
%ADD37C,0.01000*%
%ADD38C,0.10000*%
%ADD39C,0.06000*%
%ADD40C,0.02000*%
%ADD41C,0.04000*%
%ADD42R,0.03000X0.35500*%
%ADD43R,0.48500X0.03000*%
%ADD44C,0.04724*%
%ADD45R,0.04724X0.04724*%
%ADD46C,0.05906*%
%ADD47C,0.12600*%
%ADD48C,0.05118*%
%ADD49R,0.06299X0.06299*%
%ADD50C,0.06299*%
%ADD51C,0.10600*%
%ADD52R,0.10600X0.10600*%
%ADD53R,0.08600X0.08600*%
%ADD54C,0.08600*%
%ADD55C,0.07200*%
%ADD56R,0.10600X0.10600*%
%ADD57R,0.03976X0.03976*%
%ADD58C,0.03976*%
%ADD59C,0.05500*%
%ADD60R,0.05500X0.05500*%
%ADD61R,0.05500X0.05500*%
%ADD62C,0.05118*%
%ADD63R,0.05118X0.05118*%
%ADD64C,0.06693*%
%ADD65R,0.06693X0.06693*%
%ADD66C,0.05000*%
%ADD67C,0.12992*%
%ADD68R,0.03000X0.05000*%
%ADD69R,0.10512X0.10000*%
%ADD70C,0.00984*%
%ADD71C,0.02362*%
%ADD72C,0.00787*%
%ADD73C,0.00394*%
%ADD74C,0.00591*%
G36*
X296522Y71999D02*
X296533D01*
X296556Y71988D01*
X296590Y71943D01*
X296623Y71909D01*
X296657Y71864D01*
X297433Y71133D01*
X297444Y71122D01*
X297455Y71100D01*
X297478Y71066D01*
X297489Y71032D01*
Y71021D01*
X297500Y70987D01*
Y70942D01*
Y68054D01*
Y68042D01*
Y68009D01*
Y67986D01*
X297489Y67964D01*
Y67941D01*
X297478Y67930D01*
X297455Y67919D01*
X296635Y67087D01*
X296623Y67076D01*
X296590Y67053D01*
X296545Y67020D01*
X296477Y67008D01*
X293847D01*
X293858Y67020D01*
X293926D01*
X293195Y67267D01*
X292509Y67031D01*
X292476Y67008D01*
X290453D01*
X290408Y67031D01*
X290351Y67064D01*
X290318Y67098D01*
X290273Y67143D01*
X289508Y67863D01*
X289497Y67874D01*
X289463Y67896D01*
X289441Y67930D01*
X289430Y67964D01*
X289418Y67975D01*
Y68009D01*
Y68054D01*
Y70942D01*
Y70954D01*
Y70976D01*
Y71010D01*
X289430Y71021D01*
Y71032D01*
Y71043D01*
X289441Y71066D01*
X289463Y71077D01*
X290329Y71931D01*
X290340Y71943D01*
X290374Y71965D01*
X290408Y71988D01*
X290430Y71999D01*
X290441Y72010D01*
X292453D01*
X292476Y71999D01*
X292453D01*
X293195Y71752D01*
X293937Y71999D01*
X293926D01*
X293937Y72010D01*
X296500D01*
X296522Y71999D01*
D02*
G37*
G36*
Y64491D02*
X296533D01*
X296556Y64479D01*
X296590Y64434D01*
X296623Y64401D01*
X296657Y64356D01*
X297433Y63625D01*
X297444Y63614D01*
X297455Y63591D01*
X297478Y63558D01*
X297489Y63524D01*
Y63513D01*
X297500Y63479D01*
Y63434D01*
Y60545D01*
Y60534D01*
Y60500D01*
Y60478D01*
X297489Y60455D01*
Y60433D01*
X297478Y60422D01*
X297455Y60410D01*
X296635Y59579D01*
X296623Y59567D01*
X296590Y59545D01*
X296545Y59511D01*
X296477Y59500D01*
X293847D01*
X293858Y59511D01*
X293926D01*
X293195Y59759D01*
X292509Y59522D01*
X292476Y59500D01*
X290453D01*
X290408Y59522D01*
X290351Y59556D01*
X290318Y59590D01*
X290273Y59635D01*
X289508Y60354D01*
X289497Y60365D01*
X289463Y60388D01*
X289441Y60422D01*
X289430Y60455D01*
X289418Y60467D01*
Y60500D01*
Y60545D01*
Y63434D01*
Y63445D01*
Y63468D01*
Y63501D01*
X289430Y63513D01*
Y63524D01*
Y63535D01*
X289441Y63558D01*
X289463Y63569D01*
X290329Y64423D01*
X290340Y64434D01*
X290374Y64457D01*
X290408Y64479D01*
X290430Y64491D01*
X290441Y64502D01*
X292453D01*
X292476Y64491D01*
X292453D01*
X293195Y64243D01*
X293937Y64491D01*
X293926D01*
X293937Y64502D01*
X296500D01*
X296522Y64491D01*
D02*
G37*
G36*
Y79507D02*
X296533D01*
X296556Y79496D01*
X296590Y79451D01*
X296623Y79417D01*
X296657Y79372D01*
X297433Y78642D01*
X297444Y78631D01*
X297455Y78608D01*
X297478Y78574D01*
X297489Y78541D01*
Y78529D01*
X297500Y78496D01*
Y78451D01*
Y75562D01*
Y75551D01*
Y75517D01*
Y75494D01*
X297489Y75472D01*
Y75450D01*
X297478Y75438D01*
X297455Y75427D01*
X296635Y74595D01*
X296623Y74584D01*
X296590Y74562D01*
X296545Y74528D01*
X296477Y74517D01*
X293847D01*
X293858Y74528D01*
X293926D01*
X293195Y74775D01*
X292509Y74539D01*
X292476Y74517D01*
X290453D01*
X290408Y74539D01*
X290351Y74573D01*
X290318Y74607D01*
X290273Y74651D01*
X289508Y75371D01*
X289497Y75382D01*
X289463Y75405D01*
X289441Y75438D01*
X289430Y75472D01*
X289418Y75483D01*
Y75517D01*
Y75562D01*
Y78451D01*
Y78462D01*
Y78484D01*
Y78518D01*
X289430Y78529D01*
Y78541D01*
Y78552D01*
X289441Y78574D01*
X289463Y78585D01*
X290329Y79440D01*
X290340Y79451D01*
X290374Y79474D01*
X290408Y79496D01*
X290430Y79507D01*
X290441Y79518D01*
X292453D01*
X292476Y79507D01*
X292453D01*
X293195Y79260D01*
X293937Y79507D01*
X293926D01*
X293937Y79518D01*
X296500D01*
X296522Y79507D01*
D02*
G37*
%LPC*%
G36*
X292352Y63951D02*
X290632D01*
X289969Y63310D01*
Y60680D01*
X290621Y60051D01*
X292352D01*
X292925Y60231D01*
Y63749D01*
X292352Y63951D01*
D02*
G37*
G36*
X296309D02*
X294049D01*
X293465Y63749D01*
Y60231D01*
X294049Y60051D01*
X296309D01*
X296949Y60680D01*
Y63322D01*
X296309Y63951D01*
D02*
G37*
G36*
X292352Y71459D02*
X290632D01*
X289969Y70819D01*
Y68189D01*
X290621Y67559D01*
X292352D01*
X292925Y67739D01*
Y71257D01*
X292352Y71459D01*
D02*
G37*
G36*
X296309Y78968D02*
X294049D01*
X293465Y78765D01*
Y75247D01*
X294049Y75067D01*
X296309D01*
X296949Y75697D01*
Y78338D01*
X296309Y78968D01*
D02*
G37*
G36*
X292352D02*
X290632D01*
X289969Y78327D01*
Y75697D01*
X290621Y75067D01*
X292352D01*
X292925Y75247D01*
Y78765D01*
X292352Y78968D01*
D02*
G37*
G36*
X296309Y71459D02*
X294049D01*
X293465Y71257D01*
Y67739D01*
X294049Y67559D01*
X296309D01*
X296949Y68189D01*
Y70830D01*
X296309Y71459D01*
D02*
G37*
%LPD*%
D37*
X3000Y18500D02*
Y22436D01*
X4968D01*
X5624Y21780D01*
Y20468D01*
X4968Y19812D01*
X3000D01*
X6936D02*
X7592Y20468D01*
X6936Y21124D01*
Y21780D01*
X7592Y22436D01*
X8904D01*
X9560Y21780D01*
Y21124D01*
X8904Y20468D01*
X9560Y19812D01*
Y19156D01*
X8904Y18500D01*
X7592D01*
X6936Y19156D01*
Y19812D01*
X7592Y20468D02*
X8904D01*
X2126Y24815D02*
X17874D01*
Y64185D01*
X2126D01*
Y24815D01*
X26500Y51000D02*
Y52968D01*
X25844Y53624D01*
X23220D01*
X22564Y52968D01*
Y51000D01*
X26500D01*
X25844Y54936D02*
X26500Y55592D01*
Y56904D01*
X25844Y57560D01*
X23220D01*
X22564Y56904D01*
Y55592D01*
X23220Y54936D01*
X23876D01*
X24532Y55592D01*
Y57560D01*
X57500Y52436D02*
X59468D01*
X60124Y51780D01*
Y50468D01*
X59468Y49812D01*
X57500D01*
Y48500D02*
Y52436D01*
X61436D02*
X64060D01*
Y51780D01*
X61436Y49156D01*
Y48500D01*
X95000Y75656D02*
X95656Y75000D01*
X96968D01*
X97624Y75656D01*
Y78936D01*
X98936D02*
Y76968D01*
X100248Y77624D01*
X100904D01*
X101560Y76968D01*
Y75656D01*
X100904Y75000D01*
X99592D01*
X98936Y75656D01*
Y78936D02*
X101560D01*
X117500Y78156D02*
X118156Y77500D01*
X119468D01*
X120124Y78156D01*
X121436Y77500D02*
X124060Y80124D01*
Y80780D01*
X123404Y81436D01*
X122092D01*
X121436Y80780D01*
X120124D02*
X119468Y81436D01*
X118156D01*
X117500Y80780D01*
Y78156D01*
X121436Y77500D02*
X124060D01*
X125372D02*
X127995Y80124D01*
Y80780D01*
X127339Y81436D01*
X126027D01*
X125372Y80780D01*
Y77500D02*
X127995D01*
X139564Y74592D02*
X140220Y73936D01*
Y72624D02*
X141532D01*
X142188Y71968D01*
Y70000D01*
X143500D02*
X139564D01*
Y71968D01*
X140220Y72624D01*
X139564Y74592D02*
X143500D01*
Y75248D01*
Y73936D01*
Y72624D02*
X142188Y71312D01*
X142688Y89500D02*
Y91468D01*
X142032Y92124D01*
X140720D01*
X140064Y91468D01*
Y89500D01*
X144000D01*
X142688Y90812D02*
X144000Y92124D01*
Y93436D02*
X141376Y96060D01*
X140720D01*
X140064Y95404D01*
Y94092D01*
X140720Y93436D01*
X144000D02*
Y96060D01*
X137248Y99500D02*
X136592D01*
Y103436D01*
X135936Y102780D01*
X134624D02*
Y103436D01*
Y102780D02*
X133312Y101468D01*
Y99500D01*
Y101468D02*
X132000Y102780D01*
Y103436D01*
X125904Y102436D02*
X126560Y101780D01*
Y101124D01*
X125904Y100468D01*
X126560Y99812D01*
Y99156D01*
X125904Y98500D01*
X124592D01*
X123936Y99156D01*
Y99812D01*
X124592Y100468D01*
X123936Y101124D01*
Y101780D01*
X124592Y102436D01*
X125904D01*
Y100468D02*
X124592D01*
X122624Y99156D02*
Y101780D01*
X121968Y102436D01*
X120000D01*
Y98500D01*
X121968D01*
X122624Y99156D01*
X135936Y99500D02*
X137248D01*
X162000Y129000D02*
Y132936D01*
X163968D01*
X164624Y132280D01*
Y130968D01*
X163968Y130312D01*
X162000D01*
X163312D02*
X164624Y129000D01*
X166592D02*
X167904D01*
X168560Y129656D01*
Y132280D01*
X167904Y132936D01*
X166592D01*
X165936Y132280D01*
Y131624D01*
X166592Y130968D01*
X168560D01*
X165936Y129656D02*
X166592Y129000D01*
X181156Y124436D02*
X180500Y123780D01*
Y121156D01*
X181156Y120500D01*
X182468D01*
X183124Y121156D01*
Y123780D02*
X182468Y124436D01*
X181156D01*
X185092D02*
X184436Y123780D01*
X185092Y124436D02*
Y120500D01*
X185748D01*
X184436D01*
X188372D02*
X187715Y121156D01*
Y123780D01*
X188372Y124436D01*
X189683D01*
X190339Y123780D01*
Y121156D01*
X189683Y120500D01*
X188372D01*
X201500Y116156D02*
X202156Y115500D01*
X203468D01*
X204124Y116156D01*
Y116812D01*
X203468Y117468D01*
X202156D01*
X201500Y118124D01*
Y118780D01*
X202156Y119436D01*
X203468D01*
X204124Y118780D01*
X205436D02*
X206092Y119436D01*
Y115500D01*
X206748D01*
X205436D01*
X209564Y115904D02*
X210220Y116560D01*
X210876D01*
X211532Y115904D01*
Y115248D01*
Y115904D01*
X212188Y116560D01*
X212844D01*
X213500Y115904D01*
Y114592D01*
X212844Y113936D01*
Y112624D02*
X213500Y111968D01*
Y110656D01*
X212844Y110000D01*
X210876D02*
X211532Y110656D01*
Y111968D01*
X212188Y112624D01*
X212844D01*
X210220D02*
X209564Y111968D01*
Y110656D01*
X210220Y110000D01*
X210876D01*
X210220Y113936D02*
X209564Y114592D01*
Y115904D01*
X209785Y86868D02*
Y85556D01*
X210441Y84900D01*
Y83588D02*
X209785Y82932D01*
Y81621D01*
X210441Y80965D01*
X211097D01*
X211753Y81621D01*
Y82932D01*
X212409Y83588D01*
X213065D01*
X213720Y82932D01*
Y81621D01*
X213065Y80965D01*
X213720Y84900D02*
X211097Y87524D01*
X210441D01*
X209785Y86868D01*
X213720Y87524D02*
Y84900D01*
X224500Y74436D02*
X226468D01*
X227124Y73780D01*
Y72468D01*
X226468Y71812D01*
X224500D01*
Y70500D02*
Y74436D01*
X225812Y71812D02*
X227124Y70500D01*
X228436D02*
X231060Y73124D01*
Y73780D01*
X230404Y74436D01*
X229092D01*
X228436Y73780D01*
Y70500D02*
X231060D01*
X232371D02*
X234995Y73124D01*
Y73780D01*
X234339Y74436D01*
X233027D01*
X232371Y73780D01*
Y70500D02*
X234995D01*
X240500D02*
Y74436D01*
X242468D01*
X243124Y73780D01*
Y72468D01*
X242468Y71812D01*
X240500D01*
X241812D02*
X243124Y70500D01*
X244436D02*
X247060Y73124D01*
Y73780D01*
X246404Y74436D01*
X245092D01*
X244436Y73780D01*
Y70500D02*
X247060D01*
X248372D02*
X249683D01*
X249027D01*
Y74436D01*
X248372Y73780D01*
X256064Y66839D02*
X256720Y67495D01*
X257376D01*
X258032Y66839D01*
X258688Y67495D01*
X259344D01*
X260000Y66839D01*
Y65527D01*
X259344Y64872D01*
X258688D01*
X258032Y65527D01*
X257376Y64872D01*
X256720D01*
X256064Y65527D01*
Y66839D01*
Y62904D02*
Y61592D01*
X256720Y60936D01*
Y59624D02*
X256064Y58968D01*
Y57656D01*
X256720Y57000D01*
X259344D01*
X260000Y57656D01*
Y58968D01*
X259344Y59624D01*
X260000Y60936D02*
X257376Y63560D01*
X256720D01*
X256064Y62904D01*
X252500Y51839D02*
Y50527D01*
X251844Y49872D01*
X249220D01*
X248564Y50527D01*
Y51839D01*
X249220Y52495D01*
X251844D01*
X252500Y51839D01*
Y48560D02*
Y45936D01*
X249876Y48560D01*
X249220D01*
X248564Y47904D01*
Y46592D01*
X249220Y45936D01*
Y44624D02*
X250532D01*
X251188Y43968D01*
Y42000D01*
X252500D02*
X248564D01*
Y43968D01*
X249220Y44624D01*
X252500D02*
X251188Y43312D01*
X250681Y32748D02*
X148319D01*
Y1252D01*
X250681D01*
Y32748D01*
X253064Y17872D02*
X253720Y17215D01*
X253064Y17872D02*
X257000D01*
Y18527D01*
Y17215D01*
Y15248D02*
Y14592D01*
X253064D01*
X253720Y13936D01*
Y12624D02*
X253064Y11968D01*
Y10000D01*
X257000D01*
Y11968D01*
X256344Y12624D01*
X253720D01*
X257000Y13936D02*
Y15248D01*
X271000Y5936D02*
X272968D01*
X273624Y5280D01*
Y3968D01*
X272968Y3312D01*
X271000D01*
Y2000D02*
Y5936D01*
X272312Y3312D02*
X273624Y2000D01*
X274936D02*
X276248D01*
X275592D01*
Y5936D01*
X274936Y5280D01*
X278216D02*
Y4624D01*
X278871Y3968D01*
X280839D01*
Y2656D02*
Y5280D01*
X280183Y5936D01*
X278871D01*
X278216Y5280D01*
Y2656D02*
X278871Y2000D01*
X280183D01*
X280839Y2656D01*
X294720Y24500D02*
X297344D01*
X298000Y25156D01*
Y26468D01*
X297344Y27124D01*
X298000Y28436D02*
X295376Y31060D01*
X294720D01*
X294064Y30404D01*
Y29092D01*
X294720Y28436D01*
Y27124D02*
X294064Y26468D01*
Y25156D01*
X294720Y24500D01*
X298000Y28436D02*
Y31060D01*
Y33027D02*
X297344Y32372D01*
X298000Y33027D02*
Y34339D01*
X297344Y34995D01*
X296688D01*
X296032Y34339D01*
Y33683D01*
Y34339D01*
X295376Y34995D01*
X294720D01*
X294064Y34339D01*
Y33027D01*
X294720Y32372D01*
X278500Y67000D02*
X274564D01*
Y68968D01*
X275220Y69624D01*
X276532D01*
X277188Y68968D01*
Y67000D01*
X277844Y70936D02*
X278500Y71592D01*
Y72904D01*
X277844Y73560D01*
X276532D01*
X275876Y72904D01*
Y72248D01*
X276532Y70936D01*
X274564D01*
Y73560D01*
X258032Y66839D02*
Y65527D01*
X260000Y63560D02*
Y60936D01*
X271500Y24436D02*
X273468D01*
X274124Y23780D01*
Y22468D01*
X273468Y21812D01*
X271500D01*
Y20500D02*
Y24436D01*
X272812Y21812D02*
X274124Y20500D01*
X275436D02*
X276748D01*
X276092D01*
Y24436D01*
X275436Y23780D01*
X278715D02*
X279372Y24436D01*
X280683D01*
X281339Y23780D01*
Y23124D01*
X280683Y22468D01*
X281339Y21812D01*
Y21156D01*
X280683Y20500D01*
X279372D01*
X278715Y21156D01*
Y21812D01*
X279372Y22468D01*
X278715Y23124D01*
Y23780D01*
X279372Y22468D02*
X280683D01*
X231984Y68051D02*
X180016D01*
Y36949D01*
X231984D01*
Y68051D01*
X270844Y125500D02*
X271500Y126156D01*
Y127468D01*
X270844Y128124D01*
X271500Y129436D02*
Y130748D01*
Y130092D01*
X267564D01*
X268220Y129436D01*
Y128124D02*
X267564Y127468D01*
Y126156D01*
X268220Y125500D01*
X270844D01*
X275500Y127000D02*
Y130936D01*
X277468D01*
X278124Y130280D01*
Y128968D01*
X277468Y128312D01*
X275500D01*
X279436Y127000D02*
X282060Y129624D01*
Y130280D01*
X281404Y130936D01*
X280092D01*
X279436Y130280D01*
X271500Y134683D02*
X267564D01*
X269532Y132715D01*
Y135339D01*
X279436Y127000D02*
X282060D01*
X282560Y173968D02*
X279936D01*
X281904Y175936D01*
Y172000D01*
X277968Y173312D02*
X276000D01*
Y172000D02*
Y175936D01*
X277968D01*
X278624Y175280D01*
Y173968D01*
X277968Y173312D01*
X270500Y173936D02*
Y175248D01*
Y174592D01*
X266564D01*
X267220Y173936D01*
Y172624D02*
X266564Y171968D01*
Y170656D01*
X267220Y170000D01*
X269844D01*
X270500Y170656D01*
Y171968D01*
X269844Y172624D01*
Y177216D02*
X270500Y177872D01*
Y179183D01*
X269844Y179839D01*
X268532D01*
X267876Y179183D01*
Y178527D01*
X268532Y177216D01*
X266564D01*
Y179839D01*
X270344Y215000D02*
X271000Y215656D01*
Y216968D01*
X270344Y217624D01*
X271000Y218936D02*
Y220248D01*
Y219592D01*
X267064D01*
X267720Y218936D01*
Y217624D02*
X267064Y216968D01*
Y215656D01*
X267720Y215000D01*
X270344D01*
X282560Y217656D02*
X281904Y217000D01*
X280592D01*
X279936Y217656D01*
X277968Y218312D02*
X276000D01*
Y217000D02*
Y220936D01*
X277968D01*
X278624Y220280D01*
Y218968D01*
X277968Y218312D01*
X279936Y220280D02*
X280592Y220936D01*
X281904D01*
X282560Y220280D01*
Y219624D01*
X281904Y218968D01*
X281248D01*
X281904D01*
X282560Y218312D01*
Y217656D01*
X270344Y222216D02*
X271000Y222871D01*
Y224183D01*
X270344Y224839D01*
X269688D01*
X269032Y224183D01*
Y222216D01*
X270344D01*
X269032D02*
X267720Y223527D01*
X267064Y224839D01*
X282592Y262500D02*
X281936Y263156D01*
Y264468D02*
X283248Y265124D01*
X283904D01*
X284560Y264468D01*
Y263156D01*
X283904Y262500D01*
X282592D01*
X284560Y266436D02*
X281936D01*
Y264468D01*
X280624Y263156D02*
Y265780D01*
X279968Y266436D01*
X278000D01*
Y262500D01*
X279968D01*
X280624Y263156D01*
X280339Y259436D02*
Y258780D01*
X277715Y256156D01*
Y255500D01*
X275748D02*
X275092D01*
Y259436D01*
X274436Y258780D01*
X273124D02*
X272468Y259436D01*
X271156D01*
X270500Y258780D01*
Y256156D01*
X271156Y255500D01*
X272468D01*
X273124Y256156D01*
X274436Y255500D02*
X275748D01*
X277715Y259436D02*
X280339D01*
X282339Y281968D02*
X279715D01*
X281683Y283936D01*
Y280000D01*
X277748D02*
X277092D01*
Y283936D01*
X276436Y283280D01*
X275124D02*
Y281968D01*
X274468Y281312D01*
X272500D01*
Y280000D02*
Y283936D01*
X274468D01*
X275124Y283280D01*
X273812Y281312D02*
X275124Y280000D01*
X276436D02*
X277748D01*
X275248Y289500D02*
X274592D01*
Y293436D01*
X273936Y292780D01*
X270000Y293436D02*
Y289500D01*
X272624D01*
X273936D02*
X275248D01*
X217185Y299374D02*
Y283626D01*
X177815D01*
Y299374D01*
X217185D01*
X211060Y280936D02*
X209748Y280280D01*
X208436Y278968D01*
Y277656D01*
X209092Y277000D01*
X210404D01*
X211060Y277656D01*
Y278312D01*
X210404Y278968D01*
X208436D01*
X207124D02*
X206468Y278312D01*
X204500D01*
Y280936D02*
X206468D01*
X207124Y280280D01*
Y278968D01*
X204500Y280936D02*
Y277000D01*
X184060Y278124D02*
X183404Y277468D01*
X182748D01*
X183404D01*
X184060Y276812D01*
Y276156D01*
X183404Y275500D01*
X182092D01*
X181436Y276156D01*
X180124D02*
Y278780D01*
X179468Y279436D01*
X177500D01*
Y275500D01*
X179468D01*
X180124Y276156D01*
X184060Y278124D02*
Y278780D01*
X183404Y279436D01*
X182092D01*
X181436Y278780D01*
X158839Y262280D02*
Y261624D01*
X158183Y260968D01*
X157527D01*
X158183D01*
X158839Y260312D01*
Y259656D01*
X158183Y259000D01*
X156871D01*
X156216Y259656D01*
Y262280D02*
X156871Y262936D01*
X158183D01*
X158839Y262280D01*
X156560Y271500D02*
X153936D01*
X156560Y274124D01*
Y274780D01*
X155904Y275436D01*
X154592D01*
X153936Y274780D01*
X152624Y275436D02*
X151312D01*
X151968D01*
Y272156D01*
X151312Y271500D01*
X150656D01*
X150000Y272156D01*
X150968Y262936D02*
X151624Y262280D01*
Y260968D01*
X150968Y260312D01*
X149000D01*
Y259000D02*
Y262936D01*
X150968D01*
X153592D02*
X152936Y262280D01*
X153592Y262936D02*
Y259000D01*
X154248D01*
X152936D01*
X151624D02*
X150312Y260312D01*
X149968Y253936D02*
X150624Y253280D01*
Y251968D01*
X149968Y251312D01*
X148000D01*
Y250000D02*
Y253936D01*
X149968D01*
X153248Y253280D02*
X151936Y251968D01*
Y250656D01*
X152592Y250000D01*
X153904D01*
X154560Y250656D01*
Y251312D01*
X153904Y251968D01*
X151936D01*
X149312Y251312D02*
X150624Y250000D01*
X150720Y246339D02*
X150064Y245683D01*
Y244372D01*
X150720Y243716D01*
X151376D01*
X152032Y244372D01*
Y246339D01*
X153344D02*
X150720D01*
X153344D02*
X154000Y245683D01*
Y244372D01*
X153344Y243716D01*
X154000Y241748D02*
Y241092D01*
X150064D01*
X150720Y240436D01*
Y239124D02*
X150064Y238468D01*
Y237156D01*
X150720Y236500D01*
X153344D01*
X154000Y237156D01*
Y238468D01*
X153344Y239124D01*
X154000Y240436D02*
Y241748D01*
X153248Y253280D02*
X154560Y253936D01*
X130560Y253780D02*
X127936Y251156D01*
Y250500D01*
X126624D02*
X125312Y251812D01*
X125968D02*
X124000D01*
Y250500D02*
Y254436D01*
X125968D01*
X126624Y253780D01*
Y252468D01*
X125968Y251812D01*
X127936Y254436D02*
X130560D01*
Y253780D01*
X95404Y210936D02*
X94092D01*
X93436Y210280D01*
X92124D02*
X91468Y210936D01*
X90156D01*
X89500Y210280D01*
Y207656D01*
X90156Y207000D01*
X91468D01*
X92124Y207656D01*
X93436Y207000D02*
X96060Y209624D01*
Y210280D01*
X95404Y210936D01*
X96060Y207000D02*
X93436D01*
X97372D02*
Y207656D01*
X99995Y210280D01*
Y210936D01*
X97372D01*
X81904Y196936D02*
X82560Y196280D01*
Y195624D01*
X81904Y194968D01*
X81248D01*
X81904D01*
X82560Y194312D01*
Y193656D01*
X81904Y193000D01*
X80592D01*
X79936Y193656D01*
X78624D02*
Y196936D01*
X79936Y196280D02*
X80592Y196936D01*
X81904D01*
X76000D02*
Y193656D01*
X76656Y193000D01*
X77968D01*
X78624Y193656D01*
X67988Y199500D02*
X67322Y200167D01*
Y202166D01*
X66655D01*
X67988D01*
X67322D01*
Y202832D01*
X65323Y201499D02*
X64656Y202166D01*
X63323D01*
X62657Y201499D01*
Y200167D01*
X63323Y199500D01*
X64656D01*
X65323Y200167D01*
Y201499D01*
X61324D02*
X60657Y202166D01*
X59325D01*
X58658Y201499D01*
Y200167D01*
X59325Y199500D01*
X60657D01*
X61324Y200167D01*
Y201499D01*
X63564Y182683D02*
Y181371D01*
X64220Y180716D01*
Y183339D02*
X63564Y182683D01*
X64220Y183339D02*
X64876D01*
X67500Y180716D01*
Y183339D01*
Y178748D02*
Y178092D01*
X63564D01*
X64220Y177436D01*
Y176124D02*
X63564Y175468D01*
Y174156D01*
X64220Y173500D01*
X66844D01*
X67500Y174156D01*
Y175468D01*
X66844Y176124D01*
X67500Y177436D02*
Y178748D01*
X79656Y157936D02*
X79000Y157280D01*
Y154656D01*
X79656Y154000D01*
X80968D01*
X81624Y154656D01*
Y157280D02*
X80968Y157936D01*
X79656D01*
X83592D02*
X82936Y157280D01*
X83592Y157936D02*
Y154000D01*
X84248D01*
X82936D01*
X94500Y139168D02*
X96468D01*
X97124Y138512D01*
Y137200D01*
X96468Y136544D01*
X94500D01*
Y135232D02*
Y139168D01*
X95812Y136544D02*
X97124Y135232D01*
X97032Y125339D02*
X98344D01*
X99000Y124683D01*
Y123372D01*
X98344Y122715D01*
X99000Y120748D02*
Y120092D01*
X95064D01*
X95720Y119436D01*
Y118124D02*
X97032D01*
X97688Y117468D01*
Y115500D01*
X99000D02*
X95064D01*
Y117468D01*
X95720Y118124D01*
X95064Y122715D02*
X97032D01*
X96376Y124027D01*
Y124683D01*
X97032Y125339D01*
X95064D02*
Y122715D01*
X97688Y116812D02*
X99000Y118124D01*
Y119436D02*
Y120748D01*
X104064Y120092D02*
X104720Y119436D01*
Y118124D02*
X106032D01*
X106688Y117468D01*
Y115500D01*
X108000D02*
X104064D01*
Y117468D01*
X104720Y118124D01*
X104064Y120092D02*
X108000D01*
Y120748D01*
Y119436D01*
Y118124D02*
X106688Y116812D01*
X107344Y122715D02*
X108000D01*
X107344D02*
X104720Y125339D01*
X104064D01*
Y122715D01*
X113500Y131656D02*
X114156Y131000D01*
X115468D01*
X116124Y131656D01*
X117436Y131000D02*
X120060Y133624D01*
Y134280D01*
X119404Y134936D01*
X118092D01*
X117436Y134280D01*
X116124D02*
X115468Y134936D01*
X114156D01*
X113500Y134280D01*
Y131656D01*
X117436Y131000D02*
X120060D01*
X121371Y131656D02*
X122027Y131000D01*
X123339D01*
X123995Y131656D01*
Y132312D01*
X123339Y132968D01*
X121371D01*
Y131656D01*
Y132968D02*
X122683Y134280D01*
X123995Y134936D01*
X111000Y142904D02*
Y141592D01*
X110344Y140936D01*
X109688D01*
X109032Y141592D01*
X108376Y140936D01*
X107720D01*
X107064Y141592D01*
Y142904D01*
X107720Y143560D01*
X108376D01*
X109032Y142904D01*
X109688Y143560D01*
X110344D01*
X111000Y142904D01*
Y138968D02*
X110344Y139624D01*
X111000Y138968D02*
Y137656D01*
X110344Y137000D01*
X107720D01*
X107064Y137656D01*
Y138968D01*
X107720Y139624D01*
X109032Y141592D02*
Y142904D01*
X107404Y147000D02*
X106092D01*
X105436Y147656D01*
Y148312D01*
X106092Y148968D01*
X105436Y149624D01*
Y150280D01*
X106092Y150936D01*
X107404D01*
X108060Y150280D01*
Y149624D01*
X107404Y148968D01*
X108060Y148312D01*
Y147656D01*
X107404Y147000D01*
Y148968D02*
X106092D01*
X104124D02*
X103468Y148312D01*
X101500D01*
Y147000D02*
Y150936D01*
X103468D01*
X104124Y150280D01*
Y148968D01*
X102812Y148312D02*
X104124Y147000D01*
X104339Y139168D02*
X103027Y138512D01*
X101716Y137200D01*
Y135888D01*
X102372Y135232D01*
X103683D01*
X104339Y135888D01*
Y136544D01*
X103683Y137200D01*
X101716D01*
X99748Y135232D02*
X99092D01*
Y139168D01*
X98436Y138512D01*
Y135232D02*
X99748D01*
X94891Y151000D02*
X95547Y151656D01*
Y152968D01*
X94891Y153624D01*
X92268D02*
X91611Y152968D01*
Y151656D01*
X92268Y151000D01*
X94891D01*
X88183Y154000D02*
X86871D01*
X86216Y154656D01*
Y157280D02*
X86871Y157936D01*
X88183D01*
X88839Y157280D01*
Y156624D01*
X88183Y155968D01*
X87527D01*
X88183D01*
X88839Y155312D01*
Y154656D01*
X88183Y154000D01*
X91611Y155592D02*
X92268Y154936D01*
X91611Y155592D02*
X95547D01*
Y156248D01*
Y154936D01*
Y158215D02*
Y159527D01*
Y158871D01*
X91611D01*
X92268Y158215D01*
X66027Y150936D02*
X65372Y150280D01*
X64060D02*
X63404Y150936D01*
X62092D01*
X61436Y150280D01*
X64060D02*
Y149624D01*
X61436Y147000D01*
X64060D01*
X65372D02*
X66683D01*
X66027D01*
Y150936D01*
X59468D02*
X58156D01*
X57500Y150280D01*
Y147656D01*
X58156Y147000D01*
X59468D01*
X60124Y147656D01*
Y150280D02*
X59468Y150936D01*
X36000Y156156D02*
Y157468D01*
X35344Y158124D01*
X32064D01*
Y160092D02*
X32720Y159436D01*
X32064Y160092D02*
X36000D01*
Y160748D01*
Y159436D01*
Y156156D02*
X35344Y155500D01*
X32064D01*
X20500Y145404D02*
Y144092D01*
X19844Y143436D01*
X20500Y142124D02*
X19188Y140812D01*
Y141468D02*
Y139500D01*
X20500D02*
X16564D01*
Y141468D01*
X17220Y142124D01*
X18532D01*
X19188Y141468D01*
X11027Y141436D02*
X10372Y140780D01*
X9060D02*
X8404Y141436D01*
X7092D01*
X6436Y140780D01*
Y140124D01*
X7092Y139468D01*
X8404D01*
X9060Y138812D01*
Y138156D01*
X8404Y137500D01*
X7092D01*
X6436Y138156D01*
X5124Y137500D02*
X2500D01*
Y141436D01*
X10372Y137500D02*
X11683D01*
X11027D01*
Y141436D01*
X16064Y122339D02*
X18032Y120371D01*
Y122995D01*
X20000Y122339D02*
X16064D01*
Y118404D02*
Y117092D01*
X16720Y116436D01*
Y115124D02*
X16064Y114468D01*
Y113156D01*
X16720Y112500D01*
X19344D01*
X20000Y113156D01*
Y114468D01*
X19344Y115124D01*
X20000Y116436D02*
X17376Y119060D01*
X16720D01*
X16064Y118404D01*
X20000Y119060D02*
Y116436D01*
X22564Y96683D02*
X23220Y97339D01*
X25844D01*
X26500Y96683D01*
Y95372D01*
X25844Y94715D01*
X23220D01*
X22564Y95372D01*
Y96683D01*
Y92092D02*
X23220Y91436D01*
Y90124D02*
X22564Y89468D01*
Y87500D01*
X26500D01*
Y89468D01*
X25844Y90124D01*
X23220D01*
X22564Y92092D02*
X26500D01*
Y92748D01*
Y91436D01*
X37844Y93000D02*
X38500Y93656D01*
Y94968D01*
X37844Y95624D01*
Y96936D02*
X38500Y97592D01*
Y98904D01*
X37844Y99560D01*
X37188D01*
X36532Y98904D01*
Y98248D01*
Y98904D01*
X35876Y99560D01*
X35220D01*
X34564Y98904D01*
Y97592D01*
X35220Y96936D01*
Y95624D02*
X34564Y94968D01*
Y93656D01*
X35220Y93000D01*
X37844D01*
X42064Y96156D02*
X42720Y95500D01*
X45344D01*
X46000Y96156D01*
Y97468D01*
X45344Y98124D01*
X42720D02*
X42064Y97468D01*
Y96156D01*
Y101404D02*
X44032Y99436D01*
Y102060D01*
X46000Y101404D02*
X42064D01*
X48500Y105000D02*
X50468D01*
X51124Y105656D01*
Y108280D01*
X50468Y108936D01*
X48500D01*
Y105000D01*
X52436Y105656D02*
X53092Y105000D01*
X54404D01*
X55060Y105656D01*
Y106312D01*
X54404Y106968D01*
X52436D01*
Y105656D01*
Y106968D02*
X53748Y108280D01*
X55060Y108936D01*
X65064Y85839D02*
X65720Y86495D01*
X68344D01*
X69000Y85839D01*
Y84527D01*
X68344Y83872D01*
X65720D01*
X65064Y84527D01*
Y85839D01*
Y81904D02*
Y80592D01*
X65720Y79936D01*
Y78624D02*
X65064Y77968D01*
Y76656D01*
X65720Y76000D01*
X68344D01*
X69000Y76656D01*
Y77968D01*
X68344Y78624D01*
X69000Y79936D02*
X66376Y82560D01*
X65720D01*
X65064Y81904D01*
X69000Y82560D02*
Y79936D01*
X95000Y78936D02*
Y75656D01*
X78000Y107500D02*
Y109468D01*
X77344Y110124D01*
X74720D01*
X74064Y109468D01*
Y107500D01*
X78000D01*
Y111436D02*
X77344D01*
X74720Y114060D01*
X74064D01*
Y111436D01*
X20500Y145404D02*
X19844Y146060D01*
X19188D01*
X18532Y145404D01*
Y144748D01*
Y145404D01*
X17876Y146060D01*
X17220D01*
X16564Y145404D01*
Y144092D01*
X17220Y143436D01*
X36156Y187500D02*
X37468D01*
X38124Y188156D01*
X39436Y187500D02*
X42060Y190124D01*
Y190780D01*
X41404Y191436D01*
X40092D01*
X39436Y190780D01*
X38124D02*
X37468Y191436D01*
X36156D01*
X35500Y190780D01*
Y188156D01*
X36156Y187500D01*
X39436D02*
X42060D01*
X48661Y199500D02*
X49994D01*
X50661Y200167D01*
Y201499D01*
X49994Y202166D01*
X48661D01*
X47995Y201499D01*
Y200167D01*
X48661Y199500D01*
X52660Y200167D02*
X53326Y199500D01*
X52660Y200167D02*
Y202166D01*
X51994D01*
X53326D01*
X52660D01*
Y202832D01*
X55992D02*
Y201499D01*
X55326D01*
X56659D01*
X55992D01*
Y202832D01*
X56659Y203499D01*
X55992Y202832D02*
Y199500D01*
X55494Y206500D02*
X54827Y207166D01*
Y208499D01*
X55494Y209166D01*
X56826D01*
X57493Y208499D01*
Y207833D01*
X54827D01*
X55494Y206500D02*
X56826D01*
X53494Y207166D02*
X52828Y206500D01*
X50828D01*
Y205167D02*
Y209166D01*
X52828D01*
X53494Y208499D01*
Y207166D01*
X48829Y206500D02*
X48163D01*
Y209166D01*
X47496D01*
X46163D02*
Y206500D01*
X44164D01*
X43497Y207166D01*
Y209166D01*
X42164D02*
X40165D01*
X39499Y208499D01*
Y207166D01*
X40165Y206500D01*
X42164D01*
Y205167D02*
Y209166D01*
X38166Y210499D02*
X35500D01*
Y206500D01*
X38166D01*
X36833Y208499D02*
X35500D01*
X35999Y203499D02*
X37998D01*
X38664Y202832D01*
Y201499D01*
X37998Y200833D01*
X35999D01*
Y199500D02*
Y203499D01*
X37332Y200833D02*
X38664Y199500D01*
X40664D02*
X41997D01*
X42663Y200167D01*
Y201499D01*
X41997Y202166D01*
X40664D01*
X39997Y201499D01*
Y200167D01*
X40664Y199500D01*
X43996D02*
X45996D01*
X46662Y200167D01*
Y200833D01*
Y201499D01*
X45996Y202166D01*
X43996D01*
Y203499D02*
Y199500D01*
X48829Y206500D02*
X47496D01*
X20500Y205183D02*
Y203871D01*
X19844Y203216D01*
X17220D01*
X16564Y203871D01*
Y205183D01*
X17220Y205839D01*
X19844D01*
X20500Y205183D01*
Y201248D02*
Y200592D01*
X16564D01*
X17220Y199936D01*
Y198624D02*
X18532D01*
X19188Y197968D01*
Y196000D01*
X20500D02*
X16564D01*
Y197968D01*
X17220Y198624D01*
X19188Y197312D02*
X20500Y198624D01*
Y199936D02*
Y201248D01*
X10248Y207000D02*
X9592D01*
Y210936D01*
X8936Y210280D01*
X7624D02*
Y208968D01*
X6968Y208312D01*
X5000D01*
Y207000D02*
Y210936D01*
X6968D01*
X7624Y210280D01*
X8936Y207000D02*
X10248D01*
X151500Y208656D02*
X152156Y208000D01*
X153468D01*
X154124Y208656D01*
Y211936D01*
X156092D02*
X155436Y211280D01*
X156092Y211936D02*
X157404D01*
X158060Y211280D01*
Y210624D01*
X155436Y208000D01*
X158060D01*
X151500Y208656D02*
Y211936D01*
X190000Y187436D02*
Y183500D01*
X191968D01*
X192624Y184156D01*
Y186780D01*
X191968Y187436D01*
X190000D01*
X194592D02*
X193936Y186780D01*
X194592Y187436D02*
X195904D01*
X196560Y186780D01*
Y186124D01*
X193936Y183500D01*
X196560D01*
X202000D02*
X203968D01*
X204624Y184156D01*
Y186780D01*
X203968Y187436D01*
X202000D01*
Y183500D01*
X205936D02*
X207248D01*
X206592D01*
Y187436D01*
X205936Y186780D01*
X209564Y201500D02*
X212844D01*
X213500Y202156D01*
Y203468D01*
X212844Y204124D01*
X209564D01*
Y207404D02*
X211532Y205436D01*
Y208060D01*
X213500Y207404D02*
X209564D01*
X222500Y178436D02*
X224468D01*
X225124Y177780D01*
Y176468D01*
X224468Y175812D01*
X222500D01*
Y174500D02*
Y178436D01*
X223812Y175812D02*
X225124Y174500D01*
X226436D02*
X227748D01*
X227092D01*
Y178436D01*
X226436Y177780D01*
X229715D02*
X230371Y178436D01*
X231683D01*
X232339Y177780D01*
Y177124D01*
X229715Y174500D01*
X232339D01*
X230371Y166936D02*
X229715Y166280D01*
Y163000D02*
X231027D01*
X230371D01*
Y166936D01*
X227092D02*
X226436Y166280D01*
X225124D02*
Y164968D01*
X224468Y164312D01*
X222500D01*
Y163000D02*
Y166936D01*
X224468D01*
X225124Y166280D01*
X223812Y164312D02*
X225124Y163000D01*
X226436D02*
X227748D01*
X227092D01*
Y166936D01*
X213500Y144404D02*
X209564D01*
X211532Y142436D01*
Y145060D01*
Y140468D02*
X212188Y141124D01*
X212844D01*
X213500Y140468D01*
Y139156D01*
X212844Y138500D01*
X210876D02*
X211532Y139156D01*
Y140468D01*
X210220Y141124D02*
X209564Y140468D01*
Y139156D01*
X210220Y138500D01*
X210876D01*
X205344Y147000D02*
X206000Y147656D01*
Y148968D01*
X205344Y149624D01*
Y150936D02*
X206000Y151592D01*
Y152904D01*
X205344Y153560D01*
X202720D01*
X202064Y152904D01*
Y151592D01*
X202720Y150936D01*
X203376D01*
X204032Y151592D01*
Y153560D01*
X202720Y149624D02*
X202064Y148968D01*
Y147656D01*
X202720Y147000D01*
X205344D01*
X206495Y137436D02*
X203871D01*
Y135468D01*
X205183Y136124D01*
X205839D01*
X206495Y135468D01*
Y134156D01*
X205839Y133500D01*
X204527D01*
X203871Y134156D01*
X202560Y133500D02*
X199936D01*
X202560Y136124D01*
Y136780D01*
X201904Y137436D01*
X200592D01*
X199936Y136780D01*
X198624D02*
X197968Y137436D01*
X196656D01*
X196000Y136780D01*
Y134156D01*
X196656Y133500D01*
X197968D01*
X198624Y134156D01*
X177500Y45404D02*
Y44092D01*
X176844Y43436D01*
X175532D02*
X174876Y44748D01*
Y45404D01*
X175532Y46060D01*
X176844D01*
X177500Y45404D01*
X175532Y43436D02*
X173564D01*
Y46060D01*
Y41468D02*
Y40156D01*
X174220Y39500D01*
X174876D01*
X175532Y40156D01*
Y41468D01*
X176188Y42124D01*
X176844D01*
X177500Y41468D01*
Y40156D01*
X176844Y39500D01*
X174220Y42124D02*
X173564Y41468D01*
X162592Y39436D02*
X161936Y38780D01*
X162592Y39436D02*
Y35500D01*
X163248D01*
X161936D01*
X159312Y37468D02*
X158000D01*
X159312D01*
X160624Y39436D02*
X158000D01*
Y37468D01*
Y35500D01*
X84092Y11936D02*
X83436Y11280D01*
X84092Y11936D02*
Y8000D01*
X84748D01*
X83436D01*
X81468Y8656D02*
X80812Y8000D01*
X80156D01*
X79500Y8656D01*
X81468D02*
Y11936D01*
X80812D01*
X82124D01*
D70*
X112256Y97724D02*
G03*
X112256Y97724I-492J0D01*
G01*
X94079Y113429D02*
G03*
X94079Y113429I-492J0D01*
G01*
X70579D02*
G03*
X70579Y113429I-492J0D01*
G01*
X51535Y143539D02*
G03*
X51535Y143539I-492J0D01*
G01*
X80500Y190500D02*
G03*
X80500Y190500I-492J0D01*
G01*
X127213Y143374D02*
G03*
X127213Y143374I-492J0D01*
G01*
X201366Y113154D02*
G03*
X201366Y113154I-492J0D01*
G01*
X213559Y98339D02*
G03*
X213559Y98339I-492J0D01*
G01*
X213339Y126874D02*
G03*
X213339Y126874I-492J0D01*
G01*
Y155374D02*
G03*
X213339Y155374I-492J0D01*
G01*
X256512Y234925D02*
G03*
X256512Y234925I-492J0D01*
G01*
X147492Y275008D02*
G03*
X147492Y275008I-492J0D01*
G01*
X16563Y130000D02*
G03*
X16563Y130000I-492J0D01*
G01*
D71*
X133118Y151937D02*
G03*
X133118Y151937I-1181J0D01*
G01*
D72*
X20878Y591D02*
Y45000D01*
X68122D01*
Y591D01*
X86925Y500D02*
Y55618D01*
X140075D01*
Y500D01*
X86925D01*
X46902Y49134D02*
Y90866D01*
X28791D01*
Y49134D01*
X46902D01*
X44933D02*
Y90866D01*
X72197Y83748D02*
X114323D01*
X114323Y81779D02*
Y100284D01*
X72197D01*
Y81779D01*
X114323D01*
X112000Y103634D02*
X117905D01*
X119480Y105602D01*
Y105602D02*
Y112295D01*
X110425D02*
Y105602D01*
X112000Y103634D01*
X128347Y106658D02*
X171653D01*
Y126342D01*
X128347D01*
Y106658D01*
X146000Y104736D02*
X176000D01*
Y84264D01*
Y84303D02*
X146000D01*
Y84264D02*
Y104736D01*
Y82236D02*
Y61764D01*
X176000D01*
Y82236D01*
Y82197D02*
X146000D01*
X180205Y72799D02*
Y110201D01*
X205795D01*
Y72799D01*
X180205D01*
X216020Y77669D02*
X253421D01*
Y103260D01*
X216020D01*
Y77669D01*
X242122Y49787D02*
Y48213D01*
X244878D02*
Y49787D01*
Y60713D02*
Y62287D01*
X242122D02*
Y60713D01*
X237878Y60713D02*
Y62287D01*
X235122D02*
Y60713D01*
X263221Y38063D02*
Y29008D01*
X290779D01*
Y38063D01*
Y45937D02*
Y54992D01*
X263221D01*
Y45937D01*
X272512Y58988D02*
Y100012D01*
X261488D01*
Y58988D01*
X272512D01*
X297961Y87201D02*
Y125784D01*
X275126D01*
Y87201D01*
X297961D01*
X272650Y106339D02*
X266350D01*
X266547Y113425D02*
Y116575D01*
X272453D02*
Y113425D01*
X297961Y132201D02*
Y170783D01*
X275126D01*
Y132201D01*
X297961D01*
X271953Y158425D02*
Y161575D01*
X272150Y151339D02*
X265850D01*
X266047Y158425D02*
Y161575D01*
X275126Y177201D02*
X297961D01*
Y215784D01*
X275126D01*
Y177201D01*
X272650Y195839D02*
X266350D01*
X266547Y202925D02*
Y206075D01*
X258972Y215437D02*
Y224886D01*
X218028D01*
Y215437D01*
X199972Y181417D02*
X209028D01*
Y173937D01*
X215213Y174878D02*
X216787D01*
Y172122D02*
X215213D01*
Y169878D02*
X216787D01*
Y167122D02*
X215213D01*
X209028Y166063D02*
Y159370D01*
Y159370D02*
X207453Y157402D01*
X201547D01*
X199972Y159370D01*
Y166063D01*
X197528D02*
Y159370D01*
Y159370D02*
X195953Y157402D01*
X190047D01*
X188472Y159370D01*
Y166063D01*
X197528Y173937D02*
Y181417D01*
X188472D01*
Y173937D01*
X199972D02*
Y181417D01*
X215799Y160295D02*
X253201D01*
Y134705D01*
X215799D01*
Y160295D01*
Y131795D02*
X253201D01*
Y106205D01*
X215799D01*
Y131795D01*
X178000Y148000D02*
Y198000D01*
X128000D01*
Y148000D01*
X178000D01*
X156787Y131378D02*
X155213D01*
Y128622D02*
X156787D01*
X109787Y156378D02*
X108213D01*
Y153622D02*
X109787D01*
X99287Y132610D02*
X97713D01*
Y129854D02*
X99287D01*
X110425Y127650D02*
X119480D01*
Y120169D01*
X110425Y120169D02*
Y127650D01*
X106378Y108287D02*
Y106713D01*
X103622D02*
Y108287D01*
X98878D02*
Y106713D01*
X96122D02*
Y108287D01*
X92405Y109787D02*
Y106244D01*
X89256D01*
X84280Y118740D02*
Y127795D01*
Y118740D02*
X56721D01*
Y127795D01*
X49843Y129563D02*
Y137437D01*
X30158D01*
Y129563D01*
X49843D01*
X57095Y109787D02*
Y106244D01*
X60244D01*
X65756D02*
X68906D01*
Y109787D01*
X80594D02*
Y106244D01*
X83744D01*
X84280Y135669D02*
Y144724D01*
X56721D01*
Y135669D01*
X56020Y152161D02*
Y164563D01*
Y152161D02*
X20980D01*
Y164563D01*
X23122Y144287D02*
Y142713D01*
X13012Y143988D02*
Y205012D01*
X1988D01*
Y143988D01*
X13012D01*
X13512Y135512D02*
Y114488D01*
X2488D01*
Y135512D01*
X13512D01*
X25878Y142713D02*
Y144287D01*
X56020Y172437D02*
Y184839D01*
X20980D01*
Y172437D01*
X23622Y199713D02*
Y201287D01*
X26378D02*
Y199713D01*
X70350Y165839D02*
X76650D01*
X76453Y172925D02*
Y176075D01*
X82673Y175110D02*
Y173339D01*
X84642D01*
Y190661D02*
X82673D01*
Y188890D01*
X70547Y176075D02*
Y172925D01*
X102358Y173339D02*
X104327D01*
Y175110D01*
Y188890D02*
Y190661D01*
X102358D01*
X111075Y204047D02*
X107925D01*
Y209953D02*
X111075D01*
X118161Y210150D02*
Y203850D01*
X134878Y246713D02*
Y248287D01*
X143122D02*
Y246713D01*
X145878D02*
Y248287D01*
X132122D02*
Y246713D01*
X159713Y266122D02*
X161287D01*
Y268878D02*
X159713D01*
X165972Y274083D02*
Y281563D01*
Y289437D02*
Y296130D01*
Y296130D02*
X167547Y298098D01*
X173453D01*
X175028Y296130D01*
Y289437D01*
Y281563D02*
Y274083D01*
X165972D01*
X159988Y295000D02*
Y298622D01*
X218996Y241500D02*
G03*
X218996Y241500I-31496J0D01*
G01*
X268220Y227008D02*
X295779D01*
Y236063D01*
Y243937D02*
Y252992D01*
X268220D01*
Y243937D01*
Y236063D02*
Y227008D01*
X272453Y206075D02*
Y202925D01*
X294453Y256902D02*
X296028Y258870D01*
Y258870D02*
Y265563D01*
Y273437D02*
Y280917D01*
X286972D01*
Y273437D01*
X282378Y273787D02*
Y272213D01*
X286972Y265563D02*
Y258870D01*
X288547Y256902D01*
X294453D01*
X279622Y272213D02*
Y273787D01*
X271272Y272500D02*
G03*
X271272Y272500I-26772J0D01*
G01*
X121012Y295000D02*
Y298622D01*
X2291Y109866D02*
X20402D01*
Y68134D01*
X2291D01*
Y109866D01*
X18433D02*
Y68134D01*
X27047Y105425D02*
Y108575D01*
X32953D02*
Y105425D01*
X33150Y115661D02*
X26850D01*
X258972Y1583D02*
Y9063D01*
Y16937D02*
Y23630D01*
Y23630D02*
X260547Y25598D01*
X266453D01*
X268028Y23630D01*
Y16937D01*
Y9063D02*
Y1583D01*
X258972D01*
X275213Y8122D02*
X276787D01*
Y10878D02*
X275213D01*
X275213Y14622D02*
X276787D01*
Y17378D02*
X275213D01*
D73*
X85035Y188693D02*
G03*
X85035Y188693I-197J0D01*
G01*
D74*
X87232Y122875D02*
X91168D01*
X89200Y120907D02*
Y124843D01*
X63105Y159642D02*
X59169D01*
X61137Y157675D02*
Y161610D01*
X187449Y277453D02*
Y281388D01*
X185481Y279421D02*
X189417D01*
X261332Y248858D02*
X265268D01*
X263300Y250826D02*
Y246890D01*
X256332Y50858D02*
X260268D01*
X258300Y52825D02*
Y48890D01*
M02*
