%FSLAX25Y25*%
%MOIN*%
G70*
G01*
G75*
G04 Layer_Physical_Order=1*
G04 Layer_Color=255*
%ADD10R,0.23622X0.23622*%
%ADD11R,0.06693X0.04331*%
%ADD12O,0.00984X0.06102*%
%ADD13O,0.06102X0.00984*%
%ADD14R,0.07087X0.07480*%
%ADD15R,0.00945X0.05315*%
%ADD16R,0.08268X0.06299*%
%ADD17R,0.05512X0.04331*%
%ADD18R,0.04331X0.05512*%
%ADD19R,0.04331X0.06693*%
%ADD20R,0.03937X0.11417*%
%ADD21R,0.40945X0.31496*%
%ADD22R,0.03543X0.02756*%
%ADD23R,0.02756X0.03543*%
%ADD24R,0.02362X0.03347*%
%ADD25R,0.05906X0.05906*%
%ADD26R,0.14370X0.05709*%
%ADD27R,0.13189X0.05315*%
%ADD28O,0.02756X0.09055*%
%ADD29R,0.00984X0.04429*%
%ADD30R,0.04429X0.00984*%
%ADD31C,0.06000*%
%ADD32C,0.04000*%
%ADD33C,0.01000*%
%ADD34C,0.00800*%
%ADD35C,0.10000*%
%ADD36C,0.03000*%
%ADD37C,0.00700*%
%ADD38C,0.05000*%
%ADD39C,0.02500*%
%ADD40C,0.02000*%
%ADD41R,0.03937X0.03937*%
%ADD42C,0.03937*%
%ADD43R,0.06693X0.06693*%
%ADD44C,0.06693*%
%ADD45C,0.05118*%
%ADD46C,0.05906*%
%ADD47R,0.06299X0.06299*%
%ADD48C,0.06299*%
%ADD49C,0.10600*%
%ADD50R,0.10600X0.10600*%
%ADD51R,0.05118X0.05118*%
%ADD52C,0.05118*%
%ADD53R,0.08600X0.08600*%
%ADD54C,0.08600*%
%ADD55C,0.07200*%
%ADD56R,0.10600X0.10600*%
%ADD57R,0.03976X0.03976*%
%ADD58C,0.03976*%
%ADD59C,0.05500*%
%ADD60R,0.05500X0.05500*%
%ADD61R,0.05500X0.05500*%
%ADD62C,0.05000*%
%ADD63C,0.12992*%
G36*
X204480Y211598D02*
Y194500D01*
X204558Y194110D01*
X204558Y194110D01*
X204558Y194110D01*
X204565Y194079D01*
X204217Y193720D01*
X204141Y193735D01*
X186918D01*
X186601Y194122D01*
X186706Y194653D01*
X186591Y195236D01*
X186322Y195638D01*
X186591Y196040D01*
X186607Y196122D01*
X185452D01*
X185185Y196175D01*
X180067D01*
X179800Y196122D01*
X178645D01*
X178661Y196040D01*
X178673Y196023D01*
X178575Y195533D01*
X178357Y195387D01*
X173491Y190521D01*
X173181Y190057D01*
X173073Y189511D01*
X173073Y189511D01*
Y188697D01*
X172735Y188557D01*
X172004Y187996D01*
X171443Y187265D01*
X171090Y186414D01*
X170970Y185500D01*
X171090Y184586D01*
X171443Y183735D01*
X172004Y183004D01*
X172735Y182443D01*
X173586Y182090D01*
X174500Y181970D01*
X175414Y182090D01*
X176265Y182443D01*
X176996Y183004D01*
X177557Y183735D01*
X177910Y184586D01*
X178030Y185500D01*
X177910Y186414D01*
X177557Y187265D01*
X176996Y187996D01*
X176265Y188557D01*
X176186Y188590D01*
X176088Y189081D01*
X178141Y191133D01*
X178582Y190897D01*
X178546Y190717D01*
X178661Y190134D01*
X178930Y189732D01*
X178661Y189330D01*
X178546Y188748D01*
X178661Y188166D01*
X178930Y187764D01*
X178661Y187362D01*
X178546Y186779D01*
X178661Y186197D01*
X178930Y185795D01*
X178661Y185393D01*
X178546Y184811D01*
X178661Y184229D01*
X178930Y183827D01*
X178661Y183425D01*
X178546Y182843D01*
X178661Y182260D01*
X178930Y181858D01*
X178661Y181456D01*
X178546Y180874D01*
X178661Y180292D01*
X178930Y179890D01*
X178661Y179488D01*
X178546Y178905D01*
X178661Y178323D01*
X178930Y177921D01*
X178661Y177519D01*
X178546Y176937D01*
X178661Y176355D01*
X178930Y175953D01*
X178661Y175551D01*
X178546Y174969D01*
X178661Y174386D01*
X178930Y173984D01*
X178661Y173582D01*
X178546Y173000D01*
X178661Y172418D01*
X178930Y172016D01*
X178661Y171614D01*
X178546Y171031D01*
X178661Y170449D01*
X178930Y170047D01*
X178661Y169645D01*
X178546Y169063D01*
X178661Y168481D01*
X178930Y168079D01*
X178661Y167677D01*
X178546Y167095D01*
X178661Y166512D01*
X178930Y166110D01*
X178661Y165708D01*
X178546Y165126D01*
X178661Y164544D01*
X178930Y164142D01*
X178661Y163740D01*
X178546Y163157D01*
X178661Y162575D01*
X178930Y162173D01*
X178661Y161771D01*
X178546Y161189D01*
X178661Y160607D01*
X178930Y160205D01*
X178661Y159803D01*
X178546Y159221D01*
X178661Y158638D01*
X178930Y158236D01*
X178661Y157834D01*
X178546Y157252D01*
X178661Y156670D01*
X178930Y156268D01*
X178661Y155866D01*
X178546Y155283D01*
X178661Y154701D01*
X178930Y154299D01*
X178661Y153897D01*
X178602Y153601D01*
X178115Y153487D01*
X177843Y153843D01*
X177112Y154404D01*
X176260Y154756D01*
X175347Y154877D01*
X174433Y154756D01*
X173581Y154404D01*
X172850Y153843D01*
X172289Y153112D01*
X171937Y152260D01*
X171816Y151347D01*
X171937Y150433D01*
X172289Y149581D01*
X172850Y148850D01*
X173581Y148289D01*
X174433Y147937D01*
X174503Y147927D01*
X174519Y147428D01*
X174071Y147339D01*
X173669Y147070D01*
X173267Y147339D01*
X172685Y147454D01*
X172103Y147339D01*
X171701Y147070D01*
X171299Y147339D01*
X171216Y147355D01*
Y146200D01*
X171163Y145933D01*
Y143374D01*
X170217D01*
Y147355D01*
X170134Y147339D01*
X169732Y147070D01*
X169330Y147339D01*
X168748Y147454D01*
X168594Y147424D01*
X168306Y147659D01*
X168380Y148154D01*
X168545Y148222D01*
X169276Y148783D01*
X169837Y149514D01*
X170189Y150366D01*
X170310Y151279D01*
X170189Y152193D01*
X169837Y153045D01*
X169276Y153776D01*
X168545Y154337D01*
X167693Y154689D01*
X166779Y154810D01*
X165866Y154689D01*
X165014Y154337D01*
X164283Y153776D01*
X163722Y153045D01*
X163370Y152193D01*
X163249Y151279D01*
X163370Y150366D01*
X163722Y149514D01*
X164283Y148783D01*
X165014Y148222D01*
X165179Y148154D01*
X165253Y147659D01*
X164966Y147424D01*
X164811Y147454D01*
X164229Y147339D01*
X163827Y147070D01*
X163425Y147339D01*
X162843Y147454D01*
X162260Y147339D01*
X161858Y147070D01*
X161456Y147339D01*
X160874Y147454D01*
X160292Y147339D01*
X159890Y147070D01*
X159488Y147339D01*
X158905Y147454D01*
X158323Y147339D01*
X157921Y147070D01*
X157519Y147339D01*
X156937Y147454D01*
X156355Y147339D01*
X155953Y147070D01*
X155551Y147339D01*
X154969Y147454D01*
X154386Y147339D01*
X153984Y147070D01*
X153582Y147339D01*
X153000Y147454D01*
X152418Y147339D01*
X152016Y147070D01*
X151614Y147339D01*
X151031Y147454D01*
X150449Y147339D01*
X150047Y147070D01*
X149645Y147339D01*
X149563Y147355D01*
Y146200D01*
X149510Y145933D01*
Y143374D01*
X148616D01*
Y145933D01*
X148563Y146200D01*
Y147355D01*
X148481Y147339D01*
X148079Y147070D01*
X147677Y147339D01*
X147095Y147454D01*
X146512Y147339D01*
X146110Y147070D01*
X145708Y147339D01*
X145126Y147454D01*
X144544Y147339D01*
X144142Y147070D01*
X143740Y147339D01*
X143157Y147454D01*
X142575Y147339D01*
X142173Y147070D01*
X141771Y147339D01*
X141189Y147454D01*
X140607Y147339D01*
X140205Y147070D01*
X139803Y147339D01*
X139720Y147355D01*
Y146200D01*
X139667Y145933D01*
Y143374D01*
Y140815D01*
X139720Y140548D01*
Y139393D01*
X139803Y139409D01*
X140205Y139678D01*
X140607Y139409D01*
X140876Y139356D01*
X140989Y138869D01*
X140504Y138496D01*
X139943Y137765D01*
X139590Y136914D01*
X139470Y136000D01*
X139590Y135086D01*
X139943Y134235D01*
X140504Y133504D01*
X140533Y133052D01*
X137580Y130099D01*
X137118Y130290D01*
Y132500D01*
X133953D01*
Y133000D01*
X133453D01*
Y136756D01*
X125597D01*
X119797Y142557D01*
X119333Y142866D01*
X119256Y142881D01*
Y144287D01*
Y146953D01*
X111744D01*
Y144287D01*
Y138382D01*
X119256D01*
Y138407D01*
X119718Y138598D01*
X124882Y133434D01*
Y129244D01*
X129072D01*
X131325Y126991D01*
X131325Y126991D01*
X131788Y126681D01*
X132334Y126573D01*
X137500D01*
X137500Y126573D01*
X138046Y126681D01*
X138509Y126991D01*
X144009Y132491D01*
X144009Y132491D01*
X144138Y132683D01*
X144765Y132943D01*
X145496Y133504D01*
X146057Y134235D01*
X146410Y135086D01*
X146530Y136000D01*
X146410Y136914D01*
X146270Y137251D01*
X148104Y139085D01*
X148104Y139085D01*
X148573Y138772D01*
Y126934D01*
X141454Y119815D01*
X141087Y119967D01*
X140157Y120090D01*
X139228Y119967D01*
X138363Y119609D01*
X137619Y119038D01*
X137049Y118295D01*
X136690Y117429D01*
X136568Y116500D01*
X136690Y115571D01*
X137049Y114705D01*
X137619Y113962D01*
X138363Y113391D01*
X139228Y113033D01*
X140157Y112910D01*
X141087Y113033D01*
X141952Y113391D01*
X142696Y113962D01*
X143266Y114705D01*
X143625Y115571D01*
X143747Y116500D01*
X143625Y117429D01*
X143473Y117797D01*
X151009Y125333D01*
X151009Y125333D01*
X151319Y125796D01*
X151427Y126342D01*
X151427Y126343D01*
Y127228D01*
X155425D01*
Y132004D01*
X155866Y132240D01*
X155954Y132181D01*
X156500Y132073D01*
X156575Y131699D01*
Y127228D01*
X157573D01*
Y119244D01*
X157304Y119038D01*
X156734Y118295D01*
X156375Y117429D01*
X156253Y116500D01*
X156375Y115571D01*
X156734Y114705D01*
X157304Y113962D01*
X158048Y113391D01*
X158913Y113033D01*
X159843Y112910D01*
X160772Y113033D01*
X161637Y113391D01*
X162381Y113962D01*
X162951Y114705D01*
X163310Y115571D01*
X163432Y116500D01*
X163310Y117429D01*
X162951Y118295D01*
X162854Y118422D01*
X163230Y118751D01*
X166991Y114991D01*
X166991Y114991D01*
X167268Y114805D01*
X167454Y114681D01*
X168000Y114573D01*
X168000Y114573D01*
X178882D01*
Y111244D01*
X178882Y111244D01*
X178882D01*
X179010Y110934D01*
X175503Y107427D01*
X129591D01*
X118509Y118509D01*
X118238Y118691D01*
X118383Y119169D01*
X118905D01*
Y127075D01*
X113163D01*
X107924Y132314D01*
X107428Y132645D01*
X106843Y132762D01*
X103831D01*
Y134004D01*
X99075D01*
Y128461D01*
X103831D01*
Y129703D01*
X106209D01*
X111000Y124912D01*
Y119281D01*
X111000Y119281D01*
X111000D01*
X111000Y119169D01*
X110758Y118927D01*
X104697D01*
X104557Y119265D01*
X103996Y119996D01*
X103265Y120557D01*
X102414Y120910D01*
X101500Y121030D01*
X100586Y120910D01*
X99735Y120557D01*
X99004Y119996D01*
X98443Y119265D01*
X98090Y118414D01*
X97970Y117500D01*
X98090Y116586D01*
X98443Y115735D01*
X99004Y115004D01*
X99735Y114443D01*
X100586Y114090D01*
X101500Y113970D01*
X102414Y114090D01*
X103265Y114443D01*
X103996Y115004D01*
X104557Y115735D01*
X104697Y116073D01*
X116909D01*
X127991Y104991D01*
X127991Y104991D01*
X128454Y104681D01*
X128454Y104681D01*
X128454Y104681D01*
D01*
X128454Y104681D01*
X128454Y104681D01*
X129000Y104573D01*
X129000Y104573D01*
X176094D01*
X176094Y104573D01*
X176641Y104681D01*
X177104Y104991D01*
X182047Y109934D01*
X182879Y109102D01*
X182781Y108612D01*
X182644Y108555D01*
X181861Y107954D01*
X181260Y107171D01*
X180882Y106258D01*
X180753Y105280D01*
X180882Y104301D01*
X181260Y103388D01*
X181861Y102605D01*
X182644Y102004D01*
X183556Y101626D01*
X184535Y101497D01*
X185514Y101626D01*
X186427Y102004D01*
X187210Y102605D01*
X187811Y103388D01*
X188189Y104301D01*
X188318Y105280D01*
X188189Y106258D01*
X187811Y107171D01*
X187463Y107624D01*
X187684Y108073D01*
X196653D01*
X197715Y107011D01*
Y101530D01*
X205215D01*
Y109029D01*
X199733D01*
X198253Y110509D01*
X197790Y110819D01*
X197244Y110927D01*
X197244Y110927D01*
X191118D01*
Y111244D01*
X191118D01*
Y112234D01*
X191567Y112456D01*
X192235Y111943D01*
X193086Y111590D01*
X194000Y111470D01*
X194914Y111590D01*
X195765Y111943D01*
X196496Y112504D01*
X197057Y113235D01*
X197410Y114086D01*
X197530Y115000D01*
X197410Y115914D01*
X197057Y116765D01*
X196496Y117496D01*
X195765Y118057D01*
X194914Y118410D01*
X194000Y118530D01*
X193086Y118410D01*
X192235Y118057D01*
X191567Y117544D01*
X191118Y117766D01*
Y118756D01*
X178882D01*
Y117427D01*
X168591D01*
X163427Y122591D01*
Y132500D01*
X163319Y133046D01*
X163195Y133232D01*
X163009Y133509D01*
X163009Y133509D01*
X162443Y134075D01*
X162679Y134516D01*
X162785Y134495D01*
X162785Y134495D01*
X163986D01*
X175991Y122491D01*
X175991Y122491D01*
X176268Y122305D01*
X176454Y122181D01*
X177000Y122073D01*
X200409D01*
X219340Y103141D01*
X219149Y102679D01*
X217191D01*
Y95179D01*
X224073D01*
Y94091D01*
X220909Y90927D01*
X188500D01*
X188500Y90927D01*
X187954Y90819D01*
X187491Y90509D01*
X187491Y90509D01*
X171969Y74988D01*
X168012D01*
Y69012D01*
X173988D01*
Y72970D01*
X180799Y79780D01*
X181214Y79502D01*
X180882Y78699D01*
X180753Y77720D01*
X180882Y76741D01*
X181260Y75829D01*
X181861Y75046D01*
X182644Y74445D01*
X183556Y74067D01*
X184535Y73938D01*
X185514Y74067D01*
X186427Y74445D01*
X187210Y75046D01*
X187811Y75829D01*
X188189Y76741D01*
X188318Y77720D01*
X188189Y78699D01*
X187811Y79612D01*
X187210Y80395D01*
X186427Y80996D01*
X185514Y81374D01*
X184535Y81503D01*
X183556Y81374D01*
X182754Y81041D01*
X182476Y81457D01*
X189091Y88073D01*
X221500D01*
X221500Y88073D01*
X222046Y88181D01*
X222509Y88491D01*
X226509Y92491D01*
X226509Y92491D01*
X226695Y92768D01*
X226819Y92954D01*
X226927Y93500D01*
Y105638D01*
X227389Y105829D01*
X243073Y90146D01*
Y78500D01*
X243073Y78500D01*
X243181Y77954D01*
X243491Y77491D01*
X250073Y70909D01*
Y67618D01*
X247744D01*
Y65880D01*
X246272D01*
Y66831D01*
X240728D01*
Y65880D01*
X239272D01*
Y66831D01*
X233728D01*
Y62075D01*
X239272D01*
Y63025D01*
X240728D01*
Y62453D01*
X240685Y62444D01*
X240500Y62320D01*
X240222Y62135D01*
X240222Y62134D01*
X239013Y60925D01*
X233728D01*
Y56169D01*
X239272D01*
Y57277D01*
X239663Y57538D01*
X240266Y58142D01*
X240728Y57950D01*
Y56169D01*
X242073D01*
Y54331D01*
X240728D01*
Y49575D01*
X246272D01*
Y54331D01*
X244927D01*
Y56169D01*
X246272D01*
Y57950D01*
X246734Y58142D01*
X247337Y57538D01*
X247744Y57266D01*
Y55382D01*
X252647D01*
X254538Y53491D01*
X254538Y53491D01*
X255001Y53181D01*
X255001Y53181D01*
X255001Y53181D01*
D01*
X255001Y53181D01*
X255001Y53181D01*
X255547Y53073D01*
X255547Y53073D01*
X260500D01*
X260500Y53073D01*
X261046Y53181D01*
X261509Y53491D01*
X266509Y58491D01*
X266509Y58491D01*
X266537Y58531D01*
X268468D01*
Y64468D01*
X268248D01*
X268027Y64917D01*
X268093Y65003D01*
X268392Y65725D01*
X268494Y66500D01*
X268392Y67275D01*
X268093Y67997D01*
X267617Y68617D01*
X267444Y68750D01*
Y69250D01*
X267617Y69383D01*
X268093Y70003D01*
X268392Y70725D01*
X268494Y71500D01*
X268392Y72275D01*
X268093Y72997D01*
X267617Y73617D01*
X267444Y73750D01*
Y74250D01*
X267617Y74383D01*
X268093Y75003D01*
X268392Y75725D01*
X268494Y76500D01*
X268392Y77275D01*
X268093Y77997D01*
X267617Y78617D01*
X266997Y79093D01*
X266275Y79392D01*
X265500Y79494D01*
X264725Y79392D01*
X264003Y79093D01*
X263893Y79009D01*
X263400Y79090D01*
X263341Y79178D01*
X263341Y79178D01*
X247751Y94768D01*
X247972Y95216D01*
X248500Y95147D01*
X249479Y95276D01*
X250391Y95653D01*
X251174Y96255D01*
X251776Y97038D01*
X252153Y97950D01*
X252282Y98929D01*
X252153Y99908D01*
X251776Y100820D01*
X251174Y101604D01*
X250391Y102205D01*
X249479Y102583D01*
X248500Y102711D01*
X247521Y102583D01*
X246609Y102205D01*
X245826Y101604D01*
X245224Y100820D01*
X244847Y99908D01*
X244718Y98929D01*
X244787Y98401D01*
X244339Y98180D01*
X231927Y110591D01*
Y159145D01*
X231927Y159145D01*
X231819Y159691D01*
X231509Y160154D01*
X231509Y160154D01*
X225640Y166024D01*
X225177Y166333D01*
X224630Y166442D01*
X224630Y166442D01*
X221331D01*
Y169471D01*
X221845D01*
X221943Y169235D01*
X222504Y168504D01*
X223235Y167943D01*
X224086Y167590D01*
X225000Y167470D01*
X225914Y167590D01*
X226765Y167943D01*
X227496Y168504D01*
X228057Y169235D01*
X228410Y170086D01*
X228530Y171000D01*
X228410Y171914D01*
X228057Y172765D01*
X227496Y173496D01*
X226765Y174057D01*
X225914Y174410D01*
X225000Y174530D01*
X224086Y174410D01*
X223235Y174057D01*
X222504Y173496D01*
X221943Y172765D01*
X221845Y172529D01*
X221331D01*
Y175624D01*
X241745D01*
X262658Y154710D01*
X262608Y154590D01*
X262506Y153815D01*
X262608Y153040D01*
X262658Y152919D01*
X260527Y150788D01*
X260228Y150342D01*
X260123Y149815D01*
X260123Y149815D01*
X260123D01*
X260123Y149815D01*
X260123D01*
Y124815D01*
X260123Y124815D01*
X260123D01*
X260228Y124288D01*
X260527Y123842D01*
X262658Y121711D01*
X262608Y121590D01*
X262506Y120815D01*
X262608Y120040D01*
X262658Y119919D01*
X260527Y117788D01*
X260228Y117342D01*
X260123Y116815D01*
X260123Y116815D01*
X260123D01*
X260123Y116815D01*
X260123D01*
Y92315D01*
X260123Y92315D01*
X260123D01*
X260228Y91788D01*
X260527Y91342D01*
X262658Y89210D01*
X262608Y89090D01*
X262506Y88315D01*
X262608Y87540D01*
X262907Y86818D01*
X263383Y86198D01*
X264003Y85722D01*
X264725Y85423D01*
X265500Y85321D01*
X266275Y85423D01*
X266997Y85722D01*
X267617Y86198D01*
X268093Y86818D01*
X268392Y87540D01*
X268494Y88315D01*
X268392Y89090D01*
X268093Y89812D01*
X267617Y90432D01*
X267444Y90565D01*
Y91065D01*
X267617Y91198D01*
X268093Y91818D01*
X268392Y92540D01*
X268494Y93315D01*
X268392Y94090D01*
X268093Y94812D01*
X268071Y94841D01*
X268292Y95289D01*
X275685D01*
X275842Y95310D01*
X276000Y95289D01*
X286471D01*
Y89997D01*
X280771Y84298D01*
X280022Y83384D01*
X279465Y82342D01*
X279342Y81937D01*
X278237Y80832D01*
X277487Y79919D01*
X276991Y78991D01*
X276000Y78000D01*
Y73526D01*
X275974Y73500D01*
X275500D01*
X271500Y69500D01*
X272000Y69000D01*
Y68938D01*
X271930Y68807D01*
X271587Y67676D01*
X271471Y66500D01*
X271471Y66500D01*
X271471D01*
X271471Y66500D01*
X271471D01*
Y55135D01*
X271336Y55000D01*
X271000D01*
X264029Y48029D01*
X246272D01*
Y48425D01*
X240728D01*
Y48029D01*
X229984D01*
X229547Y47986D01*
X229311Y48427D01*
X229767Y48983D01*
X230352Y50077D01*
X230713Y51265D01*
X230834Y52500D01*
X230713Y53735D01*
X230352Y54923D01*
X229767Y56017D01*
X228980Y56976D01*
X228021Y57764D01*
X226926Y58349D01*
X225739Y58709D01*
X224504Y58830D01*
X223269Y58709D01*
X222081Y58349D01*
X220987Y57764D01*
X220028Y56976D01*
X219240Y56017D01*
X218655Y54923D01*
X218295Y53735D01*
X218174Y52500D01*
X218295Y51265D01*
X218655Y50077D01*
X218694Y50006D01*
X218292Y49708D01*
X209000Y59000D01*
X198434D01*
X193637Y63796D01*
X192906Y64357D01*
X192456Y64543D01*
X192000Y65000D01*
X180500D01*
X172000Y56500D01*
X143992D01*
X131996Y68496D01*
X131265Y69057D01*
X130414Y69410D01*
X129500Y69530D01*
X95962D01*
X86790Y78702D01*
Y90784D01*
X86884Y90907D01*
X86998Y91182D01*
X87496Y91133D01*
X87591Y90652D01*
X87901Y90189D01*
X95323Y82767D01*
X95323Y82767D01*
X95786Y82458D01*
X95786Y82458D01*
X95786Y82458D01*
D01*
X95786Y82458D01*
X95786Y82458D01*
X96332Y82349D01*
X96332Y82349D01*
X128568D01*
X128568Y82349D01*
X129114Y82458D01*
X129577Y82767D01*
X136695Y89884D01*
X153485D01*
X153485Y89884D01*
X153560Y89899D01*
X153795Y89458D01*
X149919Y85581D01*
X149587Y85085D01*
X149471Y84500D01*
Y74593D01*
X148869Y74131D01*
X148390Y73507D01*
X148089Y72780D01*
X147986Y72000D01*
X148089Y71220D01*
X148390Y70493D01*
X148869Y69869D01*
X149493Y69390D01*
X150220Y69089D01*
X151000Y68986D01*
X151780Y69089D01*
X152507Y69390D01*
X153131Y69869D01*
X153610Y70493D01*
X153911Y71220D01*
X154014Y72000D01*
X153911Y72780D01*
X153610Y73507D01*
X153131Y74131D01*
X152529Y74593D01*
Y83867D01*
X160248Y91585D01*
X161000Y91486D01*
X161780Y91589D01*
X162507Y91890D01*
X163131Y92369D01*
X163610Y92993D01*
X163844Y93558D01*
X164335Y93656D01*
X164499Y93491D01*
X164499Y93491D01*
X164777Y93305D01*
X164962Y93181D01*
X165509Y93073D01*
X165509Y93073D01*
X168357D01*
X168390Y92993D01*
X168869Y92369D01*
X169493Y91890D01*
X170220Y91589D01*
X171000Y91486D01*
X171780Y91589D01*
X172507Y91890D01*
X173131Y92369D01*
X173610Y92993D01*
X173911Y93720D01*
X174014Y94500D01*
X173911Y95280D01*
X173610Y96007D01*
X173131Y96631D01*
X172507Y97110D01*
X171780Y97411D01*
X171000Y97514D01*
X170220Y97411D01*
X169493Y97110D01*
X168869Y96631D01*
X168390Y96007D01*
X168357Y95927D01*
X166100D01*
X163330Y98698D01*
X162867Y99007D01*
X162321Y99116D01*
X162320Y99116D01*
X159679D01*
X159679Y99116D01*
X159133Y99007D01*
X158670Y98698D01*
X158670Y98698D01*
X156802Y96830D01*
X156493Y96367D01*
X156486Y96331D01*
X154450Y94295D01*
X153988Y94487D01*
Y97488D01*
X148012D01*
Y95927D01*
X130386D01*
X118905Y107408D01*
Y113295D01*
X111000D01*
Y107408D01*
X109566Y105975D01*
X107772D01*
Y106925D01*
X104289D01*
X104097Y107387D01*
X104785Y108075D01*
X107772D01*
Y112831D01*
X102228D01*
Y111982D01*
X100272D01*
Y112831D01*
X94728D01*
Y111982D01*
X93653D01*
X92421Y113214D01*
Y115905D01*
X88059D01*
Y110559D01*
X90750D01*
X91938Y109371D01*
X91938Y109371D01*
X91938D01*
X91938Y109371D01*
X91938D01*
X91938Y109371D01*
Y109371D01*
Y109371D01*
D01*
D01*
X91938D01*
Y109371D01*
X92434Y109040D01*
X93020Y108923D01*
X94728D01*
Y108075D01*
X99806D01*
X99997Y107613D01*
X99919Y107534D01*
X99587Y107038D01*
X99565Y106925D01*
X98000D01*
Y104547D01*
Y102169D01*
X99471D01*
Y98000D01*
X99563Y97536D01*
X99246Y97150D01*
X99110D01*
Y88850D01*
X105247D01*
X107446Y86651D01*
X107942Y86319D01*
X108528Y86203D01*
X116835D01*
Y85204D01*
X96924D01*
X93706Y88421D01*
X93867Y88894D01*
X94343Y88957D01*
X95353Y89375D01*
X96219Y90040D01*
X96885Y90907D01*
X97303Y91917D01*
X97379Y92500D01*
X93260D01*
Y93000D01*
X92760D01*
Y97120D01*
X92177Y97043D01*
X91167Y96625D01*
X90300Y95960D01*
X89737Y95225D01*
X89238Y95192D01*
X80221Y104209D01*
X79757Y104519D01*
X79211Y104627D01*
X79211Y104627D01*
X70413D01*
X64944Y110097D01*
X65135Y110559D01*
X66240D01*
Y112732D01*
X64559D01*
Y111135D01*
X64097Y110944D01*
X63672Y111368D01*
X63209Y111678D01*
X62663Y111786D01*
X62663Y111786D01*
X61441D01*
Y115905D01*
X58306D01*
Y117121D01*
X58197Y117667D01*
X57888Y118131D01*
X57888Y118131D01*
X38420Y137599D01*
X38565Y138078D01*
X38928Y138150D01*
X39714Y138675D01*
X40240Y139462D01*
X40424Y140390D01*
Y146689D01*
X40240Y147617D01*
X39714Y148403D01*
X39429Y148594D01*
X39574Y149073D01*
X40314D01*
X53535Y135852D01*
X53344Y135390D01*
X52079D01*
Y128075D01*
X67268D01*
Y135390D01*
X58034D01*
X41915Y151509D01*
X41452Y151819D01*
X40905Y151927D01*
X40905Y151927D01*
X10620D01*
X10319Y152319D01*
X9493Y152953D01*
X8532Y153351D01*
X7500Y153487D01*
X6468Y153351D01*
X5507Y152953D01*
X4681Y152319D01*
X4047Y151493D01*
X3649Y150532D01*
X3513Y149500D01*
X3649Y148468D01*
X4047Y147507D01*
X4681Y146681D01*
X5507Y146047D01*
X6468Y145649D01*
X7500Y145513D01*
X7595Y145526D01*
X7971Y145196D01*
Y139831D01*
X6728D01*
Y135075D01*
X12272D01*
Y139831D01*
X11029D01*
Y147500D01*
X11006Y147617D01*
X11004Y147629D01*
X11351Y148468D01*
X11431Y149073D01*
X21426D01*
X21571Y148594D01*
X21286Y148403D01*
X20760Y147617D01*
X20575Y146689D01*
Y140390D01*
X20760Y139462D01*
X21286Y138675D01*
X22072Y138150D01*
X23000Y137965D01*
X23928Y138150D01*
X24714Y138675D01*
X25240Y139462D01*
X25250Y139512D01*
X25750D01*
X25760Y139462D01*
X26286Y138675D01*
X27072Y138150D01*
X28000Y137965D01*
X28928Y138150D01*
X29227Y138350D01*
X29413Y138313D01*
X30923Y136802D01*
X30923Y136802D01*
X31386Y136493D01*
X31932Y136384D01*
X31932Y136384D01*
X35597D01*
X54050Y117931D01*
X53720Y117555D01*
X53718Y117557D01*
X52866Y117910D01*
X51953Y118030D01*
X51039Y117910D01*
X50188Y117557D01*
X49457Y116996D01*
X48895Y116265D01*
X48543Y115414D01*
X48423Y114500D01*
X48543Y113586D01*
X48891Y112745D01*
X48218Y112071D01*
X47756Y112262D01*
Y115618D01*
X42998D01*
X41034Y117581D01*
X40538Y117913D01*
X39953Y118029D01*
X39727D01*
X39582Y118508D01*
X39714Y118597D01*
X40240Y119383D01*
X40424Y120311D01*
Y126610D01*
X40240Y127538D01*
X39714Y128325D01*
X38928Y128850D01*
X38000Y129035D01*
X37072Y128850D01*
X36286Y128325D01*
X35760Y127538D01*
X35750Y127488D01*
X35250D01*
X35240Y127538D01*
X34714Y128325D01*
X33928Y128850D01*
X33000Y129035D01*
X32072Y128850D01*
X31286Y128325D01*
X30760Y127538D01*
X30750Y127488D01*
X30250D01*
X30240Y127538D01*
X29714Y128325D01*
X28928Y128850D01*
X28000Y129035D01*
X27072Y128850D01*
X26286Y128325D01*
X25760Y127538D01*
X25750Y127488D01*
X25250D01*
X25240Y127538D01*
X24714Y128325D01*
X24529Y128448D01*
Y130345D01*
X24765Y130443D01*
X25496Y131004D01*
X26057Y131735D01*
X26410Y132586D01*
X26530Y133500D01*
X26410Y134414D01*
X26057Y135265D01*
X25496Y135996D01*
X24765Y136557D01*
X23914Y136910D01*
X23000Y137030D01*
X22086Y136910D01*
X21235Y136557D01*
X20504Y135996D01*
X19943Y135265D01*
X19590Y134414D01*
X19470Y133500D01*
X19590Y132586D01*
X19943Y131735D01*
X20504Y131004D01*
X21235Y130443D01*
X21471Y130345D01*
Y128448D01*
X21286Y128325D01*
X20760Y127538D01*
X20575Y126610D01*
Y123738D01*
X15414Y118577D01*
X13256D01*
Y119787D01*
Y126118D01*
X11029D01*
Y129169D01*
X12272D01*
Y133925D01*
X6728D01*
Y129169D01*
X7971D01*
Y126118D01*
X5744D01*
Y119787D01*
Y113882D01*
X13256D01*
Y115518D01*
X16047D01*
X16633Y115634D01*
X17129Y115966D01*
X17129Y115966D01*
X17129Y115966D01*
X20396Y119233D01*
X20893Y119184D01*
X21286Y118597D01*
X22072Y118071D01*
X23000Y117886D01*
X23928Y118071D01*
X24714Y118597D01*
X25227Y119364D01*
X25706Y119219D01*
Y115480D01*
X25654D01*
Y109150D01*
X34106D01*
X35206Y108050D01*
Y103404D01*
X34850Y103112D01*
X34850Y103112D01*
X34346D01*
Y104850D01*
X25654D01*
Y98520D01*
X34346D01*
Y99517D01*
X34808Y99708D01*
X41526Y92991D01*
X41526Y92991D01*
X41989Y92681D01*
X41989Y92681D01*
X41989Y92681D01*
D01*
X41989Y92681D01*
X41989Y92681D01*
X42535Y92573D01*
X42535Y92573D01*
X50303D01*
X50443Y92235D01*
X51004Y91504D01*
X51735Y90943D01*
X52586Y90590D01*
X53500Y90470D01*
X54414Y90590D01*
X54751Y90730D01*
X55943Y89538D01*
X56406Y89228D01*
X56953Y89120D01*
X56953Y89120D01*
X63244D01*
Y87382D01*
X70756D01*
Y93287D01*
Y95970D01*
X75298D01*
X79197Y92071D01*
X79217Y91917D01*
X79635Y90907D01*
X79730Y90784D01*
Y77240D01*
X79730Y77240D01*
X79730D01*
X79850Y76327D01*
X80203Y75475D01*
X80764Y74744D01*
X91517Y63991D01*
X91325Y63529D01*
X60497D01*
X39763Y84263D01*
X38849Y85013D01*
X37807Y85570D01*
X37144Y85771D01*
X36849Y86013D01*
X36483Y86209D01*
X36000Y87000D01*
X33795D01*
X33500Y87029D01*
X28497D01*
X28000Y87526D01*
Y88500D01*
X16371Y100129D01*
X15397D01*
X12347Y103180D01*
Y103347D01*
X12162D01*
X11349Y104013D01*
X10307Y104570D01*
X9176Y104913D01*
X8000Y105029D01*
X6824Y104913D01*
X5693Y104570D01*
X4651Y104013D01*
X3838Y103347D01*
X3653D01*
Y103162D01*
X2987Y102349D01*
X2888Y102164D01*
X2342Y101348D01*
X2182Y101422D01*
X2182Y101422D01*
X2182Y101422D01*
X2179Y101423D01*
X2137Y101442D01*
X2137Y101442D01*
X2137Y101442D01*
X1966Y101476D01*
X1797Y101518D01*
X1771Y101515D01*
X1746Y101520D01*
X0D01*
Y186828D01*
X462Y187019D01*
X4637Y182845D01*
X4608Y182775D01*
X4506Y182000D01*
X4608Y181225D01*
X4907Y180503D01*
X5383Y179883D01*
X5556Y179750D01*
Y179250D01*
X5383Y179117D01*
X4907Y178497D01*
X4608Y177775D01*
X4506Y177000D01*
X4608Y176225D01*
X4907Y175503D01*
X5383Y174883D01*
X6003Y174407D01*
X6725Y174108D01*
X7500Y174006D01*
X8275Y174108D01*
X8997Y174407D01*
X9617Y174883D01*
X10093Y175503D01*
X10122Y175573D01*
X12000D01*
X12000Y175573D01*
X12546Y175681D01*
X13009Y175991D01*
X29091Y192073D01*
X57303D01*
X57443Y191735D01*
X58004Y191004D01*
X58735Y190443D01*
X59586Y190090D01*
X60500Y189970D01*
X61414Y190090D01*
X62265Y190443D01*
X62996Y191004D01*
X63399Y191529D01*
X63873Y191368D01*
Y153700D01*
X63873Y153700D01*
X63981Y153154D01*
X64291Y152691D01*
X72491Y144491D01*
X72491Y144491D01*
X72954Y144181D01*
X72954Y144181D01*
X72954Y144181D01*
D01*
X72954Y144181D01*
X72954Y144181D01*
X73500Y144073D01*
X73500Y144073D01*
X86303D01*
X86443Y143735D01*
X87004Y143004D01*
X87735Y142443D01*
X88586Y142090D01*
X89500Y141970D01*
X90414Y142090D01*
X91265Y142443D01*
X91996Y143004D01*
X92557Y143735D01*
X92910Y144586D01*
X93030Y145500D01*
X92910Y146414D01*
X92557Y147265D01*
X91996Y147996D01*
X91265Y148557D01*
X90414Y148910D01*
X89500Y149030D01*
X88586Y148910D01*
X87735Y148557D01*
X87004Y147996D01*
X86443Y147265D01*
X86303Y146927D01*
X74091D01*
X66727Y154291D01*
Y195700D01*
X66727Y195700D01*
X66727Y195700D01*
Y195700D01*
X66727D01*
X66727Y195700D01*
X66619Y196246D01*
X66495Y196432D01*
X66309Y196709D01*
X66309Y196709D01*
X64509Y198509D01*
X64046Y198819D01*
X63500Y198927D01*
X63500Y198927D01*
X27772D01*
Y199925D01*
X22228D01*
Y198975D01*
X10469D01*
Y199031D01*
X10469D01*
Y201500D01*
X7500D01*
Y202500D01*
X10469D01*
Y204969D01*
D01*
Y204969D01*
X10573Y205073D01*
X22228D01*
Y203953D01*
X27772D01*
Y205073D01*
X77666D01*
X77996Y204697D01*
X77970Y204500D01*
X78090Y203586D01*
X78443Y202735D01*
X79004Y202004D01*
X79735Y201443D01*
X80586Y201090D01*
X81500Y200970D01*
X82414Y201090D01*
X83265Y201443D01*
X83442Y201579D01*
X83796Y201225D01*
X83443Y200765D01*
X83090Y199914D01*
X82970Y199000D01*
X83090Y198086D01*
X83443Y197235D01*
X84004Y196504D01*
X84735Y195943D01*
X84971Y195845D01*
Y190476D01*
X85087Y189891D01*
X85118Y189845D01*
Y188413D01*
X83156D01*
X82968Y188451D01*
X82852Y188427D01*
X78197D01*
X78057Y188765D01*
X77496Y189496D01*
X76765Y190057D01*
X75914Y190410D01*
X75000Y190530D01*
X74086Y190410D01*
X73235Y190057D01*
X72504Y189496D01*
X71943Y188765D01*
X71590Y187914D01*
X71470Y187000D01*
X71590Y186086D01*
X71943Y185235D01*
X72073Y185066D01*
Y182980D01*
X69153D01*
Y176650D01*
X77846D01*
Y182980D01*
X75104D01*
X75072Y183479D01*
X75914Y183590D01*
X76765Y183943D01*
X77496Y184504D01*
X78057Y185235D01*
X78197Y185573D01*
X79754D01*
Y185429D01*
Y183461D01*
Y181492D01*
Y179524D01*
Y177555D01*
Y175587D01*
X82781D01*
X82968Y175549D01*
X83156Y175587D01*
X85118D01*
Y174134D01*
X86610D01*
Y173634D01*
X87110D01*
Y170419D01*
X88079D01*
Y173634D01*
Y176848D01*
X86183D01*
Y177555D01*
Y179524D01*
Y181492D01*
Y183461D01*
Y185429D01*
Y187152D01*
X92461D01*
X92653Y186690D01*
X91378Y185415D01*
X90500Y185530D01*
X89586Y185410D01*
X88735Y185057D01*
X88004Y184496D01*
X87443Y183765D01*
X87090Y182914D01*
X86970Y182000D01*
X87090Y181086D01*
X87443Y180235D01*
X88004Y179504D01*
X88735Y178943D01*
X89586Y178590D01*
X90500Y178470D01*
X91414Y178590D01*
X92265Y178943D01*
X92996Y179504D01*
X93557Y180235D01*
X93592Y180319D01*
X94075Y180449D01*
X94735Y179943D01*
X95586Y179590D01*
X96500Y179470D01*
X97414Y179590D01*
X98265Y179943D01*
X98996Y180504D01*
X99557Y181235D01*
X99910Y182086D01*
X100030Y183000D01*
X99910Y183914D01*
X99557Y184765D01*
X98996Y185496D01*
X98988Y185617D01*
X99342Y185970D01*
X99674Y186467D01*
X99790Y187052D01*
Y187152D01*
X100817D01*
Y185429D01*
Y183461D01*
Y181492D01*
Y179524D01*
Y177555D01*
Y176848D01*
X98921D01*
Y173634D01*
Y170419D01*
X99890D01*
Y173634D01*
X100390D01*
Y174134D01*
X101882D01*
Y175587D01*
X102502D01*
Y167256D01*
X93882D01*
Y159744D01*
X95661D01*
X95728Y159406D01*
X96038Y158943D01*
X97230Y157751D01*
X97090Y157414D01*
X96970Y156500D01*
X97090Y155586D01*
X97443Y154735D01*
X98004Y154004D01*
X98735Y153443D01*
X99586Y153090D01*
X100500Y152970D01*
X101414Y153090D01*
X102265Y153443D01*
X102434Y153573D01*
X103669D01*
Y152228D01*
X106800D01*
X108692Y150337D01*
X109154Y150028D01*
X109701Y149919D01*
X109701Y149919D01*
X111744D01*
Y147953D01*
X119256D01*
Y148164D01*
X119734Y148309D01*
X119739Y148302D01*
X120233Y147972D01*
X120815Y147857D01*
X122874D01*
Y149378D01*
X123374D01*
Y149825D01*
X125933D01*
X126200Y149878D01*
X127355D01*
X127339Y149960D01*
X127070Y150362D01*
X127339Y150764D01*
X127454Y151347D01*
X127339Y151929D01*
X127070Y152331D01*
X127339Y152733D01*
X127454Y153315D01*
X127339Y153897D01*
X127070Y154299D01*
X127339Y154701D01*
X127454Y155283D01*
X127339Y155866D01*
X127070Y156268D01*
X127339Y156670D01*
X127454Y157252D01*
X127339Y157834D01*
X127070Y158236D01*
X127339Y158638D01*
X127454Y159221D01*
X127339Y159803D01*
X127070Y160205D01*
X127339Y160607D01*
X127454Y161189D01*
X127339Y161771D01*
X127070Y162173D01*
X127339Y162575D01*
X127454Y163157D01*
X127339Y163740D01*
X127070Y164142D01*
X127339Y164544D01*
X127454Y165126D01*
X127339Y165708D01*
X127070Y166110D01*
X127339Y166512D01*
X127454Y167095D01*
X127339Y167677D01*
X127070Y168079D01*
X127339Y168481D01*
X127454Y169063D01*
X127339Y169645D01*
X127070Y170047D01*
X127339Y170449D01*
X127454Y171031D01*
X127339Y171614D01*
X127070Y172016D01*
X127339Y172418D01*
X127454Y173000D01*
X127339Y173582D01*
X127070Y173984D01*
X127339Y174386D01*
X127454Y174969D01*
X127339Y175551D01*
X127070Y175953D01*
X127339Y176355D01*
X127454Y176937D01*
X127339Y177519D01*
X127070Y177921D01*
X127339Y178323D01*
X127454Y178905D01*
X127339Y179488D01*
X127070Y179890D01*
X127339Y180292D01*
X127454Y180874D01*
X127339Y181456D01*
X127070Y181858D01*
X127339Y182260D01*
X127454Y182843D01*
X127339Y183425D01*
X127070Y183827D01*
X127339Y184229D01*
X127454Y184811D01*
X127339Y185393D01*
X127070Y185795D01*
X127339Y186197D01*
X127454Y186779D01*
X127339Y187362D01*
X127070Y187764D01*
X127339Y188166D01*
X127454Y188748D01*
X127339Y189330D01*
X127070Y189732D01*
X127339Y190134D01*
X127454Y190717D01*
X127339Y191299D01*
X127070Y191701D01*
X127339Y192103D01*
X127454Y192685D01*
X127339Y193267D01*
X127070Y193669D01*
X127339Y194071D01*
X127454Y194653D01*
X127339Y195236D01*
X127070Y195638D01*
X127339Y196040D01*
X127454Y196622D01*
X127339Y197204D01*
X127009Y197698D01*
X126515Y198028D01*
X125933Y198143D01*
X121119D01*
X118253Y201009D01*
X117790Y201319D01*
X117244Y201427D01*
X117244Y201427D01*
X102591D01*
X101827Y202192D01*
X102018Y202654D01*
X107350D01*
Y210119D01*
X111650D01*
Y207500D01*
X117980D01*
Y208371D01*
X118442Y208563D01*
X119090Y207915D01*
X119090Y207914D01*
X118970Y207000D01*
X119090Y206086D01*
X119443Y205235D01*
X120004Y204504D01*
X120735Y203943D01*
X121586Y203590D01*
X122500Y203470D01*
X123414Y203590D01*
X124265Y203943D01*
X124996Y204504D01*
X125557Y205235D01*
X125697Y205573D01*
X127540D01*
X127857Y205186D01*
X127857Y205185D01*
Y203126D01*
X129378D01*
Y202626D01*
X129825D01*
Y200067D01*
X129878Y199800D01*
Y198645D01*
X129960Y198661D01*
X130362Y198930D01*
X130764Y198661D01*
X131346Y198546D01*
X131501Y198576D01*
X131887Y198259D01*
Y196685D01*
X131887Y196685D01*
X131996Y196139D01*
X132306Y195676D01*
X134491Y193491D01*
X134491Y193491D01*
X134954Y193181D01*
X134954Y193181D01*
X134954Y193181D01*
D01*
X134954Y193181D01*
X134954Y193181D01*
X135500Y193073D01*
X135500Y193073D01*
X139303D01*
X139443Y192735D01*
X140004Y192004D01*
X140735Y191443D01*
X141586Y191090D01*
X142500Y190970D01*
X143414Y191090D01*
X144265Y191443D01*
X144996Y192004D01*
X145557Y192735D01*
X145910Y193586D01*
X146030Y194500D01*
X145910Y195414D01*
X145557Y196265D01*
X144996Y196996D01*
X144265Y197557D01*
X143414Y197910D01*
X142500Y198030D01*
X141586Y197910D01*
X140735Y197557D01*
X140004Y196996D01*
X139443Y196265D01*
X139303Y195927D01*
X136091D01*
X134742Y197276D01*
Y198259D01*
X135129Y198576D01*
X135284Y198546D01*
X135866Y198661D01*
X136268Y198930D01*
X136670Y198661D01*
X137252Y198546D01*
X137834Y198661D01*
X138236Y198930D01*
X138638Y198661D01*
X139220Y198546D01*
X139803Y198661D01*
X140205Y198930D01*
X140607Y198661D01*
X141189Y198546D01*
X141771Y198661D01*
X142173Y198930D01*
X142575Y198661D01*
X143157Y198546D01*
X143740Y198661D01*
X144142Y198930D01*
X144544Y198661D01*
X145126Y198546D01*
X145708Y198661D01*
X146110Y198930D01*
X146512Y198661D01*
X147095Y198546D01*
X147677Y198661D01*
X148079Y198930D01*
X148481Y198661D01*
X149063Y198546D01*
X149645Y198661D01*
X150047Y198930D01*
X150449Y198661D01*
X151031Y198546D01*
X151614Y198661D01*
X152016Y198930D01*
X152418Y198661D01*
X153000Y198546D01*
X153582Y198661D01*
X153984Y198930D01*
X154386Y198661D01*
X154969Y198546D01*
X155551Y198661D01*
X155953Y198930D01*
X156355Y198661D01*
X156937Y198546D01*
X157519Y198661D01*
X157921Y198930D01*
X158323Y198661D01*
X158905Y198546D01*
X159488Y198661D01*
X159890Y198930D01*
X160292Y198661D01*
X160874Y198546D01*
X161456Y198661D01*
X161858Y198930D01*
X162260Y198661D01*
X162843Y198546D01*
X163425Y198661D01*
X163827Y198930D01*
X164229Y198661D01*
X164811Y198546D01*
X165393Y198661D01*
X165795Y198930D01*
X166197Y198661D01*
X166779Y198546D01*
X167362Y198661D01*
X167764Y198930D01*
X168166Y198661D01*
X168748Y198546D01*
X169330Y198661D01*
X169732Y198930D01*
X170134Y198661D01*
X170717Y198546D01*
X171299Y198661D01*
X171701Y198930D01*
X172103Y198661D01*
X172685Y198546D01*
X173267Y198661D01*
X173669Y198930D01*
X174071Y198661D01*
X174653Y198546D01*
X175236Y198661D01*
X175638Y198930D01*
X176040Y198661D01*
X176622Y198546D01*
X177204Y198661D01*
X177698Y198991D01*
X178028Y199485D01*
X178143Y200067D01*
Y205185D01*
X178028Y205767D01*
X177698Y206261D01*
X177204Y206591D01*
X176622Y206706D01*
X176040Y206591D01*
X175638Y206322D01*
X175236Y206591D01*
X174653Y206706D01*
X174071Y206591D01*
X173669Y206322D01*
X173267Y206591D01*
X172685Y206706D01*
X172103Y206591D01*
X171701Y206322D01*
X171299Y206591D01*
X170717Y206706D01*
X170134Y206591D01*
X169732Y206322D01*
X169330Y206591D01*
X168748Y206706D01*
X168166Y206591D01*
X167764Y206322D01*
X167362Y206591D01*
X166779Y206706D01*
X166197Y206591D01*
X165795Y206322D01*
X165393Y206591D01*
X164811Y206706D01*
X164229Y206591D01*
X163827Y206322D01*
X163425Y206591D01*
X162843Y206706D01*
X162260Y206591D01*
X161858Y206322D01*
X161456Y206591D01*
X160874Y206706D01*
X160292Y206591D01*
X159890Y206322D01*
X159488Y206591D01*
X158905Y206706D01*
X158323Y206591D01*
X157921Y206322D01*
X157519Y206591D01*
X156937Y206706D01*
X156355Y206591D01*
X155953Y206322D01*
X155551Y206591D01*
X154969Y206706D01*
X154386Y206591D01*
X153984Y206322D01*
X153582Y206591D01*
X153000Y206706D01*
X152418Y206591D01*
X152016Y206322D01*
X151614Y206591D01*
X151031Y206706D01*
X150449Y206591D01*
X150047Y206322D01*
X149645Y206591D01*
X149063Y206706D01*
X148481Y206591D01*
X148079Y206322D01*
X147677Y206591D01*
X147095Y206706D01*
X146512Y206591D01*
X146110Y206322D01*
X145708Y206591D01*
X145126Y206706D01*
X144544Y206591D01*
X144142Y206322D01*
X143740Y206591D01*
X143157Y206706D01*
X142575Y206591D01*
X142173Y206322D01*
X141771Y206591D01*
X141189Y206706D01*
X141029Y206837D01*
Y208366D01*
X144081Y211419D01*
X144413Y211915D01*
X144413Y211915D01*
X145226Y212321D01*
X204480Y211598D01*
D02*
G37*
G36*
X300000Y243657D02*
X294254D01*
Y246673D01*
X294254Y246673D01*
X294145Y247219D01*
X293836Y247683D01*
X293770Y247749D01*
X293910Y248086D01*
X294030Y249000D01*
X293910Y249914D01*
X293557Y250765D01*
X292996Y251496D01*
X292265Y252057D01*
X291927Y252197D01*
Y258658D01*
X295453D01*
Y266563D01*
X287547D01*
Y258658D01*
X289073D01*
Y252197D01*
X288735Y252057D01*
X288004Y251496D01*
X287443Y250765D01*
X287090Y249914D01*
X286970Y249000D01*
X287090Y248086D01*
X287443Y247235D01*
X288004Y246504D01*
X288735Y245943D01*
X289586Y245590D01*
X290500Y245470D01*
X291023Y245539D01*
X291399Y245209D01*
Y243657D01*
X285232D01*
Y236343D01*
X300000D01*
Y61000D01*
Y57500D01*
Y0D01*
X168500D01*
Y4189D01*
X178847D01*
Y29811D01*
X161751D01*
X141031Y50531D01*
X143000Y52500D01*
X175051D01*
X183051Y60500D01*
X184051Y59500D01*
X192941D01*
X198941Y53500D01*
X199396D01*
X199732Y53130D01*
X199719Y53000D01*
X206000D01*
Y52500D01*
X206500D01*
Y46219D01*
X207235Y46291D01*
X208423Y46651D01*
X209517Y47236D01*
X210476Y48024D01*
X211142Y48834D01*
X211641Y48859D01*
X219000Y41500D01*
X259268D01*
Y38342D01*
X266362D01*
Y42000D01*
X266862D01*
Y42500D01*
X274457D01*
Y45658D01*
X270000D01*
Y48500D01*
X279000Y57500D01*
X280315D01*
X279500Y68500D01*
X291500Y80500D01*
Y86500D01*
Y224000D01*
X290000Y225500D01*
X283000Y232500D01*
Y238480D01*
X283390Y238558D01*
X283721Y238779D01*
X283942Y239110D01*
X284020Y239500D01*
Y267669D01*
X283942Y268059D01*
X283930Y268077D01*
X284166Y268518D01*
X285157D01*
X285743Y268634D01*
X286239Y268966D01*
X289710Y272437D01*
X295453D01*
Y280343D01*
X287547D01*
Y274600D01*
X284588Y271640D01*
X284093Y271713D01*
X283930Y272018D01*
X283942Y272035D01*
X284020Y272425D01*
Y273575D01*
X283942Y273965D01*
X283772Y274220D01*
Y277686D01*
X283942Y277941D01*
X284020Y278331D01*
Y285078D01*
X284490Y285247D01*
X284831Y284831D01*
X285973Y283895D01*
X287275Y283198D01*
X288688Y282770D01*
X290158Y282625D01*
X291627Y282770D01*
X293040Y283198D01*
X294342Y283895D01*
X295484Y284831D01*
X296420Y285973D01*
X297116Y287275D01*
X297545Y288688D01*
X297690Y290158D01*
X297545Y291627D01*
X297116Y293040D01*
X296420Y294342D01*
X295484Y295484D01*
X294342Y296420D01*
X293040Y297116D01*
X291627Y297545D01*
X290158Y297690D01*
X288688Y297545D01*
X287275Y297116D01*
X285973Y296420D01*
X284831Y295484D01*
X284490Y295068D01*
X284020Y295237D01*
Y300000D01*
X300000D01*
Y243657D01*
D02*
G37*
G36*
X205118Y169594D02*
X204991Y169509D01*
X203991Y168509D01*
X203681Y168046D01*
X203573Y167500D01*
X203573Y167500D01*
Y167063D01*
X200547D01*
Y159158D01*
X207225D01*
Y151470D01*
X201218Y145463D01*
X200756Y145654D01*
Y149287D01*
Y151953D01*
X197000D01*
Y152453D01*
X196500D01*
Y155618D01*
X193703D01*
X193626Y156197D01*
X193274Y157049D01*
X192713Y157780D01*
X191982Y158341D01*
X191194Y158667D01*
X191291Y159158D01*
X196953D01*
Y167063D01*
X194927D01*
Y168909D01*
X196091Y170073D01*
X204972D01*
X205118Y169594D01*
D02*
G37*
G36*
X187720Y152787D02*
X188451Y152226D01*
X189303Y151874D01*
X190217Y151753D01*
X191130Y151874D01*
X191982Y152226D01*
X192713Y152787D01*
X192771Y152863D01*
X193244Y152702D01*
Y149287D01*
Y147975D01*
X192047D01*
X192047Y147975D01*
X191501Y147866D01*
X191317Y147743D01*
X190914Y147910D01*
X190000Y148030D01*
X189086Y147910D01*
X188235Y147557D01*
X187504Y146996D01*
X186943Y146265D01*
X186590Y145414D01*
X186470Y144500D01*
X186590Y143586D01*
X186943Y142735D01*
X187504Y142004D01*
X188235Y141443D01*
X189086Y141090D01*
X189525Y141032D01*
Y139256D01*
X185547D01*
Y135500D01*
X184547D01*
Y139256D01*
X183109D01*
Y147843D01*
X183123Y147857D01*
X185185D01*
X185767Y147972D01*
X186261Y148302D01*
X186591Y148796D01*
X186706Y149378D01*
X186591Y149960D01*
X186322Y150362D01*
X186591Y150764D01*
X186706Y151347D01*
X186591Y151929D01*
X186322Y152331D01*
X186591Y152733D01*
X186706Y153315D01*
X186704Y153330D01*
X187159Y153518D01*
X187720Y152787D01*
D02*
G37*
G36*
X283000Y300000D02*
Y292386D01*
X282770Y291627D01*
X282625Y290158D01*
X282770Y288688D01*
X283000Y287929D01*
Y278331D01*
X281500D01*
Y275953D01*
Y273575D01*
X283000D01*
Y272425D01*
X278228D01*
Y267669D01*
X283000D01*
Y239500D01*
X282526D01*
X279457Y242570D01*
Y243657D01*
X278369D01*
X277763Y244263D01*
X276850Y245013D01*
X275807Y245570D01*
X274676Y245913D01*
X273500Y246029D01*
X271862D01*
X270686Y245913D01*
X269555Y245570D01*
X268513Y245013D01*
X267599Y244263D01*
X267107Y243664D01*
X266632Y243861D01*
X263496Y246996D01*
X262765Y247557D01*
X261914Y247910D01*
X261000Y248030D01*
X260086Y247910D01*
X259235Y247557D01*
X258504Y246996D01*
X257943Y246265D01*
X257590Y245414D01*
X257470Y244500D01*
X257493Y244324D01*
X257189Y243928D01*
X256956Y243897D01*
X255983Y243494D01*
X255147Y242853D01*
X253928Y241634D01*
X250780D01*
X250588Y242096D01*
X251496Y243004D01*
X252057Y243735D01*
X252410Y244586D01*
X252530Y245500D01*
D01*
D01*
X252530Y245500D01*
X252530D01*
X252530D01*
X252530D01*
X252530Y245500D01*
X252910Y246586D01*
D01*
X252910Y246586D01*
X252910Y246586D01*
X253030Y247500D01*
Y247548D01*
X253557Y248235D01*
X253910Y249086D01*
X254030Y250000D01*
X253910Y250914D01*
X253557Y251765D01*
X252996Y252496D01*
X252265Y253057D01*
X251414Y253410D01*
X250500Y253530D01*
X249586Y253410D01*
X249139Y253225D01*
X248723Y253502D01*
Y261888D01*
X254035Y267200D01*
X259643D01*
Y277800D01*
X249043D01*
Y272192D01*
X242697Y265847D01*
X242136Y265115D01*
X241783Y264264D01*
X241663Y263350D01*
Y241693D01*
Y241634D01*
X241469D01*
Y241634D01*
X235531D01*
Y240500D01*
X234776D01*
Y241634D01*
X232307D01*
Y234925D01*
X231307D01*
Y241634D01*
X228839D01*
Y240500D01*
X228083D01*
Y241634D01*
X222146D01*
Y240500D01*
X179000D01*
Y264500D01*
X197500Y283000D01*
Y300145D01*
X197855Y300498D01*
X283000Y300000D01*
D02*
G37*
G36*
X2082Y100129D02*
X1971Y99000D01*
X2087Y97824D01*
X2430Y96693D01*
X2987Y95651D01*
X3653Y94838D01*
Y94653D01*
X3820D01*
X21737Y76737D01*
Y76737D01*
X21737Y76737D01*
X21737Y76737D01*
Y76737D01*
X22650Y75987D01*
X23693Y75430D01*
X23693Y75430D01*
X23693Y75430D01*
D01*
X23693Y75430D01*
X23693Y75430D01*
X24824Y75087D01*
X26000Y74971D01*
X31181D01*
X32193Y74430D01*
X32193Y74430D01*
X32193Y74430D01*
D01*
X32193Y74430D01*
X32193Y74430D01*
X32697Y74277D01*
X53737Y53237D01*
X53737Y53237D01*
X54650Y52487D01*
X55693Y51930D01*
X56824Y51587D01*
X58000Y51471D01*
X58000Y51471D01*
X123038D01*
X153224Y21285D01*
Y4189D01*
X167000D01*
Y0D01*
X0D01*
Y100500D01*
X1746D01*
X2082Y100129D01*
D02*
G37*
G36*
X196480Y283422D02*
X178279Y265221D01*
X178058Y264890D01*
X177980Y264500D01*
Y240500D01*
X178058Y240110D01*
X178279Y239779D01*
X178610Y239558D01*
X179000Y239480D01*
X222146D01*
Y235425D01*
X228083D01*
Y239480D01*
X228781D01*
Y234925D01*
X228839Y234489D01*
Y228217D01*
X234776D01*
Y234489D01*
X234833Y234925D01*
Y239480D01*
X235531D01*
Y235425D01*
X238500D01*
Y234925D01*
X239000D01*
Y228217D01*
X241469D01*
Y233489D01*
X241959Y233587D01*
X242136Y233160D01*
X242224Y233045D01*
Y228217D01*
X248161D01*
Y233045D01*
X248250Y233160D01*
X248333Y233360D01*
X248502Y233430D01*
X248917Y233152D01*
Y228217D01*
X254854D01*
Y231731D01*
X255517Y232006D01*
X256353Y232647D01*
X259671Y235965D01*
X265500D01*
X266544Y236103D01*
X267107Y236336D01*
X267599Y235737D01*
X268513Y234987D01*
X269555Y234430D01*
X270686Y234087D01*
X270909Y234065D01*
X286471Y218503D01*
Y218500D01*
Y182000D01*
Y166841D01*
X279847D01*
Y167850D01*
X271153D01*
Y166841D01*
X268468D01*
Y168315D01*
X262531D01*
Y165847D01*
X262712D01*
X262933Y165398D01*
X262879Y165328D01*
X262577Y164598D01*
X262545Y164351D01*
X262071Y164190D01*
X246288Y179973D01*
X245842Y180272D01*
X245315Y180376D01*
X218070D01*
X217542Y180904D01*
X217734Y181366D01*
X238000D01*
Y197614D01*
X217028D01*
Y182072D01*
X216566Y181881D01*
X205189Y193258D01*
X205297Y193368D01*
X205355Y193459D01*
X205429Y193537D01*
X205462Y193624D01*
X205513Y193702D01*
X205532Y193808D01*
X205571Y193909D01*
X205568Y194002D01*
X205585Y194094D01*
X205562Y194199D01*
X205559Y194307D01*
X205555Y194323D01*
X205525Y194475D01*
X205500Y194500D01*
Y194600D01*
Y211598D01*
D01*
X205462Y211787D01*
X205427Y211977D01*
X205424Y211982D01*
X205422Y211988D01*
X205315Y212148D01*
X205210Y212310D01*
X205205Y212314D01*
X205201Y212319D01*
X205041Y212426D01*
X204882Y212535D01*
X204876Y212536D01*
X204871Y212540D01*
X204681Y212578D01*
X204493Y212617D01*
X145238Y213340D01*
X145196Y213333D01*
X145153Y213338D01*
X145001Y213296D01*
X144914Y213280D01*
X144768Y213402D01*
X144529Y214272D01*
Y242169D01*
X147272D01*
Y246925D01*
X141728D01*
Y245344D01*
X141587Y245132D01*
X141471Y244547D01*
Y213134D01*
X138946Y210609D01*
X138448Y210658D01*
X138333Y210829D01*
X136029Y213134D01*
Y242169D01*
X136272D01*
Y246925D01*
X130728D01*
Y242169D01*
X132971D01*
Y212500D01*
X133087Y211915D01*
X133419Y211419D01*
X135723Y209115D01*
Y208449D01*
X135261Y208258D01*
X126509Y217009D01*
X126046Y217319D01*
X125500Y217427D01*
X125500Y217427D01*
X125197D01*
X125057Y217765D01*
X124496Y218496D01*
X123765Y219057D01*
X122914Y219410D01*
X122000Y219530D01*
X121086Y219410D01*
X120235Y219057D01*
X119504Y218496D01*
X118943Y217765D01*
X118590Y216914D01*
X118470Y216000D01*
X118590Y215086D01*
X118943Y214235D01*
X119504Y213504D01*
X120235Y212943D01*
X121086Y212590D01*
X122000Y212470D01*
X122914Y212590D01*
X123765Y212943D01*
X124496Y213504D01*
X124908Y214041D01*
X125408Y214074D01*
X132549Y206932D01*
X132527Y206707D01*
X132075Y206493D01*
X131929Y206591D01*
X131846Y206607D01*
Y205452D01*
X131793Y205185D01*
Y202626D01*
X131027D01*
X130973Y202896D01*
X130900Y203006D01*
Y205185D01*
X130847Y205452D01*
Y206607D01*
X130764Y206591D01*
X130362Y206322D01*
X129960Y206591D01*
X129378Y206706D01*
X128796Y206591D01*
X128302Y206261D01*
X128267Y206285D01*
X128261Y206294D01*
X128136Y206377D01*
X128020Y206472D01*
X127972Y206487D01*
X127930Y206515D01*
X127783Y206544D01*
X127639Y206587D01*
X127589Y206582D01*
X127540Y206592D01*
X125697D01*
X125307Y206515D01*
X124976Y206294D01*
X124755Y205963D01*
X124667Y205749D01*
X124479Y205505D01*
X123981Y205465D01*
X117980Y211108D01*
Y211347D01*
X117727D01*
X116500Y212500D01*
Y300000D01*
X196480D01*
Y283422D01*
D02*
G37*
%LPC*%
G36*
X88232Y131232D02*
X81138D01*
Y128075D01*
X88232D01*
Y131232D01*
D02*
G37*
G36*
X95047Y134004D02*
X93169D01*
Y131732D01*
X95047D01*
Y134004D01*
D02*
G37*
G36*
X97925D02*
X96047D01*
Y131732D01*
X97925D01*
Y134004D01*
D02*
G37*
G36*
X95047Y130732D02*
X93169D01*
Y128461D01*
X95047D01*
Y130732D01*
D02*
G37*
G36*
X97925D02*
X96047D01*
Y128461D01*
X97925D01*
Y130732D01*
D02*
G37*
G36*
X80138Y131232D02*
X73043D01*
Y128075D01*
X80138D01*
Y131232D01*
D02*
G37*
G36*
X68921Y112732D02*
X67240D01*
Y110559D01*
X68921D01*
Y112732D01*
D02*
G37*
G36*
X248280Y114318D02*
X247301Y114189D01*
X246388Y113811D01*
X245605Y113210D01*
X245004Y112427D01*
X244626Y111514D01*
X244497Y110535D01*
X244626Y109556D01*
X245004Y108644D01*
X245605Y107861D01*
X246388Y107260D01*
X247301Y106882D01*
X248280Y106753D01*
X249258Y106882D01*
X250171Y107260D01*
X250954Y107861D01*
X251555Y108644D01*
X251933Y109556D01*
X252062Y110535D01*
X251933Y111514D01*
X251555Y112427D01*
X250954Y113210D01*
X250171Y113811D01*
X249258Y114189D01*
X248280Y114318D01*
D02*
G37*
G36*
X88681Y107441D02*
X87000D01*
Y105268D01*
X88681D01*
Y107441D01*
D02*
G37*
G36*
X84941Y115905D02*
X80579D01*
Y110559D01*
X84941D01*
Y115905D01*
D02*
G37*
G36*
X248280Y131247D02*
X247301Y131118D01*
X246388Y130740D01*
X245605Y130139D01*
X245004Y129356D01*
X244626Y128444D01*
X244497Y127465D01*
X244626Y126486D01*
X245004Y125573D01*
X245605Y124790D01*
X246388Y124189D01*
X247301Y123811D01*
X248280Y123682D01*
X249258Y123811D01*
X250171Y124189D01*
X250954Y124790D01*
X251555Y125573D01*
X251933Y126486D01*
X252062Y127465D01*
X251933Y128444D01*
X251555Y129356D01*
X250954Y130139D01*
X250171Y130740D01*
X249258Y131118D01*
X248280Y131247D01*
D02*
G37*
G36*
X68921Y115905D02*
X67240D01*
Y113732D01*
X68921D01*
Y115905D01*
D02*
G37*
G36*
X66240D02*
X64559D01*
Y113732D01*
X66240D01*
Y115905D01*
D02*
G37*
G36*
X90118Y166756D02*
X87453D01*
Y163500D01*
X90118D01*
Y166756D01*
D02*
G37*
G36*
Y162500D02*
X87453D01*
Y159244D01*
X90118D01*
Y162500D01*
D02*
G37*
G36*
X59972Y172354D02*
X43602D01*
Y164646D01*
X50471D01*
Y162655D01*
X50235Y162557D01*
X49504Y161996D01*
X48943Y161265D01*
X48590Y160414D01*
X48470Y159500D01*
X48590Y158586D01*
X48943Y157735D01*
X49504Y157004D01*
X50235Y156443D01*
X51086Y156090D01*
X52000Y155970D01*
X52914Y156090D01*
X53765Y156443D01*
X54496Y157004D01*
X55057Y157735D01*
X55410Y158586D01*
X55530Y159500D01*
X55410Y160414D01*
X55057Y161265D01*
X54496Y161996D01*
X53765Y162557D01*
X53529Y162655D01*
Y164646D01*
X59972D01*
Y172354D01*
D02*
G37*
G36*
X77846Y168685D02*
X74000D01*
Y166020D01*
X77528D01*
X77528Y166020D01*
Y166020D01*
X77846Y166020D01*
X77882Y165984D01*
Y164427D01*
X76500D01*
X76500Y164427D01*
X75954Y164319D01*
X75768Y164195D01*
X75491Y164009D01*
X75491Y164009D01*
X74251Y162770D01*
X73914Y162910D01*
X73000Y163030D01*
X72086Y162910D01*
X71235Y162557D01*
X70504Y161996D01*
X69943Y161265D01*
X69590Y160414D01*
X69470Y159500D01*
X69590Y158586D01*
X69943Y157735D01*
X70504Y157004D01*
X71235Y156443D01*
X72086Y156090D01*
X73000Y155970D01*
X73914Y156090D01*
X74765Y156443D01*
X75496Y157004D01*
X76057Y157735D01*
X76410Y158586D01*
X76530Y159500D01*
X76410Y160414D01*
X76270Y160751D01*
X77091Y161573D01*
X77882D01*
Y159244D01*
X86453D01*
Y163000D01*
Y166756D01*
X78200D01*
X78200Y166756D01*
Y166756D01*
X77882Y166756D01*
X77846Y166791D01*
Y168685D01*
D02*
G37*
G36*
X265000Y171783D02*
X262531D01*
Y169315D01*
X265000D01*
Y171783D01*
D02*
G37*
G36*
X73000Y168685D02*
X69153D01*
Y166020D01*
X73000D01*
Y168685D01*
D02*
G37*
G36*
X33398Y172354D02*
X17028D01*
Y170029D01*
X15500D01*
X14915Y169913D01*
X14419Y169581D01*
X8290Y163453D01*
X3547D01*
Y155547D01*
X11453D01*
Y162290D01*
X16134Y166971D01*
X17028D01*
Y164646D01*
X33398D01*
Y172354D01*
D02*
G37*
G36*
X200756Y155618D02*
X197500D01*
Y152953D01*
X200756D01*
Y155618D01*
D02*
G37*
G36*
X137118Y136756D02*
X134453D01*
Y133500D01*
X137118D01*
Y136756D01*
D02*
G37*
G36*
X88232Y135390D02*
X81138D01*
Y132232D01*
X88232D01*
Y135390D01*
D02*
G37*
G36*
X80138D02*
X73043D01*
Y132232D01*
X80138D01*
Y135390D01*
D02*
G37*
G36*
X248280Y142818D02*
X247301Y142689D01*
X246388Y142311D01*
X245605Y141710D01*
X245004Y140927D01*
X244626Y140014D01*
X244497Y139035D01*
X244626Y138057D01*
X245004Y137144D01*
X245605Y136361D01*
X246388Y135760D01*
X247301Y135382D01*
X248280Y135253D01*
X249258Y135382D01*
X250171Y135760D01*
X250954Y136361D01*
X251555Y137144D01*
X251933Y138057D01*
X252062Y139035D01*
X251933Y140014D01*
X251555Y140927D01*
X250954Y141710D01*
X250171Y142311D01*
X249258Y142689D01*
X248280Y142818D01*
D02*
G37*
G36*
Y159747D02*
X247301Y159618D01*
X246388Y159240D01*
X245605Y158639D01*
X245004Y157856D01*
X244626Y156944D01*
X244497Y155965D01*
X244626Y154986D01*
X245004Y154073D01*
X245605Y153290D01*
X246388Y152689D01*
X247301Y152311D01*
X248280Y152182D01*
X249258Y152311D01*
X250171Y152689D01*
X250954Y153290D01*
X251555Y154073D01*
X251933Y154986D01*
X252062Y155965D01*
X251933Y156944D01*
X251555Y157856D01*
X250954Y158639D01*
X250171Y159240D01*
X249258Y159618D01*
X248280Y159747D01*
D02*
G37*
G36*
X127355Y148878D02*
X123874D01*
Y147857D01*
X125933D01*
X126515Y147972D01*
X127009Y148302D01*
X127339Y148796D01*
X127355Y148878D01*
D02*
G37*
G36*
X137252Y147454D02*
X136670Y147339D01*
X136268Y147070D01*
X135866Y147339D01*
X135284Y147454D01*
X134701Y147339D01*
X134299Y147070D01*
X133897Y147339D01*
X133315Y147454D01*
X132733Y147339D01*
X132331Y147070D01*
X131929Y147339D01*
X131346Y147454D01*
X130764Y147339D01*
X130362Y147070D01*
X129960Y147339D01*
X129378Y147454D01*
X128796Y147339D01*
X128302Y147009D01*
X127972Y146515D01*
X127857Y145933D01*
Y140815D01*
X127972Y140233D01*
X128302Y139739D01*
X128796Y139409D01*
X129378Y139294D01*
X129960Y139409D01*
X130362Y139678D01*
X130764Y139409D01*
X131346Y139294D01*
X131929Y139409D01*
X132331Y139678D01*
X132733Y139409D01*
X133315Y139294D01*
X133897Y139409D01*
X134299Y139678D01*
X134701Y139409D01*
X135284Y139294D01*
X135866Y139409D01*
X136268Y139678D01*
X136670Y139409D01*
X137252Y139294D01*
X137834Y139409D01*
X138236Y139678D01*
X138638Y139409D01*
X138721Y139393D01*
Y140548D01*
X138774Y140815D01*
Y143374D01*
Y145933D01*
X138721Y146200D01*
Y147355D01*
X138638Y147339D01*
X138236Y147070D01*
X137834Y147339D01*
X137252Y147454D01*
D02*
G37*
G36*
X45000Y20359D02*
Y15579D01*
X49780D01*
X49664Y16462D01*
X49130Y17752D01*
X48280Y18859D01*
X47173Y19708D01*
X45884Y20242D01*
X45000Y20359D01*
D02*
G37*
G36*
X131217Y26006D02*
X130016Y25848D01*
X128897Y25384D01*
X127936Y24647D01*
X127199Y23686D01*
X126735Y22567D01*
X126577Y21366D01*
X126735Y20165D01*
X127199Y19046D01*
X127936Y18085D01*
X128897Y17348D01*
X130016Y16884D01*
X131217Y16726D01*
X132417Y16884D01*
X133536Y17348D01*
X134497Y18085D01*
X135235Y19046D01*
X135698Y20165D01*
X135856Y21366D01*
X135698Y22567D01*
X135235Y23686D01*
X134497Y24647D01*
X133536Y25384D01*
X132417Y25848D01*
X131217Y26006D01*
D02*
G37*
G36*
X49780Y14579D02*
X45000D01*
Y9799D01*
X45884Y9915D01*
X47173Y10449D01*
X48280Y11299D01*
X49130Y12406D01*
X49664Y13695D01*
X49780Y14579D01*
D02*
G37*
G36*
X44000Y20359D02*
X43116Y20242D01*
X41827Y19708D01*
X40720Y18859D01*
X39871Y17752D01*
X39336Y16462D01*
X39220Y15579D01*
X44000D01*
Y20359D01*
D02*
G37*
G36*
X9500Y32189D02*
X3719D01*
X3791Y31454D01*
X4151Y30266D01*
X4736Y29172D01*
X5524Y28213D01*
X6483Y27425D01*
X7577Y26840D01*
X8765Y26480D01*
X9500Y26408D01*
Y32189D01*
D02*
G37*
G36*
X16281D02*
X10500D01*
Y26408D01*
X11235Y26480D01*
X12423Y26840D01*
X13517Y27425D01*
X14476Y28213D01*
X15264Y29172D01*
X15849Y30266D01*
X16209Y31454D01*
X16281Y32189D01*
D02*
G37*
G36*
X295421Y45658D02*
X280232D01*
Y38342D01*
X286399D01*
Y27524D01*
X286062Y27384D01*
X285331Y26823D01*
X284770Y26092D01*
X284417Y25240D01*
X284297Y24327D01*
X284417Y23413D01*
X284557Y23075D01*
X282799Y21317D01*
X277996D01*
X277996Y21317D01*
X277450Y21208D01*
X276987Y20899D01*
X274859Y18772D01*
X273547D01*
Y16000D01*
X272547D01*
Y18772D01*
X270669D01*
Y16203D01*
X270207Y16012D01*
X267453Y18767D01*
Y23843D01*
X259547D01*
Y15937D01*
X266245D01*
X270163Y12019D01*
X270163Y12019D01*
X270441Y11834D01*
X270626Y11710D01*
X270669Y11701D01*
Y11029D01*
X266890D01*
X266304Y10913D01*
X265808Y10581D01*
X265290Y10063D01*
X259547D01*
Y2158D01*
X267453D01*
Y7900D01*
X267523Y7971D01*
X270669D01*
Y6728D01*
X275425D01*
Y11701D01*
X275468Y11710D01*
X275932Y12019D01*
X276113Y12200D01*
X276575Y12009D01*
Y6728D01*
X281331D01*
Y12272D01*
X280482D01*
Y13228D01*
X281331D01*
Y18462D01*
X283390D01*
X283390Y18462D01*
X283936Y18571D01*
X284399Y18880D01*
X286575Y21057D01*
X286913Y20917D01*
X287827Y20797D01*
X288740Y20917D01*
X289592Y21270D01*
X290323Y21831D01*
X290884Y22562D01*
X291237Y23413D01*
X291357Y24327D01*
X291237Y25240D01*
X290884Y26092D01*
X290323Y26823D01*
X289592Y27384D01*
X289254Y27524D01*
Y38342D01*
X295421D01*
Y45658D01*
D02*
G37*
G36*
X62217Y32236D02*
X60833Y32053D01*
X59544Y31519D01*
X58437Y30670D01*
X57587Y29563D01*
X57053Y28273D01*
X56871Y26890D01*
X57053Y25506D01*
X57587Y24217D01*
X58437Y23110D01*
X59544Y22260D01*
X60833Y21726D01*
X62217Y21544D01*
X63600Y21726D01*
X64889Y22260D01*
X65996Y23110D01*
X66846Y24217D01*
X67380Y25506D01*
X67562Y26890D01*
X67380Y28273D01*
X66846Y29563D01*
X65996Y30670D01*
X64889Y31519D01*
X63600Y32053D01*
X62217Y32236D01*
D02*
G37*
G36*
X113000Y7087D02*
X108926D01*
X109018Y6386D01*
X109482Y5267D01*
X110219Y4306D01*
X111180Y3568D01*
X112299Y3105D01*
X113000Y3013D01*
Y7087D01*
D02*
G37*
G36*
X118074D02*
X114000D01*
Y3013D01*
X114701Y3105D01*
X115820Y3568D01*
X116781Y4306D01*
X117518Y5267D01*
X117982Y6386D01*
X118074Y7087D01*
D02*
G37*
G36*
X9843Y17375D02*
X8373Y17230D01*
X6960Y16802D01*
X5658Y16105D01*
X4516Y15169D01*
X3580Y14027D01*
X2884Y12725D01*
X2455Y11312D01*
X2310Y9843D01*
X2455Y8373D01*
X2884Y6960D01*
X3580Y5658D01*
X4516Y4516D01*
X5658Y3580D01*
X6960Y2884D01*
X8373Y2455D01*
X9843Y2310D01*
X11312Y2455D01*
X12725Y2884D01*
X14027Y3580D01*
X15169Y4516D01*
X16105Y5658D01*
X16802Y6960D01*
X17230Y8373D01*
X17375Y9843D01*
X17230Y11312D01*
X16802Y12725D01*
X16105Y14027D01*
X15169Y15169D01*
X14027Y16105D01*
X12725Y16802D01*
X11312Y17230D01*
X9843Y17375D01*
D02*
G37*
G36*
X290158D02*
X288688Y17230D01*
X287275Y16802D01*
X285973Y16105D01*
X284831Y15169D01*
X283895Y14027D01*
X283198Y12725D01*
X282770Y11312D01*
X282625Y9843D01*
X282770Y8373D01*
X283198Y6960D01*
X283895Y5658D01*
X284831Y4516D01*
X285973Y3580D01*
X287275Y2884D01*
X288688Y2455D01*
X290158Y2310D01*
X291627Y2455D01*
X293040Y2884D01*
X294342Y3580D01*
X295484Y4516D01*
X296420Y5658D01*
X297116Y6960D01*
X297545Y8373D01*
X297690Y9843D01*
X297545Y11312D01*
X297116Y12725D01*
X296420Y14027D01*
X295484Y15169D01*
X294342Y16105D01*
X293040Y16802D01*
X291627Y17230D01*
X290158Y17375D01*
D02*
G37*
G36*
X114000Y12161D02*
Y8087D01*
X118074D01*
X117982Y8787D01*
X117518Y9906D01*
X116781Y10867D01*
X115820Y11605D01*
X114701Y12068D01*
X114000Y12161D01*
D02*
G37*
G36*
X44000Y14579D02*
X39220D01*
X39336Y13695D01*
X39871Y12406D01*
X40720Y11299D01*
X41827Y10449D01*
X43116Y9915D01*
X44000Y9799D01*
Y14579D01*
D02*
G37*
G36*
X187496Y58830D02*
X186261Y58709D01*
X185073Y58349D01*
X183979Y57764D01*
X183020Y56976D01*
X182232Y56017D01*
X181648Y54923D01*
X181287Y53735D01*
X181166Y52500D01*
X181287Y51265D01*
X181467Y50672D01*
Y48504D01*
X181583Y47328D01*
X181926Y46197D01*
X182483Y45154D01*
X183233Y44241D01*
X214737Y12737D01*
X215651Y11987D01*
X216693Y11430D01*
X217824Y11087D01*
X219000Y10971D01*
X220153D01*
Y4189D01*
X245776D01*
Y29811D01*
X220153D01*
Y25026D01*
X219692Y24835D01*
X193602Y50925D01*
X193705Y51265D01*
X193826Y52500D01*
X193705Y53735D01*
X193345Y54923D01*
X192760Y56017D01*
X191972Y56976D01*
X191013Y57764D01*
X189919Y58349D01*
X188731Y58709D01*
X187496Y58830D01*
D02*
G37*
G36*
X113000Y12161D02*
X112299Y12068D01*
X111180Y11605D01*
X110219Y10867D01*
X109482Y9906D01*
X109018Y8787D01*
X108926Y8087D01*
X113000D01*
Y12161D01*
D02*
G37*
G36*
X93760Y97120D02*
Y93500D01*
X97379D01*
X97303Y94083D01*
X96885Y95093D01*
X96219Y95960D01*
X95353Y96625D01*
X94343Y97043D01*
X93760Y97120D01*
D02*
G37*
G36*
X86000Y104268D02*
X84319D01*
Y102094D01*
X86000D01*
Y104268D01*
D02*
G37*
G36*
X201465Y81503D02*
X200486Y81374D01*
X199573Y80996D01*
X198790Y80395D01*
X198189Y79612D01*
X197811Y78699D01*
X197682Y77720D01*
X197811Y76741D01*
X198189Y75829D01*
X198790Y75046D01*
X199573Y74445D01*
X200486Y74067D01*
X201465Y73938D01*
X202444Y74067D01*
X203356Y74445D01*
X204139Y75046D01*
X204740Y75829D01*
X205118Y76741D01*
X205247Y77720D01*
X205118Y78699D01*
X204740Y79612D01*
X204139Y80395D01*
X203356Y80996D01*
X202444Y81374D01*
X201465Y81503D01*
D02*
G37*
G36*
X220941Y85782D02*
X219962Y85654D01*
X219050Y85276D01*
X218266Y84675D01*
X217665Y83891D01*
X217287Y82979D01*
X217159Y82000D01*
X217287Y81021D01*
X217665Y80109D01*
X218266Y79325D01*
X219050Y78724D01*
X219962Y78347D01*
X220941Y78218D01*
X221920Y78347D01*
X222832Y78724D01*
X223616Y79325D01*
X224217Y80109D01*
X224594Y81021D01*
X224723Y82000D01*
X224594Y82979D01*
X224217Y83891D01*
X223616Y84675D01*
X222832Y85276D01*
X221920Y85654D01*
X220941Y85782D01*
D02*
G37*
G36*
X97000Y106925D02*
X94728D01*
Y105047D01*
X97000D01*
Y106925D01*
D02*
G37*
G36*
X86000Y107441D02*
X84319D01*
Y105268D01*
X86000D01*
Y107441D01*
D02*
G37*
G36*
X88681Y104268D02*
X87000D01*
Y102094D01*
X88681D01*
Y104268D01*
D02*
G37*
G36*
X97000Y104047D02*
X94728D01*
Y102169D01*
X97000D01*
Y104047D01*
D02*
G37*
G36*
X10500Y38970D02*
Y33189D01*
X16281D01*
X16209Y33924D01*
X15849Y35111D01*
X15264Y36206D01*
X14476Y37165D01*
X13517Y37953D01*
X12423Y38538D01*
X11235Y38898D01*
X10500Y38970D01*
D02*
G37*
G36*
X93815Y44903D02*
X92614Y44745D01*
X91495Y44282D01*
X90534Y43545D01*
X89797Y42584D01*
X89333Y41465D01*
X89175Y40264D01*
X89333Y39063D01*
X89797Y37944D01*
X90534Y36983D01*
X91495Y36246D01*
X92614Y35782D01*
X93815Y35624D01*
X95016Y35782D01*
X96135Y36246D01*
X97096Y36983D01*
X97833Y37944D01*
X98297Y39063D01*
X98455Y40264D01*
X98297Y41465D01*
X97833Y42584D01*
X97096Y43545D01*
X96135Y44282D01*
X95016Y44745D01*
X93815Y44903D01*
D02*
G37*
G36*
X34500Y66029D02*
X33324Y65913D01*
X32193Y65570D01*
X31150Y65013D01*
X30237Y64263D01*
X29487Y63349D01*
X28930Y62307D01*
X28587Y61176D01*
X28471Y60000D01*
Y46000D01*
X28587Y44824D01*
X28930Y43693D01*
X29487Y42650D01*
X30237Y41737D01*
X37536Y34438D01*
X38450Y33688D01*
X39492Y33131D01*
X40623Y32788D01*
X41799Y32672D01*
X44500D01*
X45676Y32788D01*
X46807Y33131D01*
X47850Y33688D01*
X48763Y34438D01*
X49513Y35351D01*
X50070Y36394D01*
X50413Y37525D01*
X50529Y38701D01*
X50413Y39877D01*
X50070Y41008D01*
X49513Y42050D01*
X48763Y42964D01*
X47850Y43714D01*
X46807Y44271D01*
X45676Y44614D01*
X44500Y44730D01*
X44297D01*
X40529Y48497D01*
Y60000D01*
X40413Y61176D01*
X40070Y62307D01*
X39513Y63349D01*
X38763Y64263D01*
X37850Y65013D01*
X36807Y65570D01*
X35676Y65913D01*
X34500Y66029D01*
D02*
G37*
G36*
X9500Y38970D02*
X8765Y38898D01*
X7577Y38538D01*
X6483Y37953D01*
X5524Y37165D01*
X4736Y36206D01*
X4151Y35111D01*
X3791Y33924D01*
X3719Y33189D01*
X9500D01*
Y38970D01*
D02*
G37*
G36*
X8000Y85029D02*
X6824Y84913D01*
X5693Y84570D01*
X4651Y84013D01*
X3737Y83263D01*
X2987Y82349D01*
X2430Y81307D01*
X2087Y80176D01*
X1971Y79000D01*
Y58311D01*
X2087Y57135D01*
X2430Y56004D01*
X2987Y54962D01*
X3700Y54093D01*
Y50011D01*
X16300D01*
Y62611D01*
X14029D01*
Y79000D01*
X13913Y80176D01*
X13570Y81307D01*
X13013Y82349D01*
X12263Y83263D01*
X11350Y84013D01*
X10307Y84570D01*
X9176Y84913D01*
X8000Y85029D01*
D02*
G37*
G36*
X161000Y75014D02*
X160220Y74911D01*
X159493Y74610D01*
X158869Y74131D01*
X158390Y73507D01*
X158089Y72780D01*
X157986Y72000D01*
X158089Y71220D01*
X158390Y70493D01*
X158869Y69869D01*
X159493Y69390D01*
X160220Y69089D01*
X161000Y68986D01*
X161780Y69089D01*
X162507Y69390D01*
X163131Y69869D01*
X163610Y70493D01*
X163911Y71220D01*
X164014Y72000D01*
X163911Y72780D01*
X163610Y73507D01*
X163131Y74131D01*
X162507Y74610D01*
X161780Y74911D01*
X161000Y75014D01*
D02*
G37*
G36*
X274457Y41500D02*
X267362D01*
Y38342D01*
X274457D01*
Y41500D01*
D02*
G37*
G36*
X205500Y52000D02*
X199719D01*
X199791Y51265D01*
X200151Y50077D01*
X200736Y48983D01*
X201524Y48024D01*
X202483Y47236D01*
X203577Y46651D01*
X204765Y46291D01*
X205500Y46219D01*
Y52000D01*
D02*
G37*
G36*
X133429Y284957D02*
X128795D01*
Y280807D01*
Y276658D01*
X133429D01*
Y276658D01*
X133429D01*
X133429Y276658D01*
X133909Y276658D01*
Y276658D01*
X134882D01*
Y280315D01*
Y283972D01*
X133909D01*
Y283972D01*
X133783D01*
X133429Y284326D01*
Y284957D01*
D02*
G37*
G36*
X152205D02*
X147571D01*
Y283972D01*
X147090D01*
Y283972D01*
X135882D01*
Y280315D01*
Y276658D01*
X137986D01*
X138177Y276196D01*
X133491Y271509D01*
X133181Y271046D01*
X133073Y270500D01*
X133073Y270500D01*
Y252831D01*
X130728D01*
Y248075D01*
X136272D01*
Y252831D01*
X135927D01*
Y269909D01*
X141111Y275092D01*
X141573Y274901D01*
Y250453D01*
X141681Y249906D01*
X141728Y249836D01*
Y248075D01*
X147272D01*
Y252831D01*
X144427D01*
Y273401D01*
X144889Y273592D01*
X151991Y266491D01*
X151991Y266491D01*
X152454Y266181D01*
X153000Y266073D01*
X153000Y266073D01*
X155169D01*
Y264728D01*
X159925D01*
Y270272D01*
X155169D01*
Y268927D01*
X153591D01*
X147046Y275473D01*
Y276658D01*
X147091Y276658D01*
D01*
D01*
X147571Y276658D01*
Y276658D01*
X152205D01*
Y280807D01*
Y284957D01*
D02*
G37*
G36*
X280500Y275453D02*
X278228D01*
Y273575D01*
X280500D01*
Y275453D01*
D02*
G37*
G36*
Y278331D02*
X278228D01*
Y276453D01*
X280500D01*
Y278331D01*
D02*
G37*
G36*
X127524Y289264D02*
X118437D01*
Y285024D01*
X123161D01*
Y285024D01*
Y284957D01*
X123161Y284670D01*
X123161Y284670D01*
X123161D01*
Y281307D01*
X127795D01*
Y284957D01*
X127591D01*
X127524Y285024D01*
X127524Y285310D01*
X127524Y285310D01*
X127524D01*
Y289264D01*
D02*
G37*
G36*
X162563D02*
X153476D01*
Y285310D01*
X153476Y285310D01*
X153476D01*
X153476Y285024D01*
X153409Y284957D01*
X153205D01*
Y281307D01*
X157839D01*
Y284670D01*
X157839Y284670D01*
D01*
D01*
X157839Y284957D01*
D01*
X157905Y285024D01*
X162563D01*
Y289264D01*
D02*
G37*
G36*
X127795Y280307D02*
X123161D01*
Y276658D01*
X127795D01*
Y280307D01*
D02*
G37*
G36*
X157839D02*
X153205D01*
Y276658D01*
X157839D01*
Y280307D01*
D02*
G37*
G36*
X191059Y259823D02*
X188000D01*
Y256764D01*
X191059D01*
Y259823D01*
D02*
G37*
G36*
X174453Y282563D02*
X166547D01*
Y274658D01*
X167938D01*
X168130Y274196D01*
X164206Y270272D01*
X161075D01*
Y264728D01*
X165831D01*
Y267859D01*
X171009Y273038D01*
X171319Y273501D01*
X171427Y274047D01*
X171427Y274047D01*
Y274658D01*
X174453D01*
Y282563D01*
D02*
G37*
G36*
X191059Y255764D02*
X188000D01*
Y252705D01*
X191059D01*
Y255764D01*
D02*
G37*
G36*
X187000Y259823D02*
X183941D01*
Y256764D01*
X187000D01*
Y259823D01*
D02*
G37*
G36*
X234157Y277780D02*
X233274Y277664D01*
X231985Y277130D01*
X230877Y276280D01*
X230028Y275173D01*
X229494Y273884D01*
X229378Y273000D01*
X234157D01*
Y277780D01*
D02*
G37*
G36*
X235157D02*
Y273000D01*
X239937D01*
X239821Y273884D01*
X239287Y275173D01*
X238438Y276280D01*
X237330Y277130D01*
X236041Y277664D01*
X235157Y277780D01*
D02*
G37*
G36*
X234157Y272000D02*
X229378D01*
X229494Y271116D01*
X230028Y269827D01*
X230877Y268720D01*
X231985Y267870D01*
X233274Y267336D01*
X234157Y267220D01*
Y272000D01*
D02*
G37*
G36*
X239937D02*
X235157D01*
Y267220D01*
X236041Y267336D01*
X237330Y267870D01*
X238438Y268720D01*
X239287Y269827D01*
X239821Y271116D01*
X239937Y272000D01*
D02*
G37*
G36*
X185189Y297781D02*
X184454Y297709D01*
X183266Y297349D01*
X182172Y296764D01*
X181213Y295976D01*
X180425Y295017D01*
X179840Y293923D01*
X179480Y292735D01*
X179408Y292000D01*
X185189D01*
Y297781D01*
D02*
G37*
G36*
X186189D02*
Y292000D01*
X191970D01*
X191898Y292735D01*
X191538Y293923D01*
X190953Y295017D01*
X190165Y295976D01*
X189206Y296764D01*
X188112Y297349D01*
X186924Y297709D01*
X186189Y297781D01*
D02*
G37*
G36*
X157520Y294504D02*
X153476D01*
Y290264D01*
X157520D01*
Y294504D01*
D02*
G37*
G36*
X162563D02*
X158520D01*
Y290264D01*
X162563D01*
Y294504D01*
D02*
G37*
G36*
X170000Y296342D02*
X166547D01*
Y292890D01*
X170000D01*
Y296342D01*
D02*
G37*
G36*
X174453D02*
X171000D01*
Y292890D01*
X174453D01*
Y296342D01*
D02*
G37*
G36*
X208811Y297800D02*
X203011D01*
Y292000D01*
X208811D01*
Y297800D01*
D02*
G37*
G36*
X215611D02*
X209811D01*
Y292000D01*
X215611D01*
Y297800D01*
D02*
G37*
G36*
X185189Y291000D02*
X179408D01*
X179480Y290265D01*
X179840Y289077D01*
X180425Y287983D01*
X181213Y287024D01*
X182172Y286236D01*
X183266Y285651D01*
X184454Y285291D01*
X185189Y285219D01*
Y291000D01*
D02*
G37*
G36*
X191970D02*
X186189D01*
Y285219D01*
X186924Y285291D01*
X188112Y285651D01*
X189206Y286236D01*
X190165Y287024D01*
X190953Y287983D01*
X191538Y289077D01*
X191898Y290265D01*
X191970Y291000D01*
D02*
G37*
G36*
X208811D02*
X203011D01*
Y285200D01*
X208811D01*
Y291000D01*
D02*
G37*
G36*
X215611D02*
X209811D01*
Y285200D01*
X215611D01*
Y291000D01*
D02*
G37*
G36*
X122480Y294504D02*
X118437D01*
Y290264D01*
X122480D01*
Y294504D01*
D02*
G37*
G36*
X127524D02*
X123480D01*
Y290264D01*
X127524D01*
Y294504D01*
D02*
G37*
G36*
X170000Y291890D02*
X166547D01*
Y288437D01*
X170000D01*
Y291890D01*
D02*
G37*
G36*
X174453D02*
X171000D01*
Y288437D01*
X174453D01*
Y291890D01*
D02*
G37*
G36*
X275000Y174815D02*
X271153D01*
Y172150D01*
X275000D01*
Y174815D01*
D02*
G37*
G36*
X279847D02*
X276000D01*
Y172150D01*
X279847D01*
Y174815D01*
D02*
G37*
G36*
X97921Y176848D02*
X96953D01*
Y173634D01*
Y170419D01*
X97921D01*
Y173634D01*
Y176848D01*
D02*
G37*
G36*
X101882Y173134D02*
X100890D01*
Y170419D01*
X101882D01*
Y173134D01*
D02*
G37*
G36*
X259972Y197614D02*
X239000D01*
Y181366D01*
X259972D01*
Y182000D01*
Y197614D01*
D02*
G37*
G36*
X182126Y198143D02*
X180067D01*
X179485Y198028D01*
X178991Y197698D01*
X178661Y197204D01*
X178645Y197122D01*
X182126D01*
Y198143D01*
D02*
G37*
G36*
X275000Y178480D02*
X271153D01*
Y175815D01*
X275000D01*
Y178480D01*
D02*
G37*
G36*
X279847D02*
X276000D01*
Y175815D01*
X279847D01*
Y178480D01*
D02*
G37*
G36*
X77846Y172350D02*
X74000D01*
Y169685D01*
X77846D01*
Y172350D01*
D02*
G37*
G36*
X86110Y173134D02*
X85118D01*
Y170419D01*
X86110D01*
Y173134D01*
D02*
G37*
G36*
X268468Y171783D02*
X266000D01*
Y169315D01*
X268468D01*
Y171783D01*
D02*
G37*
G36*
X73000Y172350D02*
X69153D01*
Y169685D01*
X73000D01*
Y172350D01*
D02*
G37*
G36*
X93984Y176848D02*
X93016D01*
Y173634D01*
Y170419D01*
X93984D01*
Y173634D01*
Y176848D01*
D02*
G37*
G36*
X95953D02*
X94984D01*
Y173634D01*
Y170419D01*
X95953D01*
Y173634D01*
Y176848D01*
D02*
G37*
G36*
X90047D02*
X89079D01*
Y173634D01*
Y170419D01*
X90047D01*
Y173634D01*
Y176848D01*
D02*
G37*
G36*
X92016D02*
X91047D01*
Y173634D01*
Y170419D01*
X92016D01*
Y173634D01*
Y176848D01*
D02*
G37*
G36*
X187000Y230260D02*
X186571Y230204D01*
X185705Y229845D01*
X184962Y229275D01*
X184391Y228531D01*
X184033Y227665D01*
X183976Y227236D01*
X187000D01*
Y230260D01*
D02*
G37*
G36*
X188000D02*
Y227236D01*
X191024D01*
X190967Y227665D01*
X190609Y228531D01*
X190038Y229275D01*
X189295Y229845D01*
X188429Y230204D01*
X188000Y230260D01*
D02*
G37*
G36*
X187000Y226236D02*
X183976D01*
X184033Y225807D01*
X184391Y224941D01*
X184962Y224198D01*
X185705Y223627D01*
X186571Y223269D01*
X187000Y223212D01*
Y226236D01*
D02*
G37*
G36*
X191024D02*
X188000D01*
Y223212D01*
X188429Y223269D01*
X189295Y223627D01*
X190038Y224198D01*
X190609Y224941D01*
X190967Y225807D01*
X191024Y226236D01*
D02*
G37*
G36*
X238000Y234425D02*
X235531D01*
Y228217D01*
X238000D01*
Y234425D01*
D02*
G37*
G36*
X187000Y255764D02*
X183941D01*
Y252705D01*
X187000D01*
Y255764D01*
D02*
G37*
G36*
X224614Y234425D02*
X222146D01*
Y228217D01*
X224614D01*
Y234425D01*
D02*
G37*
G36*
X228083D02*
X225614D01*
Y228217D01*
X228083D01*
Y234425D01*
D02*
G37*
G36*
X259972Y214862D02*
X239000D01*
Y198614D01*
X259972D01*
Y214862D01*
D02*
G37*
G36*
X128878Y202126D02*
X127857D01*
Y200067D01*
X127972Y199485D01*
X128302Y198991D01*
X128796Y198661D01*
X128878Y198645D01*
Y202126D01*
D02*
G37*
G36*
X185185Y198143D02*
X183126D01*
Y197122D01*
X186607D01*
X186591Y197204D01*
X186261Y197698D01*
X185767Y198028D01*
X185185Y198143D01*
D02*
G37*
G36*
X238000Y214862D02*
X217028D01*
Y198614D01*
X238000D01*
Y214862D01*
D02*
G37*
G36*
X114315Y206500D02*
X111650D01*
Y202654D01*
X114315D01*
Y206500D01*
D02*
G37*
G36*
X117980D02*
X115315D01*
Y202654D01*
X117980D01*
Y206500D01*
D02*
G37*
G36*
X24500Y202953D02*
X22228D01*
Y201075D01*
X24500D01*
Y202953D01*
D02*
G37*
G36*
X27772D02*
X25500D01*
Y201075D01*
X27772D01*
Y202953D01*
D02*
G37*
%LPD*%
D10*
X166035Y17000D02*
D03*
X232965D02*
D03*
D11*
X30000Y101685D02*
D03*
Y112315D02*
D03*
X73500Y169185D02*
D03*
Y179815D02*
D03*
X276000Y98685D02*
D03*
Y109315D02*
D03*
X277500Y132185D02*
D03*
Y142815D02*
D03*
X275500Y164685D02*
D03*
Y175315D02*
D03*
D12*
X172685Y143374D02*
D03*
X174653D02*
D03*
X176622D02*
D03*
X170717D02*
D03*
X168748D02*
D03*
X166779D02*
D03*
X164811D02*
D03*
X162843D02*
D03*
X160874D02*
D03*
X158905D02*
D03*
X156937D02*
D03*
X154969D02*
D03*
X153000D02*
D03*
X151031D02*
D03*
X149063D02*
D03*
X147095D02*
D03*
X145126D02*
D03*
X143157D02*
D03*
X141189D02*
D03*
X139220D02*
D03*
X137252D02*
D03*
X135284D02*
D03*
X133315D02*
D03*
X131346D02*
D03*
X129378D02*
D03*
X172685Y202626D02*
D03*
X174653D02*
D03*
X176622D02*
D03*
X170717D02*
D03*
X168748D02*
D03*
X166779D02*
D03*
X164811D02*
D03*
X162843D02*
D03*
X160874D02*
D03*
X158905D02*
D03*
X156937D02*
D03*
X154969D02*
D03*
X153000D02*
D03*
X151031D02*
D03*
X149063D02*
D03*
X147095D02*
D03*
X145126D02*
D03*
X143157D02*
D03*
X141189D02*
D03*
X139220D02*
D03*
X137252D02*
D03*
X135284D02*
D03*
X133315D02*
D03*
X131346D02*
D03*
X129378D02*
D03*
D13*
X182626Y149378D02*
D03*
Y151347D02*
D03*
Y153315D02*
D03*
Y155283D02*
D03*
Y157252D02*
D03*
Y159221D02*
D03*
Y161189D02*
D03*
Y163157D02*
D03*
Y165126D02*
D03*
Y167095D02*
D03*
Y169063D02*
D03*
Y171031D02*
D03*
Y173000D02*
D03*
Y174969D02*
D03*
Y176937D02*
D03*
Y178905D02*
D03*
Y180874D02*
D03*
Y182843D02*
D03*
Y184811D02*
D03*
Y186779D02*
D03*
Y188748D02*
D03*
Y190717D02*
D03*
Y192685D02*
D03*
Y194653D02*
D03*
Y196622D02*
D03*
X123374D02*
D03*
Y194653D02*
D03*
Y192685D02*
D03*
Y190717D02*
D03*
Y188748D02*
D03*
Y186779D02*
D03*
Y184811D02*
D03*
Y182843D02*
D03*
Y180874D02*
D03*
Y178905D02*
D03*
Y176937D02*
D03*
Y174969D02*
D03*
Y173000D02*
D03*
Y171031D02*
D03*
Y169063D02*
D03*
Y167095D02*
D03*
Y165126D02*
D03*
Y163157D02*
D03*
Y161189D02*
D03*
Y159221D02*
D03*
Y157252D02*
D03*
Y155283D02*
D03*
Y153315D02*
D03*
Y151347D02*
D03*
Y149378D02*
D03*
D14*
X158020Y289764D02*
D03*
X122980D02*
D03*
D15*
X135382Y280315D02*
D03*
X137941D02*
D03*
X140500D02*
D03*
X143059D02*
D03*
X145618D02*
D03*
D16*
X152705Y280807D02*
D03*
X128295D02*
D03*
D17*
X67000Y90547D02*
D03*
Y96453D02*
D03*
X44000Y106547D02*
D03*
Y112453D02*
D03*
X9500Y122953D02*
D03*
Y117047D02*
D03*
X115500Y141547D02*
D03*
Y147453D02*
D03*
X197000Y146547D02*
D03*
Y152453D02*
D03*
X251500Y64453D02*
D03*
Y58547D02*
D03*
D18*
X125906Y87732D02*
D03*
X120000D02*
D03*
X128047Y133000D02*
D03*
X133953D02*
D03*
X102953Y163500D02*
D03*
X97047D02*
D03*
X86953Y163000D02*
D03*
X81047D02*
D03*
X182047Y115000D02*
D03*
X187953D02*
D03*
X185047Y135500D02*
D03*
X190953D02*
D03*
D19*
X114815Y207000D02*
D03*
X104185D02*
D03*
D20*
X245193Y234925D02*
D03*
X251886D02*
D03*
X238500D02*
D03*
X231807D02*
D03*
X225114D02*
D03*
D21*
X238500Y198114D02*
D03*
D22*
X97500Y104547D02*
D03*
X105000D02*
D03*
Y110453D02*
D03*
X97500D02*
D03*
X25000Y197547D02*
D03*
Y203453D02*
D03*
X9500Y137453D02*
D03*
Y131547D02*
D03*
X133500Y244547D02*
D03*
Y250453D02*
D03*
X144500D02*
D03*
Y244547D02*
D03*
X281000Y270047D02*
D03*
Y275953D02*
D03*
X243500Y64453D02*
D03*
Y58547D02*
D03*
X236500Y58547D02*
D03*
Y64453D02*
D03*
X243500Y51953D02*
D03*
Y46047D02*
D03*
D23*
X158953Y130000D02*
D03*
X153047D02*
D03*
X111953Y155000D02*
D03*
X106047D02*
D03*
X95547Y131232D02*
D03*
X101453D02*
D03*
X213047Y168500D02*
D03*
Y173500D02*
D03*
X218953D02*
D03*
Y168500D02*
D03*
X163453Y267500D02*
D03*
X157547D02*
D03*
X273047Y16000D02*
D03*
X278953D02*
D03*
X278953Y9500D02*
D03*
X273047D02*
D03*
D24*
X86500Y104768D02*
D03*
X90240Y113232D02*
D03*
X82760D02*
D03*
X66740D02*
D03*
X63000Y104768D02*
D03*
X59260Y113232D02*
D03*
D25*
X114953Y109343D02*
D03*
Y123122D02*
D03*
X193000Y163110D02*
D03*
X204500D02*
D03*
Y176890D02*
D03*
X193000D02*
D03*
X291500Y262610D02*
D03*
Y276390D02*
D03*
X170500Y292390D02*
D03*
Y278610D02*
D03*
X7500Y159500D02*
D03*
X263500Y6110D02*
D03*
Y19890D02*
D03*
D26*
X51787Y168500D02*
D03*
X25213D02*
D03*
D27*
X80638Y131732D02*
D03*
X59673D02*
D03*
X266862Y42000D02*
D03*
X287827D02*
D03*
X292827Y240000D02*
D03*
X271862D02*
D03*
D28*
X38000Y123461D02*
D03*
X33000D02*
D03*
X28000D02*
D03*
X23000D02*
D03*
X38000Y143539D02*
D03*
X33000D02*
D03*
X28000D02*
D03*
X23000D02*
D03*
D29*
X98421Y173634D02*
D03*
X100390D02*
D03*
Y190366D02*
D03*
X98421D02*
D03*
X96453D02*
D03*
X94484D02*
D03*
X92516D02*
D03*
X90547D02*
D03*
X88579D02*
D03*
X86610D02*
D03*
Y173634D02*
D03*
X88579D02*
D03*
X90547D02*
D03*
X92516D02*
D03*
X94484D02*
D03*
X96453D02*
D03*
D30*
X104032Y177079D02*
D03*
Y179047D02*
D03*
Y181016D02*
D03*
Y182984D02*
D03*
Y184953D02*
D03*
Y186921D02*
D03*
X82968D02*
D03*
Y184953D02*
D03*
Y182984D02*
D03*
Y181016D02*
D03*
Y179047D02*
D03*
Y177079D02*
D03*
D31*
X258000Y240000D02*
X265500D01*
X258000D02*
X253500Y235500D01*
X252461D01*
X234658Y272500D02*
X203736D01*
X209311Y278075D01*
Y291500D01*
X203736Y272500D02*
X187500Y256264D01*
D32*
X265500Y98315D02*
X275685D01*
X276000D02*
X292500D01*
X276000Y109315D02*
X271500D01*
X265500Y103315D01*
X292315Y130815D02*
X292500Y131000D01*
X292315Y130815D02*
X276000D01*
X275685D02*
X265500D01*
Y135815D02*
X272500Y142815D01*
X277500D01*
X292315Y163815D02*
X265500D01*
X272000Y175315D02*
X275500D01*
X272000D02*
X265500Y168815D01*
X231807Y234925D02*
Y269650D01*
X234658Y272500D01*
D33*
X120000Y87732D02*
X108528D01*
X103260Y93000D01*
Y95740D01*
X101000Y98000D01*
Y106453D01*
X105000Y110453D01*
X97500D01*
X93020D01*
X90240Y113232D01*
X114953Y123122D02*
X106843Y131232D01*
X101453D01*
X104032Y164579D02*
Y177079D01*
X109169Y171168D02*
X113605D01*
X115437Y173000D01*
X123374D01*
Y174969D02*
X112031D01*
X123374Y180874D02*
X104173D01*
Y182843D02*
X123374D01*
Y184811D02*
X104173D01*
X104032Y184953D01*
Y182984D02*
X104173Y182843D01*
X98261Y187052D02*
Y190206D01*
X98421Y190366D01*
X98261Y187052D02*
X96500Y185291D01*
Y183000D01*
X96461Y187797D02*
Y190366D01*
X94661Y190542D02*
Y193119D01*
X98341Y196800D01*
X116074D01*
X120189Y192685D01*
X123374D01*
Y190717D02*
X116284D01*
X114000Y193000D01*
X113500D01*
X110252Y188748D02*
X123374D01*
X137252Y202626D02*
Y209748D01*
X134500Y212500D01*
Y244547D01*
X143000D02*
Y212500D01*
X139500Y209000D01*
Y206031D01*
X139397Y205927D01*
Y202802D01*
X139220Y202626D01*
X110252Y188748D02*
X107000Y192000D01*
X90547Y195457D02*
Y190366D01*
X88579D02*
Y193983D01*
X90300Y195705D01*
Y200800D01*
X92000Y202500D01*
Y203000D01*
X90300Y195705D02*
X90547Y195457D01*
X86500Y199000D02*
Y190476D01*
X86610Y190366D01*
X94484D02*
X94661Y190542D01*
X94978Y186852D02*
X95515D01*
X96461Y187797D01*
X94978Y186852D02*
X90500Y182374D01*
Y182000D01*
X108000Y170000D02*
X109169Y171168D01*
X82968Y179047D02*
Y181016D01*
Y182984D01*
Y184953D01*
Y186921D01*
Y179047D02*
Y177079D01*
X51787Y168500D02*
X52000Y168287D01*
Y159500D01*
X25213Y168500D02*
X15500D01*
X7000Y160000D01*
X7500Y149500D02*
X9500Y147500D01*
Y137453D01*
Y131547D02*
Y122953D01*
Y117047D02*
X16047D01*
X22461Y123461D01*
X23000D01*
Y133500D01*
X33000Y123461D02*
Y119500D01*
X36000Y116500D01*
X39953D01*
X44000Y112453D01*
X151000Y72000D02*
Y84500D01*
X161000Y94500D01*
X187953Y115000D02*
X194000D01*
X225000Y171000D02*
X218953D01*
Y173500D01*
Y171000D02*
Y168500D01*
X285157Y270047D02*
X291500Y276390D01*
X285157Y270047D02*
X281000D01*
Y275953D02*
X273953Y283000D01*
X238500D01*
X234658Y279157D01*
Y272500D01*
X185689Y291500D02*
X184799Y292390D01*
X170500D01*
X266862Y42000D02*
X270862Y38000D01*
X273047Y35815D01*
Y16000D01*
X278953D02*
Y9500D01*
X278953Y9500D01*
X273047D02*
X266890D01*
X263500Y6110D01*
D34*
X128568Y83776D02*
X136103Y91312D01*
X153485D01*
X157812Y95638D01*
Y95821D01*
X159679Y97688D01*
X162321D01*
X165509Y94500D01*
X171000D01*
X176094Y106000D02*
X182047Y111953D01*
X184500Y109500D01*
X197244D01*
X201465Y105280D01*
X201000Y123500D02*
X220941Y103559D01*
Y98929D01*
X225500Y93500D02*
Y131500D01*
X224000Y133000D01*
X212500D01*
X211000Y134500D01*
X220721Y127465D02*
X204013D01*
X201692Y125144D01*
X178810D01*
X166431Y137523D01*
X163447D01*
X161150Y139820D01*
Y143098D01*
X160874Y143374D01*
X162843D02*
X162935Y143282D01*
Y142988D01*
X163119Y142803D01*
Y140114D01*
X164110Y139123D01*
X167094D01*
X179472Y126744D01*
X196007D01*
X203600Y134337D01*
Y138100D01*
X220721Y155220D01*
Y155965D01*
X222685Y161815D02*
X227300Y157200D01*
Y107937D01*
X244500Y90737D01*
Y78500D01*
X251500Y71500D01*
Y64453D01*
X251500Y64453D01*
X243500D01*
X243500Y64453D01*
X236500D01*
Y58547D02*
X238653D01*
X241231Y61125D01*
X245769D01*
X248347Y58547D01*
X251500D02*
X255547Y54500D01*
X260500D01*
X265500Y59500D01*
Y61500D01*
Y66500D02*
Y67019D01*
X260732Y71788D01*
Y76768D01*
X228900Y108600D01*
Y158482D01*
X223968Y163415D01*
X211915D01*
X210253Y161753D01*
Y150216D01*
X200171Y140134D01*
Y135837D01*
X194278Y129944D01*
X181722D01*
X180082Y131584D01*
Y139914D01*
X176622Y143374D01*
X172685D02*
X172961Y143098D01*
Y135518D01*
X180135Y128344D01*
X195344D01*
X202000Y135000D01*
Y139000D01*
X212000Y149000D01*
Y160815D01*
X213000Y161815D01*
X222685D01*
X224630Y165015D02*
X230500Y159145D01*
Y110000D01*
X262332Y78168D01*
Y75188D01*
X265500Y72019D01*
Y71500D01*
X243500Y58547D02*
Y51953D01*
X263500Y19890D02*
X264311D01*
X271172Y13028D01*
X274922D01*
X275625Y13731D01*
Y17519D01*
X277996Y19890D01*
X283390D01*
X287827Y24327D01*
Y42000D01*
X225500Y93500D02*
X221500Y89500D01*
X188500D01*
X171000Y72000D01*
X149412Y92912D02*
X151000Y94500D01*
X129795D01*
X114953Y109343D01*
X110158Y104547D01*
X105000D01*
X88910Y93501D02*
Y91198D01*
X96332Y83776D01*
X128568D01*
X130261Y87732D02*
X135441Y92912D01*
X149412D01*
X159000Y114890D02*
Y130500D01*
X161000Y133500D02*
X162000Y132500D01*
Y122000D01*
X168000Y116000D01*
X181047D01*
X182047Y115000D01*
Y111953D01*
X176094Y106000D02*
X129000D01*
X117500Y117500D01*
X101500D01*
X115500Y141547D02*
X118787D01*
X132334Y128000D01*
X137500D01*
X143000Y133500D01*
Y136000D01*
X147095Y140094D01*
Y143374D01*
X148787Y143650D02*
Y146634D01*
X142921Y152500D01*
X158669D01*
X164535Y146634D01*
Y143650D01*
X166779Y143374D02*
Y151279D01*
X168748Y143374D02*
X170717D01*
Y157674D01*
X173000Y159957D01*
X179366Y153591D01*
X182350D01*
X182626Y153315D01*
X182902Y153039D01*
X185886D01*
X187925Y151000D01*
X192000D01*
X193453Y152453D01*
X195953D01*
X196287D02*
X197000D01*
Y146547D02*
X192047D01*
X190000Y144500D01*
X190953Y143547D02*
Y135500D01*
X185047D02*
Y145953D01*
X189962Y150868D01*
X193615Y131544D02*
X198571Y136500D01*
Y140797D01*
X208653Y150879D01*
Y162416D01*
X211252Y165015D01*
X224630D01*
X213047Y168500D02*
X206000D01*
X205000Y167500D01*
Y163610D01*
X204500Y163110D01*
X209000Y171500D02*
X211000Y173500D01*
X213047D01*
X209000Y171500D02*
X195500D01*
X193500Y169500D01*
Y163610D01*
X193000Y163110D01*
X190217Y155283D02*
X182626D01*
X173000Y159957D02*
X170500Y162457D01*
Y190000D01*
Y191622D01*
X175500Y196622D01*
X182626D01*
Y194653D02*
X182350Y194377D01*
X179366D01*
X174500Y189511D01*
Y185500D01*
X182626Y186779D02*
X188721D01*
X193000Y182500D01*
Y176890D01*
X204500D02*
X192642Y188748D01*
X182626D01*
X170500Y190000D02*
X136000D01*
X129654Y196346D01*
Y202350D01*
X129378Y202626D01*
X121441D01*
X117067Y207000D01*
X114815D01*
X117477Y211546D02*
X122024Y207000D01*
X124000D02*
X129956D01*
X131254Y205702D01*
Y202718D01*
X131346Y202626D01*
X133315D02*
Y196685D01*
X135500Y194500D01*
X142500D01*
X135284Y202626D02*
Y206217D01*
X125500Y216000D01*
X122000D01*
X117477Y211546D02*
X105546D01*
X104185Y210185D01*
Y207000D01*
X102000Y200000D02*
X117244D01*
X120622Y196622D01*
X123374D01*
Y186779D02*
X104173D01*
X104032Y186921D01*
X100390Y190366D02*
Y179390D01*
X94634Y173634D01*
X96453D01*
X98421D01*
X100390D01*
X104173Y178905D02*
X123374D01*
Y171031D02*
X119532D01*
X112000Y163500D01*
X112500Y157547D02*
X116142Y161189D01*
X123374D01*
Y151347D02*
X109701D01*
X106047Y155000D01*
X102000D01*
X100500Y156500D01*
X97047Y159953D01*
Y163500D01*
X89500Y145500D02*
X73500D01*
X65300Y153700D01*
Y195700D01*
X63500Y197500D01*
X25047D01*
X25000Y197547D01*
X8047D01*
X4000Y196019D02*
X7500Y192519D01*
Y192000D01*
X4000Y196019D02*
Y206500D01*
X79500D01*
X81500Y204500D01*
X91900Y210100D02*
X102000Y200000D01*
X104032Y179047D02*
X104173Y178905D01*
X112500Y157547D02*
Y155547D01*
X111953Y155000D01*
X123374Y149378D02*
X136200D01*
X138944Y146634D01*
Y143650D01*
X139220Y143374D02*
Y138268D01*
X133953Y133000D01*
X136200Y149378D02*
X146043D01*
X150000Y139076D02*
X150955Y140031D01*
Y143298D01*
X151031Y143374D01*
X153000D02*
X153047Y143327D01*
X154969Y143374D02*
Y135031D01*
X156500Y133500D01*
X161000D01*
X162785Y135923D02*
X164577D01*
X177000Y123500D01*
X201000D01*
X193615Y131544D02*
X182385D01*
X181682Y132247D01*
Y148434D01*
X182626Y149378D01*
Y151347D02*
X175347D01*
X169043Y156000D02*
X170717Y157674D01*
X169043Y156000D02*
X155169D01*
X158669Y152500D01*
X148787Y143650D02*
X149063Y143374D01*
X150000Y139076D02*
Y126342D01*
X140157Y116500D01*
X130261Y87732D02*
X125906D01*
X159843Y116500D02*
X158953Y117390D01*
X159182Y139526D02*
Y143098D01*
X158905Y143374D01*
X159182Y139526D02*
X162785Y135923D01*
X153000Y140827D02*
Y130500D01*
X86500Y180267D02*
Y183233D01*
X88967Y185700D01*
X90285D01*
X92516Y187931D01*
Y190366D01*
X86500Y180267D02*
X92516Y174252D01*
Y173783D01*
Y173634D02*
X94484D01*
X94634D01*
X92516D02*
X90547D01*
X88579D01*
X86610D01*
X82161Y169185D01*
X81047Y163000D02*
X76500D01*
X73000Y159500D01*
X73500Y179815D02*
Y185500D01*
X75000Y187000D01*
X82890D01*
X60500Y193500D02*
X28500D01*
X12000Y177000D01*
X7500D01*
Y182000D02*
X1000Y188500D01*
Y206500D01*
X4600Y210100D01*
X91900D01*
X134500Y250453D02*
Y270500D01*
X140500Y276500D01*
Y280315D01*
X143000Y280256D02*
X143059Y280315D01*
X143000Y280256D02*
Y250453D01*
X163453Y267500D02*
X170000Y274047D01*
Y278110D01*
X170500Y278610D01*
X166984Y288874D02*
X170500Y292390D01*
X166984Y288874D02*
X158020D01*
X149953Y280807D01*
X144760Y286000D01*
X138500D01*
X133307Y280807D01*
X128295D01*
X122980Y286122D01*
Y289764D01*
X145618Y274882D02*
X153000Y267500D01*
X157547D01*
X157547Y267500D01*
X145618Y280315D02*
Y274882D01*
X33000Y150500D02*
X40905D01*
X59673Y131732D01*
X36188Y137812D02*
X56879Y117121D01*
Y111062D01*
X57582Y110359D01*
X62663D01*
X69822Y103200D01*
X79211D01*
X88910Y93501D01*
X67000Y90547D02*
X56953D01*
X53500Y94000D01*
X42535D01*
X34850Y101685D01*
X30000D01*
X44000Y106547D02*
X44713D01*
X51953Y113787D01*
Y114500D01*
X36188Y137812D02*
X31932D01*
X30422Y139322D01*
Y141117D01*
X28000Y143539D01*
X33000D02*
Y150500D01*
X23000D01*
Y143539D01*
Y150500D02*
X8500D01*
X7500Y149500D01*
X292827Y240000D02*
Y246673D01*
X290500Y249000D01*
Y261610D01*
X291500Y262610D01*
D35*
X41799Y38701D02*
X44500D01*
X41799D02*
X34500Y46000D01*
Y60000D01*
Y80000D02*
X35500D01*
X58000Y57500D01*
X125535D01*
X166035Y17000D01*
X206000Y52500D02*
X217300Y41200D01*
X229185D01*
X229984Y42000D01*
X266862D01*
X277500Y52638D01*
Y66500D01*
X282500Y71500D01*
Y76569D01*
X285035Y79104D01*
Y80035D01*
X292500Y87500D01*
Y98315D01*
Y130630D01*
Y131000D02*
Y221000D01*
X273500Y240000D01*
X271862D01*
X187496Y52500D02*
Y48504D01*
X219000Y17000D01*
X232965D01*
X33500Y81000D02*
X34500Y80000D01*
X33500Y81000D02*
X26000D01*
X8000Y99000D01*
Y79000D02*
Y58311D01*
X10000Y56311D01*
D36*
X238500Y198114D02*
Y234925D01*
X225114D02*
Y211500D01*
D37*
X217000Y177000D02*
X242315D01*
X265500Y153815D01*
X261500Y149815D01*
Y124815D01*
X265500Y120815D01*
X261500Y116815D01*
Y92315D01*
X265500Y88315D01*
Y158815D02*
X245315Y179000D01*
X217500D01*
X204141Y192359D01*
X182952D01*
X182626Y190717D02*
X182952Y190390D01*
X203610D01*
X217000Y177000D01*
D38*
X94500Y66000D02*
X129500D01*
X143000Y52500D01*
X175051D01*
X183851Y61300D01*
X191141D01*
X199941Y52500D01*
X206000D01*
X94500Y66000D02*
X83260Y77240D01*
Y93000D01*
X76760Y99500D01*
X67000D01*
X245193Y234925D02*
Y241693D01*
Y263350D01*
X254343Y272500D01*
X249500Y248000D02*
Y247500D01*
X249000Y247000D01*
Y245500D01*
X245193Y241693D01*
X265500Y240000D02*
X271862D01*
X261000Y244500D02*
X265500Y240000D01*
D39*
X63000Y103500D02*
X67000Y99500D01*
X63000Y103500D02*
Y104768D01*
X51768D01*
X48000Y101000D01*
X39000D01*
X37500Y102500D01*
Y109000D01*
X34185Y112315D01*
X30000D01*
X28000Y114315D01*
Y123461D01*
D40*
X97500Y97240D02*
Y104547D01*
X86721D01*
X86500Y104768D01*
X85768Y105500D01*
X76500D01*
X68768Y113232D01*
X66740D01*
Y117835D01*
X80638Y131732D01*
X95047D01*
X95547Y131232D01*
Y131305D01*
X111695Y147453D01*
X115500D01*
X121972D01*
X123374Y148854D01*
X95547Y154405D02*
Y131305D01*
Y154405D02*
X86953Y163000D01*
X85013Y164940D01*
Y166501D01*
X82329Y169185D01*
X82161D01*
X73500D01*
X69315D01*
X67500Y171000D01*
Y202500D01*
X66500Y203500D01*
X25047D01*
X25000Y203453D01*
X8953D01*
X7500Y202000D01*
X93260Y93000D02*
X97500Y97240D01*
D41*
X7500Y202000D02*
D03*
X265500Y61500D02*
D03*
Y103315D02*
D03*
Y135815D02*
D03*
Y168815D02*
D03*
D42*
X7500Y177000D02*
D03*
Y182000D02*
D03*
Y187000D02*
D03*
Y192000D02*
D03*
Y197000D02*
D03*
X265500Y66500D02*
D03*
Y71500D02*
D03*
Y76500D02*
D03*
Y88315D02*
D03*
Y93315D02*
D03*
Y98315D02*
D03*
Y120815D02*
D03*
Y125815D02*
D03*
Y130815D02*
D03*
Y153815D02*
D03*
Y158815D02*
D03*
Y163815D02*
D03*
D43*
X34500Y80000D02*
D03*
X8000Y99000D02*
D03*
D44*
X34500Y60000D02*
D03*
X8000Y79000D02*
D03*
D45*
X140157Y116500D02*
D03*
X159843D02*
D03*
D46*
X7500Y149500D02*
D03*
D47*
X103260Y93000D02*
D03*
D48*
X93260Y93000D02*
D03*
X83260D02*
D03*
D49*
X10000Y32689D02*
D03*
X187496Y52500D02*
D03*
X206000D02*
D03*
X224504D02*
D03*
X185689Y291500D02*
D03*
D50*
X10000Y56311D02*
D03*
D51*
X187500Y256264D02*
D03*
D52*
X187500Y226736D02*
D03*
D53*
X254343Y272500D02*
D03*
D54*
X44500Y15079D02*
D03*
X62217Y26890D02*
D03*
X44500Y38701D02*
D03*
X234658Y272500D02*
D03*
D55*
X93815Y40264D02*
D03*
X113500Y7587D02*
D03*
X131217Y21366D02*
D03*
D56*
X209311Y291500D02*
D03*
D57*
X151000Y94500D02*
D03*
X171000Y72000D02*
D03*
D58*
X151000Y72000D02*
D03*
X161000D02*
D03*
Y94500D02*
D03*
X171000D02*
D03*
D59*
X184535Y77720D02*
D03*
X201465D02*
D03*
X220941Y82000D02*
D03*
X248500D02*
D03*
Y98929D02*
D03*
X248280Y110535D02*
D03*
Y127465D02*
D03*
Y139035D02*
D03*
Y155965D02*
D03*
X220721Y139035D02*
D03*
Y110535D02*
D03*
X184535Y105280D02*
D03*
D60*
X201465Y105280D02*
D03*
D61*
X220941Y98929D02*
D03*
X220721Y127465D02*
D03*
Y155965D02*
D03*
D62*
X53500Y94000D02*
D03*
X51953Y114500D02*
D03*
X89500Y145500D02*
D03*
X100500Y156500D02*
D03*
X112000Y163500D02*
D03*
X112031Y174969D02*
D03*
X108000Y170000D02*
D03*
X96500Y183000D02*
D03*
X90500Y182000D02*
D03*
X107000Y192000D02*
D03*
X113500Y193000D02*
D03*
X122500Y207000D02*
D03*
X142500Y194500D02*
D03*
X159500Y219000D02*
D03*
X160500Y244000D02*
D03*
X170500Y260500D02*
D03*
X138500Y267500D02*
D03*
X121000Y271000D02*
D03*
X120500Y243500D02*
D03*
X122000Y216000D02*
D03*
X138500Y216500D02*
D03*
Y238500D02*
D03*
X174500Y185500D02*
D03*
X190217Y155283D02*
D03*
X190000Y144500D02*
D03*
X175347Y151347D02*
D03*
X166779Y151279D02*
D03*
X143000Y136000D02*
D03*
X101500Y117500D02*
D03*
X73000Y159500D02*
D03*
X75000Y187000D02*
D03*
X86500Y199000D02*
D03*
X92000Y203000D02*
D03*
X81500Y204500D02*
D03*
X60500Y193500D02*
D03*
X52000Y159500D02*
D03*
X23000Y133500D02*
D03*
X194000Y115000D02*
D03*
X211000Y134500D02*
D03*
X225000Y171000D02*
D03*
X238500Y186500D02*
D03*
X246500D02*
D03*
X254500D02*
D03*
Y194500D02*
D03*
X246500D02*
D03*
Y202500D02*
D03*
X254500D02*
D03*
Y210500D02*
D03*
X246500D02*
D03*
X238500D02*
D03*
Y202500D02*
D03*
Y194500D02*
D03*
X230500Y210500D02*
D03*
X222500D02*
D03*
Y202500D02*
D03*
X230500D02*
D03*
Y194500D02*
D03*
X222500D02*
D03*
Y186500D02*
D03*
X230500D02*
D03*
X290500Y249000D02*
D03*
X261000Y244500D02*
D03*
X250500Y250000D02*
D03*
X287827Y24327D02*
D03*
D63*
X9843Y9843D02*
D03*
X290158D02*
D03*
Y290158D02*
D03*
M02*
