M48
;Layer_Color=9474304
;FILE_FORMAT=2:5
INCH,LZ
;TYPE=PLATED
T1F00S00C0.02008
T2F00S00C0.02756
T3F00S00C0.02800
T4F00S00C0.03150
T5F00S00C0.03500
T6F00S00C0.03543
T7F00S00C0.03937
T8F00S00C0.04331
T9F00S00C0.05200
T10F00S00C0.05950
T11F00S00C0.08600
T12F00S00C0.11024
%
T01
X0151Y0072
X0161
X0171
Y00945
X0161
X0151
T02
X0140157Y01165
X0159843
T03
X00535Y0094
X0051953Y01145
X01015Y01175
X00895Y01455
X0143Y0136
X0166779Y0151279
X0175347Y0151347
X019Y01445
X0194Y0115
X0211Y01345
X0287827Y0024327
X02545Y01865
Y01945
Y02025
Y02105
X02465
Y02025
Y01945
X02385
X02305
Y02025
X02225
Y02105
X02305
X02385
Y02025
Y01865
X02305
X02225
Y01945
X02085Y0194
X0225Y0171
X02465Y01865
X02505Y025
X0261Y02445
X02905Y0249
X01705Y02605
X01605Y0244
X01595Y0219
X01385Y02165
X0122Y0216
X01225Y0207
X01135Y0193
X0107Y0192
X00965Y0183
X00905Y0182
X0075Y0187
X00605Y01935
X00865Y0199
X0092Y0203
X00815Y0206
X0073Y01595
X01005Y01565
X0112Y01635
X0108Y017
X0112031Y0174969
X01425Y01945
X01745Y01855
X01835Y0204
X0190217Y0155283
X01385Y02385
X01205Y02435
X0121Y0271
X01385Y02675
T04
X01875Y0226736
Y0256264
T05
X0184535Y007772
Y010528
X0201465
X0220721Y0110535
X0220941Y0098929
Y0082
X0201465Y007772
X02485Y0082
Y0098929
X024828Y0110535
Y0127465
Y0139035
X0220721
Y0127465
Y0155965
X024828
T06
X0008Y012
Y013
X00075Y01495
X0271Y0152
Y01385
Y01285
Y01185
Y01085
Y00945
Y00845
Y00745
Y00645
X0293Y01085
Y01185
Y01285
Y01385
X0271Y0162
Y0172
Y0182
X00075Y01795
Y01695
Y01595
Y01895
Y01995
T07
X008326Y0093
X009326
X010326
T08
X0008Y0079
Y0099
X00345Y008
Y006
T09
X00445Y0015079
Y0038701
X0062217Y002689
X0093815Y0040264
X01135Y0007587
X0131217Y0021366
T10
X0234658Y02725
X0254343Y02725
T11
X001Y0032689
Y0056311
X0187496Y00525
X0206
X0224504
X0209311Y02915
X0185689
T12
X0009843Y0009843
X0290158
Y0290158
M30
