%FSLAX25Y25*%
%MOIN*%
G70*
G01*
G75*
G04 Layer_Physical_Order=2*
G04 Layer_Color=16711680*
%ADD10R,0.13189X0.05315*%
%ADD11R,0.04429X0.00984*%
%ADD12R,0.00984X0.04429*%
%ADD13R,0.03543X0.02756*%
%ADD14R,0.05512X0.04331*%
%ADD15O,0.02756X0.09055*%
%ADD16R,0.14370X0.05709*%
%ADD17R,0.05906X0.05906*%
%ADD18R,0.02756X0.03543*%
%ADD19R,0.40945X0.31496*%
%ADD20R,0.03937X0.11417*%
%ADD21R,0.04331X0.05512*%
%ADD22R,0.08268X0.06299*%
%ADD23R,0.00945X0.05315*%
%ADD24R,0.07087X0.07480*%
%ADD25O,0.06102X0.00984*%
%ADD26O,0.00984X0.06102*%
%ADD27R,0.23622X0.23622*%
%ADD28R,0.02362X0.04528*%
%ADD29R,0.04331X0.06693*%
%ADD30R,0.06693X0.04331*%
%ADD31C,0.00800*%
%ADD32C,0.01000*%
%ADD33C,0.04000*%
%ADD34C,0.00700*%
%ADD35C,0.02500*%
%ADD36C,0.02000*%
%ADD37C,0.05000*%
%ADD38C,0.03000*%
%ADD39C,0.06000*%
%ADD40C,0.10000*%
%ADD41C,0.13000*%
%ADD42R,0.48500X0.03000*%
%ADD43R,0.03000X0.35500*%
%ADD44C,0.06693*%
%ADD45R,0.06693X0.06693*%
%ADD46R,0.05118X0.05118*%
%ADD47C,0.05118*%
%ADD48C,0.05500*%
%ADD49R,0.05500X0.05500*%
%ADD50R,0.05500X0.05500*%
%ADD51C,0.03976*%
%ADD52R,0.03976X0.03976*%
%ADD53C,0.08600*%
%ADD54R,0.10600X0.10600*%
%ADD55C,0.10600*%
%ADD56C,0.07200*%
%ADD57R,0.08600X0.08600*%
%ADD58R,0.10600X0.10600*%
%ADD59C,0.06299*%
%ADD60R,0.06299X0.06299*%
%ADD61C,0.05906*%
%ADD62C,0.05118*%
%ADD63C,0.12600*%
%ADD64C,0.05000*%
%ADD65C,0.12992*%
%ADD66R,0.10512X0.10000*%
%ADD67R,0.03000X0.05000*%
D14*
X130000Y116547D02*
D03*
Y122453D02*
D03*
X170500Y116547D02*
D03*
Y122453D02*
D03*
X261000Y231547D02*
D03*
Y237453D02*
D03*
D17*
X8000Y130000D02*
D03*
X7500Y199500D02*
D03*
X271000Y64500D02*
D03*
X293000Y138500D02*
D03*
X271000D02*
D03*
Y182000D02*
D03*
D18*
X105547Y32500D02*
D03*
X111453D02*
D03*
X119047D02*
D03*
X124953D02*
D03*
D29*
X172315Y194000D02*
D03*
X161685D02*
D03*
X136315Y198500D02*
D03*
X125685D02*
D03*
D31*
X111453Y32500D02*
X119047D01*
X158547Y72000D01*
X161000D01*
X159843Y116500D02*
X170453D01*
X170500Y116547D01*
X140157Y116500D02*
X130047D01*
X130000Y116547D01*
X101500Y117500D02*
X89500Y129500D01*
Y145500D01*
X103000Y163500D02*
X112000D01*
X103000D02*
X86800Y179700D01*
Y183733D01*
X87000Y183933D01*
Y188000D01*
X81500Y193500D01*
X60500D01*
X81500Y204500D02*
X83700Y206700D01*
X112700D01*
X122000Y216000D01*
X123500Y207500D02*
X124000Y207000D01*
X136315Y198500D02*
X138500D01*
X142500Y194500D01*
X172315Y187685D02*
Y194000D01*
Y187685D02*
X174500Y185500D01*
X190217Y155283D02*
X211000Y134500D01*
D32*
X93815Y40264D02*
X97783D01*
X105547Y32500D01*
X124953Y27630D02*
X131217Y21366D01*
X124953Y27630D02*
Y32500D01*
X112031Y174969D02*
X104532D01*
X96500Y183000D01*
X90500Y182000D02*
X102500Y170000D01*
X108000D01*
X110700Y195800D02*
X113500Y193000D01*
X110700Y195800D02*
X108200D01*
X102500Y201500D01*
X93500D01*
X92000Y203000D01*
X86500Y199000D02*
X100000D01*
X107000Y192000D01*
D37*
X261000Y237453D02*
Y244500D01*
X261000Y244500D01*
X246256Y245756D02*
X250500Y250000D01*
X246256Y245756D02*
Y238000D01*
D44*
X34500Y60000D02*
D03*
X8000Y79000D02*
D03*
D45*
X34500Y80000D02*
D03*
X8000Y99000D02*
D03*
D46*
X187500Y256264D02*
D03*
D47*
X187500Y226736D02*
D03*
D48*
X184535Y77720D02*
D03*
X201465D02*
D03*
X220941Y82000D02*
D03*
X248500D02*
D03*
Y98929D02*
D03*
X248280Y110535D02*
D03*
Y127465D02*
D03*
Y139035D02*
D03*
Y155965D02*
D03*
X220721Y139035D02*
D03*
Y110535D02*
D03*
X184535Y105280D02*
D03*
D49*
X220941Y98929D02*
D03*
X220721Y127465D02*
D03*
Y155965D02*
D03*
D50*
X201465Y105280D02*
D03*
D51*
X151000Y72000D02*
D03*
X161000D02*
D03*
Y94500D02*
D03*
X171000D02*
D03*
D52*
X151000Y94500D02*
D03*
X171000Y72000D02*
D03*
D53*
X44500Y15079D02*
D03*
X62217Y26890D02*
D03*
X44500Y38701D02*
D03*
X234658Y272500D02*
D03*
D54*
X209311Y291500D02*
D03*
D55*
X10000Y32689D02*
D03*
X185689Y291500D02*
D03*
D56*
X93815Y40264D02*
D03*
X113500Y7587D02*
D03*
X131217Y21366D02*
D03*
D57*
X254343Y272500D02*
D03*
D58*
X10000Y56311D02*
D03*
D59*
X93260Y93000D02*
D03*
X83260D02*
D03*
D60*
X103260Y93000D02*
D03*
D61*
X8000Y120000D02*
D03*
X7500Y149500D02*
D03*
Y159500D02*
D03*
Y169500D02*
D03*
Y179500D02*
D03*
Y189500D02*
D03*
X271000Y74500D02*
D03*
Y84500D02*
D03*
Y94500D02*
D03*
X293000Y108500D02*
D03*
Y118500D02*
D03*
Y128500D02*
D03*
X271000D02*
D03*
Y118500D02*
D03*
Y108500D02*
D03*
Y152000D02*
D03*
Y162000D02*
D03*
Y172000D02*
D03*
D62*
X140157Y116500D02*
D03*
X159843D02*
D03*
D63*
X187496Y52500D02*
D03*
X206000D02*
D03*
X224504D02*
D03*
D64*
X53500Y94000D02*
D03*
X51953Y114500D02*
D03*
X89500Y145500D02*
D03*
X100500Y156500D02*
D03*
X112000Y163500D02*
D03*
X112031Y174969D02*
D03*
X108000Y170000D02*
D03*
X96500Y183000D02*
D03*
X90500Y182000D02*
D03*
X107000Y192000D02*
D03*
X113500Y193000D02*
D03*
X122500Y207000D02*
D03*
X142500Y194500D02*
D03*
X159500Y219000D02*
D03*
X183500Y204000D02*
D03*
X174500Y185500D02*
D03*
X190217Y155283D02*
D03*
X190000Y144500D02*
D03*
X175347Y151347D02*
D03*
X166779Y151279D02*
D03*
X143000Y136000D02*
D03*
X101500Y117500D02*
D03*
X73000Y159500D02*
D03*
X75000Y187000D02*
D03*
X86500Y199000D02*
D03*
X92000Y203000D02*
D03*
X81500Y206000D02*
D03*
X60500Y193500D02*
D03*
X120500Y243500D02*
D03*
X122000Y216000D02*
D03*
X138500Y216500D02*
D03*
Y238500D02*
D03*
X160500Y244000D02*
D03*
X170500Y260500D02*
D03*
X138500Y267500D02*
D03*
X121000Y271000D02*
D03*
X208500Y194000D02*
D03*
X222500Y186500D02*
D03*
X230500D02*
D03*
X225000Y171000D02*
D03*
X238500Y186500D02*
D03*
X246500D02*
D03*
X254500D02*
D03*
Y194500D02*
D03*
Y202500D02*
D03*
X246500D02*
D03*
Y194500D02*
D03*
Y210500D02*
D03*
X254500D02*
D03*
X238500D02*
D03*
Y202500D02*
D03*
Y194500D02*
D03*
X230500Y210500D02*
D03*
X222500D02*
D03*
Y202500D02*
D03*
X230500D02*
D03*
Y194500D02*
D03*
X222500D02*
D03*
X261000Y244500D02*
D03*
X250500Y250000D02*
D03*
X290500Y249000D02*
D03*
X211000Y134500D02*
D03*
X194000Y115000D02*
D03*
X287827Y24327D02*
D03*
D65*
X9843Y9843D02*
D03*
X290158D02*
D03*
Y290158D02*
D03*
D66*
X246256Y238000D02*
D03*
D67*
X237000Y238000D02*
D03*
M02*
