%FSLAX25Y25*%
%MOIN*%
G70*
G01*
G75*
G04 Layer_Color=8388736*
%ADD10R,0.23622X0.23622*%
%ADD11R,0.06693X0.04331*%
%ADD12O,0.00984X0.06102*%
%ADD13O,0.06102X0.00984*%
%ADD14R,0.07087X0.07480*%
%ADD15R,0.00945X0.05315*%
%ADD16R,0.08268X0.06299*%
%ADD17R,0.05512X0.04331*%
%ADD18R,0.04331X0.05512*%
%ADD19R,0.04331X0.06693*%
%ADD20R,0.03937X0.11417*%
%ADD21R,0.40945X0.31496*%
%ADD22R,0.03543X0.02756*%
%ADD23R,0.02756X0.03543*%
%ADD24R,0.02362X0.03347*%
%ADD25R,0.05906X0.05906*%
%ADD26R,0.14370X0.05709*%
%ADD27R,0.13189X0.05315*%
%ADD28O,0.02756X0.09055*%
%ADD29R,0.00984X0.04429*%
%ADD30R,0.04429X0.00984*%
%ADD31C,0.06000*%
%ADD32C,0.04000*%
%ADD33C,0.01000*%
%ADD34C,0.00800*%
%ADD35C,0.10000*%
%ADD36C,0.03000*%
%ADD37C,0.00700*%
%ADD38C,0.05000*%
%ADD39C,0.02500*%
%ADD40C,0.02000*%
%ADD41R,0.03937X0.03937*%
%ADD42C,0.03937*%
%ADD43R,0.06693X0.06693*%
%ADD44C,0.06693*%
%ADD45C,0.05118*%
%ADD46C,0.05906*%
%ADD47R,0.06299X0.06299*%
%ADD48C,0.06299*%
%ADD49C,0.10600*%
%ADD50R,0.10600X0.10600*%
%ADD51R,0.05118X0.05118*%
%ADD52C,0.05118*%
%ADD53R,0.08600X0.08600*%
%ADD54C,0.08600*%
%ADD55C,0.07200*%
%ADD56R,0.10600X0.10600*%
%ADD57R,0.03976X0.03976*%
%ADD58C,0.03976*%
%ADD59C,0.05500*%
%ADD60R,0.05500X0.05500*%
%ADD61R,0.05500X0.05500*%
%ADD62C,0.05000*%
%ADD63C,0.12992*%
%ADD64R,0.03000X0.05000*%
%ADD65R,0.10512X0.10000*%
%ADD66C,0.00984*%
%ADD67C,0.02362*%
%ADD68C,0.00787*%
%ADD69C,0.00394*%
%ADD70C,0.00591*%
%ADD71R,0.24422X0.24422*%
%ADD72R,0.07493X0.05131*%
%ADD73O,0.01784X0.06902*%
%ADD74O,0.06902X0.01784*%
%ADD75R,0.07887X0.08280*%
%ADD76R,0.01745X0.06115*%
%ADD77R,0.09068X0.07099*%
%ADD78R,0.06312X0.05131*%
%ADD79R,0.05131X0.06312*%
%ADD80R,0.05131X0.07493*%
%ADD81R,0.04737X0.12217*%
%ADD82R,0.41745X0.32296*%
%ADD83R,0.04343X0.03556*%
%ADD84R,0.03556X0.04343*%
%ADD85R,0.03162X0.04147*%
%ADD86R,0.06706X0.06706*%
%ADD87R,0.15170X0.06509*%
%ADD88R,0.13989X0.06115*%
%ADD89O,0.03556X0.09855*%
%ADD90R,0.01784X0.05229*%
%ADD91R,0.05229X0.01784*%
%ADD92R,0.04737X0.04737*%
%ADD93C,0.04737*%
%ADD94R,0.07493X0.07493*%
%ADD95C,0.07493*%
%ADD96C,0.05918*%
%ADD97C,0.06706*%
%ADD98R,0.07099X0.07099*%
%ADD99C,0.07099*%
%ADD100C,0.11400*%
%ADD101R,0.11400X0.11400*%
%ADD102R,0.05918X0.05918*%
%ADD103C,0.05918*%
%ADD104R,0.09400X0.09400*%
%ADD105C,0.09400*%
%ADD106C,0.08000*%
%ADD107R,0.11400X0.11400*%
%ADD108R,0.04776X0.04776*%
%ADD109C,0.04776*%
%ADD110C,0.06300*%
%ADD111R,0.06300X0.06300*%
%ADD112R,0.06300X0.06300*%
%ADD113C,0.05800*%
%ADD114C,0.13792*%
D71*
X166035Y17000D02*
D03*
X232965D02*
D03*
D72*
X30000Y101685D02*
D03*
Y112315D02*
D03*
X73500Y169185D02*
D03*
Y179815D02*
D03*
X276000Y98685D02*
D03*
Y109315D02*
D03*
X277500Y132185D02*
D03*
Y142815D02*
D03*
X275500Y164685D02*
D03*
Y175315D02*
D03*
D73*
X172685Y143374D02*
D03*
X174653D02*
D03*
X176622D02*
D03*
X170717D02*
D03*
X168748D02*
D03*
X166779D02*
D03*
X164811D02*
D03*
X162843D02*
D03*
X160874D02*
D03*
X158905D02*
D03*
X156937D02*
D03*
X154969D02*
D03*
X153000D02*
D03*
X151031D02*
D03*
X149063D02*
D03*
X147095D02*
D03*
X145126D02*
D03*
X143157D02*
D03*
X141189D02*
D03*
X139220D02*
D03*
X137252D02*
D03*
X135284D02*
D03*
X133315D02*
D03*
X131346D02*
D03*
X129378D02*
D03*
X172685Y202626D02*
D03*
X174653D02*
D03*
X176622D02*
D03*
X170717D02*
D03*
X168748D02*
D03*
X166779D02*
D03*
X164811D02*
D03*
X162843D02*
D03*
X160874D02*
D03*
X158905D02*
D03*
X156937D02*
D03*
X154969D02*
D03*
X153000D02*
D03*
X151031D02*
D03*
X149063D02*
D03*
X147095D02*
D03*
X145126D02*
D03*
X143157D02*
D03*
X141189D02*
D03*
X139220D02*
D03*
X137252D02*
D03*
X135284D02*
D03*
X133315D02*
D03*
X131346D02*
D03*
X129378D02*
D03*
D74*
X182626Y149378D02*
D03*
Y151347D02*
D03*
Y153315D02*
D03*
Y155283D02*
D03*
Y157252D02*
D03*
Y159221D02*
D03*
Y161189D02*
D03*
Y163157D02*
D03*
Y165126D02*
D03*
Y167095D02*
D03*
Y169063D02*
D03*
Y171031D02*
D03*
Y173000D02*
D03*
Y174969D02*
D03*
Y176937D02*
D03*
Y178905D02*
D03*
Y180874D02*
D03*
Y182843D02*
D03*
Y184811D02*
D03*
Y186779D02*
D03*
Y188748D02*
D03*
Y190717D02*
D03*
Y192685D02*
D03*
Y194653D02*
D03*
Y196622D02*
D03*
X123374D02*
D03*
Y194653D02*
D03*
Y192685D02*
D03*
Y190717D02*
D03*
Y188748D02*
D03*
Y186779D02*
D03*
Y184811D02*
D03*
Y182843D02*
D03*
Y180874D02*
D03*
Y178905D02*
D03*
Y176937D02*
D03*
Y174969D02*
D03*
Y173000D02*
D03*
Y171031D02*
D03*
Y169063D02*
D03*
Y167095D02*
D03*
Y165126D02*
D03*
Y163157D02*
D03*
Y161189D02*
D03*
Y159221D02*
D03*
Y157252D02*
D03*
Y155283D02*
D03*
Y153315D02*
D03*
Y151347D02*
D03*
Y149378D02*
D03*
D75*
X158020Y289764D02*
D03*
X122980D02*
D03*
D76*
X135382Y280315D02*
D03*
X137941D02*
D03*
X140500D02*
D03*
X143059D02*
D03*
X145618D02*
D03*
D77*
X152705Y280807D02*
D03*
X128295D02*
D03*
D78*
X67000Y90547D02*
D03*
Y96453D02*
D03*
X44000Y106547D02*
D03*
Y112453D02*
D03*
X9500Y122953D02*
D03*
Y117047D02*
D03*
X115500Y141547D02*
D03*
Y147453D02*
D03*
X197000Y146547D02*
D03*
Y152453D02*
D03*
X251500Y64453D02*
D03*
Y58547D02*
D03*
D79*
X125906Y87732D02*
D03*
X120000D02*
D03*
X128047Y133000D02*
D03*
X133953D02*
D03*
X102953Y163500D02*
D03*
X97047D02*
D03*
X86953Y163000D02*
D03*
X81047D02*
D03*
X182047Y115000D02*
D03*
X187953D02*
D03*
X185047Y135500D02*
D03*
X190953D02*
D03*
D80*
X114815Y207000D02*
D03*
X104185D02*
D03*
D81*
X245193Y234925D02*
D03*
X251886D02*
D03*
X238500D02*
D03*
X231807D02*
D03*
X225114D02*
D03*
D82*
X238500Y198114D02*
D03*
D83*
X97500Y104547D02*
D03*
X105000D02*
D03*
Y110453D02*
D03*
X97500D02*
D03*
X25000Y197547D02*
D03*
Y203453D02*
D03*
X9500Y137453D02*
D03*
Y131547D02*
D03*
X133500Y244547D02*
D03*
Y250453D02*
D03*
X144500D02*
D03*
Y244547D02*
D03*
X281000Y270047D02*
D03*
Y275953D02*
D03*
X243500Y64453D02*
D03*
Y58547D02*
D03*
X236500Y58547D02*
D03*
Y64453D02*
D03*
X243500Y51953D02*
D03*
Y46047D02*
D03*
D84*
X158953Y130000D02*
D03*
X153047D02*
D03*
X111953Y155000D02*
D03*
X106047D02*
D03*
X95547Y131232D02*
D03*
X101453D02*
D03*
X213047Y168500D02*
D03*
Y173500D02*
D03*
X218953D02*
D03*
Y168500D02*
D03*
X163453Y267500D02*
D03*
X157547D02*
D03*
X273047Y16000D02*
D03*
X278953D02*
D03*
X278953Y9500D02*
D03*
X273047D02*
D03*
D85*
X86500Y104768D02*
D03*
X90240Y113232D02*
D03*
X82760D02*
D03*
X66740D02*
D03*
X63000Y104768D02*
D03*
X59260Y113232D02*
D03*
D86*
X114953Y109343D02*
D03*
Y123122D02*
D03*
X193000Y163110D02*
D03*
X204500D02*
D03*
Y176890D02*
D03*
X193000D02*
D03*
X291500Y262610D02*
D03*
Y276390D02*
D03*
X170500Y292390D02*
D03*
Y278610D02*
D03*
X7500Y159500D02*
D03*
X263500Y6110D02*
D03*
Y19890D02*
D03*
D87*
X51787Y168500D02*
D03*
X25213D02*
D03*
D88*
X80638Y131732D02*
D03*
X59673D02*
D03*
X266862Y42000D02*
D03*
X287827D02*
D03*
X292827Y240000D02*
D03*
X271862D02*
D03*
D89*
X38000Y123461D02*
D03*
X33000D02*
D03*
X28000D02*
D03*
X23000D02*
D03*
X38000Y143539D02*
D03*
X33000D02*
D03*
X28000D02*
D03*
X23000D02*
D03*
D90*
X98421Y173634D02*
D03*
X100390D02*
D03*
Y190366D02*
D03*
X98421D02*
D03*
X96453D02*
D03*
X94484D02*
D03*
X92516D02*
D03*
X90547D02*
D03*
X88579D02*
D03*
X86610D02*
D03*
Y173634D02*
D03*
X88579D02*
D03*
X90547D02*
D03*
X92516D02*
D03*
X94484D02*
D03*
X96453D02*
D03*
D91*
X104032Y177079D02*
D03*
Y179047D02*
D03*
Y181016D02*
D03*
Y182984D02*
D03*
Y184953D02*
D03*
Y186921D02*
D03*
X82968D02*
D03*
Y184953D02*
D03*
Y182984D02*
D03*
Y181016D02*
D03*
Y179047D02*
D03*
Y177079D02*
D03*
D92*
X7500Y202000D02*
D03*
X265500Y61500D02*
D03*
Y103315D02*
D03*
Y135815D02*
D03*
Y168815D02*
D03*
D93*
X7500Y177000D02*
D03*
Y182000D02*
D03*
Y187000D02*
D03*
Y192000D02*
D03*
Y197000D02*
D03*
X265500Y66500D02*
D03*
Y71500D02*
D03*
Y76500D02*
D03*
Y88315D02*
D03*
Y93315D02*
D03*
Y98315D02*
D03*
Y120815D02*
D03*
Y125815D02*
D03*
Y130815D02*
D03*
Y153815D02*
D03*
Y158815D02*
D03*
Y163815D02*
D03*
D94*
X34500Y80000D02*
D03*
X8000Y99000D02*
D03*
D95*
X34500Y60000D02*
D03*
X8000Y79000D02*
D03*
D96*
X140157Y116500D02*
D03*
X159843D02*
D03*
D97*
X7500Y149500D02*
D03*
D98*
X103260Y93000D02*
D03*
D99*
X93260Y93000D02*
D03*
X83260D02*
D03*
D100*
X10000Y32689D02*
D03*
X187496Y52500D02*
D03*
X206000D02*
D03*
X224504D02*
D03*
X185689Y291500D02*
D03*
D101*
X10000Y56311D02*
D03*
D102*
X187500Y256264D02*
D03*
D103*
X187500Y226736D02*
D03*
D104*
X254343Y272500D02*
D03*
D105*
X44500Y15079D02*
D03*
X62217Y26890D02*
D03*
X44500Y38701D02*
D03*
X234658Y272500D02*
D03*
D106*
X93815Y40264D02*
D03*
X113500Y7587D02*
D03*
X131217Y21366D02*
D03*
D107*
X209311Y291500D02*
D03*
D108*
X151000Y94500D02*
D03*
X171000Y72000D02*
D03*
D109*
X151000Y72000D02*
D03*
X161000D02*
D03*
Y94500D02*
D03*
X171000D02*
D03*
D110*
X184535Y77720D02*
D03*
X201465D02*
D03*
X220941Y82000D02*
D03*
X248500D02*
D03*
Y98929D02*
D03*
X248280Y110535D02*
D03*
Y127465D02*
D03*
Y139035D02*
D03*
Y155965D02*
D03*
X220721Y139035D02*
D03*
Y110535D02*
D03*
X184535Y105280D02*
D03*
D111*
X201465Y105280D02*
D03*
D112*
X220941Y98929D02*
D03*
X220721Y127465D02*
D03*
Y155965D02*
D03*
D113*
X53500Y94000D02*
D03*
X51953Y114500D02*
D03*
X89500Y145500D02*
D03*
X100500Y156500D02*
D03*
X112000Y163500D02*
D03*
X112031Y174969D02*
D03*
X108000Y170000D02*
D03*
X96500Y183000D02*
D03*
X90500Y182000D02*
D03*
X107000Y192000D02*
D03*
X113500Y193000D02*
D03*
X122500Y207000D02*
D03*
X142500Y194500D02*
D03*
X159500Y219000D02*
D03*
X160500Y244000D02*
D03*
X170500Y260500D02*
D03*
X138500Y267500D02*
D03*
X121000Y271000D02*
D03*
X120500Y243500D02*
D03*
X122000Y216000D02*
D03*
X138500Y216500D02*
D03*
Y238500D02*
D03*
X174500Y185500D02*
D03*
X190217Y155283D02*
D03*
X190000Y144500D02*
D03*
X175347Y151347D02*
D03*
X166779Y151279D02*
D03*
X143000Y136000D02*
D03*
X101500Y117500D02*
D03*
X73000Y159500D02*
D03*
X75000Y187000D02*
D03*
X86500Y199000D02*
D03*
X92000Y203000D02*
D03*
X81500Y204500D02*
D03*
X60500Y193500D02*
D03*
X52000Y159500D02*
D03*
X23000Y133500D02*
D03*
X194000Y115000D02*
D03*
X211000Y134500D02*
D03*
X225000Y171000D02*
D03*
X238500Y186500D02*
D03*
X246500D02*
D03*
X254500D02*
D03*
Y194500D02*
D03*
X246500D02*
D03*
Y202500D02*
D03*
X254500D02*
D03*
Y210500D02*
D03*
X246500D02*
D03*
X238500D02*
D03*
Y202500D02*
D03*
Y194500D02*
D03*
X230500Y210500D02*
D03*
X222500D02*
D03*
Y202500D02*
D03*
X230500D02*
D03*
Y194500D02*
D03*
X222500D02*
D03*
Y186500D02*
D03*
X230500D02*
D03*
X290500Y249000D02*
D03*
X261000Y244500D02*
D03*
X250500Y250000D02*
D03*
X287827Y24327D02*
D03*
D114*
X9843Y9843D02*
D03*
X290158D02*
D03*
Y290158D02*
D03*
M02*
