%FSLAX25Y25*%
%MOIN*%
G70*
G01*
G75*
G04 Layer_Physical_Order=2*
G04 Layer_Color=16711680*
%ADD10R,0.06693X0.04331*%
%ADD11R,0.04331X0.06693*%
%ADD12R,0.02362X0.04528*%
%ADD13R,0.23622X0.23622*%
%ADD14O,0.00984X0.06102*%
%ADD15O,0.06102X0.00984*%
%ADD16R,0.07087X0.07480*%
%ADD17R,0.00945X0.05315*%
%ADD18R,0.08268X0.06299*%
%ADD19R,0.05512X0.04331*%
%ADD20R,0.04331X0.05512*%
%ADD21R,0.03937X0.11417*%
%ADD22R,0.40945X0.31496*%
%ADD23R,0.03543X0.02756*%
%ADD24R,0.02756X0.03543*%
%ADD25R,0.05906X0.05906*%
%ADD26R,0.14370X0.05709*%
%ADD27R,0.13189X0.05315*%
%ADD28O,0.02756X0.09055*%
%ADD29R,0.00984X0.04429*%
%ADD30R,0.04429X0.00984*%
%ADD31C,0.00700*%
%ADD32C,0.02500*%
%ADD33C,0.00800*%
%ADD34C,0.03000*%
%ADD35C,0.05000*%
%ADD36C,0.13000*%
%ADD37C,0.01000*%
%ADD38C,0.10000*%
%ADD39C,0.06000*%
%ADD40C,0.02000*%
%ADD41C,0.04000*%
%ADD42R,0.03000X0.35500*%
%ADD43R,0.48500X0.03000*%
%ADD44C,0.04724*%
%ADD45R,0.04724X0.04724*%
%ADD46C,0.05906*%
%ADD47C,0.12600*%
%ADD48C,0.05118*%
%ADD49R,0.06299X0.06299*%
%ADD50C,0.06299*%
%ADD51C,0.10600*%
%ADD52R,0.10600X0.10600*%
%ADD53R,0.08600X0.08600*%
%ADD54C,0.08600*%
%ADD55C,0.07200*%
%ADD56R,0.10600X0.10600*%
%ADD57R,0.03976X0.03976*%
%ADD58C,0.03976*%
%ADD59C,0.05500*%
%ADD60R,0.05500X0.05500*%
%ADD61R,0.05500X0.05500*%
%ADD62C,0.05118*%
%ADD63R,0.05118X0.05118*%
%ADD64C,0.06693*%
%ADD65R,0.06693X0.06693*%
%ADD66C,0.05000*%
%ADD67C,0.12992*%
%ADD68R,0.03000X0.05000*%
%ADD69R,0.10512X0.10000*%
G36*
X300000Y0D02*
X0D01*
Y212500D01*
X115828D01*
X116019Y212038D01*
X112109Y208127D01*
X84279D01*
X83996Y208496D01*
X83265Y209057D01*
X82414Y209410D01*
X81500Y209530D01*
X80586Y209410D01*
X79735Y209057D01*
X79004Y208496D01*
X78443Y207765D01*
X78090Y206914D01*
X77970Y206000D01*
X78090Y205086D01*
X78443Y204235D01*
X79004Y203504D01*
X79735Y202943D01*
X80586Y202590D01*
X81500Y202470D01*
X82414Y202590D01*
X83265Y202943D01*
X83996Y203504D01*
X84557Y204235D01*
X84910Y205086D01*
X84934Y205273D01*
X88767D01*
X88988Y204824D01*
X88943Y204765D01*
X88590Y203914D01*
X88470Y203000D01*
X88546Y202423D01*
X88517Y202385D01*
X88151Y202104D01*
X87414Y202410D01*
X86500Y202530D01*
X85586Y202410D01*
X84735Y202057D01*
X84004Y201496D01*
X83443Y200765D01*
X83090Y199914D01*
X82970Y199000D01*
X83090Y198086D01*
X83443Y197235D01*
X84004Y196504D01*
X84735Y195943D01*
X85586Y195590D01*
X86500Y195470D01*
X87414Y195590D01*
X88265Y195943D01*
X88996Y196504D01*
X89557Y197235D01*
X89655Y197471D01*
X99366D01*
X103688Y193149D01*
X103590Y192914D01*
X103470Y192000D01*
X103590Y191086D01*
X103943Y190235D01*
X104504Y189504D01*
X105235Y188943D01*
X106086Y188590D01*
X107000Y188470D01*
X107914Y188590D01*
X108765Y188943D01*
X109496Y189504D01*
X110057Y190235D01*
X110270Y190749D01*
X110766Y190814D01*
X111004Y190504D01*
X111735Y189943D01*
X112586Y189590D01*
X113500Y189470D01*
X114414Y189590D01*
X115265Y189943D01*
X115996Y190504D01*
X116557Y191235D01*
X116910Y192086D01*
X117030Y193000D01*
X116910Y193914D01*
X116557Y194765D01*
X115996Y195496D01*
X115265Y196057D01*
X114414Y196410D01*
X113500Y196530D01*
X112586Y196410D01*
X112351Y196312D01*
X111781Y196881D01*
X111285Y197213D01*
X110700Y197329D01*
X108834D01*
X103581Y202581D01*
X103085Y202913D01*
X102500Y203029D01*
X95526D01*
X95410Y203914D01*
X95057Y204765D01*
X95012Y204824D01*
X95233Y205273D01*
X112700D01*
X112700Y205273D01*
X113246Y205381D01*
X113709Y205691D01*
X120749Y212730D01*
X121086Y212590D01*
X122000Y212470D01*
X122914Y212590D01*
X123765Y212943D01*
X124496Y213504D01*
X125057Y214235D01*
X125410Y215086D01*
X125530Y216000D01*
X125410Y216914D01*
X125057Y217765D01*
X124496Y218496D01*
X123765Y219057D01*
X122914Y219410D01*
X122000Y219530D01*
X121086Y219410D01*
X120235Y219057D01*
X119504Y218496D01*
X118943Y217765D01*
X118590Y216914D01*
X118470Y216000D01*
X118590Y215086D01*
X118730Y214749D01*
X116962Y212981D01*
X116500Y213172D01*
Y300000D01*
X300000D01*
Y0D01*
D02*
G37*
%LPC*%
G36*
X150500Y94000D02*
X148012D01*
Y91512D01*
X150500D01*
Y94000D01*
D02*
G37*
G36*
X153988D02*
X151500D01*
Y91512D01*
X153988D01*
Y94000D01*
D02*
G37*
G36*
X161000Y97514D02*
X160220Y97411D01*
X159493Y97110D01*
X158869Y96631D01*
X158390Y96007D01*
X158089Y95280D01*
X157986Y94500D01*
X158089Y93720D01*
X158390Y92993D01*
X158869Y92369D01*
X159493Y91890D01*
X160220Y91589D01*
X161000Y91486D01*
X161780Y91589D01*
X162507Y91890D01*
X163131Y92369D01*
X163610Y92993D01*
X163911Y93720D01*
X164014Y94500D01*
X163911Y95280D01*
X163610Y96007D01*
X163131Y96631D01*
X162507Y97110D01*
X161780Y97411D01*
X161000Y97514D01*
D02*
G37*
G36*
X171000D02*
X170220Y97411D01*
X169493Y97110D01*
X168869Y96631D01*
X168390Y96007D01*
X168089Y95280D01*
X167986Y94500D01*
X168089Y93720D01*
X168390Y92993D01*
X168869Y92369D01*
X169493Y91890D01*
X170220Y91589D01*
X171000Y91486D01*
X171780Y91589D01*
X172507Y91890D01*
X173131Y92369D01*
X173610Y92993D01*
X173911Y93720D01*
X174014Y94500D01*
X173911Y95280D01*
X173610Y96007D01*
X173131Y96631D01*
X172507Y97110D01*
X171780Y97411D01*
X171000Y97514D01*
D02*
G37*
G36*
X12347Y103347D02*
X3653D01*
Y94653D01*
X12347D01*
Y103347D01*
D02*
G37*
G36*
X224691Y102679D02*
X217191D01*
Y95179D01*
X224691D01*
Y102679D01*
D02*
G37*
G36*
X248000Y98429D02*
X244783D01*
X244847Y97950D01*
X245224Y97038D01*
X245826Y96255D01*
X246609Y95653D01*
X247521Y95276D01*
X248000Y95213D01*
Y98429D01*
D02*
G37*
G36*
X150500Y97488D02*
X148012D01*
Y95000D01*
X150500D01*
Y97488D01*
D02*
G37*
G36*
X153988D02*
X151500D01*
Y95000D01*
X153988D01*
Y97488D01*
D02*
G37*
G36*
X267000Y88487D02*
X265968Y88351D01*
X265007Y87953D01*
X264181Y87319D01*
X263547Y86493D01*
X263149Y85532D01*
X263013Y84500D01*
X263149Y83468D01*
X263547Y82507D01*
X264181Y81681D01*
X265007Y81047D01*
X265968Y80649D01*
X267000Y80513D01*
X268032Y80649D01*
X268993Y81047D01*
X269819Y81681D01*
X270453Y82507D01*
X270851Y83468D01*
X270987Y84500D01*
X270851Y85532D01*
X270453Y86493D01*
X269819Y87319D01*
X268993Y87953D01*
X268032Y88351D01*
X267000Y88487D01*
D02*
G37*
G36*
X248000Y85716D02*
X247521Y85654D01*
X246609Y85276D01*
X245826Y84675D01*
X245224Y83891D01*
X244847Y82979D01*
X244783Y82500D01*
X248000D01*
Y85716D01*
D02*
G37*
G36*
X252217Y81500D02*
X249000D01*
Y78284D01*
X249479Y78347D01*
X250391Y78724D01*
X251174Y79325D01*
X251776Y80109D01*
X252153Y81021D01*
X252217Y81500D01*
D02*
G37*
G36*
X201965Y81437D02*
Y78220D01*
X205181D01*
X205118Y78699D01*
X204740Y79612D01*
X204139Y80395D01*
X203356Y80996D01*
X202444Y81374D01*
X201965Y81437D01*
D02*
G37*
G36*
X248000Y81500D02*
X244783D01*
X244847Y81021D01*
X245224Y80109D01*
X245826Y79325D01*
X246609Y78724D01*
X247521Y78347D01*
X248000Y78284D01*
Y81500D01*
D02*
G37*
G36*
X107409Y97150D02*
X99110D01*
Y88850D01*
X107409D01*
Y97150D01*
D02*
G37*
G36*
X267000Y98487D02*
X265968Y98351D01*
X265007Y97953D01*
X264181Y97319D01*
X263547Y96493D01*
X263149Y95532D01*
X263013Y94500D01*
X263149Y93468D01*
X263547Y92507D01*
X264181Y91681D01*
X265007Y91047D01*
X265968Y90649D01*
X267000Y90513D01*
X268032Y90649D01*
X268993Y91047D01*
X269819Y91681D01*
X270453Y92507D01*
X270851Y93468D01*
X270987Y94500D01*
X270851Y95532D01*
X270453Y96493D01*
X269819Y97319D01*
X268993Y97953D01*
X268032Y98351D01*
X267000Y98487D01*
D02*
G37*
G36*
X93260Y97185D02*
X92177Y97043D01*
X91167Y96625D01*
X90300Y95960D01*
X89635Y95093D01*
X89217Y94083D01*
X89074Y93000D01*
X89217Y91917D01*
X89635Y90907D01*
X90300Y90040D01*
X91167Y89375D01*
X92177Y88957D01*
X93260Y88815D01*
X94343Y88957D01*
X95353Y89375D01*
X96219Y90040D01*
X96885Y90907D01*
X97303Y91917D01*
X97445Y93000D01*
X97303Y94083D01*
X96885Y95093D01*
X96219Y95960D01*
X95353Y96625D01*
X94343Y97043D01*
X93260Y97185D01*
D02*
G37*
G36*
X249000Y85716D02*
Y82500D01*
X252217D01*
X252153Y82979D01*
X251776Y83891D01*
X251174Y84675D01*
X250391Y85276D01*
X249479Y85654D01*
X249000Y85716D01*
D02*
G37*
G36*
X83260Y97185D02*
X82177Y97043D01*
X81167Y96625D01*
X80300Y95960D01*
X79635Y95093D01*
X79217Y94083D01*
X79074Y93000D01*
X79217Y91917D01*
X79635Y90907D01*
X80300Y90040D01*
X81167Y89375D01*
X82177Y88957D01*
X83260Y88815D01*
X84343Y88957D01*
X85352Y89375D01*
X86219Y90040D01*
X86884Y90907D01*
X87303Y91917D01*
X87445Y93000D01*
X87303Y94083D01*
X86884Y95093D01*
X86219Y95960D01*
X85352Y96625D01*
X84343Y97043D01*
X83260Y97185D01*
D02*
G37*
G36*
X282500Y116622D02*
X279638D01*
Y113760D01*
X282500D01*
Y116622D01*
D02*
G37*
G36*
X286362D02*
X283500D01*
Y113760D01*
X286362D01*
Y116622D01*
D02*
G37*
G36*
X133756Y121953D02*
X126244D01*
Y119287D01*
Y113382D01*
X133756D01*
Y115073D01*
X136897D01*
X137049Y114705D01*
X137619Y113962D01*
X138363Y113391D01*
X139228Y113033D01*
X140157Y112910D01*
X141087Y113033D01*
X141952Y113391D01*
X142696Y113962D01*
X143266Y114705D01*
X143625Y115571D01*
X143747Y116500D01*
X143625Y117429D01*
X143266Y118295D01*
X142696Y119038D01*
X141952Y119609D01*
X141087Y119967D01*
X140157Y120090D01*
X139228Y119967D01*
X138363Y119609D01*
X137619Y119038D01*
X137049Y118295D01*
X136897Y117927D01*
X133756D01*
Y119287D01*
Y121953D01*
D02*
G37*
G36*
X247779Y114252D02*
X247301Y114189D01*
X246388Y113811D01*
X245605Y113210D01*
X245004Y112427D01*
X244626Y111514D01*
X244563Y111035D01*
X247779D01*
Y114252D01*
D02*
G37*
G36*
X248780D02*
Y111035D01*
X251996D01*
X251933Y111514D01*
X251555Y112427D01*
X250954Y113210D01*
X250171Y113811D01*
X249258Y114189D01*
X248780Y114252D01*
D02*
G37*
G36*
X282500Y120484D02*
X279638D01*
Y117622D01*
X282500D01*
Y120484D01*
D02*
G37*
G36*
X286362D02*
X283500D01*
Y117622D01*
X286362D01*
Y120484D01*
D02*
G37*
G36*
X11921Y119500D02*
X8500D01*
Y116079D01*
X9032Y116149D01*
X9993Y116547D01*
X10819Y117181D01*
X11453Y118007D01*
X11851Y118968D01*
X11921Y119500D01*
D02*
G37*
G36*
X89500Y149030D02*
X88586Y148910D01*
X87735Y148557D01*
X87004Y147996D01*
X86443Y147265D01*
X86090Y146414D01*
X85970Y145500D01*
X86090Y144586D01*
X86443Y143735D01*
X87004Y143004D01*
X87735Y142443D01*
X88073Y142303D01*
Y129500D01*
X88073Y129500D01*
X88181Y128954D01*
X88491Y128491D01*
X98230Y118751D01*
X98090Y118414D01*
X97970Y117500D01*
X98090Y116586D01*
X98443Y115735D01*
X99004Y115004D01*
X99735Y114443D01*
X100586Y114090D01*
X101500Y113970D01*
X102414Y114090D01*
X103265Y114443D01*
X103996Y115004D01*
X104557Y115735D01*
X104910Y116586D01*
X105030Y117500D01*
X104910Y118414D01*
X104557Y119265D01*
X103996Y119996D01*
X103265Y120557D01*
X102414Y120910D01*
X101500Y121030D01*
X100586Y120910D01*
X100249Y120770D01*
X90927Y130091D01*
Y142303D01*
X91265Y142443D01*
X91996Y143004D01*
X92557Y143735D01*
X92910Y144586D01*
X93030Y145500D01*
X92910Y146414D01*
X92557Y147265D01*
X91996Y147996D01*
X91265Y148557D01*
X90414Y148910D01*
X89500Y149030D01*
D02*
G37*
G36*
X7500Y119500D02*
X4079D01*
X4149Y118968D01*
X4547Y118007D01*
X5181Y117181D01*
X6007Y116547D01*
X6968Y116149D01*
X7500Y116079D01*
Y119500D01*
D02*
G37*
G36*
X249000Y102646D02*
Y99429D01*
X252217D01*
X252153Y99908D01*
X251776Y100820D01*
X251174Y101604D01*
X250391Y102205D01*
X249479Y102583D01*
X249000Y102646D01*
D02*
G37*
G36*
X184535Y109062D02*
X183556Y108933D01*
X182644Y108555D01*
X181861Y107954D01*
X181260Y107171D01*
X180882Y106258D01*
X180753Y105280D01*
X180882Y104301D01*
X181260Y103388D01*
X181861Y102605D01*
X182644Y102004D01*
X183556Y101626D01*
X184535Y101497D01*
X185514Y101626D01*
X186427Y102004D01*
X187210Y102605D01*
X187811Y103388D01*
X188189Y104301D01*
X188318Y105280D01*
X188189Y106258D01*
X187811Y107171D01*
X187210Y107954D01*
X186427Y108555D01*
X185514Y108933D01*
X184535Y109062D01*
D02*
G37*
G36*
X248000Y102646D02*
X247521Y102583D01*
X246609Y102205D01*
X245826Y101604D01*
X245224Y100820D01*
X244847Y99908D01*
X244783Y99429D01*
X248000D01*
Y102646D01*
D02*
G37*
G36*
X252217Y98429D02*
X249000D01*
Y95213D01*
X249479Y95276D01*
X250391Y95653D01*
X251174Y96255D01*
X251776Y97038D01*
X252153Y97950D01*
X252217Y98429D01*
D02*
G37*
G36*
X283000Y104765D02*
X282122Y104650D01*
X281304Y104311D01*
X280602Y103772D01*
X280063Y103070D01*
X279724Y102252D01*
X279609Y101374D01*
X279724Y100496D01*
X280063Y99678D01*
X280602Y98976D01*
X281304Y98437D01*
X282122Y98098D01*
X283000Y97983D01*
X283878Y98098D01*
X284696Y98437D01*
X285398Y98976D01*
X285937Y99678D01*
X286276Y100496D01*
X286391Y101374D01*
X286276Y102252D01*
X285937Y103070D01*
X285398Y103772D01*
X284696Y104311D01*
X283878Y104650D01*
X283000Y104765D01*
D02*
G37*
G36*
X247779Y110035D02*
X244563D01*
X244626Y109556D01*
X245004Y108644D01*
X245605Y107861D01*
X246388Y107260D01*
X247301Y106882D01*
X247779Y106819D01*
Y110035D01*
D02*
G37*
G36*
X251996D02*
X248780D01*
Y106819D01*
X249258Y106882D01*
X250171Y107260D01*
X250954Y107861D01*
X251555Y108644D01*
X251933Y109556D01*
X251996Y110035D01*
D02*
G37*
G36*
X220721Y114318D02*
X219742Y114189D01*
X218829Y113811D01*
X218046Y113210D01*
X217445Y112427D01*
X217067Y111514D01*
X216938Y110535D01*
X217067Y109556D01*
X217445Y108644D01*
X218046Y107861D01*
X218829Y107260D01*
X219742Y106882D01*
X220721Y106753D01*
X221699Y106882D01*
X222612Y107260D01*
X223395Y107861D01*
X223996Y108644D01*
X224374Y109556D01*
X224503Y110535D01*
X224374Y111514D01*
X223996Y112427D01*
X223395Y113210D01*
X222612Y113811D01*
X221699Y114189D01*
X220721Y114318D01*
D02*
G37*
G36*
X205215Y109029D02*
X197715D01*
Y101530D01*
X205215D01*
Y109029D01*
D02*
G37*
G36*
X283000Y112639D02*
X282122Y112524D01*
X281304Y112185D01*
X280602Y111646D01*
X280063Y110944D01*
X279724Y110126D01*
X279609Y109248D01*
X279724Y108370D01*
X280063Y107552D01*
X280602Y106850D01*
X281304Y106311D01*
X282122Y105972D01*
X283000Y105857D01*
X283878Y105972D01*
X284696Y106311D01*
X285398Y106850D01*
X285937Y107552D01*
X286276Y108370D01*
X286391Y109248D01*
X286276Y110126D01*
X285937Y110944D01*
X285398Y111646D01*
X284696Y112185D01*
X283878Y112524D01*
X283000Y112639D01*
D02*
G37*
G36*
X200965Y81437D02*
X200486Y81374D01*
X199573Y80996D01*
X198790Y80395D01*
X198189Y79612D01*
X197811Y78699D01*
X197748Y78220D01*
X200965D01*
Y81437D01*
D02*
G37*
G36*
X16281Y32189D02*
X10500D01*
Y26408D01*
X11235Y26480D01*
X12423Y26840D01*
X13517Y27425D01*
X14476Y28213D01*
X15264Y29172D01*
X15849Y30266D01*
X16209Y31454D01*
X16281Y32189D01*
D02*
G37*
G36*
X93815Y44903D02*
X92614Y44745D01*
X91495Y44282D01*
X90534Y43545D01*
X89797Y42584D01*
X89333Y41465D01*
X89175Y40264D01*
X89333Y39063D01*
X89797Y37944D01*
X90534Y36983D01*
X91495Y36246D01*
X92614Y35782D01*
X93815Y35624D01*
X95016Y35782D01*
X96135Y36246D01*
X97096Y36983D01*
X97649Y37704D01*
X98148Y37737D01*
X103169Y32715D01*
Y29728D01*
X107925D01*
Y35272D01*
X104938D01*
X98865Y41345D01*
X98369Y41677D01*
X98194Y41712D01*
X97833Y42584D01*
X97096Y43545D01*
X96135Y44282D01*
X95016Y44745D01*
X93815Y44903D01*
D02*
G37*
G36*
X62217Y32236D02*
X60833Y32053D01*
X59544Y31519D01*
X58437Y30670D01*
X57587Y29563D01*
X57053Y28273D01*
X56871Y26890D01*
X57053Y25506D01*
X57587Y24217D01*
X58437Y23110D01*
X59544Y22260D01*
X60833Y21726D01*
X62217Y21544D01*
X63600Y21726D01*
X64889Y22260D01*
X65996Y23110D01*
X66846Y24217D01*
X67380Y25506D01*
X67562Y26890D01*
X67380Y28273D01*
X66846Y29563D01*
X65996Y30670D01*
X64889Y31519D01*
X63600Y32053D01*
X62217Y32236D01*
D02*
G37*
G36*
X9500Y32189D02*
X3719D01*
X3791Y31454D01*
X4151Y30266D01*
X4736Y29172D01*
X5524Y28213D01*
X6483Y27425D01*
X7577Y26840D01*
X8765Y26480D01*
X9500Y26408D01*
Y32189D01*
D02*
G37*
G36*
Y38970D02*
X8765Y38898D01*
X7577Y38538D01*
X6483Y37953D01*
X5524Y37165D01*
X4736Y36206D01*
X4151Y35111D01*
X3791Y33924D01*
X3719Y33189D01*
X9500D01*
Y38970D01*
D02*
G37*
G36*
X187496Y59835D02*
X186065Y59694D01*
X184689Y59277D01*
X183421Y58599D01*
X182309Y57687D01*
X181397Y56575D01*
X180719Y55307D01*
X180302Y53931D01*
X180161Y52500D01*
X180302Y51069D01*
X180719Y49693D01*
X181397Y48425D01*
X182309Y47313D01*
X183421Y46401D01*
X184689Y45723D01*
X186065Y45306D01*
X187496Y45165D01*
X188927Y45306D01*
X190303Y45723D01*
X191571Y46401D01*
X192683Y47313D01*
X193595Y48425D01*
X194273Y49693D01*
X194690Y51069D01*
X194831Y52500D01*
X194690Y53931D01*
X194273Y55307D01*
X193595Y56575D01*
X192683Y57687D01*
X191571Y58599D01*
X190303Y59277D01*
X188927Y59694D01*
X187496Y59835D01*
D02*
G37*
G36*
X206000D02*
X204569Y59694D01*
X203193Y59277D01*
X201925Y58599D01*
X200813Y57687D01*
X199901Y56575D01*
X199223Y55307D01*
X198806Y53931D01*
X198665Y52500D01*
X198806Y51069D01*
X199223Y49693D01*
X199901Y48425D01*
X200813Y47313D01*
X201925Y46401D01*
X203193Y45723D01*
X204569Y45306D01*
X206000Y45165D01*
X207431Y45306D01*
X208807Y45723D01*
X210075Y46401D01*
X211187Y47313D01*
X212099Y48425D01*
X212777Y49693D01*
X213194Y51069D01*
X213335Y52500D01*
X213194Y53931D01*
X212777Y55307D01*
X212099Y56575D01*
X211187Y57687D01*
X210075Y58599D01*
X208807Y59277D01*
X207431Y59694D01*
X206000Y59835D01*
D02*
G37*
G36*
X10500Y38970D02*
Y33189D01*
X16281D01*
X16209Y33924D01*
X15849Y35111D01*
X15264Y36206D01*
X14476Y37165D01*
X13517Y37953D01*
X12423Y38538D01*
X11235Y38898D01*
X10500Y38970D01*
D02*
G37*
G36*
X44500Y44047D02*
X43116Y43864D01*
X41827Y43330D01*
X40720Y42481D01*
X39871Y41374D01*
X39336Y40084D01*
X39154Y38701D01*
X39336Y37317D01*
X39871Y36028D01*
X40720Y34921D01*
X41827Y34071D01*
X43116Y33537D01*
X44500Y33355D01*
X45884Y33537D01*
X47173Y34071D01*
X48280Y34921D01*
X49130Y36028D01*
X49664Y37317D01*
X49846Y38701D01*
X49664Y40084D01*
X49130Y41374D01*
X48280Y42481D01*
X47173Y43330D01*
X45884Y43864D01*
X44500Y44047D01*
D02*
G37*
G36*
X45000Y20359D02*
Y15579D01*
X49780D01*
X49664Y16462D01*
X49130Y17752D01*
X48280Y18859D01*
X47173Y19708D01*
X45884Y20242D01*
X45000Y20359D01*
D02*
G37*
G36*
X113000Y7087D02*
X108926D01*
X109018Y6386D01*
X109482Y5267D01*
X110219Y4306D01*
X111180Y3568D01*
X112299Y3105D01*
X113000Y3013D01*
Y7087D01*
D02*
G37*
G36*
X118074D02*
X114000D01*
Y3013D01*
X114701Y3105D01*
X115820Y3568D01*
X116781Y4306D01*
X117518Y5267D01*
X117982Y6386D01*
X118074Y7087D01*
D02*
G37*
G36*
X9843Y17375D02*
X8373Y17230D01*
X6960Y16802D01*
X5658Y16105D01*
X4516Y15169D01*
X3580Y14027D01*
X2884Y12725D01*
X2455Y11312D01*
X2310Y9843D01*
X2455Y8373D01*
X2884Y6960D01*
X3580Y5658D01*
X4516Y4516D01*
X5658Y3580D01*
X6960Y2884D01*
X8373Y2455D01*
X9843Y2310D01*
X11312Y2455D01*
X12725Y2884D01*
X14027Y3580D01*
X15169Y4516D01*
X16105Y5658D01*
X16802Y6960D01*
X17230Y8373D01*
X17375Y9843D01*
X17230Y11312D01*
X16802Y12725D01*
X16105Y14027D01*
X15169Y15169D01*
X14027Y16105D01*
X12725Y16802D01*
X11312Y17230D01*
X9843Y17375D01*
D02*
G37*
G36*
X290158D02*
X288688Y17230D01*
X287275Y16802D01*
X285973Y16105D01*
X284831Y15169D01*
X283895Y14027D01*
X283198Y12725D01*
X282770Y11312D01*
X282625Y9843D01*
X282770Y8373D01*
X283198Y6960D01*
X283895Y5658D01*
X284831Y4516D01*
X285973Y3580D01*
X287275Y2884D01*
X288688Y2455D01*
X290158Y2310D01*
X291627Y2455D01*
X293040Y2884D01*
X294342Y3580D01*
X295484Y4516D01*
X296420Y5658D01*
X297116Y6960D01*
X297545Y8373D01*
X297690Y9843D01*
X297545Y11312D01*
X297116Y12725D01*
X296420Y14027D01*
X295484Y15169D01*
X294342Y16105D01*
X293040Y16802D01*
X291627Y17230D01*
X290158Y17375D01*
D02*
G37*
G36*
X113000Y12161D02*
X112299Y12068D01*
X111180Y11605D01*
X110219Y10867D01*
X109482Y9906D01*
X109018Y8787D01*
X108926Y8087D01*
X113000D01*
Y12161D01*
D02*
G37*
G36*
X49780Y14579D02*
X45000D01*
Y9799D01*
X45884Y9915D01*
X47173Y10449D01*
X48280Y11299D01*
X49130Y12406D01*
X49664Y13695D01*
X49780Y14579D01*
D02*
G37*
G36*
X44000Y20359D02*
X43116Y20242D01*
X41827Y19708D01*
X40720Y18859D01*
X39871Y17752D01*
X39336Y16462D01*
X39220Y15579D01*
X44000D01*
Y20359D01*
D02*
G37*
G36*
X114000Y12161D02*
Y8087D01*
X118074D01*
X117982Y8787D01*
X117518Y9906D01*
X116781Y10867D01*
X115820Y11605D01*
X114701Y12068D01*
X114000Y12161D01*
D02*
G37*
G36*
X44000Y14579D02*
X39220D01*
X39336Y13695D01*
X39871Y12406D01*
X40720Y11299D01*
X41827Y10449D01*
X43116Y9915D01*
X44000Y9799D01*
Y14579D01*
D02*
G37*
G36*
X224504Y59835D02*
X223073Y59694D01*
X221697Y59277D01*
X220429Y58599D01*
X219317Y57687D01*
X218405Y56575D01*
X217727Y55307D01*
X217310Y53931D01*
X217169Y52500D01*
X217310Y51069D01*
X217727Y49693D01*
X218405Y48425D01*
X219317Y47313D01*
X220429Y46401D01*
X221697Y45723D01*
X223073Y45306D01*
X224504Y45165D01*
X225935Y45306D01*
X227311Y45723D01*
X228579Y46401D01*
X229691Y47313D01*
X230603Y48425D01*
X231281Y49693D01*
X231698Y51069D01*
X231839Y52500D01*
X231698Y53931D01*
X231281Y55307D01*
X230603Y56575D01*
X229691Y57687D01*
X228579Y58599D01*
X227311Y59277D01*
X225935Y59694D01*
X224504Y59835D01*
D02*
G37*
G36*
X200965Y77220D02*
X197748D01*
X197811Y76741D01*
X198189Y75829D01*
X198790Y75046D01*
X199573Y74445D01*
X200486Y74067D01*
X200965Y74004D01*
Y77220D01*
D02*
G37*
G36*
X205181D02*
X201965D01*
Y74004D01*
X202444Y74067D01*
X203356Y74445D01*
X204139Y75046D01*
X204740Y75829D01*
X205118Y76741D01*
X205181Y77220D01*
D02*
G37*
G36*
X184035D02*
X180819D01*
X180882Y76741D01*
X181260Y75829D01*
X181861Y75046D01*
X182644Y74445D01*
X183556Y74067D01*
X184035Y74004D01*
Y77220D01*
D02*
G37*
G36*
X188252D02*
X185035D01*
Y74004D01*
X185514Y74067D01*
X186427Y74445D01*
X187210Y75046D01*
X187811Y75829D01*
X188189Y76741D01*
X188252Y77220D01*
D02*
G37*
G36*
X8000Y83384D02*
X6865Y83235D01*
X5808Y82797D01*
X4900Y82100D01*
X4203Y81192D01*
X3765Y80135D01*
X3616Y79000D01*
X3765Y77865D01*
X4203Y76808D01*
X4900Y75900D01*
X5808Y75203D01*
X6865Y74765D01*
X8000Y74616D01*
X9135Y74765D01*
X10192Y75203D01*
X11100Y75900D01*
X11797Y76808D01*
X12235Y77865D01*
X12384Y79000D01*
X12235Y80135D01*
X11797Y81192D01*
X11100Y82100D01*
X10192Y82797D01*
X9135Y83235D01*
X8000Y83384D01*
D02*
G37*
G36*
X184035Y81437D02*
X183556Y81374D01*
X182644Y80996D01*
X181861Y80395D01*
X181260Y79612D01*
X180882Y78699D01*
X180819Y78220D01*
X184035D01*
Y81437D01*
D02*
G37*
G36*
X185035D02*
Y78220D01*
X188252D01*
X188189Y78699D01*
X187811Y79612D01*
X187210Y80395D01*
X186427Y80996D01*
X185514Y81374D01*
X185035Y81437D01*
D02*
G37*
G36*
X38846Y84346D02*
X30154D01*
Y75653D01*
X38846D01*
Y84346D01*
D02*
G37*
G36*
X220941Y85782D02*
X219962Y85654D01*
X219050Y85276D01*
X218266Y84675D01*
X217665Y83891D01*
X217287Y82979D01*
X217159Y82000D01*
X217287Y81021D01*
X217665Y80109D01*
X218266Y79325D01*
X219050Y78724D01*
X219962Y78347D01*
X220941Y78218D01*
X221920Y78347D01*
X222832Y78724D01*
X223616Y79325D01*
X224217Y80109D01*
X224594Y81021D01*
X224723Y82000D01*
X224594Y82979D01*
X224217Y83891D01*
X223616Y84675D01*
X222832Y85276D01*
X221920Y85654D01*
X220941Y85782D01*
D02*
G37*
G36*
X267000Y78487D02*
X265968Y78351D01*
X265007Y77953D01*
X264181Y77319D01*
X263547Y76493D01*
X263149Y75532D01*
X263013Y74500D01*
X263149Y73468D01*
X263547Y72507D01*
X264181Y71681D01*
X265007Y71047D01*
X265968Y70649D01*
X267000Y70513D01*
X268032Y70649D01*
X268993Y71047D01*
X269819Y71681D01*
X270453Y72507D01*
X270851Y73468D01*
X270987Y74500D01*
X270851Y75532D01*
X270453Y76493D01*
X269819Y77319D01*
X268993Y77953D01*
X268032Y78351D01*
X267000Y78487D01*
D02*
G37*
G36*
X266500Y64000D02*
X263047D01*
Y60547D01*
X266500D01*
Y64000D01*
D02*
G37*
G36*
X270953D02*
X267500D01*
Y60547D01*
X270953D01*
Y64000D01*
D02*
G37*
G36*
X16300Y62611D02*
X3700D01*
Y50011D01*
X16300D01*
Y62611D01*
D02*
G37*
G36*
X34500Y64384D02*
X33365Y64235D01*
X32308Y63797D01*
X31400Y63100D01*
X30703Y62192D01*
X30265Y61135D01*
X30116Y60000D01*
X30265Y58865D01*
X30703Y57808D01*
X31400Y56900D01*
X32308Y56203D01*
X33365Y55765D01*
X34500Y55616D01*
X35635Y55765D01*
X36692Y56203D01*
X37600Y56900D01*
X38297Y57808D01*
X38735Y58865D01*
X38884Y60000D01*
X38735Y61135D01*
X38297Y62192D01*
X37600Y63100D01*
X36692Y63797D01*
X35635Y64235D01*
X34500Y64384D01*
D02*
G37*
G36*
X266500Y68453D02*
X263047D01*
Y65000D01*
X266500D01*
Y68453D01*
D02*
G37*
G36*
X161000Y75014D02*
X160220Y74911D01*
X159493Y74610D01*
X158869Y74131D01*
X158390Y73507D01*
X158340Y73386D01*
X158001Y73319D01*
X157816Y73195D01*
X157538Y73009D01*
X157538Y73009D01*
X119800Y35272D01*
X116669D01*
Y33927D01*
X113831D01*
Y35272D01*
X109075D01*
Y29728D01*
X113831D01*
Y31073D01*
X116669D01*
Y29728D01*
X121425D01*
Y32859D01*
X122113Y33547D01*
X122575Y33356D01*
Y29728D01*
X123423D01*
Y27630D01*
X123423Y27630D01*
X123423D01*
X123540Y27045D01*
X123871Y26548D01*
X127062Y23357D01*
X126735Y22567D01*
X126577Y21366D01*
X126735Y20165D01*
X127199Y19046D01*
X127936Y18085D01*
X128897Y17348D01*
X130016Y16884D01*
X131217Y16726D01*
X132417Y16884D01*
X133536Y17348D01*
X134497Y18085D01*
X135235Y19046D01*
X135698Y20165D01*
X135856Y21366D01*
X135698Y22567D01*
X135235Y23686D01*
X134497Y24647D01*
X133536Y25384D01*
X132417Y25848D01*
X131217Y26006D01*
X130016Y25848D01*
X129225Y25520D01*
X126482Y28263D01*
Y29728D01*
X127331D01*
Y35272D01*
X124491D01*
X124300Y35734D01*
X158461Y69895D01*
X158869Y69869D01*
X159493Y69390D01*
X160220Y69089D01*
X161000Y68986D01*
X161780Y69089D01*
X162507Y69390D01*
X163131Y69869D01*
X163610Y70493D01*
X163911Y71220D01*
X164014Y72000D01*
X163911Y72780D01*
X163610Y73507D01*
X163131Y74131D01*
X162507Y74610D01*
X161780Y74911D01*
X161000Y75014D01*
D02*
G37*
G36*
X173988Y74988D02*
X168012D01*
Y69012D01*
X173988D01*
Y74988D01*
D02*
G37*
G36*
X270953Y68453D02*
X267500D01*
Y65000D01*
X270953D01*
Y68453D01*
D02*
G37*
G36*
X151000Y75014D02*
X150220Y74911D01*
X149493Y74610D01*
X148869Y74131D01*
X148390Y73507D01*
X148089Y72780D01*
X147986Y72000D01*
X148089Y71220D01*
X148390Y70493D01*
X148869Y69869D01*
X149493Y69390D01*
X150220Y69089D01*
X151000Y68986D01*
X151780Y69089D01*
X152507Y69390D01*
X153131Y69869D01*
X153610Y70493D01*
X153911Y71220D01*
X154014Y72000D01*
X153911Y72780D01*
X153610Y73507D01*
X153131Y74131D01*
X152507Y74610D01*
X151780Y74911D01*
X151000Y75014D01*
D02*
G37*
G36*
X128850Y202847D02*
X126185D01*
Y199000D01*
X128850D01*
Y202847D01*
D02*
G37*
G36*
X282500Y206622D02*
X279638D01*
Y203760D01*
X282500D01*
Y206622D01*
D02*
G37*
G36*
X283000Y202639D02*
X282122Y202524D01*
X281304Y202185D01*
X280602Y201646D01*
X280063Y200944D01*
X279724Y200126D01*
X279609Y199248D01*
X279724Y198370D01*
X280063Y197552D01*
X280602Y196850D01*
X281304Y196311D01*
X282122Y195972D01*
X283000Y195857D01*
X283878Y195972D01*
X284696Y196311D01*
X285398Y196850D01*
X285937Y197552D01*
X286276Y198370D01*
X286391Y199248D01*
X286276Y200126D01*
X285937Y200944D01*
X285398Y201646D01*
X284696Y202185D01*
X283878Y202524D01*
X283000Y202639D01*
D02*
G37*
G36*
X125185Y202847D02*
X122520D01*
Y199000D01*
X125185D01*
Y202847D01*
D02*
G37*
G36*
X286362Y206622D02*
X283500D01*
Y203760D01*
X286362D01*
Y206622D01*
D02*
G37*
G36*
Y210484D02*
X283500D01*
Y207622D01*
X286362D01*
Y210484D01*
D02*
G37*
G36*
X187000Y226236D02*
X183976D01*
X184033Y225807D01*
X184391Y224941D01*
X184962Y224198D01*
X185705Y223627D01*
X186571Y223269D01*
X187000Y223212D01*
Y226236D01*
D02*
G37*
G36*
X123500Y208927D02*
X122954Y208819D01*
X122491Y208509D01*
X122181Y208046D01*
X122073Y207500D01*
X122181Y206954D01*
X122491Y206491D01*
X122991Y205991D01*
X123454Y205681D01*
X124000Y205573D01*
X124546Y205681D01*
X125009Y205991D01*
X125319Y206454D01*
X125427Y207000D01*
X125319Y207546D01*
X125009Y208009D01*
X124509Y208509D01*
X124046Y208819D01*
X123500Y208927D01*
D02*
G37*
G36*
X282500Y210484D02*
X279638D01*
Y207622D01*
X282500D01*
Y210484D01*
D02*
G37*
G36*
X11453Y203453D02*
X3547D01*
Y195547D01*
X11453D01*
Y203453D01*
D02*
G37*
G36*
X161185Y193500D02*
X158520D01*
Y189654D01*
X161185D01*
Y193500D01*
D02*
G37*
G36*
X164850D02*
X162185D01*
Y189654D01*
X164850D01*
Y193500D01*
D02*
G37*
G36*
X7500Y193487D02*
X6468Y193351D01*
X5507Y192953D01*
X4681Y192319D01*
X4047Y191493D01*
X3649Y190532D01*
X3513Y189500D01*
X3649Y188468D01*
X4047Y187507D01*
X4681Y186681D01*
X5507Y186047D01*
X6468Y185649D01*
X7500Y185513D01*
X8532Y185649D01*
X9493Y186047D01*
X10319Y186681D01*
X10953Y187507D01*
X11351Y188468D01*
X11487Y189500D01*
X11351Y190532D01*
X10953Y191493D01*
X10319Y192319D01*
X9493Y192953D01*
X8532Y193351D01*
X7500Y193487D01*
D02*
G37*
G36*
X283000Y194765D02*
X282122Y194650D01*
X281304Y194311D01*
X280602Y193772D01*
X280063Y193070D01*
X279724Y192252D01*
X279609Y191374D01*
X279724Y190496D01*
X280063Y189678D01*
X280602Y188976D01*
X281304Y188437D01*
X282122Y188098D01*
X283000Y187983D01*
X283878Y188098D01*
X284696Y188437D01*
X285398Y188976D01*
X285937Y189678D01*
X286276Y190496D01*
X286391Y191374D01*
X286276Y192252D01*
X285937Y193070D01*
X285398Y193772D01*
X284696Y194311D01*
X283878Y194650D01*
X283000Y194765D01*
D02*
G37*
G36*
X139480Y202847D02*
X133150D01*
Y194153D01*
X139015D01*
X139090Y193586D01*
X139443Y192735D01*
X140004Y192004D01*
X140735Y191443D01*
X141586Y191090D01*
X142500Y190970D01*
X143414Y191090D01*
X144265Y191443D01*
X144996Y192004D01*
X145557Y192735D01*
X145910Y193586D01*
X146030Y194500D01*
X145910Y195414D01*
X145557Y196265D01*
X144996Y196996D01*
X144265Y197557D01*
X143414Y197910D01*
X142500Y198030D01*
X141586Y197910D01*
X141249Y197770D01*
X139509Y199509D01*
X139480Y199529D01*
Y202847D01*
D02*
G37*
G36*
X161185Y198346D02*
X158520D01*
Y194500D01*
X161185D01*
Y198346D01*
D02*
G37*
G36*
X164850D02*
X162185D01*
Y194500D01*
X164850D01*
Y198346D01*
D02*
G37*
G36*
X125185Y198000D02*
X122520D01*
Y194153D01*
X125185D01*
Y198000D01*
D02*
G37*
G36*
X128850D02*
X126185D01*
Y194153D01*
X128850D01*
Y198000D01*
D02*
G37*
G36*
X191024Y226236D02*
X188000D01*
Y223212D01*
X188429Y223269D01*
X189295Y223627D01*
X190038Y224198D01*
X190609Y224941D01*
X190967Y225807D01*
X191024Y226236D01*
D02*
G37*
G36*
X259643Y277800D02*
X249043D01*
Y267200D01*
X259643D01*
Y277800D01*
D02*
G37*
G36*
X290158Y297690D02*
X288688Y297545D01*
X287275Y297116D01*
X285973Y296420D01*
X284831Y295484D01*
X283895Y294342D01*
X283198Y293040D01*
X282770Y291627D01*
X282625Y290158D01*
X282770Y288688D01*
X283198Y287275D01*
X283895Y285973D01*
X284831Y284831D01*
X285973Y283895D01*
X287275Y283198D01*
X288688Y282770D01*
X290158Y282625D01*
X291627Y282770D01*
X293040Y283198D01*
X294342Y283895D01*
X295484Y284831D01*
X296420Y285973D01*
X297116Y287275D01*
X297545Y288688D01*
X297690Y290158D01*
X297545Y291627D01*
X297116Y293040D01*
X296420Y294342D01*
X295484Y295484D01*
X294342Y296420D01*
X293040Y297116D01*
X291627Y297545D01*
X290158Y297690D01*
D02*
G37*
G36*
X191059Y259823D02*
X183941D01*
Y252705D01*
X191059D01*
Y259823D01*
D02*
G37*
G36*
X234658Y277846D02*
X233274Y277664D01*
X231985Y277130D01*
X230877Y276280D01*
X230028Y275173D01*
X229494Y273884D01*
X229312Y272500D01*
X229494Y271116D01*
X230028Y269827D01*
X230877Y268720D01*
X231985Y267870D01*
X233274Y267336D01*
X234658Y267154D01*
X236041Y267336D01*
X237330Y267870D01*
X238438Y268720D01*
X239287Y269827D01*
X239821Y271116D01*
X240003Y272500D01*
X239821Y273884D01*
X239287Y275173D01*
X238438Y276280D01*
X237330Y277130D01*
X236041Y277664D01*
X234658Y277846D01*
D02*
G37*
G36*
X215611Y297800D02*
X203011D01*
Y285200D01*
X215611D01*
Y297800D01*
D02*
G37*
G36*
X185189Y297781D02*
X184454Y297709D01*
X183266Y297349D01*
X182172Y296764D01*
X181213Y295976D01*
X180425Y295017D01*
X179840Y293923D01*
X179480Y292735D01*
X179408Y292000D01*
X185189D01*
Y297781D01*
D02*
G37*
G36*
X186189D02*
Y292000D01*
X191970D01*
X191898Y292735D01*
X191538Y293923D01*
X190953Y295017D01*
X190165Y295976D01*
X189206Y296764D01*
X188112Y297349D01*
X186924Y297709D01*
X186189Y297781D01*
D02*
G37*
G36*
X185189Y291000D02*
X179408D01*
X179480Y290265D01*
X179840Y289077D01*
X180425Y287983D01*
X181213Y287024D01*
X182172Y286236D01*
X183266Y285651D01*
X184454Y285291D01*
X185189Y285219D01*
Y291000D01*
D02*
G37*
G36*
X191970D02*
X186189D01*
Y285219D01*
X186924Y285291D01*
X188112Y285651D01*
X189206Y286236D01*
X190165Y287024D01*
X190953Y287983D01*
X191538Y289077D01*
X191898Y290265D01*
X191970Y291000D01*
D02*
G37*
G36*
X239500Y241500D02*
X237500D01*
Y238500D01*
X239500D01*
Y241500D01*
D02*
G37*
G36*
X260500Y231047D02*
X257244D01*
Y228382D01*
X260500D01*
Y231047D01*
D02*
G37*
G36*
X264756D02*
X261500D01*
Y228382D01*
X264756D01*
Y231047D01*
D02*
G37*
G36*
X187000Y230260D02*
X186571Y230204D01*
X185705Y229845D01*
X184962Y229275D01*
X184391Y228531D01*
X184033Y227665D01*
X183976Y227236D01*
X187000D01*
Y230260D01*
D02*
G37*
G36*
X188000D02*
Y227236D01*
X191024D01*
X190967Y227665D01*
X190609Y228531D01*
X190038Y229275D01*
X189295Y229845D01*
X188429Y230204D01*
X188000Y230260D01*
D02*
G37*
G36*
X250500Y253530D02*
X249586Y253410D01*
X248735Y253057D01*
X248004Y252496D01*
X243760Y248252D01*
X243199Y247521D01*
X242846Y246670D01*
X242726Y245756D01*
Y244000D01*
X240000D01*
Y232000D01*
X252512D01*
Y244000D01*
X250146D01*
X249954Y244462D01*
X252996Y247504D01*
X253557Y248235D01*
X253910Y249086D01*
X254030Y250000D01*
X253910Y250914D01*
X253557Y251765D01*
X252996Y252496D01*
X252265Y253057D01*
X251414Y253410D01*
X250500Y253530D01*
D02*
G37*
G36*
X239500Y237500D02*
X237500D01*
Y234500D01*
X239500D01*
Y237500D01*
D02*
G37*
G36*
X236500Y241500D02*
X234500D01*
Y238500D01*
X236500D01*
Y241500D01*
D02*
G37*
G36*
X261000Y248030D02*
X260086Y247910D01*
X259235Y247557D01*
X258504Y246996D01*
X257943Y246265D01*
X257590Y245414D01*
X257470Y244500D01*
X257470Y244500D01*
Y240618D01*
X257244D01*
Y234287D01*
Y232047D01*
X264756D01*
Y234287D01*
Y240618D01*
X264530D01*
Y244500D01*
X264410Y245414D01*
X264057Y246265D01*
X263496Y246996D01*
X263496Y246996D01*
X262765Y247557D01*
X261914Y247910D01*
X261000Y248030D01*
D02*
G37*
G36*
X236500Y237500D02*
X234500D01*
Y234500D01*
X236500D01*
Y237500D01*
D02*
G37*
G36*
X175480Y198346D02*
X169150D01*
Y189654D01*
X170887D01*
Y187685D01*
X170887Y187685D01*
X170996Y187139D01*
X170996Y187139D01*
X170996Y187139D01*
X171240Y186775D01*
X171090Y186414D01*
X170970Y185500D01*
X171090Y184586D01*
X171443Y183735D01*
X172004Y183004D01*
X172735Y182443D01*
X173586Y182090D01*
X174500Y181970D01*
X175414Y182090D01*
X176265Y182443D01*
X176996Y183004D01*
X177557Y183735D01*
X177910Y184586D01*
X178030Y185500D01*
X177910Y186414D01*
X177557Y187265D01*
X176996Y187996D01*
X176265Y188557D01*
X175414Y188910D01*
X174500Y189030D01*
X174118Y188980D01*
X173884Y189186D01*
X174060Y189654D01*
X175480D01*
Y198346D01*
D02*
G37*
G36*
X248780Y131181D02*
Y127965D01*
X251996D01*
X251933Y128444D01*
X251555Y129356D01*
X250954Y130139D01*
X250171Y130740D01*
X249258Y131118D01*
X248780Y131181D01*
D02*
G37*
G36*
X190217Y158814D02*
X189303Y158693D01*
X188451Y158341D01*
X187720Y157780D01*
X187159Y157049D01*
X186807Y156197D01*
X186686Y155283D01*
X186807Y154370D01*
X187159Y153518D01*
X187720Y152787D01*
X188451Y152226D01*
X189303Y151874D01*
X190217Y151753D01*
X191130Y151874D01*
X191468Y152013D01*
X207730Y135751D01*
X207590Y135414D01*
X207470Y134500D01*
X207590Y133586D01*
X207943Y132735D01*
X208504Y132004D01*
X209235Y131443D01*
X210086Y131090D01*
X211000Y130970D01*
X211914Y131090D01*
X212765Y131443D01*
X213496Y132004D01*
X214057Y132735D01*
X214410Y133586D01*
X214530Y134500D01*
X214410Y135414D01*
X214057Y136265D01*
X213496Y136996D01*
X212765Y137557D01*
X211914Y137910D01*
X211000Y138030D01*
X210086Y137910D01*
X209749Y137770D01*
X193487Y154032D01*
X193626Y154370D01*
X193747Y155283D01*
X193626Y156197D01*
X193274Y157049D01*
X192713Y157780D01*
X191982Y158341D01*
X191130Y158693D01*
X190217Y158814D01*
D02*
G37*
G36*
X11953Y133953D02*
X4047D01*
Y126047D01*
X11953D01*
Y133953D01*
D02*
G37*
G36*
X247779Y131181D02*
X247301Y131118D01*
X246388Y130740D01*
X245605Y130139D01*
X245004Y129356D01*
X244626Y128444D01*
X244563Y127965D01*
X247779D01*
Y131181D01*
D02*
G37*
G36*
X220721Y142818D02*
X219742Y142689D01*
X218829Y142311D01*
X218046Y141710D01*
X217445Y140927D01*
X217067Y140014D01*
X216938Y139035D01*
X217067Y138057D01*
X217445Y137144D01*
X218046Y136361D01*
X218829Y135760D01*
X219742Y135382D01*
X220721Y135253D01*
X221699Y135382D01*
X222612Y135760D01*
X223395Y136361D01*
X223996Y137144D01*
X224374Y138057D01*
X224503Y139035D01*
X224374Y140014D01*
X223996Y140927D01*
X223395Y141710D01*
X222612Y142311D01*
X221699Y142689D01*
X220721Y142818D01*
D02*
G37*
G36*
X247779Y142752D02*
X247301Y142689D01*
X246388Y142311D01*
X245605Y141710D01*
X245004Y140927D01*
X244626Y140014D01*
X244563Y139535D01*
X247779D01*
Y142752D01*
D02*
G37*
G36*
X248780D02*
Y139535D01*
X251996D01*
X251933Y140014D01*
X251555Y140927D01*
X250954Y141710D01*
X250171Y142311D01*
X249258Y142689D01*
X248780Y142752D01*
D02*
G37*
G36*
X247779Y138535D02*
X244563D01*
X244626Y138057D01*
X245004Y137144D01*
X245605Y136361D01*
X246388Y135760D01*
X247301Y135382D01*
X247779Y135319D01*
Y138535D01*
D02*
G37*
G36*
X251996D02*
X248780D01*
Y135319D01*
X249258Y135382D01*
X250171Y135760D01*
X250954Y136361D01*
X251555Y137144D01*
X251933Y138057D01*
X251996Y138535D01*
D02*
G37*
G36*
Y126965D02*
X248780D01*
Y123748D01*
X249258Y123811D01*
X250171Y124189D01*
X250954Y124790D01*
X251555Y125573D01*
X251933Y126486D01*
X251996Y126965D01*
D02*
G37*
G36*
X8500Y123921D02*
Y120500D01*
X11921D01*
X11851Y121032D01*
X11453Y121993D01*
X10819Y122819D01*
X9993Y123453D01*
X9032Y123851D01*
X8500Y123921D01*
D02*
G37*
G36*
X129500Y125618D02*
X126244D01*
Y122953D01*
X129500D01*
Y125618D01*
D02*
G37*
G36*
X174256Y121953D02*
X166744D01*
Y119287D01*
Y117927D01*
X163103D01*
X162951Y118295D01*
X162381Y119038D01*
X161637Y119609D01*
X160772Y119967D01*
X159843Y120090D01*
X158913Y119967D01*
X158048Y119609D01*
X157304Y119038D01*
X156734Y118295D01*
X156375Y117429D01*
X156253Y116500D01*
X156375Y115571D01*
X156734Y114705D01*
X157304Y113962D01*
X158048Y113391D01*
X158913Y113033D01*
X159843Y112910D01*
X160772Y113033D01*
X161637Y113391D01*
X162381Y113962D01*
X162951Y114705D01*
X163103Y115073D01*
X166744D01*
Y113382D01*
X174256D01*
Y119287D01*
Y121953D01*
D02*
G37*
G36*
X7500Y123921D02*
X6968Y123851D01*
X6007Y123453D01*
X5181Y122819D01*
X4547Y121993D01*
X4149Y121032D01*
X4079Y120500D01*
X7500D01*
Y123921D01*
D02*
G37*
G36*
X133756Y125618D02*
X130500D01*
Y122953D01*
X133756D01*
Y125618D01*
D02*
G37*
G36*
X224470Y131215D02*
X216970D01*
Y123715D01*
X224470D01*
Y131215D01*
D02*
G37*
G36*
X247779Y126965D02*
X244563D01*
X244626Y126486D01*
X245004Y125573D01*
X245605Y124790D01*
X246388Y124189D01*
X247301Y123811D01*
X247779Y123748D01*
Y126965D01*
D02*
G37*
G36*
X170000Y125618D02*
X166744D01*
Y122953D01*
X170000D01*
Y125618D01*
D02*
G37*
G36*
X174256D02*
X171000D01*
Y122953D01*
X174256D01*
Y125618D01*
D02*
G37*
G36*
X283000Y149765D02*
X282122Y149650D01*
X281304Y149311D01*
X280602Y148772D01*
X280063Y148070D01*
X279724Y147252D01*
X279609Y146374D01*
X279724Y145496D01*
X280063Y144678D01*
X280602Y143976D01*
X281304Y143437D01*
X282122Y143098D01*
X283000Y142983D01*
X283878Y143098D01*
X284696Y143437D01*
X285398Y143976D01*
X285937Y144678D01*
X286276Y145496D01*
X286391Y146374D01*
X286276Y147252D01*
X285937Y148070D01*
X285398Y148772D01*
X284696Y149311D01*
X283878Y149650D01*
X283000Y149765D01*
D02*
G37*
G36*
X286362Y165484D02*
X283500D01*
Y162622D01*
X286362D01*
Y165484D01*
D02*
G37*
G36*
X7000Y169000D02*
X3579D01*
X3649Y168468D01*
X4047Y167507D01*
X4681Y166681D01*
X5507Y166047D01*
X6468Y165649D01*
X7000Y165579D01*
Y169000D01*
D02*
G37*
G36*
X286362Y161622D02*
X283500D01*
Y158760D01*
X286362D01*
Y161622D01*
D02*
G37*
G36*
X282500Y165484D02*
X279638D01*
Y162622D01*
X282500D01*
Y165484D01*
D02*
G37*
G36*
X11421Y169000D02*
X8000D01*
Y165579D01*
X8532Y165649D01*
X9493Y166047D01*
X10319Y166681D01*
X10953Y167507D01*
X11351Y168468D01*
X11421Y169000D01*
D02*
G37*
G36*
X60500Y197030D02*
X59586Y196910D01*
X58735Y196557D01*
X58004Y195996D01*
X57443Y195265D01*
X57090Y194414D01*
X56970Y193500D01*
X57090Y192586D01*
X57443Y191735D01*
X58004Y191004D01*
X58735Y190443D01*
X59586Y190090D01*
X60500Y189970D01*
X61414Y190090D01*
X62265Y190443D01*
X62996Y191004D01*
X63557Y191735D01*
X63697Y192073D01*
X80909D01*
X85573Y187409D01*
Y184416D01*
X85481Y184279D01*
X85373Y183733D01*
X85373Y183732D01*
Y179700D01*
X85373Y179700D01*
X85481Y179154D01*
X85791Y178691D01*
X101991Y162491D01*
X102454Y162181D01*
X103000Y162073D01*
X103000Y162073D01*
X108803D01*
X108943Y161735D01*
X109504Y161004D01*
X110235Y160443D01*
X111086Y160090D01*
X112000Y159970D01*
X112914Y160090D01*
X113765Y160443D01*
X114496Y161004D01*
X115057Y161735D01*
X115410Y162586D01*
X115530Y163500D01*
X115410Y164414D01*
X115057Y165265D01*
X114496Y165996D01*
X113765Y166557D01*
X112914Y166910D01*
X112000Y167030D01*
X111086Y166910D01*
X110235Y166557D01*
X109504Y165996D01*
X108943Y165265D01*
X108803Y164927D01*
X103591D01*
X90501Y178018D01*
X90662Y178491D01*
X91414Y178590D01*
X91649Y178688D01*
X101419Y168919D01*
X101419D01*
X101419Y168919D01*
X101419Y168919D01*
Y168919D01*
X101915Y168587D01*
X102500Y168471D01*
X104845D01*
X104943Y168235D01*
X105504Y167504D01*
X106235Y166943D01*
X107086Y166590D01*
X108000Y166470D01*
X108914Y166590D01*
X109765Y166943D01*
X110496Y167504D01*
X111057Y168235D01*
X111410Y169086D01*
X111530Y170000D01*
X111410Y170914D01*
X111336Y171093D01*
X111640Y171490D01*
X112031Y171438D01*
X112945Y171559D01*
X113797Y171911D01*
X114528Y172472D01*
X115089Y173203D01*
X115441Y174055D01*
X115562Y174969D01*
X115441Y175882D01*
X115089Y176734D01*
X114528Y177465D01*
X113797Y178026D01*
X112945Y178378D01*
X112031Y178499D01*
X111118Y178378D01*
X110266Y178026D01*
X109535Y177465D01*
X108974Y176734D01*
X108877Y176498D01*
X105165D01*
X99812Y181851D01*
X99910Y182086D01*
X100030Y183000D01*
X99910Y183914D01*
X99557Y184765D01*
X98996Y185496D01*
X98265Y186057D01*
X97414Y186410D01*
X96500Y186530D01*
X95586Y186410D01*
X94735Y186057D01*
X94004Y185496D01*
X93443Y184765D01*
X93408Y184680D01*
X92925Y184551D01*
X92265Y185057D01*
X91414Y185410D01*
X90500Y185530D01*
X89586Y185410D01*
X88843Y185102D01*
X88427Y185380D01*
Y188000D01*
X88319Y188546D01*
X88195Y188732D01*
X88009Y189009D01*
X88009Y189009D01*
X82509Y194509D01*
X82046Y194819D01*
X81500Y194927D01*
X81500Y194927D01*
X63697D01*
X63557Y195265D01*
X62996Y195996D01*
X62265Y196557D01*
X61414Y196910D01*
X60500Y197030D01*
D02*
G37*
G36*
X7500Y183487D02*
X6468Y183351D01*
X5507Y182953D01*
X4681Y182319D01*
X4047Y181493D01*
X3649Y180532D01*
X3513Y179500D01*
X3649Y178468D01*
X4047Y177507D01*
X4681Y176681D01*
X5507Y176047D01*
X6468Y175649D01*
X7500Y175513D01*
X8532Y175649D01*
X9493Y176047D01*
X10319Y176681D01*
X10953Y177507D01*
X11351Y178468D01*
X11487Y179500D01*
X11351Y180532D01*
X10953Y181493D01*
X10319Y182319D01*
X9493Y182953D01*
X8532Y183351D01*
X7500Y183487D01*
D02*
G37*
G36*
X7000Y173421D02*
X6468Y173351D01*
X5507Y172953D01*
X4681Y172319D01*
X4047Y171493D01*
X3649Y170532D01*
X3579Y170000D01*
X7000D01*
Y173421D01*
D02*
G37*
G36*
X8000D02*
Y170000D01*
X11421D01*
X11351Y170532D01*
X10953Y171493D01*
X10319Y172319D01*
X9493Y172953D01*
X8532Y173351D01*
X8000Y173421D01*
D02*
G37*
G36*
X282500Y161622D02*
X279638D01*
Y158760D01*
X282500D01*
Y161622D01*
D02*
G37*
G36*
X283000Y157639D02*
X282122Y157524D01*
X281304Y157185D01*
X280602Y156646D01*
X280063Y155944D01*
X279724Y155126D01*
X279609Y154248D01*
X279724Y153370D01*
X280063Y152552D01*
X280602Y151850D01*
X281304Y151311D01*
X282122Y150972D01*
X283000Y150857D01*
X283878Y150972D01*
X284696Y151311D01*
X285398Y151850D01*
X285937Y152552D01*
X286276Y153370D01*
X286391Y154248D01*
X286276Y155126D01*
X285937Y155944D01*
X285398Y156646D01*
X284696Y157185D01*
X283878Y157524D01*
X283000Y157639D01*
D02*
G37*
G36*
X224470Y159715D02*
X216970D01*
Y152215D01*
X224470D01*
Y159715D01*
D02*
G37*
G36*
X7500Y153487D02*
X6468Y153351D01*
X5507Y152953D01*
X4681Y152319D01*
X4047Y151493D01*
X3649Y150532D01*
X3513Y149500D01*
X3649Y148468D01*
X4047Y147507D01*
X4681Y146681D01*
X5507Y146047D01*
X6468Y145649D01*
X7500Y145513D01*
X8532Y145649D01*
X9493Y146047D01*
X10319Y146681D01*
X10953Y147507D01*
X11351Y148468D01*
X11487Y149500D01*
X11351Y150532D01*
X10953Y151493D01*
X10319Y152319D01*
X9493Y152953D01*
X8532Y153351D01*
X7500Y153487D01*
D02*
G37*
G36*
X283000Y186891D02*
X282122Y186776D01*
X281304Y186437D01*
X280602Y185898D01*
X280063Y185196D01*
X279724Y184378D01*
X279609Y183500D01*
X279724Y182622D01*
X280063Y181804D01*
X280602Y181102D01*
X281304Y180563D01*
X282122Y180224D01*
X283000Y180109D01*
X283878Y180224D01*
X284197Y180357D01*
X290124Y174430D01*
Y147570D01*
X284197Y141644D01*
X283878Y141776D01*
X283000Y141891D01*
X282122Y141776D01*
X281304Y141437D01*
X280602Y140898D01*
X280063Y140196D01*
X279724Y139378D01*
X279609Y138500D01*
X279724Y137622D01*
X280063Y136804D01*
X280602Y136102D01*
X281304Y135563D01*
X282122Y135224D01*
X283000Y135109D01*
X283878Y135224D01*
X284197Y135356D01*
X290124Y129430D01*
Y99070D01*
X286340Y95287D01*
X285842Y95320D01*
X285398Y95898D01*
X284696Y96437D01*
X283878Y96776D01*
X283000Y96891D01*
X282122Y96776D01*
X281304Y96437D01*
X280602Y95898D01*
X280063Y95196D01*
X279724Y94378D01*
X279609Y93500D01*
X279724Y92622D01*
X280063Y91804D01*
X280602Y91102D01*
X281304Y90563D01*
X282122Y90224D01*
X283000Y90109D01*
X283878Y90224D01*
X284696Y90563D01*
X285398Y91102D01*
X285937Y91804D01*
X286069Y92124D01*
X286500D01*
X287027Y92228D01*
X287473Y92527D01*
X292473Y97527D01*
X292772Y97973D01*
X292877Y98500D01*
X292877Y98500D01*
Y130000D01*
X292877Y130000D01*
X292772Y130527D01*
X292473Y130973D01*
X292473Y130973D01*
X286143Y137303D01*
X286276Y137622D01*
X286391Y138500D01*
X286276Y139378D01*
X286143Y139697D01*
X292473Y146027D01*
X292473Y146027D01*
X292772Y146473D01*
X292772Y146473D01*
X292772Y146473D01*
X292877Y147000D01*
X292877Y147000D01*
Y175000D01*
X292877Y175000D01*
X292772Y175527D01*
X292473Y175973D01*
X292473Y175973D01*
X286143Y182303D01*
X286276Y182622D01*
X286391Y183500D01*
X286276Y184378D01*
X285937Y185196D01*
X285398Y185898D01*
X284696Y186437D01*
X283878Y186776D01*
X283000Y186891D01*
D02*
G37*
G36*
X247779Y155465D02*
X244563D01*
X244626Y154986D01*
X245004Y154073D01*
X245605Y153290D01*
X246388Y152689D01*
X247301Y152311D01*
X247779Y152248D01*
Y155465D01*
D02*
G37*
G36*
Y159681D02*
X247301Y159618D01*
X246388Y159240D01*
X245605Y158639D01*
X245004Y157856D01*
X244626Y156944D01*
X244563Y156465D01*
X247779D01*
Y159681D01*
D02*
G37*
G36*
X248780D02*
Y156465D01*
X251996D01*
X251933Y156944D01*
X251555Y157856D01*
X250954Y158639D01*
X250171Y159240D01*
X249258Y159618D01*
X248780Y159681D01*
D02*
G37*
G36*
X251996Y155465D02*
X248780D01*
Y152248D01*
X249258Y152311D01*
X250171Y152689D01*
X250954Y153290D01*
X251555Y154073D01*
X251933Y154986D01*
X251996Y155465D01*
D02*
G37*
G36*
X7500Y163487D02*
X6468Y163351D01*
X5507Y162953D01*
X4681Y162319D01*
X4047Y161493D01*
X3649Y160532D01*
X3513Y159500D01*
X3649Y158468D01*
X4047Y157507D01*
X4681Y156681D01*
X5507Y156047D01*
X6468Y155649D01*
X7500Y155513D01*
X8532Y155649D01*
X9493Y156047D01*
X10319Y156681D01*
X10953Y157507D01*
X11351Y158468D01*
X11487Y159500D01*
X11351Y160532D01*
X10953Y161493D01*
X10319Y162319D01*
X9493Y162953D01*
X8532Y163351D01*
X7500Y163487D01*
D02*
G37*
%LPD*%
D11*
X172315Y194000D02*
D03*
X161685D02*
D03*
X136315Y198500D02*
D03*
X125685D02*
D03*
D19*
X130000Y116547D02*
D03*
Y122453D02*
D03*
X170500Y116547D02*
D03*
Y122453D02*
D03*
X261000Y231547D02*
D03*
Y237453D02*
D03*
D24*
X105547Y32500D02*
D03*
X111453D02*
D03*
X119047D02*
D03*
X124953D02*
D03*
D25*
X8000Y130000D02*
D03*
X7500Y199500D02*
D03*
X267000Y64500D02*
D03*
D31*
X283000Y93500D02*
X286500D01*
X291500Y98500D01*
Y130000D01*
X283000Y138500D01*
X291500Y147000D01*
Y175000D01*
X283000Y183500D01*
D33*
X111453Y32500D02*
X119047D01*
X158547Y72000D01*
X161000D01*
X159843Y116500D02*
X170453D01*
X170500Y116547D01*
X140157Y116500D02*
X130047D01*
X130000Y116547D01*
X101500Y117500D02*
X89500Y129500D01*
Y145500D01*
X103000Y163500D02*
X112000D01*
X103000D02*
X86800Y179700D01*
Y183733D01*
X87000Y183933D01*
Y188000D01*
X81500Y193500D01*
X60500D01*
X81500Y204500D02*
X83700Y206700D01*
X112700D01*
X122000Y216000D01*
X123500Y207500D02*
X124000Y207000D01*
X136315Y198500D02*
X138500D01*
X142500Y194500D01*
X172315Y187685D02*
X174500Y185500D01*
X172315Y187685D02*
Y194000D01*
X190217Y155283D02*
X211000Y134500D01*
D35*
X261000Y237453D02*
Y244500D01*
X261000Y244500D01*
X246256Y245756D02*
X250500Y250000D01*
X246256Y245756D02*
Y238000D01*
D37*
X93815Y40264D02*
X97783D01*
X105547Y32500D01*
X124953Y27630D02*
Y32500D01*
Y27630D02*
X131217Y21366D01*
X112031Y174969D02*
X104532D01*
X96500Y183000D01*
X90500Y182000D02*
X102500Y170000D01*
X108000D01*
X110700Y195800D02*
X113500Y193000D01*
X110700Y195800D02*
X108200D01*
X102500Y201500D01*
X93500D01*
X92000Y203000D01*
X86500Y199000D02*
X100000D01*
X107000Y192000D01*
D44*
X283000Y93500D02*
D03*
Y101374D02*
D03*
Y109248D02*
D03*
Y138500D02*
D03*
Y146374D02*
D03*
Y154248D02*
D03*
Y183500D02*
D03*
Y191374D02*
D03*
Y199248D02*
D03*
D45*
X283000Y117122D02*
D03*
Y162122D02*
D03*
Y207122D02*
D03*
D46*
X8000Y120000D02*
D03*
X7500Y149500D02*
D03*
Y159500D02*
D03*
Y169500D02*
D03*
Y179500D02*
D03*
Y189500D02*
D03*
X267000Y74500D02*
D03*
Y84500D02*
D03*
Y94500D02*
D03*
D47*
X187496Y52500D02*
D03*
X206000D02*
D03*
X224504D02*
D03*
D48*
X140157Y116500D02*
D03*
X159843D02*
D03*
D49*
X103260Y93000D02*
D03*
D50*
X93260Y93000D02*
D03*
X83260D02*
D03*
D51*
X10000Y32689D02*
D03*
X185689Y291500D02*
D03*
D52*
X10000Y56311D02*
D03*
D53*
X254343Y272500D02*
D03*
D54*
X44500Y15079D02*
D03*
X62217Y26890D02*
D03*
X44500Y38701D02*
D03*
X234658Y272500D02*
D03*
D55*
X93815Y40264D02*
D03*
X113500Y7587D02*
D03*
X131217Y21366D02*
D03*
D56*
X209311Y291500D02*
D03*
D57*
X151000Y94500D02*
D03*
X171000Y72000D02*
D03*
D58*
X151000Y72000D02*
D03*
X161000D02*
D03*
Y94500D02*
D03*
X171000D02*
D03*
D59*
X184535Y77720D02*
D03*
X201465D02*
D03*
X220941Y82000D02*
D03*
X248500D02*
D03*
Y98929D02*
D03*
X248280Y110535D02*
D03*
Y127465D02*
D03*
Y139035D02*
D03*
Y155965D02*
D03*
X220721Y139035D02*
D03*
Y110535D02*
D03*
X184535Y105280D02*
D03*
D60*
X201465Y105280D02*
D03*
D61*
X220941Y98929D02*
D03*
X220721Y127465D02*
D03*
Y155965D02*
D03*
D62*
X187500Y226736D02*
D03*
D63*
X187500Y256264D02*
D03*
D64*
X34500Y60000D02*
D03*
X8000Y79000D02*
D03*
D65*
X34500Y80000D02*
D03*
X8000Y99000D02*
D03*
D66*
X53500Y94000D02*
D03*
X51953Y114500D02*
D03*
X89500Y145500D02*
D03*
X100500Y156500D02*
D03*
X112000Y163500D02*
D03*
X112031Y174969D02*
D03*
X108000Y170000D02*
D03*
X96500Y183000D02*
D03*
X90500Y182000D02*
D03*
X107000Y192000D02*
D03*
X113500Y193000D02*
D03*
X122500Y207000D02*
D03*
X142500Y194500D02*
D03*
X159500Y219000D02*
D03*
X183500Y204000D02*
D03*
X174500Y185500D02*
D03*
X190217Y155283D02*
D03*
X190000Y144500D02*
D03*
X175347Y151347D02*
D03*
X166779Y151279D02*
D03*
X143000Y136000D02*
D03*
X101500Y117500D02*
D03*
X73000Y159500D02*
D03*
X75000Y187000D02*
D03*
X86500Y199000D02*
D03*
X92000Y203000D02*
D03*
X81500Y206000D02*
D03*
X60500Y193500D02*
D03*
X120500Y243500D02*
D03*
X122000Y216000D02*
D03*
X138500Y216500D02*
D03*
Y238500D02*
D03*
X160500Y244000D02*
D03*
X170500Y260500D02*
D03*
X138500Y267500D02*
D03*
X121000Y271000D02*
D03*
X208500Y194000D02*
D03*
X222500Y186500D02*
D03*
X230500D02*
D03*
X225000Y171000D02*
D03*
X238500Y186500D02*
D03*
X246500D02*
D03*
X254500D02*
D03*
Y194500D02*
D03*
X246500D02*
D03*
Y202500D02*
D03*
X254500D02*
D03*
Y210500D02*
D03*
X246500D02*
D03*
X238500D02*
D03*
Y202500D02*
D03*
Y194500D02*
D03*
X230500Y210500D02*
D03*
X222500D02*
D03*
Y202500D02*
D03*
Y194500D02*
D03*
X230500D02*
D03*
Y202500D02*
D03*
X261000Y244500D02*
D03*
X250500Y250000D02*
D03*
X290500Y249000D02*
D03*
X211000Y134500D02*
D03*
X194000Y115000D02*
D03*
X287827Y24327D02*
D03*
D67*
X9843Y9843D02*
D03*
X290158D02*
D03*
Y290158D02*
D03*
D68*
X237000Y238000D02*
D03*
D69*
X246256Y238000D02*
D03*
M02*
