  0
SECTION
  2
HEADER
  9
$ACADVER
  1
AC1015
  9
$ACADMAINTVER
 70
     6
  9
$DWGCODEPAGE
  3
ANSI_1252
  9
$INSBASE
 10
0.0
 20
0.0
 30
0.0
  9
$EXTMIN
 10
-0.4724409449
 20
-0.4724409449
 30
0.0
  9
$EXTMAX
 10
0.4724409449
 20
0.4724409449
 30
0.0
  9
$LIMMIN
 10
0.0
 20
0.0
  9
$LIMMAX
 10
12.0
 20
9.0
  9
$ORTHOMODE
 70
     0
  9
$REGENMODE
 70
     1
  9
$FILLMODE
 70
     1
  9
$QTEXTMODE
 70
     0
  9
$MIRRTEXT
 70
     1
  9
$LTSCALE
 40
1.0
  9
$ATTMODE
 70
     1
  9
$TEXTSIZE
 40
0.1377952756
  9
$TRACEWID
 40
0.05
  9
$TEXTSTYLE
  7
Standard
  9
$CLAYER
  8
0
  9
$CELTYPE
  6
ByLayer
  9
$CECOLOR
 62
   256
  9
$CELTSCALE
 40
1.0
  9
$DISPSILH
 70
     0
  9
$DIMSCALE
 40
1.0
  9
$DIMASZ
 40
0.13
  9
$DIMEXO
 40
0.0393700787
  9
$DIMDLI
 40
0.38
  9
$DIMRND
 40
0.0
  9
$DIMDLE
 40
0.0
  9
$DIMEXE
 40
0.0393700787
  9
$DIMTP
 40
0.0
  9
$DIMTM
 40
0.0
  9
$DIMTXT
 40
0.1377952756
  9
$DIMCEN
 40
0.09
  9
$DIMTSZ
 40
0.0
  9
$DIMTOL
 70
     0
  9
$DIMLIM
 70
     0
  9
$DIMTIH
 70
     1
  9
$DIMTOH
 70
     1
  9
$DIMSE1
 70
     0
  9
$DIMSE2
 70
     0
  9
$DIMTAD
 70
     1
  9
$DIMZIN
 70
     0
  9
$DIMBLK
  1

  9
$DIMASO
 70
     1
  9
$DIMSHO
 70
     1
  9
$DIMPOST
  1

  9
$DIMAPOST
  1

  9
$DIMALT
 70
     0
  9
$DIMALTD
 70
     2
  9
$DIMALTF
 40
25.4
  9
$DIMLFAC
 40
1.0
  9
$DIMTOFL
 70
     0
  9
$DIMTVP
 40
0.0
  9
$DIMTIX
 70
     0
  9
$DIMSOXD
 70
     0
  9
$DIMSAH
 70
     0
  9
$DIMBLK1
  1

  9
$DIMBLK2
  1

  9
$DIMSTYLE
  2
Standard
  9
$DIMCLRD
 70
     0
  9
$DIMCLRE
 70
     0
  9
$DIMCLRT
 70
     0
  9
$DIMTFAC
 40
1.0
  9
$DIMGAP
 40
0.06
  9
$DIMJUST
 70
     0
  9
$DIMSD1
 70
     0
  9
$DIMSD2
 70
     0
  9
$DIMTOLJ
 70
     1
  9
$DIMTZIN
 70
     0
  9
$DIMALTZ
 70
     0
  9
$DIMALTTZ
 70
     0
  9
$DIMUPT
 70
     0
  9
$DIMDEC
 70
     2
  9
$DIMTDEC
 70
     2
  9
$DIMALTU
 70
     2
  9
$DIMALTTD
 70
     2
  9
$DIMTXSTY
  7
Standard
  9
$DIMAUNIT
 70
     0
  9
$DIMADEC
 70
     2
  9
$DIMALTRND
 40
0.0
  9
$DIMAZIN
 70
     0
  9
$DIMDSEP
 70
    46
  9
$DIMATFIT
 70
     3
  9
$DIMFRAC
 70
     0
  9
$DIMLDRBLK
  1

  9
$DIMLUNIT
 70
     2
  9
$DIMLWD
 70
    -2
  9
$DIMLWE
 70
    -2
  9
$DIMTMOVE
 70
     0
  9
$LUNITS
 70
     2
  9
$LUPREC
 70
     2
  9
$SKETCHINC
 40
0.1
  9
$FILLETRAD
 40
0.5
  9
$AUNITS
 70
     0
  9
$AUPREC
 70
     2
  9
$MENU
  1
.
  9
$ELEVATION
 40
0.0
  9
$PELEVATION
 40
0.0
  9
$THICKNESS
 40
0.0
  9
$LIMCHECK
 70
     0
  9
$CHAMFERA
 40
0.5
  9
$CHAMFERB
 40
0.5
  9
$CHAMFERC
 40
1.0
  9
$CHAMFERD
 40
0.0
  9
$SKPOLY
 70
     0
  9
$TDCREATE
 40
2456349.567016539
  9
$TDUCREATE
 40
2456349.775349873
  9
$TDUPDATE
 40
2456349.567046991
  9
$TDUUPDATE
 40
2456349.775380324
  9
$TDINDWG
 40
0.0000000116
  9
$TDUSRTIMER
 40
0.0000000116
  9
$USRTIMER
 70
     1
  9
$ANGBASE
 50
0.0
  9
$ANGDIR
 70
     0
  9
$PDMODE
 70
     0
  9
$PDSIZE
 40
-1.0
  9
$PLINEWID
 40
0.0
  9
$SPLFRAME
 70
     0
  9
$SPLINETYPE
 70
     6
  9
$SPLINESEGS
 70
     8
  9
$HANDSEED
  5
7D
  9
$SURFTAB1
 70
     6
  9
$SURFTAB2
 70
     6
  9
$SURFTYPE
 70
     6
  9
$SURFU
 70
     6
  9
$SURFV
 70
     6
  9
$UCSBASE
  2

  9
$UCSNAME
  2

  9
$UCSORG
 10
0.0
 20
0.0
 30
0.0
  9
$UCSXDIR
 10
1.0
 20
0.0
 30
0.0
  9
$UCSYDIR
 10
0.0
 20
1.0
 30
0.0
  9
$UCSORTHOREF
  2

  9
$UCSORTHOVIEW
 70
     0
  9
$UCSORGTOP
 10
0.0
 20
0.0
 30
0.0
  9
$UCSORGBOTTOM
 10
0.0
 20
0.0
 30
0.0
  9
$UCSORGLEFT
 10
0.0
 20
0.0
 30
0.0
  9
$UCSORGRIGHT
 10
0.0
 20
0.0
 30
0.0
  9
$UCSORGFRONT
 10
0.0
 20
0.0
 30
0.0
  9
$UCSORGBACK
 10
0.0
 20
0.0
 30
0.0
  9
$PUCSBASE
  2

  9
$PUCSNAME
  2

  9
$PUCSORG
 10
0.0
 20
0.0
 30
0.0
  9
$PUCSXDIR
 10
1.0
 20
0.0
 30
0.0
  9
$PUCSYDIR
 10
0.0
 20
1.0
 30
0.0
  9
$PUCSORTHOREF
  2

  9
$PUCSORTHOVIEW
 70
     0
  9
$PUCSORGTOP
 10
0.0
 20
0.0
 30
0.0
  9
$PUCSORGBOTTOM
 10
0.0
 20
0.0
 30
0.0
  9
$PUCSORGLEFT
 10
0.0
 20
0.0
 30
0.0
  9
$PUCSORGRIGHT
 10
0.0
 20
0.0
 30
0.0
  9
$PUCSORGFRONT
 10
0.0
 20
0.0
 30
0.0
  9
$PUCSORGBACK
 10
0.0
 20
0.0
 30
0.0
  9
$USERI1
 70
     0
  9
$USERI2
 70
     0
  9
$USERI3
 70
     0
  9
$USERI4
 70
     0
  9
$USERI5
 70
     0
  9
$USERR1
 40
0.0
  9
$USERR2
 40
0.0
  9
$USERR3
 40
0.0
  9
$USERR4
 40
0.0
  9
$USERR5
 40
0.0
  9
$WORLDVIEW
 70
     1
  9
$SHADEDGE
 70
     3
  9
$SHADEDIF
 70
    70
  9
$TILEMODE
 70
     1
  9
$MAXACTVP
 70
    64
  9
$PINSBASE
 10
0.0
 20
0.0
 30
0.0
  9
$PLIMCHECK
 70
     0
  9
$PEXTMIN
 10
-0.4724409449
 20
0.0
 30
0.0
  9
$PEXTMAX
 10
0.4724409449
 20
0.0625
 30
0.0
  9
$PLIMMIN
 10
0.0
 20
0.0
  9
$PLIMMAX
 10
12.0
 20
9.0
  9
$UNITMODE
 70
     0
  9
$VISRETAIN
 70
     1
  9
$PLINEGEN
 70
     0
  9
$PSLTSCALE
 70
     1
  9
$TREEDEPTH
 70
  3020
  9
$CMLSTYLE
  2
Standard
  9
$CMLJUST
 70
     0
  9
$CMLSCALE
 40
1.0
  9
$PROXYGRAPHICS
 70
     1
  9
$MEASUREMENT
 70
     0
  9
$CELWEIGHT
370
    -1
  9
$ENDCAPS
280
     0
  9
$JOINSTYLE
280
     0
  9
$LWDISPLAY
290
     1
  9
$INSUNITS
 70
     1
  9
$HYPERLINKBASE
  1

  9
$STYLESHEET
  1

  9
$XEDIT
290
     1
  9
$CEPSNTYPE
380
     0
  9
$PSTYLEMODE
290
     1
  9
$FINGERPRINTGUID
  2
{04141FD0-34F9-4796-82DE-4B079D574FBC}
  9
$VERSIONGUID
  2
{FAEB1C32-E019-11D5-929B-00C0DF256EC4}
  9
$EXTNAMES
290
     1
  9
$PSVPSCALE
 40
0.0
  9
$OLESTARTUP
290
     0
  0
ENDSEC
  0
SECTION
  2
CLASSES
  0
CLASS
  1
ACDBDICTIONARYWDFLT
  2
AcDbDictionaryWithDefault
  3
ObjectDBX Classes
 90
        0
280
     0
281
     0
  0
CLASS
  1
VISUALSTYLE
  2
AcDbVisualStyle
  3
ObjectDBX Classes
 90
     4095
280
     0
281
     0
  0
CLASS
  1
MATERIAL
  2
AcDbMaterial
  3
ObjectDBX Classes
 90
     1153
280
     0
281
     0
  0
CLASS
  1
ACDBPLACEHOLDER
  2
AcDbPlaceHolder
  3
ObjectDBX Classes
 90
        0
280
     0
281
     0
  0
CLASS
  1
LAYOUT
  2
AcDbLayout
  3
ObjectDBX Classes
 90
        0
280
     0
281
     0
  0
ENDSEC
  0
SECTION
  2
TABLES
  0
TABLE
  2
VPORT
  5
8
330
0
100
AcDbSymbolTable
 70
     1
  0
VPORT
  5
29
330
8
100
AcDbSymbolTableRecord
100
AcDbViewportTableRecord
  2
*Active
 70
     0
 10
0.0
 20
0.0
 11
1.0
 21
1.0
 12
0.0
 22
0.0
 13
0.0
 23
0.0
 14
0.5
 24
0.5
 15
0.5
 25
0.5
 16
0.0
 26
0.0
 36
1.0
 17
0.0
 27
0.0
 37
0.0
 40
0.9637795276
 41
1.0
 42
50.0
 43
0.0
 44
0.0
 50
0.0
 51
0.0
 71
     0
 72
   100
 73
     1
 74
     3
 75
     0
 76
     0
 77
     0
 78
     0
281
     0
 65
     1
110
0.0
120
0.0
130
0.0
111
1.0
121
0.0
131
0.0
112
0.0
122
1.0
132
0.0
 79
     0
146
0.0
  0
ENDTAB
  0
TABLE
  2
LTYPE
  5
5
330
0
100
AcDbSymbolTable
 70
     6
  0
LTYPE
  5
14
330
5
100
AcDbSymbolTableRecord
100
AcDbLinetypeTableRecord
  2
ByBlock
 70
     0
  3

 72
    65
 73
     0
 40
0.0
  0
LTYPE
  5
15
330
5
100
AcDbSymbolTableRecord
100
AcDbLinetypeTableRecord
  2
ByLayer
 70
     0
  3

 72
    65
 73
     0
 40
0.0
  0
LTYPE
  5
16
330
5
100
AcDbSymbolTableRecord
100
AcDbLinetypeTableRecord
  2
Continuous
 70
     0
  3
Solid line
 72
    65
 73
     0
 40
0.0
  0
LTYPE
  5
3F
330
5
100
AcDbSymbolTableRecord
100
AcDbLinetypeTableRecord
  2
HIDDEN
 70
     0
  3
Hidden __ __ __ __ __ __ __ __ __ __ __ __ __ __
 72
    65
 73
     2
 40
0.075
 49
0.05
 74
     0
 49
-0.025
 74
     0
  0
LTYPE
  5
40
330
5
100
AcDbSymbolTableRecord
100
AcDbLinetypeTableRecord
  2
PHANTOM
 70
     0
  3
Phantom ______  __  __  ______  __  __  ______
 72
    65
 73
     6
 40
0.5
 49
0.25
 74
     0
 49
-0.05
 74
     0
 49
0.05
 74
     0
 49
-0.05
 74
     0
 49
0.05
 74
     0
 49
-0.05
 74
     0
  0
LTYPE
  5
41
330
5
100
AcDbSymbolTableRecord
100
AcDbLinetypeTableRecord
  2
CENTER
 70
     0
  3
Center ____ _ ____ _ ____ _ ____ _ ____ _ ____
 72
    65
 73
     4
 40
0.4
 49
0.25
 74
     0
 49
-0.05
 74
     0
 49
0.05
 74
     0
 49
-0.05
 74
     0
  0
LTYPE
  5
42
330
5
100
AcDbSymbolTableRecord
100
AcDbLinetypeTableRecord
  2
CENTERX2
 70
     0
  3
Center (2x) ________  __  ________  __  _____
 72
    65
 73
     4
 40
0.8
 49
0.5
 74
     0
 49
-0.1
 74
     0
 49
0.1
 74
     0
 49
-0.1
 74
     0
  0
LTYPE
  5
43
330
5
100
AcDbSymbolTableRecord
100
AcDbLinetypeTableRecord
  2
DOT2
 70
     0
  3
Dot (.5x) ........................................
 72
    65
 73
     2
 40
0.025
 49
0.0
 74
     0
 49
-0.025
 74
     0
  0
ENDTAB
  0
TABLE
  2
LAYER
  5
2
330
0
100
AcDbSymbolTable
 70
     1
  0
LAYER
  5
10
330
2
100
AcDbSymbolTableRecord
100
AcDbLayerTableRecord
  2
0
 70
     0
 62
     7
  6
Continuous
370
    -3
390
F
  0
ENDTAB
  0
TABLE
  2
STYLE
  5
3
330
0
100
AcDbSymbolTable
 70
     1
  0
STYLE
  5
11
330
3
100
AcDbSymbolTableRecord
100
AcDbTextStyleTableRecord
  2
Standard
 70
     0
 40
0.0
 41
1.0
 50
0.0
 71
     0
 42
0.1377952756
  3
txt
  4

  0
ENDTAB
  0
TABLE
  2
VIEW
  5
6
330
0
100
AcDbSymbolTable
 70
     0
  0
ENDTAB
  0
TABLE
  2
UCS
  5
7
330
0
100
AcDbSymbolTable
 70
     0
  0
ENDTAB
  0
TABLE
  2
APPID
  5
9
330
0
100
AcDbSymbolTable
 70
     1
  0
APPID
  5
12
330
9
100
AcDbSymbolTableRecord
100
AcDbRegAppTableRecord
  2
ACAD
 70
     0
  0
ENDTAB
  0
TABLE
  2
DIMSTYLE
  5
A
330
0
100
AcDbSymbolTable
 70
     1
100
AcDbDimStyleTable
  0
DIMSTYLE
105
27
330
A
100
AcDbSymbolTableRecord
100
AcDbDimStyleTableRecord
  2
Standard
 70
     0
178
     0
340
11
  0
ENDTAB
  0
TABLE
  2
BLOCK_RECORD
  5
1
330
0
100
AcDbSymbolTable
 70
     2
  0
BLOCK_RECORD
  5
1F
330
1
100
AcDbSymbolTableRecord
100
AcDbBlockTableRecord
  2
*Model_Space
340
22
  0
BLOCK_RECORD
  5
1B
330
1
100
AcDbSymbolTableRecord
100
AcDbBlockTableRecord
  2
*Paper_Space
340
1E
  0
BLOCK_RECORD
  5
23
330
1
100
AcDbSymbolTableRecord
100
AcDbBlockTableRecord
  2
*Paper_Space0
340
26
  0
BLOCK_RECORD
  5
60
330
1
100
AcDbSymbolTableRecord
100
AcDbBlockTableRecord
  2
*Paper_Space1
340
61
  0
ENDTAB
  0
ENDSEC
  0
SECTION
  2
BLOCKS
  0
BLOCK
  5
20
330
1F
100
AcDbEntity
  8
0
100
AcDbBlockBegin
  2
*Model_Space
 70
     0
 10
0.0
 20
0.0
 30
0.0
  3
*Model_Space
  1

  0
ENDBLK
  5
21
330
1F
100
AcDbEntity
  8
0
100
AcDbBlockEnd
  0
BLOCK
  5
1C
330
1B
100
AcDbEntity
 67
     1
  8
0
100
AcDbBlockBegin
  2
*Paper_Space
 70
     0
 10
0.0
 20
0.0
 30
0.0
  3
*Paper_Space
  1

  0
ENDBLK
  5
1D
330
1B
100
AcDbEntity
 67
     1
  8
0
100
AcDbBlockEnd
  0
BLOCK
  5
24
330
23
100
AcDbEntity
  8
0
100
AcDbBlockBegin
  2
*Paper_Space0
 70
     0
 10
0.0
 20
0.0
 30
0.0
  3
*Paper_Space0
  1

  0
LINE
  5
5C
330
23
100
AcDbEntity
  8
0
  6
Continuous
 62
     7
370
    15
100
AcDbLine
 10
-0.4724409449
 20
0.0625
 30
0.0
 11
-0.4724409449
 21
0.0
 31
0.0
  0
LINE
  5
5D
330
23
100
AcDbEntity
  8
0
  6
Continuous
 62
     7
370
    15
100
AcDbLine
 10
0.4724409449
 20
0.0625
 30
0.0
 11
0.4724409449
 21
0.0
 31
0.0
  0
LINE
  5
5E
330
23
100
AcDbEntity
  8
0
  6
Continuous
 62
     7
370
    15
100
AcDbLine
 10
-0.4724409449
 20
0.0
 30
0.0
 11
0.4724409449
 21
0.0
 31
0.0
  0
LINE
  5
5F
330
23
100
AcDbEntity
  8
0
  6
Continuous
 62
     7
370
    15
100
AcDbLine
 10
-0.4724409449
 20
0.0625
 30
0.0
 11
0.4724409449
 21
0.0625
 31
0.0
  0
VIEWPORT
  5
7B
330
23
100
AcDbEntity
  8
0
100
AcDbViewport
 10
0.0
 20
0.0
 30
0.0
 40
9.6
 41
8.04
 68
     1
 69
     1
 12
0.0
 22
0.0
 13
0.0
 23
0.0
 14
0.5
 24
0.5
 15
0.5
 25
0.5
 16
0.0
 26
0.0
 36
1.0
 17
0.0
 27
0.0
 37
0.0
 42
50.0
 43
0.0
 44
0.0
 45
0.9637795276
 50
0.0
 51
0.0
 72
   100
 90
   557152
  1

281
     0
 71
     1
 74
     0
110
0.0
120
0.0
130
0.0
111
1.0
121
0.0
131
0.0
112
0.0
122
1.0
132
0.0
 79
     0
146
0.0
  0
ENDBLK
  5
25
330
23
100
AcDbEntity
  8
0
100
AcDbBlockEnd
  0
BLOCK
  5
62
330
60
100
AcDbEntity
  8
0
100
AcDbBlockBegin
  2
*Paper_Space1
 70
     0
 10
0.0
 20
0.0
 30
0.0
  3
*Paper_Space1
  1

  0
LWPOLYLINE
  5
64
330
60
100
AcDbEntity
  8
0
  6
Continuous
 62
     7
370
    15
100
AcDbPolyline
 90
       42
 70
   128
 43
0.0
 10
-0.0278388497
 20
-0.2543156899
 10
-0.0232630097
 20
-0.2565805749
 10
-0.0181419044
 20
-0.2584156816
 10
-0.0125955684
 20
-0.2597779969
 10
-0.0067540028
 20
-0.260635589
 10
-0.0007541292
 20
-0.2609683568
 10
0.0052634206
 20
-0.2607685006
 10
0.0111576003
 20
-0.2600407047
 10
0.0167902552
 20
-0.2588020281
 10
0.0220293609
 20
-0.2570815043
 10
0.0267521169
 20
-0.2549194609
 10
0.0308478261
 20
-0.2523665744
 10
0.0342204883
 20
-0.2494826823
 10
0.0367910513
 20
-0.2463353806
 10
0.0384992632
 20
-0.2429984394
 10
0.039305085
 20
-0.2395500737
 10
0.039189629
 20
-0.2360711103
 10
0.0381556012
 20
-0.2326430931
 10
0.0362272385
 20
-0.229346372
 10
0.0334497401
 20
-0.2262582194
 10
0.0298882081
 20
-0.2234510189
 10
0.0256261218
 20
-0.2209905688
 10
0.0207633809
 20
-0.2189345401
 10
0.015413964
 20
-0.2173311244
 10
0.0097032569
 20
-0.2162179043
 10
0.0037651136
 20
-0.2156209728
 10
-0.0022612808
 20
-0.2155543215
 10
-0.0082346726
 20
-0.2160195125
 10
-0.0140150507
 20
-0.2170056423
 10
-0.0194669279
 20
-0.2184895967
 10
-0.0244625168
 20
-0.2204365931
 10
-0.028884725
 20
-0.2228009957
 10
-0.0326298998
 20
-0.2255273847
 10
-0.0356102574
 20
-0.228551856
 10
-0.0377559407
 20
-0.2318035185
 10
-0.0390166567
 20
-0.235206156
 10
-0.0393628555
 20
-0.2386800136
 10
-0.0387864222
 20
-0.2421436669
 10
-0.0373008681
 20
-0.2455159309
 10
-0.0349410132
 20
-0.2487177626
 10
-0.0317621706
 20
-0.2516741137
 10
-0.0278388497
 20
-0.2543156899
  0
LWPOLYLINE
  5
65
330
60
100
AcDbEntity
  8
0
  6
Continuous
 62
     7
370
    15
100
AcDbPolyline
 90
       42
 70
   128
 43
0.0
 10
0.4732604441
 20
0.0349627749
 10
0.4778362841
 20
0.0326978899
 10
0.4829573893
 20
0.0308627832
 10
0.4885037254
 20
0.029500468
 10
0.4943452909
 20
0.0286428758
 10
0.5003451646
 20
0.028310108
 10
0.5063627144
 20
0.0285099642
 10
0.512256894
 20
0.0292377601
 10
0.517889549
 20
0.0304764367
 10
0.5231286546
 20
0.0321969605
 10
0.5278514107
 20
0.0343590039
 10
0.5319471198
 20
0.0369118904
 10
0.535319782
 20
0.0397957825
 10
0.537890345
 20
0.0429430842
 10
0.539598557
 20
0.0462800254
 10
0.5404043788
 20
0.0497283911
 10
0.5402889227
 20
0.0532073546
 10
0.539254895
 20
0.0566353717
 10
0.5373265323
 20
0.0599320928
 10
0.5345490338
 20
0.0630202454
 10
0.5309875018
 20
0.065827446
 10
0.5267254155
 20
0.068287896
 10
0.5218626747
 20
0.0703439247
 10
0.5165132578
 20
0.0719473404
 10
0.5108025506
 20
0.0730605605
 10
0.5048644073
 20
0.073657492
 10
0.498838013
 20
0.0737241434
 10
0.4928646212
 20
0.0732589523
 10
0.4870842431
 20
0.0722728226
 10
0.4816323659
 20
0.0707888681
 10
0.476636777
 20
0.0688418717
 10
0.4722145687
 20
0.0664774691
 10
0.468469394
 20
0.0637510801
 10
0.4654890364
 20
0.0607266088
 10
0.4633433531
 20
0.0574749463
 10
0.462082637
 20
0.0540723088
 10
0.4617364383
 20
0.0505984512
 10
0.4623128716
 20
0.0471347979
 10
0.4637984257
 20
0.0437625339
 10
0.4661582806
 20
0.0405607022
 10
0.4693371231
 20
0.0376043511
 10
0.4732604441
 20
0.0349627749
  0
LWPOLYLINE
  5
6A
330
60
100
AcDbEntity
  8
0
  6
Continuous
 62
     7
370
    15
100
AcDbPolyline
 90
       42
 70
   128
 43
0.0
 10
-0.0278388497
 20
0.3242412397
 10
-0.0232630097
 20
0.3219763548
 10
-0.0181419044
 20
0.320141248
 10
-0.0125955684
 20
0.3187789328
 10
-0.0067540028
 20
0.3179213406
 10
-0.0007541292
 20
0.3175885728
 10
0.0052634206
 20
0.3177884291
 10
0.0111576003
 20
0.318516225
 10
0.0167902552
 20
0.3197549016
 10
0.0220293609
 20
0.3214754254
 10
0.0267521169
 20
0.3236374687
 10
0.0308478261
 20
0.3261903552
 10
0.0342204883
 20
0.3290742473
 10
0.0367910513
 20
0.332221549
 10
0.0384992632
 20
0.3355584903
 10
0.039305085
 20
0.339006856
 10
0.039189629
 20
0.3424858194
 10
0.0381556012
 20
0.3459138365
 10
0.0362272385
 20
0.3492105576
 10
0.0334497401
 20
0.3522987102
 10
0.0298882081
 20
0.3551059108
 10
0.0256261218
 20
0.3575663608
 10
0.0207633809
 20
0.3596223895
 10
0.015413964
 20
0.3612258052
 10
0.0097032569
 20
0.3623390253
 10
0.0037651136
 20
0.3629359568
 10
-0.0022612808
 20
0.3630026082
 10
-0.0082346726
 20
0.3625374171
 10
-0.0140150507
 20
0.3615512874
 10
-0.0194669279
 20
0.360067333
 10
-0.0244625168
 20
0.3581203365
 10
-0.028884725
 20
0.3557559339
 10
-0.0326298998
 20
0.3530295449
 10
-0.0356102574
 20
0.3500050736
 10
-0.0377559407
 20
0.3467534111
 10
-0.0390166567
 20
0.3433507736
 10
-0.0393628555
 20
0.3398769161
 10
-0.0387864222
 20
0.3364132627
 10
-0.0373008681
 20
0.3330409987
 10
-0.0349410132
 20
0.3298391671
 10
-0.0317621706
 20
0.3268828159
 10
-0.0278388497
 20
0.3242412397
  0
LWPOLYLINE
  5
6B
330
60
100
AcDbEntity
  8
0
  6
Continuous
 62
     7
370
    15
100
AcDbPolyline
 90
       42
 70
   128
 43
0.0
 10
-0.5289381434
 20
0.0349627749
 10
-0.5243623034
 20
0.0326978899
 10
-0.5192411982
 20
0.0308627832
 10
-0.5136948621
 20
0.029500468
 10
-0.5078532966
 20
0.0286428758
 10
-0.5018534229
 20
0.028310108
 10
-0.4958358732
 20
0.0285099642
 10
-0.4899416935
 20
0.0292377601
 10
-0.4843090385
 20
0.0304764367
 10
-0.4790699329
 20
0.0321969605
 10
-0.4743471768
 20
0.0343590039
 10
-0.4702514677
 20
0.0369118904
 10
-0.4668788055
 20
0.0397957825
 10
-0.4643082425
 20
0.0429430842
 10
-0.4626000306
 20
0.0462800254
 10
-0.4617942087
 20
0.0497283911
 10
-0.4619096648
 20
0.0532073546
 10
-0.4629436925
 20
0.0566353717
 10
-0.4648720552
 20
0.0599320928
 10
-0.4676495537
 20
0.0630202454
 10
-0.4712110857
 20
0.065827446
 10
-0.475473172
 20
0.068287896
 10
-0.4803359128
 20
0.0703439247
 10
-0.4856853297
 20
0.0719473404
 10
-0.4913960369
 20
0.0730605605
 10
-0.4973341802
 20
0.073657492
 10
-0.5033605745
 20
0.0737241434
 10
-0.5093339664
 20
0.0732589523
 10
-0.5151143445
 20
0.0722728226
 10
-0.5205662216
 20
0.0707888681
 10
-0.5255618105
 20
0.0688418717
 10
-0.5299840188
 20
0.0664774691
 10
-0.5337291935
 20
0.0637510801
 10
-0.5367095511
 20
0.0607266088
 10
-0.5388552344
 20
0.0574749463
 10
-0.5401159505
 20
0.0540723088
 10
-0.5404621492
 20
0.0505984512
 10
-0.5398857159
 20
0.0471347979
 10
-0.5384001618
 20
0.0437625339
 10
-0.536040307
 20
0.0405607022
 10
-0.5328614644
 20
0.0376043511
 10
-0.5289381434
 20
0.0349627749
  0
LINE
  5
71
330
60
100
AcDbEntity
  8
0
  6
Continuous
 62
     7
370
    15
100
AcDbLine
 10
-0.6681323917
 20
0.0510338007
 30
0.0
 11
0.0
 21
-0.334670819
 31
0.0
  0
LINE
  5
72
330
60
100
AcDbEntity
  8
0
  6
Continuous
 62
     7
370
    15
100
AcDbLine
 10
0.0
 20
0.4367384205
 30
0.0
 11
-0.6681323917
 21
0.0510338007
 31
0.0
  0
LINE
  5
73
330
60
100
AcDbEntity
  8
0
  6
Continuous
 62
     7
370
    15
100
AcDbLine
 10
0.6681323917
 20
0.0510338007
 30
0.0
 11
0.0
 21
0.4367384205
 31
0.0
  0
LINE
  5
74
330
60
100
AcDbEntity
  8
0
  6
Continuous
 62
     7
370
    15
100
AcDbLine
 10
0.0
 20
-0.334670819
 30
0.0
 11
0.6681323917
 21
0.0510338007
 31
0.0
  0
LINE
  5
75
330
60
100
AcDbEntity
  8
0
  6
Continuous
 62
     7
370
    15
100
AcDbLine
 10
-0.6681323917
 20
0.0510338007
 30
0.0
 11
-0.6681323917
 21
0.0
 31
0.0
  0
LINE
  5
76
330
60
100
AcDbEntity
  8
0
  6
Continuous
 62
     7
370
    15
100
AcDbLine
 10
0.0
 20
-0.334670819
 30
0.0
 11
0.0
 21
-0.3857046198
 31
0.0
  0
LINE
  5
77
330
60
100
AcDbEntity
  8
0
  6
Continuous
 62
     7
370
    15
100
AcDbLine
 10
-0.6681323917
 20
0.0
 30
0.0
 11
0.0
 21
-0.3857046198
 31
0.0
  0
LINE
  5
78
330
60
100
AcDbEntity
  8
0
  6
Continuous
 62
     7
370
    15
100
AcDbLine
 10
0.6681323917
 20
0.0510338007
 30
0.0
 11
0.6681323917
 21
0.0
 31
0.0
  0
LINE
  5
79
330
60
100
AcDbEntity
  8
0
  6
Continuous
 62
     7
370
    15
100
AcDbLine
 10
0.0
 20
-0.3857046198
 30
0.0
 11
0.6681323917
 21
0.0
 31
0.0
  0
VIEWPORT
  5
7C
330
60
100
AcDbEntity
  8
0
100
AcDbViewport
 10
0.0
 20
0.0
 30
0.0
 40
9.6
 41
8.04
 68
     1
 69
     1
 12
0.0
 22
0.0
 13
0.0
 23
0.0
 14
0.5
 24
0.5
 15
0.5
 25
0.5
 16
0.0
 26
0.0
 36
1.0
 17
0.0
 27
0.0
 37
0.0
 42
50.0
 43
0.0
 44
0.0
 45
0.9637795276
 50
0.0
 51
0.0
 72
   100
 90
   557152
  1

281
     0
 71
     1
 74
     0
110
0.0
120
0.0
130
0.0
111
1.0
121
0.0
131
0.0
112
0.0
122
1.0
132
0.0
 79
     0
146
0.0
  0
ENDBLK
  5
63
330
60
100
AcDbEntity
  8
0
100
AcDbBlockEnd
  0
ENDSEC
  0
SECTION
  2
ENTITIES
  0
CIRCLE
  5
44
330
1F
100
AcDbEntity
  8
0
  6
Continuous
 62
     7
370
    15
100
AcDbCircle
 10
0.3543307087
 20
-0.3543307087
 30
0.0
 40
0.0393700787401575
  0
CIRCLE
  5
45
330
1F
100
AcDbEntity
  8
0
  6
Continuous
 62
     7
370
    15
100
AcDbCircle
 10
0.3543307087
 20
0.3543307087
 30
0.0
 40
0.0393700787401575
  0
CIRCLE
  5
4A
330
1F
100
AcDbEntity
  8
0
  6
Continuous
 62
     7
370
    15
100
AcDbCircle
 10
-0.3543307087
 20
0.3543307087
 30
0.0
 40
0.0393700787401575
  0
CIRCLE
  5
4B
330
1F
100
AcDbEntity
  8
0
  6
Continuous
 62
     7
370
    15
100
AcDbCircle
 10
-0.3543307087
 20
-0.3543307087
 30
0.0
 40
0.0393700787401575
  0
LINE
  5
4C
330
1F
100
AcDbEntity
  8
0
  6
Continuous
 62
     7
370
    15
100
AcDbLine
 10
-0.4724409449
 20
-0.4724409449
 30
0.0
 11
0.4724409449
 21
-0.4724409449
 31
0.0
  0
LINE
  5
4D
330
1F
100
AcDbEntity
  8
0
  6
Continuous
 62
     7
370
    15
100
AcDbLine
 10
-0.4724409449
 20
0.4724409449
 30
0.0
 11
-0.4724409449
 21
-0.4724409449
 31
0.0
  0
LINE
  5
4E
330
1F
100
AcDbEntity
  8
0
  6
Continuous
 62
     7
370
    15
100
AcDbLine
 10
0.4724409449
 20
0.4724409449
 30
0.0
 11
-0.4724409449
 21
0.4724409449
 31
0.0
  0
LINE
  5
4F
330
1F
100
AcDbEntity
  8
0
  6
Continuous
 62
     7
370
    15
100
AcDbLine
 10
0.4724409449
 20
-0.4724409449
 30
0.0
 11
0.4724409449
 21
0.4724409449
 31
0.0
  0
LINE
  5
54
330
1B
100
AcDbEntity
 67
     1
  8
0
  6
Continuous
 62
     7
370
    15
100
AcDbLine
 10
-0.4724409449
 20
0.0625
 30
0.0
 11
-0.4724409449
 21
0.0
 31
0.0
  0
LINE
  5
55
330
1B
100
AcDbEntity
 67
     1
  8
0
  6
Continuous
 62
     7
370
    15
100
AcDbLine
 10
0.4724409449
 20
0.0625
 30
0.0
 11
0.4724409449
 21
0.0
 31
0.0
  0
LINE
  5
56
330
1B
100
AcDbEntity
 67
     1
  8
0
  6
Continuous
 62
     7
370
    15
100
AcDbLine
 10
-0.4724409449
 20
0.0
 30
0.0
 11
0.4724409449
 21
0.0
 31
0.0
  0
LINE
  5
57
330
1B
100
AcDbEntity
 67
     1
  8
0
  6
Continuous
 62
     7
370
    15
100
AcDbLine
 10
-0.4724409449
 20
0.0625
 30
0.0
 11
0.4724409449
 21
0.0625
 31
0.0
  0
VIEWPORT
  5
7A
330
1B
100
AcDbEntity
 67
     1
  8
0
100
AcDbViewport
 10
0.0
 20
0.0
 30
0.0
 40
9.6
 41
8.04
 68
     1
 69
     1
 12
0.0
 22
0.0
 13
0.0
 23
0.0
 14
0.5
 24
0.5
 15
0.5
 25
0.5
 16
0.0
 26
0.0
 36
1.0
 17
0.0
 27
0.0
 37
0.0
 42
50.0
 43
0.0
 44
0.0
 45
0.9637795276
 50
0.0
 51
0.0
 72
   100
 90
   557152
  1

281
     0
 71
     1
 74
     0
110
0.0
120
0.0
130
0.0
111
1.0
121
0.0
131
0.0
112
0.0
122
1.0
132
0.0
 79
     0
146
0.0
  0
ENDSEC
  0
SECTION
  2
OBJECTS
  0
DICTIONARY
  5
C
330
0
100
AcDbDictionary
281
     1
  3
ACAD_GROUP
350
D
  3
ACAD_LAYOUT
350
1A
  3
ACAD_MLINESTYLE
350
17
  3
ACAD_PLOTSETTINGS
350
19
  3
ACAD_PLOTSTYLENAME
350
E
  0
DICTIONARY
  5
D
102
{ACAD_REACTORS
330
C
102
}
330
C
100
AcDbDictionary
281
     1
  0
DICTIONARY
  5
1A
102
{ACAD_REACTORS
330
C
102
}
330
C
100
AcDbDictionary
281
     1
  3
_Face
350
1E
  3
_Gauche
350
26
  3
_Isométrique
350
61
  3
Model
350
22
  0
DICTIONARY
  5
17
102
{ACAD_REACTORS
330
C
102
}
330
C
100
AcDbDictionary
281
     1
  3
Standard
350
18
  0
DICTIONARY
  5
19
102
{ACAD_REACTORS
330
C
102
}
330
C
100
AcDbDictionary
281
     1
  0
ACDBDICTIONARYWDFLT
  5
E
102
{ACAD_REACTORS
330
C
102
}
330
C
100
AcDbDictionary
281
     1
  3
Normal
350
F
100
AcDbDictionaryWithDefault
340
F
  0
LAYOUT
  5
1E
102
{ACAD_REACTORS
330
1A
102
}
330
1A
100
AcDbPlotSettings
  1

  2
none_device
  4

  6

 40
0.0
 41
0.0
 42
0.0
 43
0.0
 44
0.0
 45
0.0
 46
0.0
 47
0.0
 48
0.0
 49
0.0
140
0.0
141
0.0
142
1.0
143
1.0
 70
   688
 72
     0
 73
     0
 74
     5
  7

 75
    16
147
1.0
148
0.0
149
0.0
100
AcDbLayout
  1
_Face
 70
     1
 71
     1
 10
0.0
 20
0.0
 11
12.0
 21
9.0
 12
0.0
 22
0.0
 32
0.0
 14
-0.4724409449
 24
0.0
 34
0.0
 15
0.4724409449
 25
0.0625
 35
0.0
146
0.0
 13
0.0
 23
0.0
 33
0.0
 16
1.0
 26
0.0
 36
0.0
 17
0.0
 27
1.0
 37
0.0
 76
     0
330
1B
331
7A
  0
LAYOUT
  5
26
102
{ACAD_REACTORS
330
1A
102
}
330
1A
100
AcDbPlotSettings
  1

  2
none_device
  4

  6

 40
0.0
 41
0.0
 42
0.0
 43
0.0
 44
0.0
 45
0.0
 46
0.0
 47
0.0
 48
0.0
 49
0.0
140
0.0
141
0.0
142
1.0
143
1.0
 70
   688
 72
     0
 73
     0
 74
     5
  7

 75
    16
147
1.0
148
0.0
149
0.0
100
AcDbLayout
  1
_Gauche
 70
     1
 71
     2
 10
0.0
 20
0.0
 11
0.0
 21
0.0
 12
0.0
 22
0.0
 32
0.0
 14
0.0
 24
0.0
 34
0.0
 15
0.0
 25
0.0
 35
0.0
146
0.0
 13
0.0
 23
0.0
 33
0.0
 16
1.0
 26
0.0
 36
0.0
 17
0.0
 27
1.0
 37
0.0
 76
     0
330
23
331
7B
  0
LAYOUT
  5
61
102
{ACAD_REACTORS
330
1A
102
}
330
1A
100
AcDbPlotSettings
  1

  2
none_device
  4

  6

 40
0.0
 41
0.0
 42
0.0
 43
0.0
 44
0.0
 45
0.0
 46
0.0
 47
0.0
 48
0.0
 49
0.0
140
0.0
141
0.0
142
1.0
143
1.0
 70
   688
 72
     0
 73
     0
 74
     5
  7

 75
    16
147
1.0
148
0.0
149
0.0
100
AcDbLayout
  1
_Isométrique
 70
     1
 71
     3
 10
0.0
 20
0.0
 11
0.0
 21
0.0
 12
0.0
 22
0.0
 32
0.0
 14
0.0
 24
0.0
 34
0.0
 15
0.0
 25
0.0
 35
0.0
146
0.0
 13
0.0
 23
0.0
 33
0.0
 16
1.0
 26
0.0
 36
0.0
 17
0.0
 27
1.0
 37
0.0
 76
     0
330
60
331
7C
  0
LAYOUT
  5
22
102
{ACAD_REACTORS
330
1A
102
}
330
1A
100
AcDbPlotSettings
  1

  2
none_device
  4
ANSI_A_(11.00_x_8.50_Inches)
  6

 40
6.35
 41
19.05
 42
6.35000508
 43
19.05000254
 44
279.4
 45
215.9
 46
133.34999746
 47
88.89999873
 48
0.0
 49
0.0
140
0.0
141
0.0
142
8.905875
143
1.0
 70
  1696
 72
     0
 73
     0
 74
     0
  7

 75
     0
147
0.5913241897
148
0.0
149
0.0
100
AcDbLayout
  1
Model
 70
     1
 71
     0
 10
0.0
 20
0.0
 11
12.0
 21
9.0
 12
0.0
 22
0.0
 32
0.0
 14
-0.4724409449
 24
-0.4724409449
 34
0.0
 15
0.4724409449
 25
0.4724409449
 35
0.0
146
0.0
 13
0.0
 23
0.0
 33
0.0
 16
1.0
 26
0.0
 36
0.0
 17
0.0
 27
1.0
 37
0.0
 76
     0
330
1F
331
29
  0
MLINESTYLE
  5
18
102
{ACAD_REACTORS
330
17
102
}
330
17
100
AcDbMlineStyle
  2
Standard
 70
     0
  3

 62
   256
 51
90.0
 52
90.0
 71
     2
 49
0.5
 62
   256
  6
BYLAYER
 49
-0.5
 62
   256
  6
BYLAYER
  0
ACDBPLACEHOLDER
  5
F
102
{ACAD_REACTORS
330
E
102
}
330
E
  0
ENDSEC
  0
EOF
