  0
SECTION
  2
HEADER
  9
$ACADVER
  1
AC1015
  9
$ACADMAINTVER
 70
     6
  9
$DWGCODEPAGE
  3
ANSI_1252
  9
$INSBASE
 10
0.0
 20
0.0
 30
0.0
  9
$EXTMIN
 10
-0.4921259843
 20
-0.4921259843
 30
0.0
  9
$EXTMAX
 10
0.4921259843
 20
0.4921259843
 30
0.0
  9
$LIMMIN
 10
0.0
 20
0.0
  9
$LIMMAX
 10
12.0
 20
9.0
  9
$ORTHOMODE
 70
     0
  9
$REGENMODE
 70
     1
  9
$FILLMODE
 70
     1
  9
$QTEXTMODE
 70
     0
  9
$MIRRTEXT
 70
     1
  9
$LTSCALE
 40
1.0
  9
$ATTMODE
 70
     1
  9
$TEXTSIZE
 40
0.1377952756
  9
$TRACEWID
 40
0.05
  9
$TEXTSTYLE
  7
Standard
  9
$CLAYER
  8
0
  9
$CELTYPE
  6
ByLayer
  9
$CECOLOR
 62
   256
  9
$CELTSCALE
 40
1.0
  9
$DISPSILH
 70
     0
  9
$DIMSCALE
 40
1.0
  9
$DIMASZ
 40
0.13
  9
$DIMEXO
 40
0.0393700787
  9
$DIMDLI
 40
0.38
  9
$DIMRND
 40
0.0
  9
$DIMDLE
 40
0.0
  9
$DIMEXE
 40
0.0393700787
  9
$DIMTP
 40
0.0
  9
$DIMTM
 40
0.0
  9
$DIMTXT
 40
0.1377952756
  9
$DIMCEN
 40
0.09
  9
$DIMTSZ
 40
0.0
  9
$DIMTOL
 70
     0
  9
$DIMLIM
 70
     0
  9
$DIMTIH
 70
     1
  9
$DIMTOH
 70
     1
  9
$DIMSE1
 70
     0
  9
$DIMSE2
 70
     0
  9
$DIMTAD
 70
     1
  9
$DIMZIN
 70
     0
  9
$DIMBLK
  1

  9
$DIMASO
 70
     1
  9
$DIMSHO
 70
     1
  9
$DIMPOST
  1

  9
$DIMAPOST
  1

  9
$DIMALT
 70
     0
  9
$DIMALTD
 70
     2
  9
$DIMALTF
 40
25.4
  9
$DIMLFAC
 40
1.0
  9
$DIMTOFL
 70
     0
  9
$DIMTVP
 40
0.0
  9
$DIMTIX
 70
     0
  9
$DIMSOXD
 70
     0
  9
$DIMSAH
 70
     0
  9
$DIMBLK1
  1

  9
$DIMBLK2
  1

  9
$DIMSTYLE
  2
Standard
  9
$DIMCLRD
 70
     0
  9
$DIMCLRE
 70
     0
  9
$DIMCLRT
 70
     0
  9
$DIMTFAC
 40
1.0
  9
$DIMGAP
 40
0.06
  9
$DIMJUST
 70
     0
  9
$DIMSD1
 70
     0
  9
$DIMSD2
 70
     0
  9
$DIMTOLJ
 70
     1
  9
$DIMTZIN
 70
     0
  9
$DIMALTZ
 70
     0
  9
$DIMALTTZ
 70
     0
  9
$DIMUPT
 70
     0
  9
$DIMDEC
 70
     2
  9
$DIMTDEC
 70
     2
  9
$DIMALTU
 70
     2
  9
$DIMALTTD
 70
     2
  9
$DIMTXSTY
  7
Standard
  9
$DIMAUNIT
 70
     0
  9
$DIMADEC
 70
     2
  9
$DIMALTRND
 40
0.0
  9
$DIMAZIN
 70
     0
  9
$DIMDSEP
 70
    46
  9
$DIMATFIT
 70
     3
  9
$DIMFRAC
 70
     0
  9
$DIMLDRBLK
  1

  9
$DIMLUNIT
 70
     2
  9
$DIMLWD
 70
    -2
  9
$DIMLWE
 70
    -2
  9
$DIMTMOVE
 70
     0
  9
$LUNITS
 70
     2
  9
$LUPREC
 70
     2
  9
$SKETCHINC
 40
0.1
  9
$FILLETRAD
 40
0.5
  9
$AUNITS
 70
     0
  9
$AUPREC
 70
     2
  9
$MENU
  1
.
  9
$ELEVATION
 40
0.0
  9
$PELEVATION
 40
0.0
  9
$THICKNESS
 40
0.0
  9
$LIMCHECK
 70
     0
  9
$CHAMFERA
 40
0.5
  9
$CHAMFERB
 40
0.5
  9
$CHAMFERC
 40
1.0
  9
$CHAMFERD
 40
0.0
  9
$SKPOLY
 70
     0
  9
$TDCREATE
 40
2456349.567897535
  9
$TDUCREATE
 40
2456349.776230868
  9
$TDUPDATE
 40
2456349.567973298
  9
$TDUUPDATE
 40
2456349.776306632
  9
$TDINDWG
 40
0.0000000116
  9
$TDUSRTIMER
 40
0.0000000116
  9
$USRTIMER
 70
     1
  9
$ANGBASE
 50
0.0
  9
$ANGDIR
 70
     0
  9
$PDMODE
 70
     0
  9
$PDSIZE
 40
-1.0
  9
$PLINEWID
 40
0.0
  9
$SPLFRAME
 70
     0
  9
$SPLINETYPE
 70
     6
  9
$SPLINESEGS
 70
     8
  9
$HANDSEED
  5
7D
  9
$SURFTAB1
 70
     6
  9
$SURFTAB2
 70
     6
  9
$SURFTYPE
 70
     6
  9
$SURFU
 70
     6
  9
$SURFV
 70
     6
  9
$UCSBASE
  2

  9
$UCSNAME
  2

  9
$UCSORG
 10
0.0
 20
0.0
 30
0.0
  9
$UCSXDIR
 10
1.0
 20
0.0
 30
0.0
  9
$UCSYDIR
 10
0.0
 20
1.0
 30
0.0
  9
$UCSORTHOREF
  2

  9
$UCSORTHOVIEW
 70
     0
  9
$UCSORGTOP
 10
0.0
 20
0.0
 30
0.0
  9
$UCSORGBOTTOM
 10
0.0
 20
0.0
 30
0.0
  9
$UCSORGLEFT
 10
0.0
 20
0.0
 30
0.0
  9
$UCSORGRIGHT
 10
0.0
 20
0.0
 30
0.0
  9
$UCSORGFRONT
 10
0.0
 20
0.0
 30
0.0
  9
$UCSORGBACK
 10
0.0
 20
0.0
 30
0.0
  9
$PUCSBASE
  2

  9
$PUCSNAME
  2

  9
$PUCSORG
 10
0.0
 20
0.0
 30
0.0
  9
$PUCSXDIR
 10
1.0
 20
0.0
 30
0.0
  9
$PUCSYDIR
 10
0.0
 20
1.0
 30
0.0
  9
$PUCSORTHOREF
  2

  9
$PUCSORTHOVIEW
 70
     0
  9
$PUCSORGTOP
 10
0.0
 20
0.0
 30
0.0
  9
$PUCSORGBOTTOM
 10
0.0
 20
0.0
 30
0.0
  9
$PUCSORGLEFT
 10
0.0
 20
0.0
 30
0.0
  9
$PUCSORGRIGHT
 10
0.0
 20
0.0
 30
0.0
  9
$PUCSORGFRONT
 10
0.0
 20
0.0
 30
0.0
  9
$PUCSORGBACK
 10
0.0
 20
0.0
 30
0.0
  9
$USERI1
 70
     0
  9
$USERI2
 70
     0
  9
$USERI3
 70
     0
  9
$USERI4
 70
     0
  9
$USERI5
 70
     0
  9
$USERR1
 40
0.0
  9
$USERR2
 40
0.0
  9
$USERR3
 40
0.0
  9
$USERR4
 40
0.0
  9
$USERR5
 40
0.0
  9
$WORLDVIEW
 70
     1
  9
$SHADEDGE
 70
     3
  9
$SHADEDIF
 70
    70
  9
$TILEMODE
 70
     1
  9
$MAXACTVP
 70
    64
  9
$PINSBASE
 10
0.0
 20
0.0
 30
0.0
  9
$PLIMCHECK
 70
     0
  9
$PEXTMIN
 10
-0.4921259843
 20
-0.0625
 30
0.0
  9
$PEXTMAX
 10
0.4921259843
 20
0.0
 30
0.0
  9
$PLIMMIN
 10
0.0
 20
0.0
  9
$PLIMMAX
 10
12.0
 20
9.0
  9
$UNITMODE
 70
     0
  9
$VISRETAIN
 70
     1
  9
$PLINEGEN
 70
     0
  9
$PSLTSCALE
 70
     1
  9
$TREEDEPTH
 70
  3020
  9
$CMLSTYLE
  2
Standard
  9
$CMLJUST
 70
     0
  9
$CMLSCALE
 40
1.0
  9
$PROXYGRAPHICS
 70
     1
  9
$MEASUREMENT
 70
     0
  9
$CELWEIGHT
370
    -1
  9
$ENDCAPS
280
     0
  9
$JOINSTYLE
280
     0
  9
$LWDISPLAY
290
     1
  9
$INSUNITS
 70
     1
  9
$HYPERLINKBASE
  1

  9
$STYLESHEET
  1

  9
$XEDIT
290
     1
  9
$CEPSNTYPE
380
     0
  9
$PSTYLEMODE
290
     1
  9
$FINGERPRINTGUID
  2
{500D05F4-D613-4F55-A406-321C2293D61B}
  9
$VERSIONGUID
  2
{FAEB1C32-E019-11D5-929B-00C0DF256EC4}
  9
$EXTNAMES
290
     1
  9
$PSVPSCALE
 40
0.0
  9
$OLESTARTUP
290
     0
  0
ENDSEC
  0
SECTION
  2
CLASSES
  0
CLASS
  1
ACDBDICTIONARYWDFLT
  2
AcDbDictionaryWithDefault
  3
ObjectDBX Classes
 90
        0
280
     0
281
     0
  0
CLASS
  1
VISUALSTYLE
  2
AcDbVisualStyle
  3
ObjectDBX Classes
 90
     4095
280
     0
281
     0
  0
CLASS
  1
MATERIAL
  2
AcDbMaterial
  3
ObjectDBX Classes
 90
     1153
280
     0
281
     0
  0
CLASS
  1
ACDBPLACEHOLDER
  2
AcDbPlaceHolder
  3
ObjectDBX Classes
 90
        0
280
     0
281
     0
  0
CLASS
  1
LAYOUT
  2
AcDbLayout
  3
ObjectDBX Classes
 90
        0
280
     0
281
     0
  0
ENDSEC
  0
SECTION
  2
TABLES
  0
TABLE
  2
VPORT
  5
8
330
0
100
AcDbSymbolTable
 70
     1
  0
VPORT
  5
29
330
8
100
AcDbSymbolTableRecord
100
AcDbViewportTableRecord
  2
*Active
 70
     0
 10
0.0
 20
0.0
 11
1.0
 21
1.0
 12
0.0
 22
0.0
 13
0.0
 23
0.0
 14
0.5
 24
0.5
 15
0.5
 25
0.5
 16
0.0
 26
0.0
 36
1.0
 17
0.0
 27
0.0
 37
0.0
 40
1.0039370079
 41
1.0
 42
50.0
 43
0.0
 44
0.0
 50
0.0
 51
0.0
 71
     0
 72
   100
 73
     1
 74
     3
 75
     0
 76
     0
 77
     0
 78
     0
281
     0
 65
     1
110
0.0
120
0.0
130
0.0
111
1.0
121
0.0
131
0.0
112
0.0
122
1.0
132
0.0
 79
     0
146
0.0
  0
ENDTAB
  0
TABLE
  2
LTYPE
  5
5
330
0
100
AcDbSymbolTable
 70
     6
  0
LTYPE
  5
14
330
5
100
AcDbSymbolTableRecord
100
AcDbLinetypeTableRecord
  2
ByBlock
 70
     0
  3

 72
    65
 73
     0
 40
0.0
  0
LTYPE
  5
15
330
5
100
AcDbSymbolTableRecord
100
AcDbLinetypeTableRecord
  2
ByLayer
 70
     0
  3

 72
    65
 73
     0
 40
0.0
  0
LTYPE
  5
16
330
5
100
AcDbSymbolTableRecord
100
AcDbLinetypeTableRecord
  2
Continuous
 70
     0
  3
Solid line
 72
    65
 73
     0
 40
0.0
  0
LTYPE
  5
3F
330
5
100
AcDbSymbolTableRecord
100
AcDbLinetypeTableRecord
  2
HIDDEN
 70
     0
  3
Hidden __ __ __ __ __ __ __ __ __ __ __ __ __ __
 72
    65
 73
     2
 40
0.075
 49
0.05
 74
     0
 49
-0.025
 74
     0
  0
LTYPE
  5
40
330
5
100
AcDbSymbolTableRecord
100
AcDbLinetypeTableRecord
  2
PHANTOM
 70
     0
  3
Phantom ______  __  __  ______  __  __  ______
 72
    65
 73
     6
 40
0.5
 49
0.25
 74
     0
 49
-0.05
 74
     0
 49
0.05
 74
     0
 49
-0.05
 74
     0
 49
0.05
 74
     0
 49
-0.05
 74
     0
  0
LTYPE
  5
41
330
5
100
AcDbSymbolTableRecord
100
AcDbLinetypeTableRecord
  2
CENTER
 70
     0
  3
Center ____ _ ____ _ ____ _ ____ _ ____ _ ____
 72
    65
 73
     4
 40
0.4
 49
0.25
 74
     0
 49
-0.05
 74
     0
 49
0.05
 74
     0
 49
-0.05
 74
     0
  0
LTYPE
  5
42
330
5
100
AcDbSymbolTableRecord
100
AcDbLinetypeTableRecord
  2
CENTERX2
 70
     0
  3
Center (2x) ________  __  ________  __  _____
 72
    65
 73
     4
 40
0.8
 49
0.5
 74
     0
 49
-0.1
 74
     0
 49
0.1
 74
     0
 49
-0.1
 74
     0
  0
LTYPE
  5
43
330
5
100
AcDbSymbolTableRecord
100
AcDbLinetypeTableRecord
  2
DOT2
 70
     0
  3
Dot (.5x) ........................................
 72
    65
 73
     2
 40
0.025
 49
0.0
 74
     0
 49
-0.025
 74
     0
  0
ENDTAB
  0
TABLE
  2
LAYER
  5
2
330
0
100
AcDbSymbolTable
 70
     1
  0
LAYER
  5
10
330
2
100
AcDbSymbolTableRecord
100
AcDbLayerTableRecord
  2
0
 70
     0
 62
     7
  6
Continuous
370
    -3
390
F
  0
ENDTAB
  0
TABLE
  2
STYLE
  5
3
330
0
100
AcDbSymbolTable
 70
     1
  0
STYLE
  5
11
330
3
100
AcDbSymbolTableRecord
100
AcDbTextStyleTableRecord
  2
Standard
 70
     0
 40
0.0
 41
1.0
 50
0.0
 71
     0
 42
0.1377952756
  3
txt
  4

  0
ENDTAB
  0
TABLE
  2
VIEW
  5
6
330
0
100
AcDbSymbolTable
 70
     0
  0
ENDTAB
  0
TABLE
  2
UCS
  5
7
330
0
100
AcDbSymbolTable
 70
     0
  0
ENDTAB
  0
TABLE
  2
APPID
  5
9
330
0
100
AcDbSymbolTable
 70
     1
  0
APPID
  5
12
330
9
100
AcDbSymbolTableRecord
100
AcDbRegAppTableRecord
  2
ACAD
 70
     0
  0
ENDTAB
  0
TABLE
  2
DIMSTYLE
  5
A
330
0
100
AcDbSymbolTable
 70
     1
100
AcDbDimStyleTable
  0
DIMSTYLE
105
27
330
A
100
AcDbSymbolTableRecord
100
AcDbDimStyleTableRecord
  2
Standard
 70
     0
178
     0
340
11
  0
ENDTAB
  0
TABLE
  2
BLOCK_RECORD
  5
1
330
0
100
AcDbSymbolTable
 70
     2
  0
BLOCK_RECORD
  5
1F
330
1
100
AcDbSymbolTableRecord
100
AcDbBlockTableRecord
  2
*Model_Space
340
22
  0
BLOCK_RECORD
  5
1B
330
1
100
AcDbSymbolTableRecord
100
AcDbBlockTableRecord
  2
*Paper_Space
340
1E
  0
BLOCK_RECORD
  5
23
330
1
100
AcDbSymbolTableRecord
100
AcDbBlockTableRecord
  2
*Paper_Space0
340
26
  0
BLOCK_RECORD
  5
60
330
1
100
AcDbSymbolTableRecord
100
AcDbBlockTableRecord
  2
*Paper_Space1
340
61
  0
ENDTAB
  0
ENDSEC
  0
SECTION
  2
BLOCKS
  0
BLOCK
  5
20
330
1F
100
AcDbEntity
  8
0
100
AcDbBlockBegin
  2
*Model_Space
 70
     0
 10
0.0
 20
0.0
 30
0.0
  3
*Model_Space
  1

  0
ENDBLK
  5
21
330
1F
100
AcDbEntity
  8
0
100
AcDbBlockEnd
  0
BLOCK
  5
1C
330
1B
100
AcDbEntity
 67
     1
  8
0
100
AcDbBlockBegin
  2
*Paper_Space
 70
     0
 10
0.0
 20
0.0
 30
0.0
  3
*Paper_Space
  1

  0
ENDBLK
  5
1D
330
1B
100
AcDbEntity
 67
     1
  8
0
100
AcDbBlockEnd
  0
BLOCK
  5
24
330
23
100
AcDbEntity
  8
0
100
AcDbBlockBegin
  2
*Paper_Space0
 70
     0
 10
0.0
 20
0.0
 30
0.0
  3
*Paper_Space0
  1

  0
LINE
  5
5C
330
23
100
AcDbEntity
  8
0
  6
Continuous
 62
     7
370
    15
100
AcDbLine
 10
-0.0625
 20
-0.4921259843
 30
0.0
 11
0.0
 21
-0.4921259843
 31
0.0
  0
LINE
  5
5D
330
23
100
AcDbEntity
  8
0
  6
Continuous
 62
     7
370
    15
100
AcDbLine
 10
-0.0625
 20
0.4921259843
 30
0.0
 11
0.0
 21
0.4921259843
 31
0.0
  0
LINE
  5
5E
330
23
100
AcDbEntity
  8
0
  6
Continuous
 62
     7
370
    15
100
AcDbLine
 10
0.0
 20
-0.4921259843
 30
0.0
 11
0.0
 21
0.4921259843
 31
0.0
  0
LINE
  5
5F
330
23
100
AcDbEntity
  8
0
  6
Continuous
 62
     7
370
    15
100
AcDbLine
 10
-0.0625
 20
-0.4921259843
 30
0.0
 11
-0.0625
 21
0.4921259843
 31
0.0
  0
VIEWPORT
  5
7B
330
23
100
AcDbEntity
  8
0
100
AcDbViewport
 10
0.0
 20
0.0
 30
0.0
 40
9.6
 41
8.04
 68
     1
 69
     1
 12
0.0
 22
0.0
 13
0.0
 23
0.0
 14
0.5
 24
0.5
 15
0.5
 25
0.5
 16
0.0
 26
0.0
 36
1.0
 17
0.0
 27
0.0
 37
0.0
 42
50.0
 43
0.0
 44
0.0
 45
1.0039370079
 50
0.0
 51
0.0
 72
   100
 90
   557152
  1

281
     0
 71
     1
 74
     0
110
0.0
120
0.0
130
0.0
111
1.0
121
0.0
131
0.0
112
0.0
122
1.0
132
0.0
 79
     0
146
0.0
  0
ENDBLK
  5
25
330
23
100
AcDbEntity
  8
0
100
AcDbBlockEnd
  0
BLOCK
  5
62
330
60
100
AcDbEntity
  8
0
100
AcDbBlockBegin
  2
*Paper_Space1
 70
     0
 10
0.0
 20
0.0
 30
0.0
  3
*Paper_Space1
  1

  0
LWPOLYLINE
  5
64
330
60
100
AcDbEntity
  8
0
  6
Continuous
 62
     7
370
    15
100
AcDbPolyline
 90
       41
 70
   128
 43
0.0
 10
0.2341943227
 20
-0.3582109386
 10
0.2338515803
 20
-0.3529841357
 10
0.2328317924
 20
-0.347490312
 10
0.2311600697
 20
-0.3418647438
 10
0.2288775755
 20
-0.3362459511
 10
0.2260405124
 20
-0.3307722873
 10
0.2227187383
 20
-0.3255785321
 10
0.2189940463
 20
-0.3207925732
 10
0.2149581507
 20
-0.3165322565
 10
0.2107104286
 20
-0.3129024854
 10
0.2063554731
 20
-0.3099926368
 10
0.2020005175
 20
-0.3078743607
 10
0.1977527954
 20
-0.3065998163
 10
0.1937168998
 20
-0.3062003871
 10
0.1899922078
 20
-0.3066859082
 10
0.1866704337
 20
-0.3080444246
 10
0.1838333706
 20
-0.310242485
 10
0.1815508764
 20
-0.313225966
 10
0.1798791537
 20
-0.3169214044
 10
0.1788593658
 20
-0.3212378061
 10
0.1785166234
 20
-0.326068887
 10
0.1788593658
 20
-0.3312956899
 10
0.1798791537
 20
-0.3367895136
 10
0.1815508764
 20
-0.3424150819
 10
0.1838333706
 20
-0.3480338746
 10
0.1866704337
 20
-0.3535075384
 10
0.1899922078
 20
-0.3587012935
 10
0.1937168998
 20
-0.3634872525
 10
0.1977527954
 20
-0.3677475691
 10
0.2020005175
 20
-0.3713773402
 10
0.2063554731
 20
-0.3742871889
 10
0.2107104286
 20
-0.3764054649
 10
0.2149581507
 20
-0.3776800093
 10
0.2189940463
 20
-0.3780794386
 10
0.2227187383
 20
-0.3775939174
 10
0.2260405124
 20
-0.3762354011
 10
0.2288775755
 20
-0.3740373406
 10
0.2311600697
 20
-0.3710538596
 10
0.2328317924
 20
-0.3673584213
 10
0.2338515803
 20
-0.3630420196
 10
0.2341943227
 20
-0.3582109386
  0
LWPOLYLINE
  5
65
330
60
100
AcDbEntity
  8
0
  6
Continuous
 62
     7
370
    15
100
AcDbPolyline
 90
       41
 70
   128
 43
0.0
 10
0.2341943227
 20
-0.0142350848
 10
0.2338515803
 20
-0.0090082819
 10
0.2328317924
 20
-0.0035144582
 10
0.2311600697
 20
0.0021111101
 10
0.2288775755
 20
0.0077299028
 10
0.2260405124
 20
0.0132035666
 10
0.2227187383
 20
0.0183973217
 10
0.2189940463
 20
0.0231832807
 10
0.2149581507
 20
0.0274435973
 10
0.2107104286
 20
0.0310733684
 10
0.2063554731
 20
0.0339832171
 10
0.2020005175
 20
0.0361014931
 10
0.1977527954
 20
0.0373760375
 10
0.1937168998
 20
0.0377754668
 10
0.1899922078
 20
0.0372899456
 10
0.1866704337
 20
0.0359314292
 10
0.1838333706
 20
0.0337333688
 10
0.1815508764
 20
0.0307498878
 10
0.1798791537
 20
0.0270544495
 10
0.1788593658
 20
0.0227380478
 10
0.1785166234
 20
0.0179069668
 10
0.1788593658
 20
0.0126801639
 10
0.1798791537
 20
0.0071863402
 10
0.1815508764
 20
0.0015607719
 10
0.1838333706
 20
-0.0040580208
 10
0.1866704337
 20
-0.0095316845
 10
0.1899922078
 20
-0.0147254397
 10
0.1937168998
 20
-0.0195113986
 10
0.1977527954
 20
-0.0237717153
 10
0.2020005175
 20
-0.0274014864
 10
0.2063554731
 20
-0.030311335
 10
0.2107104286
 20
-0.0324296111
 10
0.2149581507
 20
-0.0337041555
 10
0.2189940463
 20
-0.0341035847
 10
0.2227187383
 20
-0.0336180636
 10
0.2260405124
 20
-0.0322595472
 10
0.2288775755
 20
-0.0300614868
 10
0.2311600697
 20
-0.0270780058
 10
0.2328317924
 20
-0.0233825674
 10
0.2338515803
 20
-0.0190661658
 10
0.2341943227
 20
-0.0142350848
  0
LWPOLYLINE
  5
6A
330
60
100
AcDbEntity
  8
0
  6
Continuous
 62
     7
370
    15
100
AcDbPolyline
 90
       41
 70
   128
 43
0.0
 10
-0.266904971
 20
0.27504338
 10
-0.2672477135
 20
0.2802701829
 10
-0.2682675013
 20
0.2857640066
 10
-0.269939224
 20
0.2913895749
 10
-0.2722217182
 20
0.2970083676
 10
-0.2750587813
 20
0.3024820314
 10
-0.2783805554
 20
0.3076757865
 10
-0.2821052474
 20
0.3124617455
 10
-0.2861411431
 20
0.3167220621
 10
-0.2903888651
 20
0.3203518332
 10
-0.2947438207
 20
0.3232616819
 10
-0.2990987763
 20
0.3253799579
 10
-0.3033464983
 20
0.3266545023
 10
-0.307382394
 20
0.3270539316
 10
-0.311107086
 20
0.3265684105
 10
-0.3144288601
 20
0.3252098941
 10
-0.3172659232
 20
0.3230118336
 10
-0.3195484174
 20
0.3200283526
 10
-0.3212201401
 20
0.3163329143
 10
-0.3222399279
 20
0.3120165126
 10
-0.3225826704
 20
0.3071854317
 10
-0.3222399279
 20
0.3019586287
 10
-0.3212201401
 20
0.296464805
 10
-0.3195484174
 20
0.2908392368
 10
-0.3172659232
 20
0.2852204441
 10
-0.3144288601
 20
0.2797467803
 10
-0.311107086
 20
0.2745530251
 10
-0.307382394
 20
0.2697670662
 10
-0.3033464983
 20
0.2655067495
 10
-0.2990987763
 20
0.2618769784
 10
-0.2947438207
 20
0.2589671298
 10
-0.2903888651
 20
0.2568488538
 10
-0.2861411431
 20
0.2555743094
 10
-0.2821052474
 20
0.2551748801
 10
-0.2783805554
 20
0.2556604012
 10
-0.2750587813
 20
0.2570189176
 10
-0.2722217182
 20
0.2592169781
 10
-0.269939224
 20
0.262200459
 10
-0.2682675013
 20
0.2658958974
 10
-0.2672477135
 20
0.2702122991
 10
-0.266904971
 20
0.27504338
  0
LWPOLYLINE
  5
6B
330
60
100
AcDbEntity
  8
0
  6
Continuous
 62
     7
370
    15
100
AcDbPolyline
 90
       41
 70
   128
 43
0.0
 10
-0.266904971
 20
-0.0689324738
 10
-0.2672477135
 20
-0.0637056709
 10
-0.2682675013
 20
-0.0582118472
 10
-0.269939224
 20
-0.0525862789
 10
-0.2722217182
 20
-0.0469674862
 10
-0.2750587813
 20
-0.0414938224
 10
-0.2783805554
 20
-0.0363000673
 10
-0.2821052474
 20
-0.0315141083
 10
-0.2861411431
 20
-0.0272537917
 10
-0.2903888651
 20
-0.0236240206
 10
-0.2947438207
 20
-0.0207141719
 10
-0.2990987763
 20
-0.0185958959
 10
-0.3033464983
 20
-0.0173213515
 10
-0.307382394
 20
-0.0169219223
 10
-0.311107086
 20
-0.0174074434
 10
-0.3144288601
 20
-0.0187659598
 10
-0.3172659232
 20
-0.0209640202
 10
-0.3195484174
 20
-0.0239475012
 10
-0.3212201401
 20
-0.0276429395
 10
-0.3222399279
 20
-0.0319593412
 10
-0.3225826704
 20
-0.0367904222
 10
-0.3222399279
 20
-0.0420172251
 10
-0.3212201401
 20
-0.0475110488
 10
-0.3195484174
 20
-0.0531366171
 10
-0.3172659232
 20
-0.0587554098
 10
-0.3144288601
 20
-0.0642290736
 10
-0.311107086
 20
-0.0694228287
 10
-0.307382394
 20
-0.0742087877
 10
-0.3033464983
 20
-0.0784691043
 10
-0.2990987763
 20
-0.0820988754
 10
-0.2947438207
 20
-0.0850087241
 10
-0.2903888651
 20
-0.0871270001
 10
-0.2861411431
 20
-0.0884015445
 10
-0.2821052474
 20
-0.0888009737
 10
-0.2783805554
 20
-0.0883154526
 10
-0.2750587813
 20
-0.0869569362
 10
-0.2722217182
 20
-0.0847588758
 10
-0.269939224
 20
-0.0817753948
 10
-0.2682675013
 20
-0.0780799565
 10
-0.2672477135
 20
-0.0737635548
 10
-0.266904971
 20
-0.0689324738
  0
LINE
  5
71
330
60
100
AcDbEntity
  8
0
  6
Continuous
 62
     7
370
    15
100
AcDbLine
 10
-0.3921797945
 20
-0.2264658814
 30
0.0
 11
0.3037914468
 21
-0.628241527
 31
0.0
  0
LINE
  5
72
330
60
100
AcDbEntity
  8
0
  6
Continuous
 62
     7
370
    15
100
AcDbLine
 10
-0.3921797945
 20
0.57721602
 30
0.0
 11
-0.3921797945
 21
-0.2264658814
 31
0.0
  0
LINE
  5
73
330
60
100
AcDbEntity
  8
0
  6
Continuous
 62
     7
370
    15
100
AcDbLine
 10
0.3037914468
 20
0.1754403744
 30
0.0
 11
-0.3921797945
 21
0.57721602
 31
0.0
  0
LINE
  5
74
330
60
100
AcDbEntity
  8
0
  6
Continuous
 62
     7
370
    15
100
AcDbLine
 10
0.3037914468
 20
-0.628241527
 30
0.0
 11
0.3037914468
 21
0.1754403744
 31
0.0
  0
LINE
  5
75
330
60
100
AcDbEntity
  8
0
  6
Continuous
 62
     7
370
    15
100
AcDbLine
 10
0.3037914468
 20
0.1754403744
 30
0.0
 11
0.3479856207
 21
0.2009531279
 31
0.0
  0
LINE
  5
76
330
60
100
AcDbEntity
  8
0
  6
Continuous
 62
     7
370
    15
100
AcDbLine
 10
-0.3921797945
 20
0.57721602
 30
0.0
 11
-0.3479856207
 21
0.6027287735
 31
0.0
  0
LINE
  5
77
330
60
100
AcDbEntity
  8
0
  6
Continuous
 62
     7
370
    15
100
AcDbLine
 10
0.3479856207
 20
0.2009531279
 30
0.0
 11
-0.3479856207
 21
0.6027287735
 31
0.0
  0
LINE
  5
78
330
60
100
AcDbEntity
  8
0
  6
Continuous
 62
     7
370
    15
100
AcDbLine
 10
0.3037914468
 20
-0.628241527
 30
0.0
 11
0.3479856207
 21
-0.6027287735
 31
0.0
  0
LINE
  5
79
330
60
100
AcDbEntity
  8
0
  6
Continuous
 62
     7
370
    15
100
AcDbLine
 10
0.3479856207
 20
-0.6027287735
 30
0.0
 11
0.3479856207
 21
0.2009531279
 31
0.0
  0
VIEWPORT
  5
7C
330
60
100
AcDbEntity
  8
0
100
AcDbViewport
 10
0.0
 20
0.0
 30
0.0
 40
9.6
 41
8.04
 68
     1
 69
     1
 12
0.0
 22
0.0
 13
0.0
 23
0.0
 14
0.5
 24
0.5
 15
0.5
 25
0.5
 16
0.0
 26
0.0
 36
1.0
 17
0.0
 27
0.0
 37
0.0
 42
50.0
 43
0.0
 44
0.0
 45
1.0039370079
 50
0.0
 51
0.0
 72
   100
 90
   557152
  1

281
     0
 71
     1
 74
     0
110
0.0
120
0.0
130
0.0
111
1.0
121
0.0
131
0.0
112
0.0
122
1.0
132
0.0
 79
     0
146
0.0
  0
ENDBLK
  5
63
330
60
100
AcDbEntity
  8
0
100
AcDbBlockEnd
  0
ENDSEC
  0
SECTION
  2
ENTITIES
  0
CIRCLE
  5
44
330
1F
100
AcDbEntity
  8
0
  6
Continuous
 62
     7
370
    15
100
AcDbCircle
 10
0.3543307087
 20
-0.2106299213
 30
0.0
 40
0.0393700787401576
  0
CIRCLE
  5
45
330
1F
100
AcDbEntity
  8
0
  6
Continuous
 62
     7
370
    15
100
AcDbCircle
 10
0.3543307087
 20
0.2106299213
 30
0.0
 40
0.0393700787401576
  0
CIRCLE
  5
4A
330
1F
100
AcDbEntity
  8
0
  6
Continuous
 62
     7
370
    15
100
AcDbCircle
 10
-0.3543307087
 20
0.2106299213
 30
0.0
 40
0.0393700787401576
  0
CIRCLE
  5
4B
330
1F
100
AcDbEntity
  8
0
  6
Continuous
 62
     7
370
    15
100
AcDbCircle
 10
-0.3543307087
 20
-0.2106299213
 30
0.0
 40
0.0393700787401578
  0
LINE
  5
4C
330
1F
100
AcDbEntity
  8
0
  6
Continuous
 62
     7
370
    15
100
AcDbLine
 10
-0.4921259843
 20
-0.4921259843
 30
0.0
 11
0.4921259843
 21
-0.4921259843
 31
0.0
  0
LINE
  5
4D
330
1F
100
AcDbEntity
  8
0
  6
Continuous
 62
     7
370
    15
100
AcDbLine
 10
-0.4921259843
 20
0.4921259843
 30
0.0
 11
-0.4921259843
 21
-0.4921259843
 31
0.0
  0
LINE
  5
4E
330
1F
100
AcDbEntity
  8
0
  6
Continuous
 62
     7
370
    15
100
AcDbLine
 10
0.4921259843
 20
0.4921259843
 30
0.0
 11
-0.4921259843
 21
0.4921259843
 31
0.0
  0
LINE
  5
4F
330
1F
100
AcDbEntity
  8
0
  6
Continuous
 62
     7
370
    15
100
AcDbLine
 10
0.4921259843
 20
-0.4921259843
 30
0.0
 11
0.4921259843
 21
0.4921259843
 31
0.0
  0
LINE
  5
54
330
1B
100
AcDbEntity
 67
     1
  8
0
  6
Continuous
 62
     7
370
    15
100
AcDbLine
 10
-0.4921259843
 20
-0.0625
 30
0.0
 11
-0.4921259843
 21
0.0
 31
0.0
  0
LINE
  5
55
330
1B
100
AcDbEntity
 67
     1
  8
0
  6
Continuous
 62
     7
370
    15
100
AcDbLine
 10
0.4921259843
 20
-0.0625
 30
0.0
 11
0.4921259843
 21
0.0
 31
0.0
  0
LINE
  5
56
330
1B
100
AcDbEntity
 67
     1
  8
0
  6
Continuous
 62
     7
370
    15
100
AcDbLine
 10
0.4921259843
 20
0.0
 30
0.0
 11
-0.4921259843
 21
0.0
 31
0.0
  0
LINE
  5
57
330
1B
100
AcDbEntity
 67
     1
  8
0
  6
Continuous
 62
     7
370
    15
100
AcDbLine
 10
0.4921259843
 20
-0.0625
 30
0.0
 11
-0.4921259843
 21
-0.0625
 31
0.0
  0
VIEWPORT
  5
7A
330
1B
100
AcDbEntity
 67
     1
  8
0
100
AcDbViewport
 10
0.0
 20
0.0
 30
0.0
 40
9.6
 41
8.04
 68
     1
 69
     1
 12
0.0
 22
0.0
 13
0.0
 23
0.0
 14
0.5
 24
0.5
 15
0.5
 25
0.5
 16
0.0
 26
0.0
 36
1.0
 17
0.0
 27
0.0
 37
0.0
 42
50.0
 43
0.0
 44
0.0
 45
1.0039370079
 50
0.0
 51
0.0
 72
   100
 90
   557152
  1

281
     0
 71
     1
 74
     0
110
0.0
120
0.0
130
0.0
111
1.0
121
0.0
131
0.0
112
0.0
122
1.0
132
0.0
 79
     0
146
0.0
  0
ENDSEC
  0
SECTION
  2
OBJECTS
  0
DICTIONARY
  5
C
330
0
100
AcDbDictionary
281
     1
  3
ACAD_GROUP
350
D
  3
ACAD_LAYOUT
350
1A
  3
ACAD_MLINESTYLE
350
17
  3
ACAD_PLOTSETTINGS
350
19
  3
ACAD_PLOTSTYLENAME
350
E
  0
DICTIONARY
  5
D
102
{ACAD_REACTORS
330
C
102
}
330
C
100
AcDbDictionary
281
     1
  0
DICTIONARY
  5
1A
102
{ACAD_REACTORS
330
C
102
}
330
C
100
AcDbDictionary
281
     1
  3
_Dessus
350
1E
  3
_Droite
350
26
  3
_Isométrique
350
61
  3
Model
350
22
  0
DICTIONARY
  5
17
102
{ACAD_REACTORS
330
C
102
}
330
C
100
AcDbDictionary
281
     1
  3
Standard
350
18
  0
DICTIONARY
  5
19
102
{ACAD_REACTORS
330
C
102
}
330
C
100
AcDbDictionary
281
     1
  0
ACDBDICTIONARYWDFLT
  5
E
102
{ACAD_REACTORS
330
C
102
}
330
C
100
AcDbDictionary
281
     1
  3
Normal
350
F
100
AcDbDictionaryWithDefault
340
F
  0
LAYOUT
  5
1E
102
{ACAD_REACTORS
330
1A
102
}
330
1A
100
AcDbPlotSettings
  1

  2
none_device
  4

  6

 40
0.0
 41
0.0
 42
0.0
 43
0.0
 44
0.0
 45
0.0
 46
0.0
 47
0.0
 48
0.0
 49
0.0
140
0.0
141
0.0
142
1.0
143
1.0
 70
   688
 72
     0
 73
     0
 74
     5
  7

 75
    16
147
1.0
148
0.0
149
0.0
100
AcDbLayout
  1
_Dessus
 70
     1
 71
     1
 10
0.0
 20
0.0
 11
12.0
 21
9.0
 12
0.0
 22
0.0
 32
0.0
 14
-0.4921259843
 24
-0.0625
 34
0.0
 15
0.4921259843
 25
0.0
 35
0.0
146
0.0
 13
0.0
 23
0.0
 33
0.0
 16
1.0
 26
0.0
 36
0.0
 17
0.0
 27
1.0
 37
0.0
 76
     0
330
1B
331
7A
  0
LAYOUT
  5
26
102
{ACAD_REACTORS
330
1A
102
}
330
1A
100
AcDbPlotSettings
  1

  2
none_device
  4

  6

 40
0.0
 41
0.0
 42
0.0
 43
0.0
 44
0.0
 45
0.0
 46
0.0
 47
0.0
 48
0.0
 49
0.0
140
0.0
141
0.0
142
1.0
143
1.0
 70
   688
 72
     0
 73
     0
 74
     5
  7

 75
    16
147
1.0
148
0.0
149
0.0
100
AcDbLayout
  1
_Droite
 70
     1
 71
     2
 10
0.0
 20
0.0
 11
0.0
 21
0.0
 12
0.0
 22
0.0
 32
0.0
 14
0.0
 24
0.0
 34
0.0
 15
0.0
 25
0.0
 35
0.0
146
0.0
 13
0.0
 23
0.0
 33
0.0
 16
1.0
 26
0.0
 36
0.0
 17
0.0
 27
1.0
 37
0.0
 76
     0
330
23
331
7B
  0
LAYOUT
  5
61
102
{ACAD_REACTORS
330
1A
102
}
330
1A
100
AcDbPlotSettings
  1

  2
none_device
  4

  6

 40
0.0
 41
0.0
 42
0.0
 43
0.0
 44
0.0
 45
0.0
 46
0.0
 47
0.0
 48
0.0
 49
0.0
140
0.0
141
0.0
142
1.0
143
1.0
 70
   688
 72
     0
 73
     0
 74
     5
  7

 75
    16
147
1.0
148
0.0
149
0.0
100
AcDbLayout
  1
_Isométrique
 70
     1
 71
     3
 10
0.0
 20
0.0
 11
0.0
 21
0.0
 12
0.0
 22
0.0
 32
0.0
 14
0.0
 24
0.0
 34
0.0
 15
0.0
 25
0.0
 35
0.0
146
0.0
 13
0.0
 23
0.0
 33
0.0
 16
1.0
 26
0.0
 36
0.0
 17
0.0
 27
1.0
 37
0.0
 76
     0
330
60
331
7C
  0
LAYOUT
  5
22
102
{ACAD_REACTORS
330
1A
102
}
330
1A
100
AcDbPlotSettings
  1

  2
none_device
  4
ANSI_A_(11.00_x_8.50_Inches)
  6

 40
6.35
 41
19.05
 42
6.35000508
 43
19.05000254
 44
279.4
 45
215.9
 46
133.34999746
 47
88.89999873
 48
0.0
 49
0.0
140
0.0
141
0.0
142
8.54964
143
1.0
 70
  1696
 72
     0
 73
     0
 74
     0
  7

 75
     0
147
0.5913241897
148
0.0
149
0.0
100
AcDbLayout
  1
Model
 70
     1
 71
     0
 10
0.0
 20
0.0
 11
12.0
 21
9.0
 12
0.0
 22
0.0
 32
0.0
 14
-0.4921259843
 24
-0.4921259843
 34
0.0
 15
0.4921259843
 25
0.4921259843
 35
0.0
146
0.0
 13
0.0
 23
0.0
 33
0.0
 16
1.0
 26
0.0
 36
0.0
 17
0.0
 27
1.0
 37
0.0
 76
     0
330
1F
331
29
  0
MLINESTYLE
  5
18
102
{ACAD_REACTORS
330
17
102
}
330
17
100
AcDbMlineStyle
  2
Standard
 70
     0
  3

 62
   256
 51
90.0
 52
90.0
 71
     2
 49
0.5
 62
   256
  6
BYLAYER
 49
-0.5
 62
   256
  6
BYLAYER
  0
ACDBPLACEHOLDER
  5
F
102
{ACAD_REACTORS
330
E
102
}
330
E
  0
ENDSEC
  0
EOF
